<svg xmlns="http://www.w3.org/2000/svg" width="198.815" height="60.397" viewBox="0 0 198.815 60.397">
  <g id="Group_5378" data-name="Group 5378" transform="translate(11271.815 -7550.126)">
    <rect id="Rectangle_4507" data-name="Rectangle 4507" width="195" height="55" transform="translate(-11268 7553)" fill="rgba(255,255,255,0)"/>
    <g id="Group_5333" data-name="Group 5333" transform="translate(-11188.079 7574.593)">
      <g id="Group_5332" data-name="Group 5332" transform="translate(0.079 -12.593)">
        <g id="Group_5385" data-name="Group 5385" transform="translate(0)">
          <path id="Path_15234" data-name="Path 15234" d="M133.639,63.446c0,3.862-2.669,6.506-6.826,6.506H121.93V56.94h4.883C130.957,56.94,133.639,59.572,133.639,63.446ZM126.6,67.21a3.453,3.453,0,0,0,3.8-3.763,3.48,3.48,0,0,0-3.8-3.8h-1.5V67.21Z" transform="translate(-121.93 -56.94)" fill="#a5a5a5"/>
          <path id="Path_15235" data-name="Path 15235" d="M138.1,69.631a5.326,5.326,0,1,1,5.411-5.325A5.077,5.077,0,0,1,138.1,69.631Zm0-2.743c1.131,0,2.189-.836,2.189-2.583s-1.033-2.583-2.152-2.583c-1.144,0-2.152.812-2.152,2.583C135.995,66.052,136.954,66.888,138.1,66.888Z" transform="translate(-119.44 -56.471)" fill="#a5a5a5"/>
          <path id="Path_15236" data-name="Path 15236" d="M147.572,69.631c-2.767,0-4.624-1.537-4.772-3.542h3.136a1.454,1.454,0,0,0,1.6,1.205c.812,0,1.242-.369,1.242-.836,0-1.673-5.633-.467-5.633-4.268,0-1.759,1.5-3.21,4.206-3.21,2.669,0,4.157,1.488,4.354,3.53h-2.927a1.37,1.37,0,0,0-1.525-1.168c-.738,0-1.144.3-1.144.8,0,1.648,5.6.48,5.658,4.342C151.766,68.278,150.167,69.631,147.572,69.631Z" transform="translate(-117.133 -56.471)" fill="#a5a5a5"/>
          <path id="Path_15237" data-name="Path 15237" d="M156.372,69.631c-2.767,0-4.624-1.537-4.772-3.542h3.136a1.454,1.454,0,0,0,1.6,1.205c.812,0,1.242-.369,1.242-.836,0-1.673-5.633-.467-5.633-4.268,0-1.759,1.5-3.21,4.206-3.21,2.669,0,4.157,1.488,4.354,3.53h-2.927a1.37,1.37,0,0,0-1.525-1.168c-.738,0-1.144.3-1.144.8,0,1.648,5.6.48,5.658,4.342C160.566,68.278,158.967,69.631,156.372,69.631Z" transform="translate(-115.11 -56.471)" fill="#a5a5a5"/>
        </g>
        <g id="Group_5384" data-name="Group 5384" transform="translate(0 15.89)">
          <path id="Path_15238" data-name="Path 15238" d="M169.209,70.122c-2.8,0-4.993-1.39-5.079-4.022h3.37a1.5,1.5,0,0,0,1.611,1.488c.922,0,1.525-.467,1.525-1.23,0-2.411-6.506-1.107-6.469-5.731,0-2.472,2.017-3.837,4.747-3.837,2.841,0,4.747,1.414,4.883,3.9h-3.431a1.408,1.408,0,0,0-1.5-1.353,1.155,1.155,0,0,0-1.341,1.193c0,2.263,6.432,1.242,6.432,5.6C173.957,68.3,172.247,70.122,169.209,70.122Z" transform="translate(-164.13 -55.142)" fill="#a5a5a5"/>
          <path id="Path_15239" data-name="Path 15239" d="M178.8,69.631a4.99,4.99,0,0,1-5.227-5.325A4.971,4.971,0,0,1,178.8,58.98a4.874,4.874,0,0,1,5.153,5.153,7.92,7.92,0,0,1-.062.922h-7.183a1.916,1.916,0,0,0,1.968,1.98,1.686,1.686,0,0,0,1.648-1h3.37A4.781,4.781,0,0,1,178.8,69.631Zm-2.054-6.322h3.973a1.788,1.788,0,0,0-1.943-1.783A1.971,1.971,0,0,0,176.743,63.309Z" transform="translate(-161.96 -54.638)" fill="#a5a5a5"/>
          <path id="Path_15240" data-name="Path 15240" d="M188.43,58.99a4.741,4.741,0,0,1,4.969,3.9h-3.37a1.632,1.632,0,0,0-1.648-1.193c-1.132,0-1.906.886-1.906,2.62s.775,2.62,1.906,2.62a1.6,1.6,0,0,0,1.648-1.193h3.37a4.805,4.805,0,0,1-4.969,3.9,4.962,4.962,0,0,1-5.19-5.325A4.969,4.969,0,0,1,188.43,58.99Z" transform="translate(-159.736 -54.636)" fill="#a5a5a5"/>
          <path id="Path_15241" data-name="Path 15241" d="M203.489,69.456h-3.173V68.041a3.787,3.787,0,0,1-3.136,1.525c-2.4,0-4.009-1.648-4.009-4.415V59.1h3.149v5.621a2,2,0,1,0,3.985,0V59.1h3.173V69.456Z" transform="translate(-157.454 -54.611)" fill="#a5a5a5"/>
          <path id="Path_15242" data-name="Path 15242" d="M206.973,69.474H203.8V59.131h3.173v1.722a3.861,3.861,0,0,1,3.247-1.833v3.358h-.873c-1.5,0-2.374.517-2.374,2.3Z" transform="translate(-155.01 -54.629)" fill="#a5a5a5"/>
          <path id="Path_15243" data-name="Path 15243" d="M210.39,57.172a1.89,1.89,0,1,1,1.894,1.71A1.757,1.757,0,0,1,210.39,57.172Zm.3,2.78h3.173V70.295h-3.173Z" transform="translate(-153.494 -55.45)" fill="#a5a5a5"/>
          <path id="Path_15244" data-name="Path 15244" d="M216.107,62.213H214.84V59.581h1.267V57.06h3.173v2.521h2.079v2.632H219.28V66.37c0,.615.258.873.959.873h1.132v2.693H219.76c-2.152,0-3.653-.91-3.653-3.6Z" transform="translate(-152.472 -55.08)" fill="#a5a5a5"/>
          <path id="Path_15245" data-name="Path 15245" d="M229.322,59.11h3.431l-6.494,15.263h-3.407l2.374-5.264-4.206-10h3.542l2.4,6.469Z" transform="translate(-151.051 -54.608)" fill="#a5a5a5"/>
        </g>
      </g>
    </g>
    <g id="Group_5340" data-name="Group 5340" transform="translate(-11271.815 7550.126)">
      <g id="Group_5335" data-name="Group 5335" transform="translate(30.56 32.714)">
        <g id="Group_5334" data-name="Group 5334">
          <path id="Path_15246" data-name="Path 15246" d="M72.13,74.113V63.05h2.7a5.2,5.2,0,0,1,2.187.366,2.11,2.11,0,0,1,1.109,1.131,5.164,5.164,0,0,1,.323,1.971v4.029a5.424,5.424,0,0,1-.323,2.025,2.151,2.151,0,0,1-1.1,1.163,5.052,5.052,0,0,1-2.154.377Zm2.251-1.562h.474a1.547,1.547,0,0,0,.894-.194.881.881,0,0,0,.334-.592,6,6,0,0,0,.065-.959V66.249a4.294,4.294,0,0,0-.086-.926.788.788,0,0,0-.355-.517,1.733,1.733,0,0,0-.873-.162h-.463v7.907Z" transform="translate(-72.13 -62.921)" fill="#a5a5a5"/>
          <path id="Path_15247" data-name="Path 15247" d="M82.595,74.273a3.52,3.52,0,0,1-1.7-.377,2.409,2.409,0,0,1-1.034-1.131,5.081,5.081,0,0,1-.4-1.928l1.939-.323a6.1,6.1,0,0,0,.14,1.142,1.354,1.354,0,0,0,.355.679.83.83,0,0,0,.592.226.622.622,0,0,0,.592-.269,1.2,1.2,0,0,0,.162-.625,1.929,1.929,0,0,0-.334-1.163,5.465,5.465,0,0,0-.883-.948l-1.142-1a4.5,4.5,0,0,1-1-1.174,3.121,3.121,0,0,1-.388-1.616,2.728,2.728,0,0,1,.8-2.1,3.119,3.119,0,0,1,2.187-.732,2.975,2.975,0,0,1,1.368.269,2.12,2.12,0,0,1,.829.732,2.935,2.935,0,0,1,.409,1,6.147,6.147,0,0,1,.14,1.077l-1.928.291c-.022-.334-.054-.636-.086-.883a1.191,1.191,0,0,0-.248-.6.7.7,0,0,0-.549-.215.659.659,0,0,0-.592.291,1.14,1.14,0,0,0-.194.646,1.577,1.577,0,0,0,.269.959,4.375,4.375,0,0,0,.732.786l1.12.98a6.573,6.573,0,0,1,1.2,1.368,3.441,3.441,0,0,1,.5,1.907,2.831,2.831,0,0,1-.355,1.411,2.55,2.55,0,0,1-.991.98A3.136,3.136,0,0,1,82.595,74.273Z" transform="translate(-71.564 -62.93)" fill="#a5a5a5"/>
        </g>
      </g>
      <g id="Group_5339" data-name="Group 5339">
        <g id="Shield_1_" transform="translate(13.982 9.361)">
          <g id="Group_5336" data-name="Group 5336">
            <path id="Path_15248" data-name="Path 15248" d="M59.121,56.244c-.129-1.185-.226-2.391-.291-3.63,4.977-4.955,10.33-9.328,21.188-9.328s16.212,4.373,21.188,9.328c-.065,1.25-.172,2.456-.291,3.63a26.9,26.9,0,0,0,2.251-2.467c.043-.646.086-1.3.108-1.971C97.867,46.4,92.125,41.25,80.007,41.25S62.158,46.4,56.74,51.806c.032.668.065,1.325.108,1.971A32.6,32.6,0,0,0,59.121,56.244Z" transform="translate(-56.74 -41.25)" fill="#a5a5a5"/>
            <path id="Path_15249" data-name="Path 15249" d="M92.088,76.35a33.852,33.852,0,0,1-12.7,11.009,32.549,32.549,0,0,1-9.8-7.389,41.146,41.146,0,0,1-2.941-3.6c-.485.323-1.077.679-1.745,1.034,6.6,9.3,14.477,12.172,14.477,12.172s7.874-2.865,14.477-12.161C93.176,77.039,92.584,76.684,92.088,76.35Z" transform="translate(-56.11 -38.541)" fill="#a5a5a5"/>
          </g>
          <g id="Group_5337" data-name="Group 5337" transform="translate(2.919 2.855)">
            <path id="Path_15250" data-name="Path 15250" d="M79.214,85.128C74.7,83.4,67.15,75.94,67.15,75.94a38.946,38.946,0,0,0,2.865,3.522,32.169,32.169,0,0,0,9.2,7.045,31.96,31.96,0,0,0,9.2-7.045,36.168,36.168,0,0,0,2.865-3.522C91.279,75.929,83.728,83.4,79.214,85.128Z" transform="translate(-58.856 -41.427)" fill="#a5a5a5"/>
            <path id="Path_15251" data-name="Path 15251" d="M79.809,43.9c-10.427,0-15.619,4.147-20.359,8.833,4.287-3.113,10.287-7.745,20.359-7.745s16.072,4.632,20.359,7.745C95.428,48.047,90.236,43.9,79.809,43.9Z" transform="translate(-59.45 -43.9)" fill="#a5a5a5"/>
          </g>
        </g>
        <g id="Wings_3_" transform="translate(0 8.327)">
          <g id="R_3_" transform="translate(44.832)">
            <path id="Path_15252" data-name="Path 15252" d="M113.645,52.89c-1.928,4.643-.9,10.384-6.043,13.228-4.007,2.219-8.682,2.671-13,2.381a19.461,19.461,0,0,0,.582-3.35C103.1,63.4,108.528,59.407,113.645,52.89Z" transform="translate(-84.668 -39.318)" fill="#a5a5a5"/>
            <path id="Path_15253" data-name="Path 15253" d="M114.492,64.31c-3.382,3.382-4.029,7.519-8.951,9.1-4.126,1.325-9.253.269-12.711-1.088A19.816,19.816,0,0,0,94.2,69.373C101.609,70.17,107.77,68.339,114.492,64.31Z" transform="translate(-84.805 -38.436)" fill="#a5a5a5"/>
            <path id="Path_15254" data-name="Path 15254" d="M109.862,74.163c-4.556,2.133-6.28,4.481-10.567,4.481A16.983,16.983,0,0,1,90.29,75.4a19.46,19.46,0,0,0,1.9-2.391C97.766,75.143,103.345,75.315,109.862,74.163Z" transform="translate(-85.001 -37.765)" fill="#a5a5a5"/>
            <path id="Path_15255" data-name="Path 15255" d="M90.227,66.681a12.62,12.62,0,0,0-1.066-2.7,45.445,45.445,0,0,0,5.138-2.79,29.536,29.536,0,0,0,13.68-20.9c.054,5.354,3.188,11.289-.377,16.7-2.8,4.244-7.81,6.409-13.012,8.187a18.338,18.338,0,0,1-9.21,15.21A12.839,12.839,0,0,0,90.227,66.681Z" transform="translate(-85.38 -40.29)" fill="#a5a5a5"/>
          </g>
          <g id="L_3_">
            <path id="Path_15256" data-name="Path 15256" d="M44.41,52.89c1.928,4.643.9,10.384,6.043,13.228,4.007,2.219,8.682,2.671,13,2.381a19.459,19.459,0,0,1-.582-3.35C54.966,63.4,49.537,59.407,44.41,52.89Z" transform="translate(-43.71 -39.318)" fill="#a5a5a5"/>
            <path id="Path_15257" data-name="Path 15257" d="M43.76,64.31c3.382,3.382,4.029,7.519,8.951,9.1,4.126,1.325,9.253.269,12.711-1.088a19.817,19.817,0,0,1-1.368-2.951C56.643,70.17,50.471,68.339,43.76,64.31Z" transform="translate(-43.76 -38.436)" fill="#a5a5a5"/>
            <path id="Path_15258" data-name="Path 15258" d="M48.23,74.163c4.556,2.133,6.28,4.481,10.567,4.481A16.983,16.983,0,0,0,67.8,75.4a19.46,19.46,0,0,1-1.9-2.391C60.338,75.143,54.747,75.315,48.23,74.163Z" transform="translate(-43.415 -37.765)" fill="#a5a5a5"/>
            <path id="Path_15259" data-name="Path 15259" d="M68.177,66.681a12.619,12.619,0,0,1,1.066-2.7,45.445,45.445,0,0,1-5.138-2.79,29.536,29.536,0,0,1-13.68-20.9c-.054,5.354-3.188,11.289.377,16.7,2.8,4.244,7.81,6.409,13.012,8.187a18.338,18.338,0,0,0,9.21,15.21A12.839,12.839,0,0,1,68.177,66.681Z" transform="translate(-43.348 -40.29)" fill="#a5a5a5"/>
          </g>
        </g>
        <path id="Bird_Head_2_" d="M74.617,57.344a12.829,12.829,0,0,1,7.939-.075,9.067,9.067,0,0,1-.862-4.406,3.49,3.49,0,0,0,3.415.463c-3.522-.732-3.145-3.953-4.9-5.289a3.694,3.694,0,0,0-2.811-.754c-.517-.355-2.747-1.67-3.576-.2C76.728,46.755,76.793,54.479,74.617,57.344Z" transform="translate(-41.44 -31.492)" fill="#a5a5a5"/>
        <g id="Group_5338" data-name="Group 5338" transform="translate(13.368)">
          <path id="Path_15260" data-name="Path 15260" d="M76.827,36.879,75.05,35.145l2.456-.355,1.1-2.23,1.1,2.23,2.456.355-1.777,1.734.42,2.445-2.2-1.153-2.2,1.153Z" transform="translate(-54.713 -32.56)" fill="#a5a5a5"/>
          <path id="Path_15261" data-name="Path 15261" d="M89.205,40.028l-1.745.237.873-1.53-.765-1.583,1.723.355,1.271-1.217.194,1.745,1.551.84-1.6.722-.312,1.734Z" transform="translate(-53.755 -32.272)" fill="#a5a5a5"/>
          <path id="Path_15262" data-name="Path 15262" d="M97.573,44.984l-1.713-.377L97.2,43.476l-.172-1.756,1.5.926,1.616-.711-.42,1.713,1.174,1.314-1.756.129-.894,1.519Z" transform="translate(-53.107 -31.853)" fill="#a5a5a5"/>
          <path id="Path_15263" data-name="Path 15263" d="M66.345,39.6l-1.605-.722,1.551-.84.194-1.745,1.271,1.217,1.723-.355-.765,1.583.873,1.53-1.745-.237-1.185,1.3Z" transform="translate(-55.509 -32.272)" fill="#a5a5a5"/>
          <path id="Path_15264" data-name="Path 15264" d="M57.926,45.092l-1.756-.129,1.174-1.314-.42-1.713,1.6.711,1.508-.926-.183,1.756L61.2,44.607l-1.723.377-.668,1.627Z" transform="translate(-56.17 -31.853)" fill="#a5a5a5"/>
        </g>
      </g>
    </g>
  </g>
</svg>
