<svg xmlns="http://www.w3.org/2000/svg" width="195" height="55" viewBox="0 0 195 55">
  <g id="Group_5379" data-name="Group 5379" transform="translate(11058 -7553)">
    <rect id="Rectangle_4508" data-name="Rectangle 4508" width="195" height="55" transform="translate(-11058 7553)" fill="rgba(255,255,255,0)"/>
    <g id="Group_5350" data-name="Group 5350" transform="translate(-11103.28 7433.85)">
      <path id="Path_15307" data-name="Path 15307" d="M97.27,127.23,56.43,151.55v15.24L45.28,146.48l15.78-27.33H92.61Z" fill="#a5a5a5"/>
      <path id="Path_15308" data-name="Path 15308" d="M108.39,146.48,92.61,173.8H61.06l-3.65-6.32V152.09l41.35-21.02Z" fill="#a5a5a5"/>
    </g>
    <g id="Group_5354" data-name="Group 5354" transform="translate(-11101.28 7433.85)">
      <g id="Group_5353" data-name="Group 5353">
        <g id="Group_5351" data-name="Group 5351">
          <path id="Path_15309" data-name="Path 15309" d="M122.62,153.05a5.8,5.8,0,0,1-3.56-.96,4.982,4.982,0,0,1-1.76-2.58,12.383,12.383,0,0,1-.49-3.62v-7.62a13.1,13.1,0,0,1,.49-3.81,4.621,4.621,0,0,1,1.76-2.52,6.139,6.139,0,0,1,3.56-.89,5.957,5.957,0,0,1,3.21.75,4.217,4.217,0,0,1,1.71,2.13,9.391,9.391,0,0,1,.52,3.33v1.7h-2.85v-1.52a16.644,16.644,0,0,0-.12-2.12,2.3,2.3,0,0,0-.65-1.42,2.541,2.541,0,0,0-1.78-.51,2.635,2.635,0,0,0-1.86.55,2.682,2.682,0,0,0-.76,1.54,13.372,13.372,0,0,0-.17,2.33v8.55a9.739,9.739,0,0,0,.27,2.57,2.226,2.226,0,0,0,.88,1.34,2.964,2.964,0,0,0,1.65.4,2.365,2.365,0,0,0,1.76-.55,2.58,2.58,0,0,0,.67-1.5,16.293,16.293,0,0,0,.13-2.24v-1.6h2.85v1.6a11.525,11.525,0,0,1-.48,3.48,4.457,4.457,0,0,1-1.65,2.34A5.679,5.679,0,0,1,122.62,153.05Z" fill="#a5a5a5"/>
          <path id="Path_15310" data-name="Path 15310" d="M131.09,152.81V131.24h2.96v21.57Z" fill="#a5a5a5"/>
          <path id="Path_15311" data-name="Path 15311" d="M139.9,152.81V133.48h-3.65v-2.24h10.2v2.24h-3.54v19.33Z" fill="#a5a5a5"/>
          <path id="Path_15312" data-name="Path 15312" d="M148.69,152.81V131.24h2.96v21.57Z" fill="#a5a5a5"/>
          <path id="Path_15313" data-name="Path 15313" d="M160.22,153.05a5.621,5.621,0,0,1-3.1-.8,5.026,5.026,0,0,1-1.88-2.21,9.252,9.252,0,0,1-.75-3.28l2.66-.72a11.457,11.457,0,0,0,.36,2.21,3.925,3.925,0,0,0,.92,1.74,2.343,2.343,0,0,0,1.78.68,2.3,2.3,0,0,0,1.77-.65,2.67,2.67,0,0,0,.6-1.88,3.819,3.819,0,0,0-.67-2.36,12.483,12.483,0,0,0-1.68-1.8l-3.62-3.2a6.089,6.089,0,0,1-1.57-2.04,6.522,6.522,0,0,1-.51-2.73,4.853,4.853,0,0,1,1.36-3.68,5.129,5.129,0,0,1,3.7-1.31,7.013,7.013,0,0,1,2.25.33,3.794,3.794,0,0,1,1.62,1.03,5.132,5.132,0,0,1,1.04,1.74,9.765,9.765,0,0,1,.52,2.46l-2.56.69a10.422,10.422,0,0,0-.32-1.96,2.969,2.969,0,0,0-.84-1.44,2.906,2.906,0,0,0-3.47.05,2.328,2.328,0,0,0-.62,1.77,3.482,3.482,0,0,0,.33,1.62,4.73,4.73,0,0,0,1.08,1.31l3.65,3.2a11.382,11.382,0,0,1,2.16,2.54,6.417,6.417,0,0,1,.93,3.5,5.4,5.4,0,0,1-.67,2.76,4.493,4.493,0,0,1-1.82,1.77A5.532,5.532,0,0,1,160.22,153.05Z" fill="#a5a5a5"/>
          <path id="Path_15314" data-name="Path 15314" d="M167.73,152.81V131.24h8.36v2.24h-5.35v7.14h4.34v2.13h-4.34v7.91h5.41v2.16h-8.42Z" fill="#a5a5a5"/>
          <path id="Path_15315" data-name="Path 15315" d="M183.98,153.05a5.8,5.8,0,0,1-3.56-.96,4.982,4.982,0,0,1-1.76-2.58,12.383,12.383,0,0,1-.49-3.62v-7.62a13.1,13.1,0,0,1,.49-3.81,4.621,4.621,0,0,1,1.76-2.52,6.139,6.139,0,0,1,3.56-.89,5.957,5.957,0,0,1,3.21.75,4.217,4.217,0,0,1,1.71,2.13,9.391,9.391,0,0,1,.52,3.33v1.7h-2.85v-1.52a16.644,16.644,0,0,0-.12-2.12,2.3,2.3,0,0,0-.65-1.42,2.541,2.541,0,0,0-1.78-.51,2.635,2.635,0,0,0-1.86.55,2.682,2.682,0,0,0-.76,1.54,13.372,13.372,0,0,0-.17,2.33v8.55a9.739,9.739,0,0,0,.27,2.57,2.226,2.226,0,0,0,.88,1.34,2.964,2.964,0,0,0,1.65.4,2.365,2.365,0,0,0,1.76-.55,2.58,2.58,0,0,0,.67-1.5,16.293,16.293,0,0,0,.13-2.24v-1.6h2.85v1.6a11.525,11.525,0,0,1-.48,3.48,4.457,4.457,0,0,1-1.65,2.34A5.68,5.68,0,0,1,183.98,153.05Z" fill="#a5a5a5"/>
          <path id="Path_15316" data-name="Path 15316" d="M197.85,153.05a5.984,5.984,0,0,1-3.6-.93,4.616,4.616,0,0,1-1.7-2.62,15.5,15.5,0,0,1-.45-3.95v-14.3h2.88v14.43a15.148,15.148,0,0,0,.19,2.53,3.375,3.375,0,0,0,.81,1.81,2.46,2.46,0,0,0,1.88.67,2.433,2.433,0,0,0,1.89-.67,3.48,3.48,0,0,0,.8-1.81,16.292,16.292,0,0,0,.19-2.53V131.25h2.85v14.3a15.391,15.391,0,0,1-.45,3.95,4.67,4.67,0,0,1-1.69,2.62A5.985,5.985,0,0,1,197.85,153.05Z" fill="#a5a5a5"/>
          <path id="Path_15317" data-name="Path 15317" d="M206.75,152.81V131.24h4.34a9.6,9.6,0,0,1,3.57.57,3.946,3.946,0,0,1,2.09,1.84,7.038,7.038,0,0,1,.68,3.32,9.024,9.024,0,0,1-.27,2.28,4.453,4.453,0,0,1-.85,1.73,3.32,3.32,0,0,1-1.54,1.02l3.06,10.81h-2.9l-2.82-10.12h-2.34v10.12Zm3.01-12.28h1.14a5.789,5.789,0,0,0,2.08-.32,2.154,2.154,0,0,0,1.17-1.09,5.025,5.025,0,0,0,.37-2.16,4.3,4.3,0,0,0-.69-2.73,3.472,3.472,0,0,0-2.74-.84h-1.33v7.14Z" fill="#a5a5a5"/>
          <path id="Path_15318" data-name="Path 15318" d="M220.57,152.81V131.24h8.36v2.24h-5.35v7.14h4.34v2.13h-4.34v7.91h5.41v2.16h-8.42Z" fill="#a5a5a5"/>
        </g>
        <g id="Group_5352" data-name="Group 5352">
          <path id="Path_15319" data-name="Path 15319" d="M119.29,166.61a2.1,2.1,0,0,1-1.14-.29,1.949,1.949,0,0,1-.69-.81,3.161,3.161,0,0,1-.27-1.2l.98-.26a4.279,4.279,0,0,0,.13.81,1.459,1.459,0,0,0,.34.64.852.852,0,0,0,.65.25.838.838,0,0,0,.65-.24.97.97,0,0,0,.22-.69,1.394,1.394,0,0,0-.24-.86,4.169,4.169,0,0,0-.62-.66l-1.33-1.17a2.374,2.374,0,0,1-.58-.75,2.288,2.288,0,0,1-.19-1,1.8,1.8,0,0,1,.5-1.35,1.866,1.866,0,0,1,1.36-.48,2.638,2.638,0,0,1,.83.12,1.437,1.437,0,0,1,.6.38,1.757,1.757,0,0,1,.38.64,3.752,3.752,0,0,1,.19.9l-.94.25a3.862,3.862,0,0,0-.12-.72,1.086,1.086,0,0,0-.31-.53.933.933,0,0,0-.63-.2.786.786,0,0,0-.87.87,1.336,1.336,0,0,0,.12.6,1.545,1.545,0,0,0,.4.48l1.34,1.17a4.224,4.224,0,0,1,.79.93,2.332,2.332,0,0,1,.34,1.28,2.013,2.013,0,0,1-.24,1.01,1.675,1.675,0,0,1-.67.65A2.055,2.055,0,0,1,119.29,166.61Z" fill="#a5a5a5"/>
          <path id="Path_15320" data-name="Path 15320" d="M124.02,166.52v-7.91h3.07v.82h-1.96v2.62h1.59v.78h-1.59v2.9h1.98v.79h-3.09Z" fill="#a5a5a5"/>
          <path id="Path_15321" data-name="Path 15321" d="M131.95,166.61a2.138,2.138,0,0,1-1.3-.35,1.778,1.778,0,0,1-.64-.95,4.6,4.6,0,0,1-.18-1.33v-2.79a4.906,4.906,0,0,1,.18-1.4,1.665,1.665,0,0,1,.64-.92,2.211,2.211,0,0,1,1.3-.33,2.241,2.241,0,0,1,1.18.27,1.531,1.531,0,0,1,.63.78,3.436,3.436,0,0,1,.19,1.22v.62H132.9v-.56a6.143,6.143,0,0,0-.04-.78.846.846,0,0,0-.24-.52.951.951,0,0,0-.65-.19.986.986,0,0,0-.68.2.964.964,0,0,0-.28.57,5.3,5.3,0,0,0-.06.85v3.13a3.361,3.361,0,0,0,.1.94.775.775,0,0,0,.32.49,1.079,1.079,0,0,0,.61.15.875.875,0,0,0,.64-.2.933.933,0,0,0,.24-.55,6.436,6.436,0,0,0,.05-.82v-.59h1.05v.59a4.054,4.054,0,0,1-.18,1.27,1.645,1.645,0,0,1-.61.86A1.884,1.884,0,0,1,131.95,166.61Z" fill="#a5a5a5"/>
          <path id="Path_15322" data-name="Path 15322" d="M139.01,166.61a2.184,2.184,0,0,1-1.32-.34,1.753,1.753,0,0,1-.63-.96,5.659,5.659,0,0,1-.17-1.45v-5.24h1.05v5.29a5.332,5.332,0,0,0,.07.93,1.266,1.266,0,0,0,.3.66,1.112,1.112,0,0,0,1.38,0,1.185,1.185,0,0,0,.29-.66,6.527,6.527,0,0,0,.07-.93v-5.29h1.04v5.24a5.659,5.659,0,0,1-.17,1.45,1.739,1.739,0,0,1-.62.96A2.028,2.028,0,0,1,139.01,166.61Z" fill="#a5a5a5"/>
          <path id="Path_15323" data-name="Path 15323" d="M144.24,166.52v-7.91h1.59a3.524,3.524,0,0,1,1.31.21,1.538,1.538,0,0,1,.77.67,2.517,2.517,0,0,1,.25,1.22,3.172,3.172,0,0,1-.1.84,1.552,1.552,0,0,1-.31.63,1.223,1.223,0,0,1-.57.38l1.12,3.96h-1.06l-1.04-3.71h-.86v3.71h-1.1Zm1.11-4.5h.42a2.016,2.016,0,0,0,.76-.12.8.8,0,0,0,.43-.4,1.863,1.863,0,0,0,.14-.79,1.562,1.562,0,0,0-.25-1,1.255,1.255,0,0,0-1.01-.31h-.49v2.62Z" fill="#a5a5a5"/>
          <path id="Path_15324" data-name="Path 15324" d="M151.34,166.52v-7.91h1.08v7.91Z" fill="#a5a5a5"/>
          <path id="Path_15325" data-name="Path 15325" d="M156.55,166.52v-7.09h-1.34v-.82h3.74v.82h-1.3v7.09Z" fill="#a5a5a5"/>
          <path id="Path_15326" data-name="Path 15326" d="M162.9,166.52v-2.79l-1.71-5.12h1.02l1.21,3.82,1.19-3.82h1.04l-1.7,5.12v2.79Z" fill="#a5a5a5"/>
          <path id="Path_15327" data-name="Path 15327" d="M174.43,166.61a2.1,2.1,0,0,1-1.14-.29,1.949,1.949,0,0,1-.69-.81,3.161,3.161,0,0,1-.27-1.2l.98-.26a4.279,4.279,0,0,0,.13.81,1.459,1.459,0,0,0,.34.64.852.852,0,0,0,.65.25.838.838,0,0,0,.65-.24.97.97,0,0,0,.22-.69,1.394,1.394,0,0,0-.24-.86,4.169,4.169,0,0,0-.62-.66l-1.33-1.17a2.374,2.374,0,0,1-.58-.75,2.442,2.442,0,0,1-.19-1,1.8,1.8,0,0,1,.5-1.35,1.866,1.866,0,0,1,1.36-.48,2.638,2.638,0,0,1,.83.12,1.437,1.437,0,0,1,.6.38,1.757,1.757,0,0,1,.38.64,3.752,3.752,0,0,1,.19.9l-.94.25a3.863,3.863,0,0,0-.12-.72,1.086,1.086,0,0,0-.31-.53.933.933,0,0,0-.63-.2.786.786,0,0,0-.87.87,1.336,1.336,0,0,0,.12.6,1.545,1.545,0,0,0,.4.48l1.34,1.17a4.224,4.224,0,0,1,.79.93,2.332,2.332,0,0,1,.34,1.28,2.013,2.013,0,0,1-.24,1.01,1.675,1.675,0,0,1-.67.65A2.055,2.055,0,0,1,174.43,166.61Z" fill="#a5a5a5"/>
          <path id="Path_15328" data-name="Path 15328" d="M181.18,166.61a2.311,2.311,0,0,1-1.28-.31,1.692,1.692,0,0,1-.68-.89,4.224,4.224,0,0,1-.21-1.36v-3a3.808,3.808,0,0,1,.21-1.34,1.722,1.722,0,0,1,.68-.86,2.364,2.364,0,0,1,1.27-.3,2.34,2.34,0,0,1,1.27.3,1.722,1.722,0,0,1,.68.86,3.808,3.808,0,0,1,.21,1.34v3.01a3.987,3.987,0,0,1-.21,1.35,1.8,1.8,0,0,1-.68.89A2.218,2.218,0,0,1,181.18,166.61Zm0-.87a1.038,1.038,0,0,0,.66-.18.877.877,0,0,0,.3-.51,3.437,3.437,0,0,0,.08-.77v-3.47a3.343,3.343,0,0,0-.08-.76.856.856,0,0,0-.3-.49,1.106,1.106,0,0,0-.66-.17,1.141,1.141,0,0,0-.67.17.837.837,0,0,0-.31.49,3.28,3.28,0,0,0-.08.76v3.47a3.5,3.5,0,0,0,.08.77.84.84,0,0,0,.31.51A1.051,1.051,0,0,0,181.18,165.74Z" fill="#a5a5a5"/>
          <path id="Path_15329" data-name="Path 15329" d="M186.39,166.52v-7.91h1.1v7.12h2.02v.79h-3.12Z" fill="#a5a5a5"/>
          <path id="Path_15330" data-name="Path 15330" d="M194.28,166.61a2.184,2.184,0,0,1-1.32-.34,1.753,1.753,0,0,1-.63-.96,5.659,5.659,0,0,1-.17-1.45v-5.24h1.05v5.29a5.332,5.332,0,0,0,.07.93,1.266,1.266,0,0,0,.3.66,1.112,1.112,0,0,0,1.38,0,1.185,1.185,0,0,0,.29-.66,6.527,6.527,0,0,0,.07-.93v-5.29h1.04v5.24a5.659,5.659,0,0,1-.17,1.45,1.739,1.739,0,0,1-.62.96A2.009,2.009,0,0,1,194.28,166.61Z" fill="#a5a5a5"/>
          <path id="Path_15331" data-name="Path 15331" d="M200.39,166.52v-7.09h-1.34v-.82h3.74v.82h-1.3v7.09Z" fill="#a5a5a5"/>
          <path id="Path_15332" data-name="Path 15332" d="M205.58,166.52v-7.91h1.08v7.91Z" fill="#a5a5a5"/>
          <path id="Path_15333" data-name="Path 15333" d="M211.94,166.61a2.311,2.311,0,0,1-1.28-.31,1.692,1.692,0,0,1-.68-.89,4.224,4.224,0,0,1-.21-1.36v-3a3.808,3.808,0,0,1,.21-1.34,1.722,1.722,0,0,1,.68-.86,2.364,2.364,0,0,1,1.27-.3,2.34,2.34,0,0,1,1.27.3,1.722,1.722,0,0,1,.68.86,3.808,3.808,0,0,1,.21,1.34v3.01a3.987,3.987,0,0,1-.21,1.35,1.8,1.8,0,0,1-.68.89A2.277,2.277,0,0,1,211.94,166.61Zm0-.87a1.038,1.038,0,0,0,.66-.18.877.877,0,0,0,.3-.51,3.437,3.437,0,0,0,.08-.77v-3.47a3.343,3.343,0,0,0-.08-.76.856.856,0,0,0-.3-.49,1.106,1.106,0,0,0-.66-.17,1.141,1.141,0,0,0-.67.17.837.837,0,0,0-.31.49,3.28,3.28,0,0,0-.08.76v3.47a3.5,3.5,0,0,0,.08.77.84.84,0,0,0,.31.51A1.07,1.07,0,0,0,211.94,165.74Z" fill="#a5a5a5"/>
          <path id="Path_15334" data-name="Path 15334" d="M217.16,166.52v-7.91h.75l2.25,5.25v-5.25h.92v7.91h-.7l-2.28-5.4v5.4Z" fill="#a5a5a5"/>
          <path id="Path_15335" data-name="Path 15335" d="M226.15,166.61a2.1,2.1,0,0,1-1.14-.29,1.949,1.949,0,0,1-.69-.81,3.161,3.161,0,0,1-.27-1.2l.98-.26a4.279,4.279,0,0,0,.13.81,1.459,1.459,0,0,0,.34.64.852.852,0,0,0,.65.25.838.838,0,0,0,.65-.24.97.97,0,0,0,.22-.69,1.394,1.394,0,0,0-.24-.86,4.169,4.169,0,0,0-.62-.66l-1.33-1.17a2.374,2.374,0,0,1-.58-.75,2.288,2.288,0,0,1-.19-1,1.8,1.8,0,0,1,.5-1.35,1.866,1.866,0,0,1,1.36-.48,2.638,2.638,0,0,1,.83.12,1.437,1.437,0,0,1,.6.38,1.757,1.757,0,0,1,.38.64,3.752,3.752,0,0,1,.19.9l-.94.25a3.863,3.863,0,0,0-.12-.72,1.086,1.086,0,0,0-.31-.53.933.933,0,0,0-.63-.2.786.786,0,0,0-.87.87,1.336,1.336,0,0,0,.12.6,1.545,1.545,0,0,0,.4.48l1.34,1.17a4.224,4.224,0,0,1,.79.93,2.332,2.332,0,0,1,.34,1.28,2.013,2.013,0,0,1-.24,1.01,1.675,1.675,0,0,1-.67.65A2.055,2.055,0,0,1,226.15,166.61Z" fill="#a5a5a5"/>
        </g>
      </g>
      <circle id="Ellipse_498" data-name="Ellipse 498" cx="1.56" cy="1.56" r="1.56" transform="translate(130.9 126.35)" fill="#a5a5a5"/>
      <circle id="Ellipse_499" data-name="Ellipse 499" cx="1.56" cy="1.56" r="1.56" transform="translate(148.47 126.35)" fill="#a5a5a5"/>
    </g>
  </g>
</svg>
