<svg xmlns="http://www.w3.org/2000/svg" width="195" height="55" viewBox="0 0 195 55">
  <g id="Group_5380" data-name="Group 5380" transform="translate(10838 -7553)">
    <rect id="Rectangle_4509" data-name="Rectangle 4509" width="195" height="55" transform="translate(-10838 7553)" fill="rgba(255,255,255,0)"/>
    <g id="Group_5360" data-name="Group 5360" transform="translate(-10775 7569.826)">
      <path id="Path_15361" data-name="Path 15361" d="M119.692,233c-.137-.4-.7-1.934-1.713-4.593l-4.645-11.5a16.21,16.21,0,0,0-1-2.239c-.137-.179-.683-.294-1.639-.357l-.126-.126v-.631l.126-.126c1.4.074,2.575.105,3.552.105.914,0,2.123-.032,3.626-.105l.105.105v.757l-.105.105a9.6,9.6,0,0,0-1.976.105.407.407,0,0,0-.326.389,10.417,10.417,0,0,0,.441,1.461c.294.862.546,1.587.778,2.186l4.277,10.814,3.573-8.965c.242-.61.61-1.6,1.082-2.953a12.719,12.719,0,0,0,.715-2.449.422.422,0,0,0-.336-.441,17.111,17.111,0,0,0-2.007-.231l-.126-.105v-.652l.126-.105c1.6.074,2.606.105,3.048.105.357,0,1.272-.032,2.764-.105l.105.105v.652l-.105.105a4.112,4.112,0,0,0-1.188.147.912.912,0,0,0-.357.42c-.105.21-.431.925-.977,2.165l-4.267,10.5q-1.435,3.515-2.039,5.454h-1.387Z" transform="translate(-110.57 -213.02)" fill="#a5a5a5"/>
      <path id="Path_15362" data-name="Path 15362" d="M131.116,213.44l1.713.053c1.125.032,1.86.053,2.2.053.3,0,1.618-.032,3.92-.105l.105.095v.683l-.105.095c-.631.021-1.114.042-1.461.084a1.625,1.625,0,0,0-.746.21.981.981,0,0,0-.3.7,11.693,11.693,0,0,0-.074,1.534l-.032,3.142v6.327l.01,2.669a17.027,17.027,0,0,0,.084,2,1.211,1.211,0,0,0,.2.6.936.936,0,0,0,.494.252,9.717,9.717,0,0,0,1.818.158l.105.084v.683l-.105.105c-.042,0-.851-.032-2.407-.084q-.977-.032-1.513-.032c-.284,0-1.587.032-3.91.105l-.105-.105v-.683l.105-.084a13.535,13.535,0,0,0,1.692-.137,1.246,1.246,0,0,0,.568-.21,1.117,1.117,0,0,0,.231-.557,12.2,12.2,0,0,0,.105-1.892l.01-2.89v-6.327l-.032-2.669c-.011-1.04-.032-1.713-.074-2.007a1.275,1.275,0,0,0-.189-.6.936.936,0,0,0-.494-.242,11.274,11.274,0,0,0-1.818-.147l-.105-.095v-.683Z" transform="translate(-109.529 -213.02)" fill="#a5a5a5"/>
      <path id="Path_15363" data-name="Path 15363" d="M146.108,222.858q3.437-3.106,4.961-4.624c1.019-1.019,1.86-1.85,2.512-2.512a13.026,13.026,0,0,0,1.188-1.282v-.893l.137-.105c.694.032,1.45.053,2.27.053.179,0,.9-.01,2.165-.042l.137.126v.641l-.105.105a6.833,6.833,0,0,0-1.734.147,4.811,4.811,0,0,0-1.356.872c-.6.483-1.282,1.082-2.06,1.8l-5.539,5.055,8.229,7.619c1.324,1.23,2.06,1.9,2.218,2.007a2.216,2.216,0,0,0,.988.189l.095.105v.578l-.095.105c-.525-.032-1.072-.053-1.639-.053-.336,0-1.072.021-2.218.053-.83-.788-1.555-1.482-2.186-2.081s-3.279-3.048-7.966-7.325V226.3l.01,2.669a17.028,17.028,0,0,0,.084,2,1.211,1.211,0,0,0,.2.6.936.936,0,0,0,.494.252,9.718,9.718,0,0,0,1.818.158l.105.084v.683l-.105.105c-.042,0-.851-.032-2.407-.084q-.977-.032-1.513-.032c-.284,0-1.587.032-3.91.105l-.105-.105v-.683l.105-.084a13.534,13.534,0,0,0,1.692-.137,1.246,1.246,0,0,0,.568-.21,1.116,1.116,0,0,0,.231-.557,12.2,12.2,0,0,0,.105-1.892l.011-2.89v-6.327l-.032-2.669c-.01-1.04-.032-1.713-.074-2.007a1.274,1.274,0,0,0-.189-.6.936.936,0,0,0-.494-.242,11.271,11.271,0,0,0-1.818-.147l-.105-.095v-.683l.105-.095,1.713.053c1.125.032,1.86.053,2.2.053.3,0,1.618-.032,3.92-.105l.105.095v.683l-.105.095c-.631.021-1.114.042-1.461.084a1.625,1.625,0,0,0-.746.21.981.981,0,0,0-.3.7,11.693,11.693,0,0,0-.074,1.534l-.032,3.142v2.89Z" transform="translate(-109.031 -213.021)" fill="#a5a5a5"/>
      <path id="Path_15364" data-name="Path 15364" d="M161.036,213.44l1.713.053c1.125.032,1.86.053,2.2.053.3,0,1.618-.032,3.92-.105l.105.095v.683l-.105.095c-.631.021-1.114.042-1.461.084a1.625,1.625,0,0,0-.746.21.981.981,0,0,0-.3.7,11.693,11.693,0,0,0-.074,1.534l-.032,3.142v6.327l.01,2.669a17.025,17.025,0,0,0,.084,2,1.211,1.211,0,0,0,.2.6.936.936,0,0,0,.494.252,9.717,9.717,0,0,0,1.818.158l.105.084v.683l-.105.105c-.042,0-.851-.032-2.407-.084q-.977-.032-1.513-.032c-.284,0-1.587.032-3.91.105l-.105-.105v-.683l.105-.084a13.534,13.534,0,0,0,1.692-.137,1.246,1.246,0,0,0,.568-.21,1.116,1.116,0,0,0,.231-.557,12.2,12.2,0,0,0,.105-1.892l.01-2.89v-6.327L163.6,217.3c-.01-1.04-.032-1.713-.074-2.007a1.23,1.23,0,0,0-.189-.6.936.936,0,0,0-.494-.242,11.274,11.274,0,0,0-1.818-.147l-.105-.095v-.683Z" transform="translate(-108.004 -213.02)" fill="#a5a5a5"/>
      <path id="Path_15365" data-name="Path 15365" d="M170.911,232.849l-.126-.126v-.631l.126-.105a10.228,10.228,0,0,0,1.335-.095.986.986,0,0,0,.641-.273,1.308,1.308,0,0,0,.189-.62c.032-.284.063-.925.095-1.913s.053-1.7.053-2.133V215.908a1.708,1.708,0,0,0-.252-1.03,1.087,1.087,0,0,0-.694-.42,8.824,8.824,0,0,0-1.492-.105l-.105-.105v-.641l.105-.126c1.261.042,2.081.074,2.48.074.925,0,1.682-.021,2.27-.074l4.361,5.665,6.411,8.04q1.167,1.466,2.365,2.775V219.376c0-.326-.01-1.03-.053-2.1s-.074-1.745-.116-2.039a.928.928,0,0,0-.242-.578,1.212,1.212,0,0,0-.641-.221,8.015,8.015,0,0,0-1.282-.084l-.105-.105v-.631l.105-.126c.736.042,1.787.074,3.163.074,1.251,0,2.154-.021,2.722-.074l.126.126v.631l-.105.105a8.924,8.924,0,0,0-1.4.105.919.919,0,0,0-.62.294,1.515,1.515,0,0,0-.168.6q-.047.394-.095,1.892c-.032,1-.053,1.713-.053,2.144v6.495l.01,3.762c.021,1.23.032,2.47.053,3.71a21.442,21.442,0,0,0-2.365-.578l-.967-1.146-2.911-3.552L174.463,216.5v10.489c0,.42.011,1.167.053,2.239a19.076,19.076,0,0,0,.116,1.955,1.025,1.025,0,0,0,.179.473,1.066,1.066,0,0,0,.473.242,6.606,6.606,0,0,0,1.492.126l.105.105v.641l-.105.105a19.573,19.573,0,0,0-2.3-.095C173.118,232.755,171.931,232.786,170.911,232.849Z" transform="translate(-107.507 -213.018)" fill="#a5a5a5"/>
      <path id="Path_15366" data-name="Path 15366" d="M213.421,225.324v.41l-.053.168-.673.4c-.168.105-.263.179-.284.231a4.173,4.173,0,0,0-.105.809c-.042.483-.063,1.082-.063,1.787,0,.788.053,1.65.147,2.585l-.084.137a21.377,21.377,0,0,1-7.693,1.44,12.751,12.751,0,0,1-5.486-1.146,9.1,9.1,0,0,1-3.878-3.405,9.773,9.773,0,0,1-1.44-5.36,9.442,9.442,0,0,1,3.237-7.525,12.459,12.459,0,0,1,8.439-2.785,17.238,17.238,0,0,1,6.873,1.3l.095.147a31.852,31.852,0,0,0-.578,3.846l-.105.095h-.631l-.105-.105-.063-1.45a6.8,6.8,0,0,0-.084-.83.936.936,0,0,0-.294-.326,7.249,7.249,0,0,0-1.261-.631,10.688,10.688,0,0,0-2.049-.631,11.23,11.23,0,0,0-2.2-.2,9.214,9.214,0,0,0-4.435,1.04,6.738,6.738,0,0,0-2.9,3.027,9.907,9.907,0,0,0-.977,4.425,10.564,10.564,0,0,0,1.051,4.687,7.957,7.957,0,0,0,3.027,3.384,8.552,8.552,0,0,0,4.582,1.219,12.668,12.668,0,0,0,2.323-.221,6.7,6.7,0,0,0,1.944-.631,7.826,7.826,0,0,0,.126-1.766v-1.513a3.8,3.8,0,0,0-.137-1.345.918.918,0,0,0-.673-.378,16.65,16.65,0,0,0-2.333-.137l-.126-.126v-.6l.126-.126.83.032c1.429.042,2.6.074,3.5.074.515,0,1.282-.032,2.281-.084Z" transform="translate(-106.328 -213.038)" fill="#a5a5a5"/>
      <path id="Path_15367" data-name="Path 15367" d="M215.151,228.069l.105-.105h.673l.105.105a11.515,11.515,0,0,0,.189,2.144,1.713,1.713,0,0,0,.736.82,5.37,5.37,0,0,0,1.65.7,8.322,8.322,0,0,0,2.081.273,6.148,6.148,0,0,0,2.606-.536,4.08,4.08,0,0,0,1.8-1.566,4.266,4.266,0,0,0,.641-2.323,3.87,3.87,0,0,0-.3-1.576,2.8,2.8,0,0,0-.862-1.072,3.683,3.683,0,0,0-1.261-.6,20.746,20.746,0,0,0-2.123-.431c-.914-.147-1.629-.273-2.144-.4a7.25,7.25,0,0,1-1.534-.547,3.938,3.938,0,0,1-2.1-2.333,4.912,4.912,0,0,1-.3-1.766,5.441,5.441,0,0,1,1.776-4.193,6.759,6.759,0,0,1,4.771-1.629,12.345,12.345,0,0,1,2.585.294,10.44,10.44,0,0,1,2.554.872l.095.168a18.479,18.479,0,0,0-.368,3.584l-.126.105h-.715l-.105-.095c-.021-1.093-.042-1.787-.084-2.06s-.452-.631-1.24-1.051a5.408,5.408,0,0,0-2.585-.631,5.212,5.212,0,0,0-2.175.462,3.185,3.185,0,0,0-1.534,1.461,4.348,4.348,0,0,0-.515,2.039,3.142,3.142,0,0,0,.315,1.429,2.807,2.807,0,0,0,.809.988,3.4,3.4,0,0,0,1.167.536q.662.173,2.428.441a14.414,14.414,0,0,1,3.521.83,3.963,3.963,0,0,1,1.766,1.534,4.676,4.676,0,0,1,.662,2.543,6.009,6.009,0,0,1-2.375,4.855,8.789,8.789,0,0,1-5.749,1.944,11.453,11.453,0,0,1-4.961-1.009l-.084-.179A34.319,34.319,0,0,0,215.151,228.069Z" transform="translate(-105.252 -213.04)" fill="#a5a5a5"/>
    </g>
    <g id="Group_5361" data-name="Group 5361" transform="translate(-10838 7553)">
      <path id="Path_15368" data-name="Path 15368" d="M50.6,210.248c-.053-1.114-.074-2.249-.074-3.395l4.046-4.046c1.082-.568,2.175-1.093,3.258-1.587,12.675,8.008,18.161,8.292,18.161,22.333Z" transform="translate(-50.53 -196.816)" fill="#a5a5a5" fill-rule="evenodd"/>
      <path id="Path_15369" data-name="Path 15369" d="M53.689,225.361A49.923,49.923,0,0,1,50.82,212.8l1.072-1.072c12.191,7.42,24.088,11.939,24.088,25.318Z" transform="translate(-50.515 -196.281)" fill="#a5a5a5" fill-rule="evenodd"/>
      <path id="Path_15370" data-name="Path 15370" d="M75.74,249.433q-14.172-8.087-20.42-20.62l1.093-1.093C67.1,234.068,75.4,237.242,75.74,249.433" transform="translate(-50.286 -195.466)" fill="#a5a5a5" fill-rule="evenodd"/>
      <path id="Path_15371" data-name="Path 15371" d="M57.834,201.23c12.675,8.008,18.161,8.292,18.161,22.333l-.032-.021c-.462-12.317-6.011-12.916-18.129-20.578a70.385,70.385,0,0,0-7.3,3.889l4.046-4.046c1.082-.557,2.175-1.093,3.258-1.576" transform="translate(-50.53 -196.816)" fill="#8e8e8e" fill-rule="evenodd"/>
      <path id="Path_15372" data-name="Path 15372" d="M51.892,211.73c12.191,7.42,24.088,11.939,24.088,25.318l-.074-.042c-1.04-12.4-13.084-16.731-25.086-24.2Z" transform="translate(-50.515 -196.281)" fill="#8e8e8e" fill-rule="evenodd"/>
      <path id="Path_15373" data-name="Path 15373" d="M56.4,227.72c10.688,6.337,19,9.511,19.338,21.7-.042-.021-.074-.042-.116-.063-1.114-11.1-9.648-14.1-20.3-20.557Z" transform="translate(-50.286 -195.466)" fill="#8e8e8e" fill-rule="evenodd"/>
      <path id="Path_15374" data-name="Path 15374" d="M90.642,199.216a44.315,44.315,0,0,0-27.493,0l-2.669,2.669L76.9,210.493l16.416-8.607Z" transform="translate(-50.023 -197.03)" fill="#a5a5a5" fill-rule="evenodd"/>
      <path id="Path_15375" data-name="Path 15375" d="M60.47,201.885a44.869,44.869,0,0,1,32.832,0l-2.669-2.669a44.315,44.315,0,0,0-27.493,0Z" transform="translate(-50.023 -197.03)" fill="#8e8e8e" fill-rule="evenodd"/>
      <path id="Path_15376" data-name="Path 15376" d="M102.811,210.248c.053-1.114.074-2.249.074-3.395l-4.046-4.046c-1.082-.568-2.175-1.093-3.258-1.587-12.675,8.008-18.161,8.292-18.161,22.333Z" transform="translate(-49.16 -196.816)" fill="#a5a5a5" fill-rule="evenodd"/>
      <path id="Path_15377" data-name="Path 15377" d="M99.721,225.361A49.923,49.923,0,0,0,102.59,212.8l-1.072-1.072c-12.191,7.42-24.088,11.939-24.088,25.318Z" transform="translate(-49.159 -196.281)" fill="#a5a5a5" fill-rule="evenodd"/>
      <path id="Path_15378" data-name="Path 15378" d="M77.44,249.433q14.172-8.087,20.42-20.62l-1.093-1.093c-10.688,6.348-18.991,9.522-19.327,21.713" transform="translate(-49.159 -195.466)" fill="#a5a5a5" fill-rule="evenodd"/>
      <path id="Path_15379" data-name="Path 15379" d="M95.591,201.23c-12.675,8.008-18.161,8.292-18.161,22.333l.032-.021c.462-12.317,6.011-12.916,18.129-20.578a70.385,70.385,0,0,1,7.3,3.889l-4.046-4.046c-1.093-.557-2.175-1.093-3.258-1.576" transform="translate(-49.159 -196.816)" fill="#8e8e8e" fill-rule="evenodd"/>
      <path id="Path_15380" data-name="Path 15380" d="M101.508,211.73c-12.191,7.42-24.088,11.939-24.088,25.318l.074-.042c1.04-12.4,13.084-16.731,25.086-24.2Z" transform="translate(-49.16 -196.281)" fill="#8e8e8e" fill-rule="evenodd"/>
      <path id="Path_15381" data-name="Path 15381" d="M96.768,227.72c-10.688,6.337-19,9.511-19.338,21.7.042-.021.074-.042.116-.063,1.114-11.1,9.648-14.1,20.3-20.557Z" transform="translate(-49.159 -195.466)" fill="#8e8e8e" fill-rule="evenodd"/>
    </g>
  </g>
</svg>
