<svg xmlns="http://www.w3.org/2000/svg" width="195.061" height="55" viewBox="0 0 195.061 55">
  <g id="Group_5381" data-name="Group 5381" transform="translate(10610.061 -7553)">
    <rect id="Rectangle_4510" data-name="Rectangle 4510" width="195" height="55" transform="translate(-10610 7553)" fill="rgba(255,255,255,0)"/>
    <g id="Group_5370" data-name="Group 5370" transform="translate(-10542.607 7560.863)">
      <g id="Group_5368" data-name="Group 5368" transform="translate(0.972)">
        <path id="Path_15401" data-name="Path 15401" d="M122.145,291.248v6.146H120.08V281.71h5.781a5.768,5.768,0,0,1,4.03,1.316,4.466,4.466,0,0,1,1.458,3.483,4.39,4.39,0,0,1-1.428,3.513,6.094,6.094,0,0,1-4.09,1.235h-3.685Zm0-1.691h3.716a3.74,3.74,0,0,0,2.541-.78,2.87,2.87,0,0,0,.881-2.258,2.982,2.982,0,0,0-.881-2.248,3.488,3.488,0,0,0-2.42-.871h-3.837Z" transform="translate(-120.08 -281.467)" fill="#a5a5a5"/>
        <path id="Path_15402" data-name="Path 15402" d="M145.9,290.056a9.683,9.683,0,0,1-.78,4.02,5.82,5.82,0,0,1-2.2,2.622,6.11,6.11,0,0,1-3.321.9,5.856,5.856,0,0,1-5.518-3.513,9.284,9.284,0,0,1-.81-3.908v-1.134a9.557,9.557,0,0,1,.79-4,5.828,5.828,0,0,1,5.518-3.574,6.054,6.054,0,0,1,3.321.911,5.852,5.852,0,0,1,2.217,2.643,9.749,9.749,0,0,1,.78,4.02Zm-2.055-1.012a7.007,7.007,0,0,0-1.124-4.283,3.7,3.7,0,0,0-3.139-1.488,3.661,3.661,0,0,0-3.088,1.488,6.89,6.89,0,0,0-1.154,4.141v1.154a7.045,7.045,0,0,0,1.134,4.252,3.976,3.976,0,0,0,6.227.091,7.014,7.014,0,0,0,1.134-4.182v-1.174Z" transform="translate(-119.915 -281.47)" fill="#a5a5a5"/>
        <path id="Path_15403" data-name="Path 15403" d="M159.379,283.4h-5.042v13.992h-2.055V283.4H147.25V281.71h12.129Z" transform="translate(-119.741 -281.467)" fill="#a5a5a5"/>
        <path id="Path_15404" data-name="Path 15404" d="M170.4,290.144h-6.8V295.7h7.9v1.691H161.53V281.71h9.862V283.4h-7.786v5.052h6.8v1.691Z" transform="translate(-119.563 -281.467)" fill="#a5a5a5"/>
        <path id="Path_15405" data-name="Path 15405" d="M185.968,297.393h-2.076L176,285.3v12.089H173.92V281.71H176l7.918,12.14V281.71h2.055Z" transform="translate(-119.408 -281.467)" fill="#a5a5a5"/>
        <path id="Path_15406" data-name="Path 15406" d="M200,283.4h-5.042v13.992H192.9V283.4H187.87V281.71H200Z" transform="translate(-119.234 -281.467)" fill="#a5a5a5"/>
        <path id="Path_15407" data-name="Path 15407" d="M204.365,297.393H202.3V281.71h2.065Z" transform="translate(-119.054 -281.467)" fill="#a5a5a5"/>
        <path id="Path_15408" data-name="Path 15408" d="M216.946,293.293h-6.571l-1.478,4.1H206.76l5.994-15.683h1.812l6,15.683h-2.126ZM211,291.6h5.336l-2.673-7.34Z" transform="translate(-118.998 -281.467)" fill="#a5a5a5"/>
        <path id="Path_15409" data-name="Path 15409" d="M224.556,295.7h7.432v1.691H222.47V281.71h2.076V295.7Z" transform="translate(-118.802 -281.467)" fill="#a5a5a5"/>
      </g>
      <g id="Group_5369" data-name="Group 5369" transform="translate(0 22.76)">
        <path id="Path_15410" data-name="Path 15410" d="M124.709,312.87a9.652,9.652,0,0,1-3.878-1.883,3.582,3.582,0,0,1-1.215-2.754,3.815,3.815,0,0,1,1.478-3.068,5.857,5.857,0,0,1,3.847-1.215,6.5,6.5,0,0,1,2.886.628,4.8,4.8,0,0,1,1.964,1.721,4.368,4.368,0,0,1,.7,2.4h-2.076a2.9,2.9,0,0,0-.9-2.248,3.663,3.663,0,0,0-2.551-.82,3.749,3.749,0,0,0-2.389.678,2.258,2.258,0,0,0-.861,1.873,2.023,2.023,0,0,0,.81,1.62,7.951,7.951,0,0,0,2.764,1.215,12.4,12.4,0,0,1,3.058,1.215,4.585,4.585,0,0,1,1.64,1.549,3.959,3.959,0,0,1,.537,2.076,3.67,3.67,0,0,1-1.488,3.058,6.32,6.32,0,0,1-3.979,1.144,7.347,7.347,0,0,1-3.017-.618,5.1,5.1,0,0,1-2.157-1.7,4.137,4.137,0,0,1-.759-2.45H121.2a2.7,2.7,0,0,0,1.053,2.248,4.442,4.442,0,0,0,2.8.82,4.074,4.074,0,0,0,2.511-.668,2.182,2.182,0,0,0,.871-1.822,2.127,2.127,0,0,0-.81-1.782A9.542,9.542,0,0,0,124.709,312.87Z" transform="translate(-119.12 -303.95)" fill="#a5a5a5"/>
        <path id="Path_15411" data-name="Path 15411" d="M141.879,312.6h-6.8v5.559h7.9v1.691H133.01V304.17h9.862v1.691h-7.786v5.052h6.8V312.6Z" transform="translate(-118.947 -303.947)" fill="#a5a5a5"/>
        <path id="Path_15412" data-name="Path 15412" d="M156.939,314.885a5.784,5.784,0,0,1-1.833,3.837A6.025,6.025,0,0,1,151,320.079a5.532,5.532,0,0,1-4.455-1.995,8.036,8.036,0,0,1-1.671-5.336V311.24a9,9,0,0,1,.78-3.847,5.822,5.822,0,0,1,2.217-2.551,6.217,6.217,0,0,1,3.321-.891,5.655,5.655,0,0,1,4.009,1.4,5.893,5.893,0,0,1,1.762,3.858h-2.076a4.461,4.461,0,0,0-1.174-2.724,3.514,3.514,0,0,0-2.521-.84,3.683,3.683,0,0,0-3.108,1.468,6.729,6.729,0,0,0-1.124,4.171V312.8a6.973,6.973,0,0,0,1.063,4.07,3.448,3.448,0,0,0,2.987,1.509,3.976,3.976,0,0,0,2.643-.78,4.314,4.314,0,0,0,1.225-2.724h2.065Z" transform="translate(-118.799 -303.95)" fill="#a5a5a5"/>
        <path id="Path_15413" data-name="Path 15413" d="M170.63,304.17v10.672a5.036,5.036,0,0,1-1.4,3.635,5.6,5.6,0,0,1-3.756,1.579l-.547.02a5.863,5.863,0,0,1-4.1-1.387,4.968,4.968,0,0,1-1.549-3.827V304.17h2.045v10.621a3.573,3.573,0,0,0,.942,2.643,3.621,3.621,0,0,0,6.3-2.643V304.16h2.065Z" transform="translate(-118.619 -303.947)" fill="#a5a5a5"/>
        <path id="Path_15414" data-name="Path 15414" d="M179.461,313.515h-3.685v6.348H173.7V304.18h5.194a6.169,6.169,0,0,1,4.08,1.2A4.335,4.335,0,0,1,184.4,308.9a4.243,4.243,0,0,1-.79,2.551,4.746,4.746,0,0,1-2.207,1.63l3.685,6.662v.132h-2.217Zm-3.685-1.691h3.179a3.571,3.571,0,0,0,2.45-.8,2.691,2.691,0,0,0,.911-2.136,2.854,2.854,0,0,0-.871-2.238,3.7,3.7,0,0,0-2.5-.79h-3.169v5.964Z" transform="translate(-118.439 -303.947)" fill="#a5a5a5"/>
        <path id="Path_15415" data-name="Path 15415" d="M189.345,319.853H187.28V304.17h2.065Z" transform="translate(-118.269 -303.947)" fill="#a5a5a5"/>
        <path id="Path_15416" data-name="Path 15416" d="M203.6,305.861h-5.042v13.992H196.5V305.861H191.47V304.17H203.6Z" transform="translate(-118.217 -303.947)" fill="#a5a5a5"/>
        <path id="Path_15417" data-name="Path 15417" d="M210.729,312.047l4.09-7.877h2.349l-5.407,9.841v5.852H209.7v-5.852l-5.407-9.841h2.369Z" transform="translate(-118.057 -303.947)" fill="#a5a5a5"/>
      </g>
    </g>
    <path id="Path_15418" data-name="Path 15418" d="M56.61,320.824v10.234h8.523V315.6h-3.3A5.228,5.228,0,0,0,56.61,320.824Zm46.127-25.782v27.505H71.044v8.523H111.26V298.7a3.659,3.659,0,0,0-3.659-3.659ZM56.61,276.42v25.524a5.482,5.482,0,0,0,5.483,5.483h3.04V284.954h37.6v4.9h3.929a4.6,4.6,0,0,0,4.594-4.594v-8.827H56.61Z" transform="translate(-10666.671 7276.58)" fill="#a5a5a5"/>
    <path id="Path_15419" data-name="Path 15419" d="M86.294,299.649v10.786a1.864,1.864,0,0,1-1.869,1.869H73.639a1.864,1.864,0,0,1-1.869-1.869V299.649a1.864,1.864,0,0,1,1.869-1.869H84.425A1.872,1.872,0,0,1,86.294,299.649Z" transform="translate(-10664.763 7279.269)" fill="#a5a5a5"/>
  </g>
</svg>
