<svg xmlns="http://www.w3.org/2000/svg" width="195" height="55" viewBox="0 0 195 55">
  <g id="Group_5386" data-name="Group 5386" transform="translate(9958 -7553)">
    <rect id="Rectangle_4512" data-name="Rectangle 4512" width="195" height="55" transform="translate(-9958 7553)" fill="rgba(255,255,255,0)"/>
    <path id="Path_15454" data-name="Path 15454" d="M64.313,459.646h0c-.436.311-.871.635-1.294.946l-.012.012c-.709.5-1.419.983-2.153,1.468.361.448.709.9,1.07,1.331v.012c.137.162.274.324.4.473l.012.025c.174.2.336.4.51.585l.012.025c.149.174.3.336.448.5,2.265-1.506,4.579-3.223,6.918-4.94,1.145-.846,2.265-1.73,3.322-2.625,1.12-.946,2.165-1.916,3.111-2.862.112-.112.224-.236.336-.348a38.283,38.283,0,0,0,8.735-15.131,38.744,38.744,0,0,0-9.071-1.083,38.174,38.174,0,0,0-9.071,1.083,38.435,38.435,0,0,0,3.907,8.76c.971-1,1.891-2.115,2.924-3.385-.373-.684-.734-1.369-1.058-2.078a33.947,33.947,0,0,1,6.62,0,34.014,34.014,0,0,1-3.31,5.624,52.477,52.477,0,0,1-3.571,4.044c-.261.261-.523.523-.8.784l-.012.012-.037.037-.037.037h0l-.037.037-.037.037-.012.012-.012.012-.037.037-.037.037h0c-.4.386-.821.771-1.244,1.157v-.025c-.46.435-.933.859-1.406,1.282-.572.5-1.17,1-1.767,1.506h0c-1.058.908-2.165,1.767-3.31,2.6Zm-2.29-3.136A50.872,50.872,0,0,1,53.4,430.99a51.1,51.1,0,0,1,46.562,0,50.908,50.908,0,0,1-22.236,39.183c-1.68,1.195-3.273,2.277-4.766,3.273,1.207.834,2.451,1.63,3.733,2.364a55.111,55.111,0,0,0,27.574-47.271,55.21,55.21,0,0,0-55.148,0,54.882,54.882,0,0,0,9.519,30.486c1.157-.809,2.29-1.642,3.385-2.513Zm4.156,11.361c1.058,1.02,2.153,1.991,3.273,2.937a79,79,0,0,0,12.194-9.245A46.649,46.649,0,0,0,95.5,433.541a46.87,46.87,0,0,0-37.64,0,46.709,46.709,0,0,0,7.366,20.2c1.17-1,2.252-1.929,3.21-2.8a42.492,42.492,0,0,1-5.9-14.708,42.8,42.8,0,0,1,28.271,0,42.5,42.5,0,0,1-12.891,23.057,54.426,54.426,0,0,1-11.734,8.586Z" transform="translate(-10006.12 7131.84)" fill="#a5a5a5"/>
    <text id="A_LIST_Security_Group_inc." data-name="A LIST Security
Group inc." transform="translate(-9897 7577)" fill="#a5a5a5" font-size="16" font-family="OpenSans-Bold, Open Sans" font-weight="700" letter-spacing="0.01em"><tspan x="0" y="0">A LIST SECURITY</tspan><tspan x="0" y="19">GROUP INC.</tspan></text>
  </g>
</svg>
