<svg xmlns="http://www.w3.org/2000/svg" width="195" height="55" viewBox="0 0 195 55">
  <g id="Group_5383" data-name="Group 5383" transform="translate(10186 -7553)">
    <rect id="Rectangle_4512" data-name="Rectangle 4512" width="195" height="55" transform="translate(-10186 7553)" fill="rgba(255,255,255,0)"/>
    <g id="Group_5377" data-name="Group 5377" transform="translate(13 0)">
      <g id="Group_5376" data-name="Group 5376" transform="translate(-11029.758 7412.475)">
        <path id="Path_15440" data-name="Path 15440" d="M890.463,148.7a22.47,22.47,0,0,0-6.478-8.143,11,11,0,0,1,9.182,3.774,15.393,15.393,0,0,1,12.749.148,9.2,9.2,0,0,1,8.647-3.715,20.36,20.36,0,0,0-6.151,7.489,6.362,6.362,0,0,1,3.209,6.834,6.372,6.372,0,0,1-12.094,1.367,6.138,6.138,0,1,1-9.063-7.756Z" transform="translate(-28.312)" fill="#a5a5a5" fill-rule="evenodd"/>
        <path id="Path_15441" data-name="Path 15441" d="M943.577,220.474a9.872,9.872,0,0,1,1.545-3.06,2.047,2.047,0,0,1-1.307-1.308,3.927,3.927,0,0,1-1.635,1.486,4.427,4.427,0,0,1,1.4,2.883Z" transform="translate(-72.571 -57.481)" fill="#a5a5a5" fill-rule="evenodd"/>
        <path id="Path_15442" data-name="Path 15442" d="M928.09,250.12c-2.555.683-3.833,1.01-3.833,1.01a24.073,24.073,0,0,1-6.8-24.723A43.424,43.424,0,0,0,928.09,250.12Z" transform="translate(-52.983 -65.316)" fill="#a5a5a5" fill-rule="evenodd"/>
        <path id="Path_15443" data-name="Path 15443" d="M951.393,261.271a18.174,18.174,0,0,1,.12,13.847A59.98,59.98,0,0,1,930.89,245.64a45.948,45.948,0,0,0,20.5,15.631Z" transform="translate(-63.985 -79.943)" fill="#a5a5a5" fill-rule="evenodd"/>
        <path id="Path_15444" data-name="Path 15444" d="M892.164,323.495c.089,1.634.119,2.436.119,2.436a124.855,124.855,0,0,0-45.525-11.025,70.15,70.15,0,0,1,45.406,8.588Z" transform="translate(0 -132.033)" fill="#a5a5a5" fill-rule="evenodd"/>
        <path id="Path_15445" data-name="Path 15445" d="M930.863,225.581a10.586,10.586,0,0,1-2.7.832,47.7,47.7,0,0,0,21.99,17.889c1.635-7.31-.564-14.5-6.478-19.137-2.615,2.051-6.477,2.318-8.974.149-.981,2.436-1.456,3.655-1.456,3.655a32.982,32.982,0,0,1-2.377-3.388Z" transform="translate(-61.907 -64.371)" fill="#a5a5a5" fill-rule="evenodd"/>
        <path id="Path_15446" data-name="Path 15446" d="M934.3,162.808a11.368,11.368,0,0,0-13.58-.149,7.4,7.4,0,0,1,6.716,3.744c1.872-2.229,3.981-3.655,6.864-3.6Z" transform="translate(-56.246 -15.178)" fill="#fefefe" fill-rule="evenodd"/>
        <path id="Path_15447" data-name="Path 15447" d="M911.945,186.9a4.012,4.012,0,1,0-4.012-4.012,4.014,4.014,0,0,0,4.012,4.012Z" transform="translate(-46.525 -29.17)" fill="#fefefe" fill-rule="evenodd"/>
        <path id="Path_15448" data-name="Path 15448" d="M916.474,190.007a2.585,2.585,0,1,0-2.586-2.586,2.587,2.587,0,0,0,2.586,2.586Z" transform="translate(-51.054 -33.7)" fill="#a5a5a5" fill-rule="evenodd"/>
        <path id="Path_15449" data-name="Path 15449" d="M921.006,193.016a1.174,1.174,0,0,0,0-2.348,1.174,1.174,0,0,0,0,2.348Z" transform="translate(-55.586 -38.135)" fill="#fefefe" fill-rule="evenodd"/>
        <path id="Path_15450" data-name="Path 15450" d="M960.119,186.9a4.012,4.012,0,1,0-4.042-4.012,4.034,4.034,0,0,0,4.042,4.012Z" transform="translate(-83.14 -29.17)" fill="#fefefe" fill-rule="evenodd"/>
        <path id="Path_15451" data-name="Path 15451" d="M964.746,190.007a2.585,2.585,0,1,0-2.585-2.586,2.581,2.581,0,0,0,2.585,2.586Z" transform="translate(-87.767 -33.7)" fill="#a5a5a5" fill-rule="evenodd"/>
        <path id="Path_15452" data-name="Path 15452" d="M969.181,193.016a1.174,1.174,0,1,0-1.188-1.16,1.18,1.18,0,0,0,1.188,1.16Z" transform="translate(-92.203 -38.135)" fill="#fefefe" fill-rule="evenodd"/>
      </g>
      <path id="Path_15453" data-name="Path 15453" d="M6.04-13.563a5.481,5.481,0,0,1,3.832,1.127,4.04,4.04,0,0,1,1.206,3.1,5.376,5.376,0,0,1-.269,1.7,3.765,3.765,0,0,1-.877,1.443,4.182,4.182,0,0,1-1.619,1,7.38,7.38,0,0,1-2.5.366H4.583V0H1.707V-13.563Zm-.148,2.356H4.583v4.026h.946a4.145,4.145,0,0,0,1.4-.213,1.867,1.867,0,0,0,.918-.668,1.964,1.964,0,0,0,.325-1.169,1.875,1.875,0,0,0-.557-1.489A2.572,2.572,0,0,0,5.891-11.207ZM17.78-13.563a8.875,8.875,0,0,1,3.048.445,3.488,3.488,0,0,1,1.786,1.345A4.1,4.1,0,0,1,23.2-9.5a3.547,3.547,0,0,1-.353,1.624A3.7,3.7,0,0,1,21.918-6.7a5.483,5.483,0,0,1-1.243.789L24.664,0H21.472L18.234-5.2H16.7V0H13.828V-13.563Zm-.2,2.356H16.7v3.665h.928a3.391,3.391,0,0,0,2.046-.478,1.669,1.669,0,0,0,.617-1.406,1.484,1.484,0,0,0-.663-1.373A4.025,4.025,0,0,0,17.576-11.207ZM38.872-6.8a9.806,9.806,0,0,1-.39,2.853A6.065,6.065,0,0,1,37.3-1.735,5.158,5.158,0,0,1,35.291-.311a7.583,7.583,0,0,1-2.876.5,7.583,7.583,0,0,1-2.876-.5A5.158,5.158,0,0,1,27.53-1.735a6.061,6.061,0,0,1-1.183-2.217,9.888,9.888,0,0,1-.39-2.867,9.012,9.012,0,0,1,.691-3.669,5.218,5.218,0,0,1,2.129-2.426,7.013,7.013,0,0,1,3.655-.863,6.918,6.918,0,0,1,3.632.863,5.237,5.237,0,0,1,2.115,2.431A9.07,9.07,0,0,1,38.872-6.8Zm-9.9,0a7.452,7.452,0,0,0,.357,2.445,3.17,3.17,0,0,0,1.118,1.577,3.268,3.268,0,0,0,1.967.552A3.3,3.3,0,0,0,34.4-2.779a3.119,3.119,0,0,0,1.109-1.577A7.636,7.636,0,0,0,35.857-6.8a6.1,6.1,0,0,0-.8-3.358,2.9,2.9,0,0,0-2.625-1.225,3.306,3.306,0,0,0-1.981.552A3.159,3.159,0,0,0,29.33-9.254,7.485,7.485,0,0,0,28.973-6.8Zm23.541-6.763L47.9,0H44.767l-4.6-13.563h2.9l2.551,8.071q.065.2.213.765t.3,1.188A10.511,10.511,0,0,1,46.344-2.5q.056-.408.2-1.03t.288-1.183q.144-.561.209-.775l2.57-8.071ZM54.411,0V-13.563h2.876V0ZM72.144-6.912a7.624,7.624,0,0,1-.877,3.827A5.536,5.536,0,0,1,68.73-.775a9.4,9.4,0,0,1-4,.775H60.891V-13.563h4.258a8.44,8.44,0,0,1,3.7.756,5.526,5.526,0,0,1,2.431,2.236A7.163,7.163,0,0,1,72.144-6.912Zm-2.987.074a6,6,0,0,0-.441-2.472,2.963,2.963,0,0,0-1.3-1.433,4.413,4.413,0,0,0-2.12-.464H63.767v8.832H65A4.037,4.037,0,0,0,68.132-3.5,4.8,4.8,0,0,0,69.157-6.837ZM82.957,0H75.145V-13.563h7.812v2.356H78.021v2.978h4.592v2.356H78.021v3.5h4.936ZM98.009,0H94.354l-5.9-10.261H88.37q.037.64.065,1.29t.056,1.294q.028.645.056,1.294V0h-2.57V-13.563H89.6L95.5-3.4h.065q-.019-.631-.046-1.252T95.463-5.9q-.023-.622-.042-1.243v-6.42h2.588Zm8.836,0H103.97V-11.17h-3.683v-2.394h10.242v2.394h-3.683ZM9.713,15.233A3.575,3.575,0,0,1,7.427,18.7a6.837,6.837,0,0,1-2.714.482,10.073,10.073,0,0,1-1.378-.093,8.9,8.9,0,0,1-1.29-.274,7.616,7.616,0,0,1-1.174-.45V15.7q.965.427,2,.77a6.536,6.536,0,0,0,2.06.343,2.915,2.915,0,0,0,1.136-.186,1.3,1.3,0,0,0,.626-.51,1.414,1.414,0,0,0,.195-.742A1.222,1.222,0,0,0,6.55,14.5a3.606,3.606,0,0,0-.942-.677q-.6-.315-1.35-.677-.473-.223-1.03-.543a5.846,5.846,0,0,1-1.058-.784,3.719,3.719,0,0,1-.821-1.127A3.632,3.632,0,0,1,1.03,9.1a3.751,3.751,0,0,1,.557-2.078A3.55,3.55,0,0,1,3.177,5.7a5.987,5.987,0,0,1,2.445-.459,8.106,8.106,0,0,1,2.018.246,12.882,12.882,0,0,1,2.009.71L8.721,8.433a16.185,16.185,0,0,0-1.679-.589,5.559,5.559,0,0,0-1.512-.209,2.223,2.223,0,0,0-.918.172,1.274,1.274,0,0,0-.575.482,1.325,1.325,0,0,0-.195.719,1.2,1.2,0,0,0,.283.812,2.968,2.968,0,0,0,.854.635q.571.306,1.424.714A11.243,11.243,0,0,1,8.178,12.2a3.853,3.853,0,0,1,1.136,1.252A3.641,3.641,0,0,1,9.713,15.233ZM20.173,19H12.362V5.437h7.812V7.793H15.238v2.978H19.83v2.356H15.238v3.5h4.936ZM28.954,7.635a3.206,3.206,0,0,0-1.461.32,2.907,2.907,0,0,0-1.067.923,4.378,4.378,0,0,0-.654,1.457,7.618,7.618,0,0,0-.223,1.92,7.434,7.434,0,0,0,.357,2.454,3.088,3.088,0,0,0,1.109,1.549,3.274,3.274,0,0,0,1.939.533,7.573,7.573,0,0,0,1.656-.186,15.915,15.915,0,0,0,1.8-.529V18.49a8.944,8.944,0,0,1-1.772.533,10.746,10.746,0,0,1-1.958.162,6.268,6.268,0,0,1-3.447-.867,5.16,5.16,0,0,1-2-2.431,9.466,9.466,0,0,1-.649-3.651,9.057,9.057,0,0,1,.417-2.82A6.387,6.387,0,0,1,24.232,7.2a5.409,5.409,0,0,1,1.995-1.447,6.854,6.854,0,0,1,2.728-.51,8.3,8.3,0,0,1,2.027.255,10.247,10.247,0,0,1,1.944.7L32,8.535A15.357,15.357,0,0,0,30.466,7.9,4.567,4.567,0,0,0,28.954,7.635Zm17.576-2.2v8.776a5.178,5.178,0,0,1-.617,2.528,4.4,4.4,0,0,1-1.865,1.786,6.684,6.684,0,0,1-3.14.659,5.645,5.645,0,0,1-4.1-1.373,4.845,4.845,0,0,1-1.41-3.637V5.437h2.867v8.3A3.251,3.251,0,0,0,38.95,16.1a2.779,2.779,0,0,0,2.032.677,3.169,3.169,0,0,0,1.535-.325,1.943,1.943,0,0,0,.867-1,4.579,4.579,0,0,0,.278-1.726V5.437Zm7.463,0a8.875,8.875,0,0,1,3.048.445,3.488,3.488,0,0,1,1.786,1.345A4.1,4.1,0,0,1,59.411,9.5a3.547,3.547,0,0,1-.353,1.624,3.7,3.7,0,0,1-.928,1.178,5.483,5.483,0,0,1-1.243.789L60.877,19H57.686l-3.238-5.2H52.917V19H50.041V5.437Zm-.2,2.356h-.872v3.665h.928a3.391,3.391,0,0,0,2.046-.478,1.669,1.669,0,0,0,.617-1.406A1.484,1.484,0,0,0,55.844,8.2,4.025,4.025,0,0,0,53.789,7.793ZM62.774,19V5.437H65.65V19Zm11.712,0H71.611V7.83H67.928V5.437H78.17V7.83H74.487Zm10.182-7.979L87.5,5.437h3.1l-4.5,8.285V19H83.24V13.814l-4.5-8.377h3.117Z" transform="translate(-10130 7577.777)" fill="#a5a5a5"/>
    </g>
  </g>
</svg>
