<svg xmlns="http://www.w3.org/2000/svg" width="195" height="55" viewBox="0 0 195 55">
  <g id="Group_5382" data-name="Group 5382" transform="translate(10399 -7553)">
    <rect id="Rectangle_4511" data-name="Rectangle 4511" width="195" height="55" transform="translate(-10399 7553)" fill="rgba(255,255,255,0)"/>
    <g id="Group_5375" data-name="Group 5375" transform="translate(-10414.771 7207.755)">
      <path id="Path_15429" data-name="Path 15429" d="M91.082,386.313l-14.3-34.933H70.719L58.89,383.149h6.952l2.186-6.549H79.5l7.476,16.867.907,2.035H94.84ZM69.8,371.3l3.95-11.889,3.99,11.889Z" transform="translate(0 0.003)" fill="#a5a5a5"/>
      <path id="Path_15430" data-name="Path 15430" d="M108.633,369.375h-13.8v8.5H109.58v5.259H88.29V351.37h21.25v5.3h-14.7v7.567h13.8v5.139Z" transform="translate(0.223 0.003)" fill="#a5a5a5"/>
      <path id="Path_15431" data-name="Path 15431" d="M135.275,378.333a18.5,18.5,0,0,1-6.237,4.524,14.426,14.426,0,0,1-5.925,1.169,14.2,14.2,0,0,1-7.234-1.8,11.973,11.973,0,0,1-4.8-5.229,18.4,18.4,0,0,1-1.733-8.051v-2.156a19.51,19.51,0,0,1,1.6-8.232,11.856,11.856,0,0,1,4.625-5.32,13.324,13.324,0,0,1,7.083-1.844q5.652,0,8.836,2.69a11.507,11.507,0,0,1,3.778,7.839h-6.368a6.322,6.322,0,0,0-1.935-3.99,6.155,6.155,0,0,0-4.111-1.27,5.817,5.817,0,0,0-5.088,2.509c-1.159,1.673-1.753,4.161-1.763,7.466v2.025c0,3.335.635,5.844,1.894,7.547s4.353,1.32,6.8,1.32c2.277,0,2.066-.453,4.02-1.35v-5.693h-5.955v-4.816h12.5Z" transform="translate(0.382 0.003)" fill="#a5a5a5"/>
      <path id="Path_15432" data-name="Path 15432" d="M142.849,383.149H136.3V351.38h6.549Z" transform="translate(0.586 0.003)" fill="#a5a5a5"/>
      <path id="Path_15433" data-name="Path 15433" d="M160.6,374.81a3.357,3.357,0,0,0-1.31-2.851,17.209,17.209,0,0,0-4.715-2.1,34.62,34.62,0,0,1-5.391-2.166q-5.411-2.917-5.411-7.879a7.694,7.694,0,0,1,1.451-4.595,9.424,9.424,0,0,1,4.171-3.154,15.686,15.686,0,0,1,6.1-1.139,14.366,14.366,0,0,1,6.066,1.229,9.7,9.7,0,0,1,4.131,3.476,9.16,9.16,0,0,1,1.471,5.108h-6.549a4.322,4.322,0,0,0-1.37-3.4,5.659,5.659,0,0,0-3.859-1.209,6.03,6.03,0,0,0-3.728,1.018,3.2,3.2,0,0,0-1.33,2.67,3.079,3.079,0,0,0,1.562,2.6,17.78,17.78,0,0,0,4.595,1.965q5.577,1.678,8.141,4.171a8.291,8.291,0,0,1,2.549,6.2,7.628,7.628,0,0,1-3.123,6.469,13.659,13.659,0,0,1-8.4,2.348,16.214,16.214,0,0,1-6.68-1.34,10.583,10.583,0,0,1-4.595-3.678,9.368,9.368,0,0,1-1.582-5.411h6.569q0,5.26,6.287,5.26a6.128,6.128,0,0,0,3.647-.947A3.087,3.087,0,0,0,160.6,374.81Z" transform="translate(0.635 0)" fill="#a5a5a5"/>
      <g id="Group_5374" data-name="Group 5374" transform="translate(89.389 386.568)">
        <path id="Path_15434" data-name="Path 15434" d="M135.108,388.811a.729.729,0,0,0-.423-.111.742.742,0,0,0-.433.111.566.566,0,0,0-.2.312,2.3,2.3,0,0,0-.05.484v2.227a2.327,2.327,0,0,0,.05.494.513.513,0,0,0,.2.322.673.673,0,0,0,.433.121.624.624,0,0,0,.423-.121.529.529,0,0,0,.191-.322,2.329,2.329,0,0,0,.05-.494v-2.227a2.161,2.161,0,0,0-.05-.484A.5.5,0,0,0,135.108,388.811Z" transform="translate(-88.82 -386.282)" fill="#a5a5a5"/>
        <path id="Path_15435" data-name="Path 15435" d="M112.162,388.7h-.312v1.683h.272a1.384,1.384,0,0,0,.494-.071.5.5,0,0,0,.272-.262,1.155,1.155,0,0,0,.091-.5,1.012,1.012,0,0,0-.161-.645A.861.861,0,0,0,112.162,388.7Z" transform="translate(-88.988 -386.282)" fill="#a5a5a5"/>
        <path id="Path_15436" data-name="Path 15436" d="M154.718,388.811a.729.729,0,0,0-.423-.111.742.742,0,0,0-.433.111.566.566,0,0,0-.2.312,2.3,2.3,0,0,0-.05.484v2.227a2.328,2.328,0,0,0,.05.494.513.513,0,0,0,.2.322.673.673,0,0,0,.433.121.624.624,0,0,0,.423-.121.529.529,0,0,0,.191-.322,2.328,2.328,0,0,0,.05-.494v-2.227a2.16,2.16,0,0,0-.05-.484A.553.553,0,0,0,154.718,388.811Z" transform="translate(-88.672 -386.282)" fill="#a5a5a5"/>
        <path id="Path_15437" data-name="Path 15437" d="M89.16,386.3v6.942l.877,1.975h77.543V386.3Zm7.194,6.489a1.008,1.008,0,0,1-.433.413,1.283,1.283,0,0,1-.635.141,1.312,1.312,0,0,1-.736-.191,1.194,1.194,0,0,1-.443-.524,2.043,2.043,0,0,1-.171-.776l.625-.171a2.988,2.988,0,0,0,.081.524,1,1,0,0,0,.212.413.54.54,0,0,0,.423.161.533.533,0,0,0,.413-.151.649.649,0,0,0,.141-.443.863.863,0,0,0-.161-.554,2.509,2.509,0,0,0-.393-.423l-.856-.756a1.392,1.392,0,0,1-.373-.484,1.5,1.5,0,0,1-.121-.645,1.147,1.147,0,0,1,.322-.866,1.219,1.219,0,0,1,.877-.3,1.748,1.748,0,0,1,.534.081.891.891,0,0,1,.383.242,1.179,1.179,0,0,1,.242.413,2.3,2.3,0,0,1,.121.584l-.6.161a2.99,2.99,0,0,0-.071-.463.692.692,0,0,0-.2-.343.68.68,0,0,0-.816.01.533.533,0,0,0-.151.413.862.862,0,0,0,.081.383,1.315,1.315,0,0,0,.252.312l.856.756a2.626,2.626,0,0,1,.5.594,1.554,1.554,0,0,1,.222.826A1.086,1.086,0,0,1,96.354,392.789Zm3.95.5H98.319v-5.078h1.965v.524H99.024v1.683h1.018v.5H99.024v1.864h1.27v.5Zm4.393-3.265h-.675v-.353a3.5,3.5,0,0,0-.03-.494.568.568,0,0,0-.151-.332.59.59,0,0,0-.423-.121.631.631,0,0,0-.443.131.69.69,0,0,0-.181.363,2.994,2.994,0,0,0-.04.544v2.015a2.43,2.43,0,0,0,.06.6.486.486,0,0,0,.212.312.732.732,0,0,0,.393.091.536.536,0,0,0,.413-.131.639.639,0,0,0,.161-.353,3.973,3.973,0,0,0,.03-.524v-.373h.675v.373a2.8,2.8,0,0,1-.111.816,1.009,1.009,0,0,1-.393.554,1.317,1.317,0,0,1-.776.2,1.354,1.354,0,0,1-.836-.222,1.17,1.17,0,0,1-.413-.6,2.838,2.838,0,0,1-.121-.856v-1.793a2.971,2.971,0,0,1,.121-.9,1.1,1.1,0,0,1,.413-.594,1.425,1.425,0,0,1,.836-.212,1.446,1.446,0,0,1,.756.171,1.006,1.006,0,0,1,.4.5,2.3,2.3,0,0,1,.121.786v.393Zm4.6,1.552a3.6,3.6,0,0,1-.111.927,1.056,1.056,0,0,1-.4.615,1.726,1.726,0,0,1-1.693,0,1.089,1.089,0,0,1-.4-.615,3.6,3.6,0,0,1-.111-.927v-3.365h.675v3.4a3.6,3.6,0,0,0,.04.594.752.752,0,0,0,.191.423.594.594,0,0,0,.443.161.544.544,0,0,0,.443-.161.752.752,0,0,0,.191-.423,3.676,3.676,0,0,0,.04-.594v-3.4h.675v3.365Zm3.94,1.713-.665-2.378h-.554v2.378h-.705v-5.078h1.018a2.208,2.208,0,0,1,.836.131.949.949,0,0,1,.494.433,1.611,1.611,0,0,1,.161.776,2.162,2.162,0,0,1-.06.534,1.012,1.012,0,0,1-.2.4.771.771,0,0,1-.363.242l.725,2.549h-.685Zm3.325,0h-.7v-5.078h.7Zm4.191-4.554h-.836v4.554h-.705v-4.554h-.856v-.524h2.4Zm3.2,2.761v1.793h-.675V391.5l-1.1-3.285h.655l.776,2.448.766-2.448h.665Zm7.789,1.29a1.008,1.008,0,0,1-.433.413,1.283,1.283,0,0,1-.635.141,1.312,1.312,0,0,1-.736-.191,1.194,1.194,0,0,1-.443-.524,2.043,2.043,0,0,1-.171-.776l.625-.171a2.988,2.988,0,0,0,.081.524,1,1,0,0,0,.212.413.54.54,0,0,0,.423.161.533.533,0,0,0,.413-.151.649.649,0,0,0,.141-.443.863.863,0,0,0-.161-.554,2.509,2.509,0,0,0-.393-.423l-.856-.756a1.392,1.392,0,0,1-.373-.484,1.5,1.5,0,0,1-.121-.645,1.147,1.147,0,0,1,.322-.866,1.21,1.21,0,0,1,.867-.3,1.748,1.748,0,0,1,.534.081.891.891,0,0,1,.383.242,1.179,1.179,0,0,1,.242.413,2.294,2.294,0,0,1,.121.584l-.6.161a2.986,2.986,0,0,0-.071-.463.692.692,0,0,0-.2-.343.68.68,0,0,0-.816.01.533.533,0,0,0-.151.413.862.862,0,0,0,.081.383,1.315,1.315,0,0,0,.252.312l.856.756a2.625,2.625,0,0,1,.5.594,1.554,1.554,0,0,1,.222.826A.909.909,0,0,1,131.75,392.789Zm4.665-1.088a2.528,2.528,0,0,1-.131.867,1.14,1.14,0,0,1-.433.574,1.481,1.481,0,0,1-.816.2,1.542,1.542,0,0,1-.826-.2,1.115,1.115,0,0,1-.443-.574,2.589,2.589,0,0,1-.131-.877v-1.924a2.489,2.489,0,0,1,.131-.867,1.056,1.056,0,0,1,.443-.554,1.835,1.835,0,0,1,1.632,0,1.089,1.089,0,0,1,.433.554,2.431,2.431,0,0,1,.131.857V391.7Zm3.97,1.592H138.37v-5.078h.705v4.574h1.31Zm4.4-1.713a3.6,3.6,0,0,1-.111.927,1.056,1.056,0,0,1-.4.615,1.726,1.726,0,0,1-1.693,0,1.089,1.089,0,0,1-.4-.615,3.6,3.6,0,0,1-.111-.927v-3.365h.675v3.4a3.6,3.6,0,0,0,.04.594.752.752,0,0,0,.191.423.594.594,0,0,0,.443.161.544.544,0,0,0,.443-.161.752.752,0,0,0,.191-.423,3.678,3.678,0,0,0,.04-.594v-3.4h.675v3.365Zm4.111-2.841h-.836v4.554h-.705v-4.554H146.5v-.524h2.4Zm2.489,4.554h-.7v-5.078h.7Zm4.776-1.592a2.528,2.528,0,0,1-.131.867,1.14,1.14,0,0,1-.433.574,1.481,1.481,0,0,1-.816.2,1.542,1.542,0,0,1-.826-.2,1.115,1.115,0,0,1-.443-.574,2.589,2.589,0,0,1-.131-.877v-1.924a2.489,2.489,0,0,1,.131-.867,1.056,1.056,0,0,1,.443-.554,1.835,1.835,0,0,1,1.632,0,1.089,1.089,0,0,1,.433.554,2.431,2.431,0,0,1,.131.857V391.7Zm4.474,1.592h-.453l-1.461-3.466v3.466h-.6v-5.078h.484l1.441,3.375v-3.375h.584v5.078Zm4.322-.5a1.008,1.008,0,0,1-.433.413,1.283,1.283,0,0,1-.635.141,1.312,1.312,0,0,1-.736-.191,1.194,1.194,0,0,1-.443-.524,2.043,2.043,0,0,1-.171-.776l.625-.171a2.988,2.988,0,0,0,.081.524,1,1,0,0,0,.212.413.54.54,0,0,0,.423.161.533.533,0,0,0,.413-.151.649.649,0,0,0,.141-.443.863.863,0,0,0-.161-.554,2.509,2.509,0,0,0-.393-.423l-.856-.756a1.392,1.392,0,0,1-.373-.484,1.5,1.5,0,0,1-.121-.645,1.147,1.147,0,0,1,.322-.866,1.219,1.219,0,0,1,.877-.3,1.748,1.748,0,0,1,.534.081.891.891,0,0,1,.383.242,1.179,1.179,0,0,1,.242.413,2.3,2.3,0,0,1,.121.584l-.6.161a2.988,2.988,0,0,0-.071-.463.692.692,0,0,0-.2-.343.68.68,0,0,0-.816.01.533.533,0,0,0-.151.413.862.862,0,0,0,.081.383,1.315,1.315,0,0,0,.252.312l.856.756a2.625,2.625,0,0,1,.5.594,1.554,1.554,0,0,1,.222.826A1.086,1.086,0,0,1,164.96,392.789Z" transform="translate(-89.16 -386.3)" fill="#a5a5a5"/>
      </g>
    </g>
  </g>
</svg>
