<svg id="call_black_24dp" xmlns="http://www.w3.org/2000/svg" width="34.46" height="34.46" viewBox="0 0 34.46 34.46">
  <path id="Path_13867" data-name="Path 13867" d="M0,0H34.46V34.46H0Z" fill="none"/>
  <path id="Path_13868" data-name="Path 13868" d="M8.083,5.872A17.679,17.679,0,0,0,8.729,9.59L7.006,11.313A21.287,21.287,0,0,1,5.915,5.872H8.083M22.24,23.13a18.311,18.311,0,0,0,3.733.646v2.139a22.15,22.15,0,0,1-5.456-1.077L22.24,23.13M9.461,3H4.436A1.44,1.44,0,0,0,3,4.436,24.407,24.407,0,0,0,27.409,28.845a1.44,1.44,0,0,0,1.436-1.436V22.4a1.44,1.44,0,0,0-1.436-1.436,16.379,16.379,0,0,1-5.126-.818,1.205,1.205,0,0,0-.445-.072,1.471,1.471,0,0,0-1.019.416L17.66,23.647A21.751,21.751,0,0,1,8.2,14.185l3.159-3.159a1.441,1.441,0,0,0,.359-1.465A16.312,16.312,0,0,1,10.9,4.436,1.44,1.44,0,0,0,9.461,3Z" transform="translate(1.307 1.307)" fill="#fff"/>
</svg>
