<svg id="place_black_24dp" xmlns="http://www.w3.org/2000/svg" width="34.46" height="34.46" viewBox="0 0 34.46 34.46">
  <path id="Path_13863" data-name="Path 13863" d="M0,0H34.46V34.46H0Z" fill="none"/>
  <path id="Path_13864" data-name="Path 13864" d="M15.487,16.358a2.872,2.872,0,1,1,2.872-2.872A2.88,2.88,0,0,1,15.487,16.358ZM24.1,13.774a8.62,8.62,0,1,0-17.23,0c0,3.36,2.8,7.811,8.615,13.123C21.3,21.585,24.1,17.134,24.1,13.774ZM15.487,2A11.422,11.422,0,0,1,26.973,13.774q0,7.15-11.487,16.943Q4.007,20.917,4,13.774A11.422,11.422,0,0,1,15.487,2Z" transform="translate(1.743 0.872)" fill="#fff"/>
</svg>
