<svg xmlns="http://www.w3.org/2000/svg" width="70" height="70" viewBox="0 0 70 70">
  <g id="Group_5440" data-name="Group 5440" transform="translate(-1407 -1405)">
    <circle id="Ellipse_64" data-name="Ellipse 64" cx="35" cy="35" r="35" transform="translate(1407 1405)" fill="rgba(120,108,230,0.2)"/>
    <g id="edit_notifications_black_24dp" transform="translate(1421 1419)">
      <rect id="Rectangle_4479" data-name="Rectangle 4479" width="43" height="43" fill="none"/>
      <g id="Group_5160" data-name="Group 5160" transform="translate(7.232 3.616)">
        <path id="Path_15158" data-name="Path 15158" d="M28.553,9.684l3.2,3.2-9,9h-3.2v-3.2Zm5.912-.8L32.548,6.972a.9.9,0,0,0-1.284,0L29.728,8.509l3.2,3.2,1.537-1.537A.9.9,0,0,0,34.465,8.888ZM29.312,20.442V29.12h3.616v3.616H4V29.12H7.616V16.464A10.825,10.825,0,0,1,15.752,5.978V4.712a2.712,2.712,0,1,1,5.424,0V5.978a10.887,10.887,0,0,1,4,1.971l-2.585,2.585a7.032,7.032,0,0,0-4.122-1.3,7.23,7.23,0,0,0-7.232,7.232V29.12H25.7V24.058Zm-14.464,14.1H22.08a3.616,3.616,0,1,1-7.232,0Z" transform="translate(-4 -2)" fill="#786ce6"/>
      </g>
    </g>
  </g>
</svg>
