<svg xmlns="http://www.w3.org/2000/svg" width="70" height="70" viewBox="0 0 70 70">
  <g id="Group_5436" data-name="Group 5436" transform="translate(-444 -1405)">
    <circle id="Ellipse_60" data-name="Ellipse 60" cx="35" cy="35" r="35" transform="translate(444 1405)" fill="rgba(70,148,235,0.2)"/>
    <g id="Group_319" data-name="Group 319" transform="translate(-1 -726.378)">
      <g id="description_black_24dp" transform="translate(459 2146.444)">
        <path id="Path_2024" data-name="Path 2024" d="M0,0H41.13V41.13H0Z" fill="none"/>
        <path id="Path_2025" data-name="Path 2025" d="M10.855,25.993h13.71V29.42H10.855Zm0-6.855h13.71v3.428H10.855ZM21.138,2H7.428A3.438,3.438,0,0,0,4,5.428v27.42a3.423,3.423,0,0,0,3.41,3.428H27.993a3.438,3.438,0,0,0,3.428-3.428V12.283Zm6.855,30.848H7.428V5.428h12V14h8.569Z" transform="translate(2.855 1.428)" fill="#4694eb"/>
      </g>
      <g id="Group_311" data-name="Group 311" transform="translate(477.851 2145.378)">
        <g id="Path_2019" data-name="Path 2019" transform="translate(-13 -1)" fill="#4694eb">
          <path d="M 22.1014518737793 20.20290184020996 C 16.53149223327637 20.20290184020996 12.00000190734863 15.67141056060791 12.00000190734863 10.10145092010498 C 12.00000190734863 4.531490802764893 16.53149223327637 9.201049806506489e-07 22.1014518737793 9.201049806506489e-07 C 27.67141151428223 9.201049806506489e-07 32.20290374755859 4.531490802764893 32.20290374755859 10.10145092010498 C 32.20290374755859 15.67141056060791 27.67141151428223 20.20290184020996 22.1014518737793 20.20290184020996 Z" stroke="none"/>
          <path d="M 22.1014518737793 1 C 17.07745170593262 1 13.00000190734863 5.077450752258301 13.00000190734863 10.10145092010498 C 13.00000190734863 15.12545108795166 17.07745170593262 19.20289993286133 22.1014518737793 19.20289993286133 C 27.12545204162598 19.20289993286133 31.20290184020996 15.12545108795166 31.20290184020996 10.10145092010498 C 31.20290184020996 5.077450752258301 27.12545204162598 1 22.1014518737793 1 M 23.0115909576416 11.92174053192139 L 21.19131278991699 11.92174053192139 L 21.19131278991699 4.640581130981445 L 23.0115909576416 4.640581130981445 L 23.0115909576416 11.92174053192139 M 23.0115909576416 15.56232070922852 L 21.19131278991699 15.56232070922852 L 21.19131278991699 13.74203109741211 L 23.0115909576416 13.74203109741211 L 23.0115909576416 15.56232070922852 M 22.1014518737793 -1 C 28.22281265258789 -1 33.20290374755859 3.980091094970703 33.20290374755859 10.10145092010498 C 33.20290374755859 16.22281074523926 28.22281265258789 21.20290184020996 22.1014518737793 21.20290184020996 C 15.9800910949707 21.20290184020996 11 16.22281074523926 11 10.10145092010498 C 11 3.980091094970703 15.9800910949707 -1 22.1014518737793 -1 Z" stroke="none" fill="#daeafb"/>
        </g>
      </g>
    </g>
  </g>
</svg>
