<svg xmlns="http://www.w3.org/2000/svg" width="70" height="70" viewBox="0 0 70 70">
  <g id="Group_5438" data-name="Group 5438" transform="translate(-926 -1405)">
    <g id="Group_134" data-name="Group 134" transform="translate(925.503 1405)">
      <circle id="Ellipse_63" data-name="Ellipse 63" cx="35" cy="35" r="35" transform="translate(0.497)" fill="rgba(220,104,142,0.2)"/>
    </g>
    <g id="dvr_black_24dp" transform="translate(940 1419)">
      <path id="Path_15156" data-name="Path 15156" d="M0,0H42V42H0Z" fill="none"/>
      <path id="Path_15157" data-name="Path 15157" d="M36,3H4.5A3.51,3.51,0,0,0,1,6.5v21A3.51,3.51,0,0,0,4.5,31h8.75v3.5h14V31H36a3.51,3.51,0,0,0,3.5-3.5V6.5A3.51,3.51,0,0,0,36,3Zm0,24.5H4.5V6.5H36ZM32.5,11.75H13.25v3.5H32.5Zm0,7H13.25v3.5H32.5Zm-21-7H8v3.5h3.5Zm0,7H8v3.5h3.5Z" transform="translate(0.75 2.25)" fill="#dc688e"/>
    </g>
  </g>
</svg>
