<svg width="24" height="24" viewBox="0 0 24 24" fill="none" xmlns="http://www.w3.org/2000/svg">
<path d="M18.0517 12.5689C18.0427 10.9302 18.7839 9.69336 20.2842 8.78248C19.4448 7.58137 18.1767 6.92054 16.5023 6.79105C14.9172 6.66603 13.1847 7.71533 12.5507 7.71533C11.8809 7.71533 10.3449 6.8357 9.13933 6.8357C6.6478 6.87589 4 8.82267 4 12.7832C4 13.9531 4.21432 15.1616 4.64297 16.4089C5.21451 18.0476 7.27738 22.0662 9.42956 21.9992C10.5548 21.9724 11.3496 21.1999 12.8141 21.1999C14.234 21.1999 14.9707 21.9992 16.2254 21.9992C18.3955 21.9679 20.2619 18.3155 20.8066 16.6723C17.8954 15.3015 18.0517 12.6537 18.0517 12.5689ZM15.5244 5.2372C16.7434 3.7905 16.6318 2.4733 16.596 2C15.52 2.06251 14.2742 2.73228 13.5642 3.55832C12.7828 4.44241 12.3229 5.53636 12.4212 6.76872C13.5866 6.85803 14.6493 6.2597 15.5244 5.2372Z" fill="#292D34"/>
</svg>
