<svg width="24" height="24" viewBox="0 0 24 24" fill="none" xmlns="http://www.w3.org/2000/svg">
<path d="M20.64 12.1998C20.64 11.4599 20.58 10.9199 20.45 10.3599H12V13.6998H16.96C16.86 14.5299 16.32 15.7799 15.12 16.6198L15.1032 16.7316L17.7749 18.8014L17.96 18.8199C19.66 17.2498 20.64 14.9398 20.64 12.1998Z" fill="#4285F4"/>
<path d="M12 20.9998C14.4299 20.9998 16.4699 20.1997 17.96 18.8198L15.12 16.6197C14.36 17.1497 13.34 17.5197 12 17.5197C9.62 17.5197 7.60001 15.9498 6.87995 13.7798L6.7744 13.7887L3.99629 15.9388L3.95996 16.0397C5.43995 18.9797 8.47995 20.9998 12 20.9998Z" fill="#34A853"/>
<path d="M6.87996 13.7798C6.68997 13.2198 6.58001 12.6198 6.58001 11.9998C6.58001 11.3798 6.68997 10.7798 6.86997 10.2198L6.86493 10.1006L4.05201 7.91602L3.95998 7.95979C3.35 9.17981 3 10.5498 3 11.9998C3 13.4498 3.35 14.8198 3.95998 16.0398L6.87996 13.7798Z" fill="#FBBC05"/>
<path d="M12 6.47998C13.69 6.47998 14.8299 7.20997 15.48 7.82002L18.02 5.34C16.46 3.89 14.4299 3 12 3C8.47995 3 5.43995 5.01998 3.95996 7.95996L6.86995 10.22C7.60001 8.05 9.62 6.47998 12 6.47998Z" fill="#EB4335"/>
</svg>
