<svg xmlns="http://www.w3.org/2000/svg" width="103.325" height="18.325" viewBox="0 0 103.325 18.325">
  <g id="Group_6404" data-name="Group 6404" transform="translate(-8662 -4893)">
    <g id="star_black_24dp_1_" data-name="star_black_24dp (1)" transform="translate(8662 4893)">
      <g id="Group_5605" data-name="Group 5605">
        <path id="Path_15833" data-name="Path 15833" d="M0,0H18.325V18.325H0Z" fill="none"/>
        <path id="Path_15834" data-name="Path 15834" d="M0,0H18.325V18.325H0Z" fill="none"/>
      </g>
      <g id="Group_5606" data-name="Group 5606" transform="translate(1.527 1.527)">
        <path id="Path_15835" data-name="Path 15835" d="M9.635,13.659l4.719,2.848L13.1,11.14l4.169-3.612-5.49-.466L9.635,2,7.49,7.062,2,7.528,6.169,11.14,4.917,16.507Z" transform="translate(-2 -2)" fill="#fbbc05"/>
      </g>
    </g>
    <g id="star_black_24dp_1_2" data-name="star_black_24dp (1)" transform="translate(8683 4893)">
      <g id="Group_5605-2" data-name="Group 5605">
        <path id="Path_15833-2" data-name="Path 15833" d="M0,0H18.325V18.325H0Z" fill="none"/>
        <path id="Path_15834-2" data-name="Path 15834" d="M0,0H18.325V18.325H0Z" fill="none"/>
      </g>
      <g id="Group_5606-2" data-name="Group 5606" transform="translate(1.527 1.527)">
        <path id="Path_15835-2" data-name="Path 15835" d="M9.635,13.659l4.719,2.848L13.1,11.14l4.169-3.612-5.49-.466L9.635,2,7.49,7.062,2,7.528,6.169,11.14,4.917,16.507Z" transform="translate(-2 -2)" fill="#fbbc05"/>
      </g>
    </g>
    <g id="star_black_24dp_1_3" data-name="star_black_24dp (1)" transform="translate(8705 4893)">
      <g id="Group_5605-3" data-name="Group 5605">
        <path id="Path_15833-3" data-name="Path 15833" d="M0,0H18.325V18.325H0Z" fill="none"/>
        <path id="Path_15834-3" data-name="Path 15834" d="M0,0H18.325V18.325H0Z" fill="none"/>
      </g>
      <g id="Group_5606-3" data-name="Group 5606" transform="translate(1.527 1.527)">
        <path id="Path_15835-3" data-name="Path 15835" d="M9.635,13.659l4.719,2.848L13.1,11.14l4.169-3.612-5.49-.466L9.635,2,7.49,7.062,2,7.528,6.169,11.14,4.917,16.507Z" transform="translate(-2 -2)" fill="#fbbc05"/>
      </g>
    </g>
    <g id="star_black_24dp_1_4" data-name="star_black_24dp (1)" transform="translate(8726 4893)">
      <g id="Group_5605-4" data-name="Group 5605">
        <path id="Path_15833-4" data-name="Path 15833" d="M0,0H18.325V18.325H0Z" fill="none"/>
        <path id="Path_15834-4" data-name="Path 15834" d="M0,0H18.325V18.325H0Z" fill="none"/>
      </g>
      <g id="Group_5606-4" data-name="Group 5606" transform="translate(1.527 1.527)">
        <path id="Path_15835-4" data-name="Path 15835" d="M9.635,13.659l4.719,2.848L13.1,11.14l4.169-3.612-5.49-.466L9.635,2,7.49,7.062,2,7.528,6.169,11.14,4.917,16.507Z" transform="translate(-2 -2)" fill="#fbbc05"/>
      </g>
    </g>
    <g id="star_black_24dp_1_5" data-name="star_black_24dp (1)" transform="translate(8747 4893)">
      <g id="Group_5605-5" data-name="Group 5605">
        <path id="Path_15833-5" data-name="Path 15833" d="M0,0H18.325V18.325H0Z" fill="none"/>
        <path id="Path_15834-5" data-name="Path 15834" d="M0,0H18.325V18.325H0Z" fill="none"/>
      </g>
      <g id="Group_5606-5" data-name="Group 5606" transform="translate(1.527 1.527)">
        <path id="Path_15835-5" data-name="Path 15835" d="M9.635,13.659l4.719,2.848L13.1,11.14l4.169-3.612-5.49-.466L9.635,2,7.49,7.062,2,7.528,6.169,11.14,4.917,16.507Z" transform="translate(-2 -2)" fill="#fbbc05"/>
      </g>
    </g>
  </g>
</svg>
