<svg id="download" xmlns="http://www.w3.org/2000/svg" width="218.766" height="48.346" viewBox="0 0 218.766 48.346">
  <path id="Path_15162" data-name="Path 15162" d="M8.9,58.059l20.05,0,12.192,0V45.987Z" transform="translate(-8.905 -40.284)" fill="#ff9d28"/>
  <path id="Path_15163" data-name="Path 15163" d="M226.285,13.237V55.88L241.512,7.534Z" transform="translate(-194.043 -7.534)" fill="#68c5ed"/>
  <path id="Path_15164" data-name="Path 15164" d="M156.278,127.409l-12.192,0,12.192,30.566Z" transform="translate(-124.036 -109.627)" fill="#044d80"/>
  <path id="Path_15165" data-name="Path 15165" d="M8.9,127.38l23.176,7.847-3.126-7.843Z" transform="translate(-8.905 -109.604)" fill="#e54747"/>
  <g id="Group_5434" data-name="Group 5434" transform="translate(51.867 8.636)">
    <path id="Path_15166" data-name="Path 15166" d="M380.6,94.245a5.618,5.618,0,0,1-.883.662,9.682,9.682,0,0,1-1.612.8,14.134,14.134,0,0,1-2.429.684,16.936,16.936,0,0,1-3.29.287,15.254,15.254,0,0,1-6.183-1.148,11.512,11.512,0,0,1-4.306-3.2,13.119,13.119,0,0,1-2.5-4.858,22.535,22.535,0,0,1-.795-6.161,21.359,21.359,0,0,1,.861-6.2,13.92,13.92,0,0,1,2.583-4.924,11.872,11.872,0,0,1,4.306-3.246,14.613,14.613,0,0,1,6.072-1.17,14.415,14.415,0,0,1,3.114.309,15.531,15.531,0,0,1,2.429.729,9.364,9.364,0,0,1,1.722.883,11.338,11.338,0,0,1,1.038.773,3.512,3.512,0,0,1,.685.839,2.051,2.051,0,0,1,.287,1.06,2.936,2.936,0,0,1-.662,1.766,12.768,12.768,0,0,1-1.458,1.634q-.53-.53-1.192-1.082a8.067,8.067,0,0,0-1.479-.972,9.809,9.809,0,0,0-1.855-.707,8.7,8.7,0,0,0-2.318-.287,6.935,6.935,0,0,0-6.227,3.268,10.022,10.022,0,0,0-1.325,3.334,18.4,18.4,0,0,0-.4,3.82,19.359,19.359,0,0,0,.4,3.974,9.475,9.475,0,0,0,1.369,3.356,7.311,7.311,0,0,0,2.539,2.34,7.863,7.863,0,0,0,3.908.883,7.942,7.942,0,0,0,2.274-.309,9.119,9.119,0,0,0,1.833-.751A9.411,9.411,0,0,0,378.5,89.7q.6-.486.994-.839.265.31.618.751a10.646,10.646,0,0,1,.662.927,8.073,8.073,0,0,1,.53.971,2.168,2.168,0,0,1,.221.883,1.977,1.977,0,0,1-.221.972,4.213,4.213,0,0,1-.707.883Zm22.759-3.387a9.783,9.783,0,0,0,1.022,5.109,8.738,8.738,0,0,1-1.488.444,7.579,7.579,0,0,1-1.444.133,3.972,3.972,0,0,1-2.421-.622,2.788,2.788,0,0,1-1.044-1.777,8.017,8.017,0,0,1-2.577,1.733,9.624,9.624,0,0,1-3.91.711,8.983,8.983,0,0,1-2.4-.332,6.3,6.3,0,0,1-2.177-1.085,5.629,5.629,0,0,1-1.6-2.016,6.907,6.907,0,0,1-.622-3.078,5.864,5.864,0,0,1,1.089-3.676,7.751,7.751,0,0,1,2.733-2.237,12.373,12.373,0,0,1,3.554-1.129,33.814,33.814,0,0,1,3.51-.4q.533-.044,1.044-.045h.955v-.809a2.914,2.914,0,0,0-.911-2.426,4.8,4.8,0,0,0-2.955-.719,8.751,8.751,0,0,0-3.4.622,27.788,27.788,0,0,0-2.91,1.422,6.516,6.516,0,0,1-1-1.666,4.015,4.015,0,0,1-.378-1.355,1.6,1.6,0,0,1,.689-1.2,6.759,6.759,0,0,1,1.888-1.044,15.391,15.391,0,0,1,2.755-.755,18,18,0,0,1,3.288-.289,14.618,14.618,0,0,1,4.065.489,6.356,6.356,0,0,1,2.71,1.51,5.739,5.739,0,0,1,1.488,2.555,12.92,12.92,0,0,1,.444,3.576v8.352ZM397.669,85.7h-.622a4.443,4.443,0,0,0-.622.045q-1.111.089-2.2.266a6.307,6.307,0,0,0-1.933.622,4.053,4.053,0,0,0-1.377,1.155,2.956,2.956,0,0,0-.533,1.822,3.217,3.217,0,0,0,.711,2.11,2.94,2.94,0,0,0,2.4.866,5.616,5.616,0,0,0,1.6-.222,5.466,5.466,0,0,0,1.333-.577,3.44,3.44,0,0,0,.911-.778,1.3,1.3,0,0,0,.333-.777V85.7Zm16.749-8.752a8.3,8.3,0,0,1,2.214-1.711,7.555,7.555,0,0,1,3.809-.866,8.84,8.84,0,0,1,3.123.555,6.841,6.841,0,0,1,2.635,1.8,8.983,8.983,0,0,1,1.838,3.288,15.918,15.918,0,0,1,.687,5.02,17.3,17.3,0,0,1-.8,5.709,9.763,9.763,0,0,1-2.059,3.554,7.1,7.1,0,0,1-2.812,1.844,9.485,9.485,0,0,1-3.1.533,7.741,7.741,0,0,1-2.237-.289,8.959,8.959,0,0,1-1.617-.644,4.292,4.292,0,0,1-1.018-.711,4.207,4.207,0,0,1-.443-.489v10.922H408.6V75q.223-.044.537-.089.269-.044.627-.067t.85-.022a5.818,5.818,0,0,1,2.507.489A2.3,2.3,0,0,1,414.418,76.952Zm8,8.219a13.257,13.257,0,0,0-.221-2.488,6.05,6.05,0,0,0-.729-2,3.546,3.546,0,0,0-1.37-1.311,4.357,4.357,0,0,0-2.1-.466,3.681,3.681,0,0,0-2.584.711,2.144,2.144,0,0,0-.729,1.555v9.419a5.65,5.65,0,0,0,1.258.844,4.347,4.347,0,0,0,2.1.488,3.582,3.582,0,0,0,3.313-1.777A9.75,9.75,0,0,0,422.416,85.171Zm10.972,7.642a7.724,7.724,0,0,1-.4-1.866q-.089-.977-.089-1.955V68.377q.31-.044.666-.089.31-.044.666-.067t.711-.022a7.719,7.719,0,0,1,1.422.133,3.32,3.32,0,0,1,1.289.533,2.934,2.934,0,0,1,.933,1.089,3.931,3.931,0,0,1,.355,1.8v3.154h6.22V79.4h-6.22V88.87q0,3.1,2.533,3.1a3.444,3.444,0,0,0,1.177-.2,6.987,6.987,0,0,0,1-.444,5.445,5.445,0,0,0,.777-.511q.333-.267.466-.4a14.971,14.971,0,0,1,1.022,1.693,3.035,3.035,0,0,1,.355,1.342,1.779,1.779,0,0,1-.466,1.144,4.6,4.6,0,0,1-1.311,1.032,8.154,8.154,0,0,1-2.043.762,11.087,11.087,0,0,1-2.621.292,7.43,7.43,0,0,1-4.288-1.066,5.67,5.67,0,0,1-2.155-2.8Zm27.076-.578a7.091,7.091,0,0,0,1.962-.244,7.839,7.839,0,0,0,1.516-.6,6.3,6.3,0,0,0,1.159-.777q.49-.422.892-.778a12.37,12.37,0,0,1,1.114,1.71,3.788,3.788,0,0,1,.58,1.711,2.23,2.23,0,0,1-1.11,1.777,8.315,8.315,0,0,1-2.644,1.222,14.128,14.128,0,0,1-4.021.511,16.037,16.037,0,0,1-4.11-.533,9.089,9.089,0,0,1-3.6-1.866,9.59,9.59,0,0,1-2.555-3.576,14.243,14.243,0,0,1-.977-5.665,12.2,12.2,0,0,1,.866-4.82,9.673,9.673,0,0,1,2.311-3.354A9.107,9.107,0,0,1,455.114,75a11.483,11.483,0,0,1,3.732-.622,10.288,10.288,0,0,1,4.22.777,7.692,7.692,0,0,1,2.821,2.088,8.224,8.224,0,0,1,1.577,3,12.739,12.739,0,0,1,.489,3.554v.622c0,.238-.008.489-.022.755s-.03.526-.044.777a4.828,4.828,0,0,1-.067.6H454.714a7.015,7.015,0,0,0,1.516,4.065A5.176,5.176,0,0,0,460.464,92.235Zm2.025-9.019a6.5,6.5,0,0,0-.827-3.465,3.214,3.214,0,0,0-2.971-1.333,3.674,3.674,0,0,0-2.927,1.266,5.226,5.226,0,0,0-1.094,3.532h7.819Zm15.98-6.152a7.654,7.654,0,0,1,.711-.882,5.04,5.04,0,0,1,1.088-.881,6.978,6.978,0,0,1,1.422-.662,5.134,5.134,0,0,1,1.666-.264,7.871,7.871,0,0,1,1.133.088,3.921,3.921,0,0,1,1.11.33,2.154,2.154,0,0,1,.822.661,1.69,1.69,0,0,1,.311,1.035,6.266,6.266,0,0,1-.489,2.226,18.146,18.146,0,0,1-.977,2.146,6.587,6.587,0,0,0-1.511-.955,4.379,4.379,0,0,0-1.777-.333,3.42,3.42,0,0,0-2.31.8,2.447,2.447,0,0,0-.933,1.916V96.673h-6.042V75q.222-.044.533-.089.267-.044.622-.067t.844-.022a5.221,5.221,0,0,1,2.466.551,2.468,2.468,0,0,1,1.311,1.694Zm17.178,0a7.7,7.7,0,0,1,.711-.882,5.042,5.042,0,0,1,1.088-.881,6.978,6.978,0,0,1,1.422-.662,5.135,5.135,0,0,1,1.666-.264,7.874,7.874,0,0,1,1.133.088,3.927,3.927,0,0,1,1.111.33,2.161,2.161,0,0,1,.822.661,1.692,1.692,0,0,1,.311,1.035,6.27,6.27,0,0,1-.489,2.226,18.248,18.248,0,0,1-.978,2.146,6.581,6.581,0,0,0-1.511-.955,4.377,4.377,0,0,0-1.777-.333,3.421,3.421,0,0,0-2.31.8,2.447,2.447,0,0,0-.933,1.916V96.673h-6.042V75q.222-.044.533-.089.267-.044.622-.067t.844-.022a5.218,5.218,0,0,1,2.466.551,2.468,2.468,0,0,1,1.311,1.694Zm28.835,13.794a9.784,9.784,0,0,0,1.022,5.109,8.748,8.748,0,0,1-1.488.444,7.58,7.58,0,0,1-1.444.133,3.972,3.972,0,0,1-2.421-.622,2.788,2.788,0,0,1-1.044-1.777,8.01,8.01,0,0,1-2.577,1.733,9.623,9.623,0,0,1-3.91.711,8.986,8.986,0,0,1-2.4-.332,6.3,6.3,0,0,1-2.177-1.085,5.63,5.63,0,0,1-1.6-2.016,6.909,6.909,0,0,1-.622-3.078,5.861,5.861,0,0,1,1.089-3.676,7.749,7.749,0,0,1,2.732-2.237,12.369,12.369,0,0,1,3.554-1.129,33.8,33.8,0,0,1,3.51-.4q.533-.044,1.044-.045h.955v-.809a2.915,2.915,0,0,0-.911-2.426,4.8,4.8,0,0,0-2.955-.719,8.752,8.752,0,0,0-3.4.622,27.821,27.821,0,0,0-2.91,1.422,6.522,6.522,0,0,1-1-1.666,4.016,4.016,0,0,1-.378-1.355,1.6,1.6,0,0,1,.689-1.2,6.761,6.761,0,0,1,1.888-1.044,15.4,15.4,0,0,1,2.755-.755,18,18,0,0,1,3.288-.289,14.62,14.62,0,0,1,4.065.489,6.356,6.356,0,0,1,2.71,1.51,5.744,5.744,0,0,1,1.488,2.555,12.934,12.934,0,0,1,.444,3.576ZM518.8,85.7h-.622a4.444,4.444,0,0,0-.622.045q-1.111.089-2.2.266a6.31,6.31,0,0,0-1.933.622,4.054,4.054,0,0,0-1.377,1.155,2.956,2.956,0,0,0-.533,1.822,3.217,3.217,0,0,0,.711,2.11,2.94,2.94,0,0,0,2.4.866,5.615,5.615,0,0,0,1.6-.222,5.463,5.463,0,0,0,1.333-.577,3.442,3.442,0,0,0,.911-.778,1.3,1.3,0,0,0,.333-.777V85.7Z" transform="translate(-358.605 -65.76)" fill="#044d80"/>
  </g>
</svg>
