<svg id="Group_5608" data-name="Group 5608" xmlns="http://www.w3.org/2000/svg" width="102.929" height="18.714" viewBox="0 0 102.929 18.714">
  <g id="star_black_24dp_1_" data-name="star_black_24dp (1)" transform="translate(0 0)">
    <g id="Group_5605" data-name="Group 5605">
      <path id="Path_15833" data-name="Path 15833" d="M0,0H18.714V18.714H0Z" fill="none"/>
      <path id="Path_15834" data-name="Path 15834" d="M0,0H18.714V18.714H0Z" fill="none"/>
    </g>
    <g id="Group_5606" data-name="Group 5606" transform="translate(1.56 1.56)">
      <path id="Path_15835" data-name="Path 15835" d="M9.8,13.907l4.819,2.909-1.279-5.482L17.6,7.646,11.989,7.17,9.8,2,7.607,7.17,2,7.646l4.258,3.688L4.979,16.816Z" transform="translate(-2 -2)" fill="#fbbc05"/>
    </g>
  </g>
  <g id="star_black_24dp_1_2" data-name="star_black_24dp (1)" transform="translate(21.054 0)">
    <g id="Group_5605-2" data-name="Group 5605">
      <path id="Path_15833-2" data-name="Path 15833" d="M0,0H18.714V18.714H0Z" fill="none"/>
      <path id="Path_15834-2" data-name="Path 15834" d="M0,0H18.714V18.714H0Z" fill="none"/>
    </g>
    <g id="Group_5606-2" data-name="Group 5606" transform="translate(1.56 1.56)">
      <path id="Path_15835-2" data-name="Path 15835" d="M9.8,13.907l4.819,2.909-1.279-5.482L17.6,7.646,11.989,7.17,9.8,2,7.607,7.17,2,7.646l4.258,3.688L4.979,16.816Z" transform="translate(-2 -2)" fill="#fbbc05"/>
    </g>
  </g>
  <g id="star_black_24dp_1_3" data-name="star_black_24dp (1)" transform="translate(42.107 0)">
    <g id="Group_5605-3" data-name="Group 5605">
      <path id="Path_15833-3" data-name="Path 15833" d="M0,0H18.714V18.714H0Z" fill="none"/>
      <path id="Path_15834-3" data-name="Path 15834" d="M0,0H18.714V18.714H0Z" fill="none"/>
    </g>
    <g id="Group_5606-3" data-name="Group 5606" transform="translate(1.56 1.56)">
      <path id="Path_15835-3" data-name="Path 15835" d="M9.8,13.907l4.819,2.909-1.279-5.482L17.6,7.646,11.989,7.17,9.8,2,7.607,7.17,2,7.646l4.258,3.688L4.979,16.816Z" transform="translate(-2 -2)" fill="#fbbc05"/>
    </g>
  </g>
  <g id="star_black_24dp_1_4" data-name="star_black_24dp (1)" transform="translate(63.161 0)">
    <g id="Group_5605-4" data-name="Group 5605">
      <path id="Path_15833-4" data-name="Path 15833" d="M0,0H18.714V18.714H0Z" fill="none"/>
      <path id="Path_15834-4" data-name="Path 15834" d="M0,0H18.714V18.714H0Z" fill="none"/>
    </g>
    <g id="Group_5606-4" data-name="Group 5606" transform="translate(1.56 1.56)">
      <path id="Path_15835-4" data-name="Path 15835" d="M9.8,13.907l4.819,2.909-1.279-5.482L17.6,7.646,11.989,7.17,9.8,2,7.607,7.17,2,7.646l4.258,3.688L4.979,16.816Z" transform="translate(-2 -2)" fill="#fbbc05"/>
    </g>
  </g>
  <g id="star_black_24dp_1_5" data-name="star_black_24dp (1)" transform="translate(84.215 0)">
    <g id="Group_5605-5" data-name="Group 5605">
      <path id="Path_15833-5" data-name="Path 15833" d="M0,0H18.714V18.714H0Z" fill="none"/>
      <path id="Path_15834-5" data-name="Path 15834" d="M0,0H18.714V18.714H0Z" fill="none"/>
    </g>
    <g id="Group_5606-5" data-name="Group 5606" transform="translate(1.56 1.56)">
      <path id="Path_15835-5" data-name="Path 15835" d="M9.8,13.907l4.819,2.909-1.279-5.482L17.6,7.646,11.989,7.17,9.8,2,7.607,7.17,2,7.646l4.258,3.688L4.979,16.816Z" transform="translate(-2 -2)" fill="#bcbcbc"/>
    </g>
  </g>
</svg>
