<svg xmlns="http://www.w3.org/2000/svg" width="70" height="70" viewBox="0 0 70 70">
  <g id="Group_5936" data-name="Group 5936" transform="translate(-69.497 -55)">
    <g id="Group_134" data-name="Group 134" transform="translate(69 55)">
      <circle id="Ellipse_63" data-name="Ellipse 63" cx="35" cy="35" r="35" transform="translate(0.497)" fill="rgba(220,104,142,0.2)"/>
    </g>
    <g id="Group_296" data-name="Group 296" transform="translate(-33.948 65.052)">
      <ellipse id="Ellipse_124" data-name="Ellipse 124" cx="21" cy="8" rx="21" ry="8" transform="translate(117.497 31)" fill="rgba(255,255,255,0)"/>
      <path id="Ellipse_124_-_Outline" data-name="Ellipse 124 - Outline" d="M26.344.261l.016,0,.016,0,.016,0,.016,0,.017,0,.016,0,.017,0,.016,0,.017,0h0l.5.054-.281,2.484c-.62-.07-1.257-.129-1.893-.176C24.814,2.638,26.339.261,26.344.261ZM28.97.6l.085.013.015,0,.014,0,.015,0,.015,0,.015,0,.015,0,.014,0h0l.03,0h0l.015,0h0l.016,0h0q.44.071.869.15h0l.015,0h0l.016,0,.016,0,.016,0,.015,0,.017,0,.016,0,.015,0,.015,0,.017,0,.018,0,.015,0,.015,0h0q.324.061.641.126l-.5,2.449c-.6-.123-1.222-.235-1.852-.334L28.97.6Zm3.916.808q.582.152,1.135.319h0l.006,0,.023.007.006,0,.006,0,.007,0,.007,0,.008,0,.008,0,.007,0,.007,0q.355.108.7.222l-.789,2.372c-.557-.185-1.15-.361-1.762-.521L32.886,1.4Zm3.788,1.272q.244.1.478.211h0l.145.067h0l.014.006h0l.013.006h0l.013.006h0l.007,0h0l.007,0,.007,0h0l.007,0,.007,0,.008,0,.007,0L37.4,3l.007,0,.006,0,.008,0,.007,0,.008,0,.006,0,.008,0,.006,0,.008,0,.006,0,.007,0,.008,0,.006,0,.008,0,.006,0,.008,0,.006,0,.006,0,.008,0,.006,0,.008,0,.005,0,.007,0,.005,0h0l.013.006h0l.014.007h0q.458.225.875.462L37.231,5.731a15.127,15.127,0,0,0-1.538-.755Zm3.444,2.009c.062.052.122.1.181.156l0,0,0,0,0,0,0,0,0,0,0,0,0,0,0,0,0,0,0,0,0,0,0,0,0,0,0,0,0,0h0l0,0h0l0,0h0l0,0h0l0,0h0l0,0h0l0,0h0l0,0,0,0h0l0,0h0l0,0h0l0,0h0l0,0h0l0,0h0l.006.006h0l.027.025h0l0,0h0l0,0h0l.081.076h0l.006.005h0l0,0h0l0,0h0l0,0h0l0,0h0l.079.077h0l0,0h0l0,0h0l0,0h0l0,0h0l0,0h0l0,0h0l.023.023h0l0,0h0l0,0h0l0,0h0l0,0h0l0,0h0l0,0h0l0,0,0,0h0l0,0h0l0,0h0l0,0h0l0,0h0l0,0h0l0,0h0l0,0h0l0,0h0l0,0,0,0,0,0,0,0,0,0,0,0,0,0,0,0,0,0,0,0,0,0,0,0,0,0,0,0,0,0,0,0,0,0,0,0,0,0,0,0,0,0,0,0,0,0,0,0,0,0,0,0,0,0,0,0,0,0,0,0,0,0,0,0,0,0,0,0,0,0,0,0h0l0,0h0l.008.009,0,0h0l.005.006h0l0,0,0,0,0,0h0l0,0h0a5.35,5.35,0,0,1,.629.821l-2.13,1.31a3.828,3.828,0,0,0-.8-.874l1.6-1.918ZM39.5,8.012l2.5.049a3.146,3.146,0,0,1-.07.6h0l0,.022h0v0h0v0h0l0,.011h0v.007h0v0h0l0,.007h0v.014h0l0,.007v.014h0v.02l0,.008V8.8h0l0,.008v.013h0l0,.008v0h0v0h0v0h0l0,.015h0v0h0l-.005.019h0v0h0a3.706,3.706,0,0,1-.294.719h0l0,0h0l-.006.012,0,0h0v0h0v0h0l-.006.011,0,0h0v0l0,0h0l-.006.011,0,0,0,0,0,0h0l0,.008,0,0,0,0,0,0,0,0h0l0,.007,0,0,0,0,0,0,0,0,0,0,0,0,0,0,0,0,0,0,0,0h0l0,.007,0,0,0,0,0,0,0,0h0l-.006.01,0,0h0l0,0h0q-.049.083-.1.166L39.287,8.57A1.113,1.113,0,0,0,39.5,8.012Zm-1.053,1.44,1.576,1.941q-.236.192-.5.378h0l-.007.005h0l-.011.008h0l-.007,0,0,0h0l-.005,0h0l0,0-.005,0-.006,0-.005,0,0,0-.006,0-.006,0-.007,0,0,0,0,0-.005,0h0l0,0h0l-.005,0h0l0,0h0l-.005,0h0l-.005,0h0l-.005,0h0l-.005,0h0l-.006,0h0l-.006,0h0l-.006,0h0l-.012.008h0l-.019.013h0q-.452.307-.971.6l-1.219-2.183A9.182,9.182,0,0,0,38.447,9.452Zm-2.853,1.614.968,2.3c-.257.108-.524.214-.8.317l-.005,0h0l-.013,0-.006,0-.006,0-.008,0-.007,0-.007,0-.006,0-.008,0-.006,0h0l-.006,0h0q-.475.177-.979.343h0l-.015,0h0l-.778-2.376C34.5,11.5,35.071,11.286,35.594,11.067Zm-3.451,1.139.625,2.421h0l-.012,0-.014,0-.014,0-.014,0-.015,0-.015,0-.014,0-.014,0-.014,0-.013,0q-.354.09-.719.175h0l-.013,0h0l-.032.007h0l-.012,0h0l-.013,0h0l-.033.007-.013,0-.014,0h0l-.033.007-.013,0-.015,0h0l-.032.007-.013,0-.015,0h0l-.033.007-.014,0-.014,0h0c-.254.057-.51.111-.771.164l-.495-2.451C30.947,12.5,31.559,12.357,32.143,12.206Zm-3.673.745.38,2.471q-.969.149-1.983.261L26.592,13.2C27.226,13.129,27.858,13.045,28.47,12.951ZM24.7,13.37l.177,2.494c-.484.034-.975.063-1.47.084h-.086l-.441.017-.084-2.5C23.43,13.448,24.071,13.415,24.7,13.37Zm-5.724.091c.63.024,1.272.037,1.909.038L20.877,16l-.495,0h-.167l-.469-.009h-.3l-.565-.019Zm-3.8-.289c.619.072,1.256.132,1.892.181l-.189,2.493q-.356-.027-.708-.059h-.144l-.016,0-.016,0h0c-.372-.035-.741-.073-1.1-.115Zm-3.726-.6c.6.125,1.221.239,1.851.339l-.393,2.469-.384-.063-.015,0-.015,0-.015,0-.016,0-.015,0-.015,0-.015,0-.016,0-.015,0-.015,0-.014,0h0l-.016,0-.031-.005h0l-.031-.005h0l-.015,0h0L11.85,15.2h0l-.015,0h0l-.015,0h0l-.015,0-.015,0h0l-.016,0-.015,0-.016,0-.015,0-.015,0-.016,0-.016,0-.016,0-.016,0-.015,0-.018,0-.017,0-.015,0-.015,0h0q-.316-.061-.626-.125ZM7.88,11.621c.555.187,1.147.365,1.758.527L9,14.565c-.667-.177-1.308-.37-1.915-.575Zm-3.2-1.4a14.719,14.719,0,0,0,1.527.763l-1,2.293a17.57,17.57,0,0,1-1.588-.781h0l-.013-.007h0L3.6,12.48h0l-.013-.007h0l-.006,0h0l-.006,0h0l-.006,0-.006,0-.006,0-.007,0-.006,0-.006,0-.007,0-.006,0-.008,0-.005,0L3.5,12.423h0l-.012-.007h0l-.013-.007h0l-.047-.027ZM2.655,8.476a3.58,3.58,0,0,0,.764.864l-1.63,1.9a6.439,6.439,0,0,1-1.07-1.153h0l-.006-.009,0,0,0,0,0,0,0,0,0,0,0,0,0,0,0,0v0h0l0,0h0l0,0,0,0,0,0h0l0,0h0l0,0,0,0,0,0,0,0,0,0,0,0,0,0,0-.006h0Q.572,9.868.49,9.727ZM.687,5.963,2.745,7.381a1.212,1.212,0,0,0-.244.582l-2.5-.148a3.142,3.142,0,0,1,.042-.357h0l.008-.044h0l0-.015h0v0h0v0h0l0-.015h0v0h0v0h0v0h0l0-.011h0V7.348h0v0h0v0h0l0-.007h0V7.326h0v0h0l0-.011h0V7.3h0l0-.007h0V7.278h0v0h0l0-.007h0V7.253h0l0-.007h0V7.231h0l0-.007V7.209h0v0h0V7.187h0l0-.007h0V7.161h0V7.139h0V7.05h0l0,0V7.028h0l0-.008V7.006h0L.163,7V6.984h0l0-.008v-.01h0v0h0l0-.012v0h0V6.941h0l0-.009V6.919h0l0-.011h0v0h0v0h0v0h0l0-.012v0h0v0h0v0h0l0-.012h0v0h0v0h0v0h0l0-.012h0V6.835h0v0h0l0-.012h0v0h0v0h0v0h0v0h0l0-.012v-.01h0l0-.009h0v0h0v0h0v0h0l.006-.015h0v0h0v0h0l0-.012h0v0h0v0h0v0h0v0h0l.005-.012h0v0h0v0h0l.006-.015v0h0V6.677h0l.006-.015h0v0h0v0h0L.3,6.64h0v0h0v0h0l.005-.012h0v0h0v0h0v0h0v0h0L.322,6.6h0v0h0v0l0,0h0l.005-.012v0l0,0,0,0h0l.005-.011v0l0,0,0,0,.006-.012,0,0h0v0l0,0h0l.005-.011,0,0h0v0l0,0h0l.006-.011v0l0,0,0,0,0,0h0l0-.009,0,0,0,0,0,0,0,0h0l0-.006v0l0,0,0,0,0,0,0,0h0l0-.008,0,0,0-.006,0,0h0l0-.007,0,0,0,0,0,0,0,0,0,0,0,0,0,0,0,0,0,0,0,0,0,0v0l0,0,0,0,0,0,0,0,0,0,0,0v0l0,0,0,0,0,0,0,0,0,0,0,0h0l0,0,0,0,0,0,0-.007,0,0h0l0,0v0l0,0,0,0,0,0,0,0,0,0,0,0,0,0,0,0,0,0,0,0h0l0,0,0,0,0,0,0,0,0,0,0,0,0,0,0,0,0,0,0,0,0,0,0,0,0,0,0,0,0,0,0,0,0,0,0-.007h0l0,0,0,0,0,0,0,0,0,0,0,0v0l0-.006,0,0,0,0,0,0,0,0h0l0-.007,0,0,0,0,0,0,0,0,0,0h0l0,0,0,0,0,0,0,0,0,0,0,0h0l0,0,0,0,0,0,0,0,0-.007h0l0,0,0,0,0,0,0,0,0-.007h0l0,0,0,0,0,0,0,0,0,0,0,0h0l0,0,0,0,0,0,0,0,0,0,0,0h0l0,0,0,0,0,0,0,0,0,0,0,0h0l0,0h0l0,0,0-.007,0,0,0,0h0l0,0h0l0,0,0-.006,0,0h0ZM3.746,3.439l1.2,2.192a9.547,9.547,0,0,0-1.325.861L2.072,4.53A12,12,0,0,1,3.746,3.439ZM7.43,1.894,8.2,4.274c-.6.193-1.166.4-1.691.618l-.955-2.31q.407-.168.838-.327h0L6.4,2.248l.007,0,.007,0,.008,0h0l.009,0,.007,0h0l.02-.007h0l.022-.008h0q.457-.167.941-.323ZM11.3.9c-.137,2.576-.75,2.714-1.334,2.863L9.351,1.343q.529-.135,1.08-.257h0l.014,0,.015,0,.015,0,.016,0,.029-.006.015,0,.015,0,.014,0,.014,0,.015,0,.015,0h0c.215-.047.432-.092.652-.136l.014,0,.015,0ZM15.256.3l.269,2.486c-.635.069-1.267.15-1.879.243L13.272.559,13.644.5l.014,0,.015,0,.015,0L13.7.5l.014,0,.015,0,.015,0,.015,0,.014,0,.015,0,.014,0h0l.015,0h0Q14.527.382,15.256.3Zm2.164,2.318C17.281.125,18.046,2.578,17.419,2.621Z" transform="translate(117.497 31)" fill="#dc688e"/>
      <g id="person_pin_circle_black_24dp" transform="translate(117.445 1.948)">
        <path id="Path_2008" data-name="Path 2008" d="M0,0H42.1V42.1H0Z" fill="none"/>
        <path id="Path_2009" data-name="Path 2009" d="M18.035,17.789c2.333,0,7.017,1.175,7.017,3.509v.281a9.241,9.241,0,0,1-14.035,0V21.3C11.017,18.964,15.7,17.789,18.035,17.789Zm0-1.754a3.509,3.509,0,1,1,3.509-3.509A3.519,3.519,0,0,1,18.035,16.035Zm10.526.351c0-6.368-4.649-10.877-10.526-10.877S7.509,10.017,7.509,16.385c0,4.105,3.421,9.544,10.526,16.035C25.14,25.929,28.561,20.491,28.561,16.385ZM18.035,2A13.955,13.955,0,0,1,32.069,16.385q0,8.737-14.035,20.7Q4.009,25.113,4,16.385A13.955,13.955,0,0,1,18.035,2Z" transform="translate(3.017 1.509)" fill="#dc688e"/>
      </g>
    </g>
  </g>
</svg>
