<svg xmlns="http://www.w3.org/2000/svg" width="70" height="70" viewBox="0 0 70 70">
  <g id="Group_132" data-name="Group 132" transform="translate(-0.486)">
    <circle id="Ellipse_60" data-name="Ellipse 60" cx="35" cy="35" r="35" transform="translate(0.486)" fill="rgba(70,148,235,0.2)"/>
    <g id="date_range_black_24dp" transform="translate(13.892 13.892)">
      <path id="Path_1407" data-name="Path 1407" d="M0,0H42.216V42.216H0Z" fill="none"/>
      <path id="Path_1408" data-name="Path 1408" d="M9.386,16.954h3.193v3.323H9.386ZM31.738,8.646V31.908a3.27,3.27,0,0,1-3.193,3.323H6.193A3.259,3.259,0,0,1,3,31.908L3.016,8.646A3.246,3.246,0,0,1,6.193,5.323h1.6V2h3.193V5.323H23.755V2h3.193V5.323h1.6A3.27,3.27,0,0,1,31.738,8.646ZM6.193,11.969H28.545V8.646H6.193ZM28.545,31.908V15.292H6.193V31.908ZM22.159,20.277h3.193V16.954H22.159Zm-6.386,0h3.193V16.954H15.773Z" transform="translate(3.739 2.493)" fill="#4694eb"/>
    </g>
  </g>
</svg>
