<svg width="101" height="101" viewBox="0 0 101 101" fill="none" xmlns="http://www.w3.org/2000/svg">
<circle opacity="0.2" cx="50.5" cy="50.5" r="50.5" fill="#AE6AE3"/>
<path fill-rule="evenodd" clip-rule="evenodd" d="M58.4473 34.3997C62.1336 35.6553 65.1103 38.2713 66.8291 41.7657C68.5479 45.2602 68.8029 49.2149 67.5472 52.9011C67.3729 53.413 66.8946 53.7354 66.3823 53.7354C66.2507 53.7354 66.1168 53.7141 65.9853 53.6693C65.3419 53.4502 64.9979 52.7509 65.2171 52.1074C66.2608 49.0436 66.0487 45.7566 64.6202 42.8521C63.1916 39.9476 60.7175 37.7734 57.6536 36.7298C57.0102 36.5106 56.6662 35.8113 56.8854 35.1679C57.1045 34.5244 57.8037 34.1802 58.4473 34.3997ZM43.1085 35.1695C43.3277 35.813 42.9837 36.5123 42.3403 36.7315C36.0153 38.8858 32.6224 45.7842 34.7766 52.1091C34.9959 52.7526 34.6519 53.4518 34.0084 53.671C33.8769 53.7158 33.7431 53.7371 33.6114 53.7371C33.0992 53.7371 32.6209 53.4147 32.4465 52.9028C29.8545 45.293 33.9368 36.9932 41.5465 34.4013C42.19 34.1819 42.8893 34.5261 43.1085 35.1695ZM58.4486 52.2235V49.734C58.4486 45.7738 55.7246 42.4503 52.0483 41.5336V39.0034C52.0483 37.8705 51.1299 36.9521 49.9969 36.9521C48.864 36.9521 47.9456 37.8705 47.9456 39.0034V41.5335C44.2693 42.4502 41.5453 45.7738 41.5453 49.7339V52.2234C41.5453 54.885 40.4879 57.4377 38.6059 59.3198C37.7787 60.147 37.5312 61.3912 37.9789 62.4721C38.4266 63.553 39.4813 64.2577 40.6512 64.2577H45.7508C45.7508 66.6027 47.6518 68.5038 49.9969 68.5038C52.3419 68.5038 54.2429 66.6027 54.2429 64.2577H59.3425C60.5124 64.2577 61.5672 63.5529 62.0148 62.4721C62.4625 61.3912 62.2151 60.147 61.3878 59.3198C59.5059 57.4378 58.4486 54.8851 58.4486 52.2235ZM49.9969 66.0421C49.0129 66.0421 48.2125 65.2416 48.2125 64.2577H51.7815C51.7814 65.2417 50.9809 66.0421 49.9969 66.0421ZM59.7407 61.53C59.6737 61.6916 59.5175 61.796 59.3426 61.796H40.6512C40.4763 61.796 40.3201 61.6916 40.2531 61.5301C40.1861 61.3685 40.2228 61.1841 40.3465 61.0605C42.707 58.7001 44.0069 55.5617 44.0069 52.2235V49.734C44.0069 46.4311 46.694 43.744 49.9969 43.744C53.2997 43.744 55.9869 46.4311 55.9869 49.734V52.2235C55.9869 55.5617 57.2868 58.7 59.6472 61.0605C59.771 61.1841 59.8077 61.3684 59.7407 61.53ZM38.7354 52.2094C39.3789 51.9902 39.7229 51.291 39.5036 50.6475C38.1449 46.6583 40.2849 42.3075 44.274 40.9487C44.9175 40.7295 45.2615 40.0303 45.0422 39.3868C44.8231 38.7433 44.1238 38.3992 43.4803 38.6186C38.2063 40.4149 35.3771 46.1672 37.1734 51.4412C37.3478 51.9531 37.8261 52.2755 38.3384 52.2755C38.4701 52.2755 38.604 52.2542 38.7354 52.2094ZM56.5134 38.6186C55.8698 38.3993 55.1707 38.7434 54.9515 39.3868C54.7323 40.0303 55.0763 40.7295 55.7197 40.9487C59.7089 42.3075 61.8488 46.6583 60.4902 50.6475C60.271 51.291 60.6149 51.9902 61.2584 52.2094C61.3899 52.2542 61.5237 52.2755 61.6554 52.2755C62.1676 52.2755 62.6459 51.9531 62.8203 51.4412C64.6167 46.1672 61.7874 40.4149 56.5134 38.6186Z" fill="#AE6AE3"/>
</svg>
