<svg width="20" height="20" viewBox="0 0 20 20" fill="none" xmlns="http://www.w3.org/2000/svg">
<path fill-rule="evenodd" clip-rule="evenodd" d="M10.7071 3.45964C10.3166 3.06912 9.68342 3.06912 9.29289 3.45964C8.90237 3.85017 8.90237 4.48333 9.29289 4.87385L13.4191 9.00008H4.16667C3.61438 9.00008 3.16667 9.4478 3.16667 10.0001C3.16667 10.5524 3.61438 11.0001 4.16667 11.0001H13.4191L9.29289 15.1263C8.90237 15.5168 8.90237 16.15 9.29289 16.5405C9.68342 16.931 10.3166 16.931 10.7071 16.5405L16.5394 10.7082C16.721 10.5272 16.8333 10.2767 16.8333 10.0001C16.8333 9.72351 16.7211 9.47316 16.5396 9.29213L10.7071 3.45964Z" fill="#786CE6"/>
</svg>
