<svg width="101" height="101" viewBox="0 0 101 101" fill="none" xmlns="http://www.w3.org/2000/svg">
<circle opacity="0.2" cx="50.5" cy="50.5" r="50.5" fill="#E9712F"/>
<path fill-rule="evenodd" clip-rule="evenodd" d="M61.1909 56.3219L66.2135 61.3445C66.7776 61.9086 66.73 62.7174 66.2135 63.3223C63.4065 66.6254 54.4895 70.479 48.6785 64.668L36.3021 52.2236C31.8504 47.8399 32.4892 39.9899 37.6546 34.8246C38.6537 33.8255 39.5168 34.6411 39.6324 34.7566L44.7229 39.8472C45.287 40.4113 45.287 41.2609 44.7229 41.825C43.3772 43.1707 43.3772 44.0882 43.52 44.7271C43.7306 45.6446 44.3695 46.6369 45.4977 47.8399L53.1982 55.5471C54.4012 56.7501 55.3934 57.3822 56.311 57.5249C56.9498 57.6676 57.8674 57.6676 59.2131 56.3219C59.4917 56.0365 60.3141 55.5335 61.1909 56.3219ZM38.2866 50.3138L50.6563 62.6902C53.7691 65.803 59.1451 65.5176 63.1822 62.2689L60.0694 59.1561C58.7237 60.1483 57.2353 60.5018 55.7537 60.2163C54.2652 59.9309 52.7836 59.0133 51.2272 57.4569L43.52 49.7497C41.9636 48.1933 41.046 46.7049 40.7606 45.2232C40.4819 43.7144 40.8217 42.2532 41.814 40.9006L38.7216 37.8082C35.4525 41.791 35.1603 47.1874 38.2866 50.3138ZM60.1306 54.2082L56.0323 50.0352C50.799 49.8177 46.6259 46.4262 46.6259 42.2532C46.6259 37.9442 51.0776 34.478 56.5964 34.478C62.1152 34.478 66.5669 38.0121 66.5669 42.2532C66.5669 44.6591 65.2212 46.8544 62.89 48.336L62.5365 53.4334C62.1016 55.3568 60.416 54.4937 60.1306 54.2082ZM63.8075 42.26C63.8075 39.5006 60.5588 37.2373 56.5964 37.2373C52.6408 37.2373 49.3853 39.4938 49.3853 42.2532C49.3853 45.0125 52.5661 47.2758 56.5284 47.2758C56.534 47.2758 56.5427 47.2752 56.5544 47.2745C56.6851 47.2663 57.1823 47.2353 57.6567 47.6972L59.9879 50.1031L60.1985 47.4185C60.1985 46.9291 60.484 46.501 60.9054 46.2903C62.7472 45.298 63.8075 43.8164 63.8075 42.26Z" fill="#E9712F"/>
</svg>
