<svg xmlns="http://www.w3.org/2000/svg" width="70" height="70">
    <g data-name="Group 133" transform="translate(-.492)">
        <circle data-name="Ellipse 61" cx="35" cy="35" r="35" transform="translate(.492)" style="fill:rgba(245,193,67,.2)"/>
        <path data-name="Path 2006" d="M0 0h42v42H0z" style="fill:none" transform="translate(14.492 14)"/>
        <path data-name="Path 2007" d="M24.033 1.01H13.552v3.5h10.481zm-6.987 22.733h3.494V13.251h-3.494zm14.028-11.576 2.481-2.483a19.31 19.31 0 0 0-2.463-2.466L28.61 9.7a15.74 15.74 0 1 0 2.463 2.466zM18.793 34.235a12.241 12.241 0 1 1 12.228-12.241 12.226 12.226 0 0 1-12.228 12.241z" transform="translate(16.823 14.767)" style="fill:#f5c143"/>
    </g>
</svg>
