<svg width="101" height="101" viewBox="0 0 101 101" fill="none" xmlns="http://www.w3.org/2000/svg">
<circle opacity="0.2" cx="50.5" cy="50.5" r="50.5" fill="#5A5DC3"/>
<path fill-rule="evenodd" clip-rule="evenodd" d="M62.2027 39.0841V52.7486C64.8061 53.6073 66.6735 56.0472 66.6666 58.9573C66.6666 62.508 63.7565 65.4863 60.1377 65.4863H43.3994C39.7805 65.4863 36.8704 62.5762 36.8704 58.9573C36.8704 55.3384 39.7805 52.4283 43.3994 52.4283H46.4254L42.2681 41.7148L39.0036 45.0474V50.4383C39.0036 51.2152 38.363 51.8558 37.586 51.8558H34.7509C33.974 51.8558 33.3333 51.2152 33.3333 50.4383C33.3333 49.6613 33.974 49.0207 34.7509 49.0207H36.2434V44.4068C36.2434 44.0524 36.3797 43.698 36.666 43.4117L41.8456 38.164C42.8542 37.244 43.9378 38.055 44.115 38.6615L48.7289 50.5746V44.4068C48.7289 44.0524 48.8653 43.698 49.1515 43.4117L54.5423 38.089C54.8286 37.8096 55.183 37.6665 55.5374 37.6665H60.7851C61.562 37.6665 62.2027 38.3071 62.2027 39.0841ZM56.0349 40.4335L51.421 44.9043V52.4215H59.3675V40.4335H56.0349ZM43.4062 62.7057H60.1445C62.2027 62.7057 63.9065 61.0019 63.9065 58.9437C63.9065 56.8855 62.2027 55.1817 60.1445 55.1817H43.4062C41.348 55.1817 39.6442 56.8855 39.6442 58.9437C39.6442 61.0019 41.348 62.7057 43.4062 62.7057ZM43.7266 60.3272C44.5283 60.3272 45.1782 59.6772 45.1782 58.8755C45.1782 58.0738 44.5283 57.4239 43.7266 57.4239C42.9248 57.4239 42.2749 58.0738 42.2749 58.8755C42.2749 59.6772 42.9248 60.3272 43.7266 60.3272ZM59.831 60.3272C60.6327 60.3272 61.2826 59.6772 61.2826 58.8755C61.2826 58.0738 60.6327 57.4239 59.831 57.4239C59.0292 57.4239 58.3793 58.0738 58.3793 58.8755C58.3793 59.6772 59.0292 60.3272 59.831 60.3272Z" fill="#5A5DC3"/>
</svg>
