<svg width="56" height="56" viewBox="0 0 56 56" fill="none" xmlns="http://www.w3.org/2000/svg">
<circle opacity="0.1" cx="28" cy="28" r="28" fill="#AE6AE3"/>
<path d="M26.6667 25.7142C26.6667 26.3444 27.2648 26.8571 28.0001 26.8571C30.2057 26.8571 32.0001 28.3952 32 30.2857C32 31.7439 30.9373 33.0308 29.3333 33.5178V36H26.6666V33.524C26.2294 33.3995 25.8016 33.214 25.3964 32.9685L24.3078 32.3088L25.8472 30.4424L26.9359 31.1021C27.2922 31.318 27.6543 31.4275 27.9968 31.4285H28.0242C28.7442 31.4184 29.3334 30.915 29.3334 30.2857C29.3334 29.6555 28.7353 29.1428 28.0001 29.1428C25.7944 29.1428 24 27.6048 24 25.7142C24 24.2421 25.08 22.9629 26.6667 22.4812V20H29.3334V22.4763C29.7706 22.6008 30.1985 22.7859 30.6036 23.0314L31.6923 23.6911L30.1529 25.5575L29.0641 24.8978C28.7079 24.6819 28.3458 24.5724 28.0033 24.5714H27.9759C27.2558 24.5816 26.6667 25.0849 26.6667 25.7142Z" fill="#AE6AE3"/>
<path fill-rule="evenodd" clip-rule="evenodd" d="M41.3334 28C41.3334 35.3638 35.3638 41.3333 28 41.3333C20.6362 41.3333 14.6667 35.3638 14.6667 28C14.6667 20.6362 20.6362 14.6666 28 14.6666C35.3638 14.6666 41.3334 20.6362 41.3334 28ZM39.2 28C39.2 34.1855 34.1856 39.2 28 39.2C21.8144 39.2 16.8 34.1855 16.8 28C16.8 21.8144 21.8144 16.8 28 16.8C34.1856 16.8 39.2 21.8144 39.2 28Z" fill="#AE6AE3"/>
</svg>
