<svg width="56" height="56" viewBox="0 0 56 56" fill="none" xmlns="http://www.w3.org/2000/svg">
<circle opacity="0.1" cx="28" cy="28" r="28" fill="#8CCA85"/>
<path d="M38.7872 36.8212C39.2396 36.2454 39.5104 35.5207 39.5104 34.7336C39.5104 32.8667 37.9917 31.3481 36.125 31.3481C34.2584 31.3481 32.7396 32.8667 32.7396 34.7336C32.7396 35.2668 32.8641 35.7716 33.0847 36.221C32.5258 35.6609 31.8749 35.1927 31.1576 34.8404C31.9107 34.054 32.375 32.989 32.375 31.8169C32.375 29.4046 30.4123 27.4419 28 27.4419C25.5877 27.4419 23.625 29.4046 23.625 31.8169C23.625 32.989 24.0893 34.054 24.8425 34.8404C24.1249 35.1927 23.4743 35.6609 22.9154 36.221C23.1359 35.7716 23.2604 35.2668 23.2604 34.7336C23.2604 32.8667 21.7417 31.3481 19.875 31.3481C18.0084 31.3481 16.4896 32.8667 16.4896 34.7336C16.4896 35.5207 16.7604 36.2454 17.2129 36.8212C15.6894 37.731 14.6667 39.3962 14.6667 41.2961H16.75C16.75 39.5728 18.1518 38.1711 19.875 38.1711C20.3975 38.1711 20.9071 38.3015 21.3598 38.546C21.0074 39.3936 20.8125 40.3223 20.8125 41.2961H22.8959C22.8959 38.4815 25.1857 36.1919 28 36.1919C30.8144 36.1919 33.1042 38.4815 33.1042 41.2961H35.1875C35.1875 40.3223 34.9926 39.3936 34.6402 38.546C35.0929 38.3015 35.6026 38.1711 36.125 38.1711C37.8482 38.1711 39.25 39.5728 39.25 41.2961H41.3334C41.3334 39.3962 40.3106 37.731 38.7872 36.8212ZM19.875 33.4315C20.593 33.4315 21.1771 34.0156 21.1771 34.7336C21.1771 35.4515 20.593 36.0356 19.875 36.0356C19.157 36.0356 18.5729 35.4515 18.5729 34.7336C18.5729 34.0156 19.157 33.4315 19.875 33.4315ZM25.7084 31.8169C25.7084 30.5533 26.7364 29.5252 28 29.5252C29.2637 29.5252 30.2917 30.5533 30.2917 31.8169C30.2917 33.0805 29.2637 34.1086 28 34.1086C26.7364 34.1086 25.7084 33.0805 25.7084 31.8169ZM36.125 33.4315C36.843 33.4315 37.4271 34.0156 37.4271 34.7336C37.4271 35.4515 36.843 36.0356 36.125 36.0356C35.407 36.0356 34.8229 35.4515 34.8229 34.7336C34.8229 34.0156 35.407 33.4315 36.125 33.4315ZM25.6117 20.0013L24.1383 18.5281L28 14.6666L31.8617 18.5281L30.3885 20.0013L29.0417 18.6547V25.3586H26.9584V18.6547L25.6117 20.0013ZM33.7367 25.2096L32.2633 23.7365L36.125 19.875L39.9867 23.7365L38.5135 25.2096L37.1667 23.863V29.2648H35.0834V23.863L33.7367 25.2096ZM17.4867 25.2096L16.0133 23.7365L19.875 19.875L23.7367 23.7365L22.2635 25.2096L20.9167 23.863V29.2648H18.8334V23.863L17.4867 25.2096Z" fill="#8CCA85"/>
</svg>
