<svg width="101" height="101" viewBox="0 0 101 101" fill="none" xmlns="http://www.w3.org/2000/svg">
<circle opacity="0.2" cx="50.5" cy="50.5" r="50.5" fill="#8CCA85"/>
<path fill-rule="evenodd" clip-rule="evenodd" d="M34.7222 34.3335H65.2778C66.0403 34.3335 66.6667 34.9599 66.6667 35.7224V58.6391C66.6667 59.4016 66.0403 60.0279 65.2778 60.0279H63.0583V61.4168C63.1332 63.1529 62.1596 66.7613 58.061 67.6668H48.2707C47.8554 67.6668 47.5082 67.5307 47.229 67.2515L43.893 63.6431C43.6819 63.364 43.5457 63.0168 43.5457 62.6696V60.0279H34.7222C33.9597 60.0279 33.3333 59.4016 33.3333 58.6391V35.7224C33.3333 34.9599 33.9597 34.3335 34.7222 34.3335ZM48.8222 64.8891H57.6389C60.2989 64.2073 60.282 61.6557 60.2805 61.4272C60.2805 61.4229 60.2805 61.4195 60.2805 61.4168V55.7387C60.2805 55.0511 58.8916 54.9422 58.8916 55.8068C58.8235 56.5013 58.1972 56.9846 57.5027 56.9846C56.7402 56.9846 56.1138 56.3583 56.1138 55.5958V54.9013C56.1138 54.3839 54.7249 54.1116 54.7249 54.9694C54.6568 55.6638 54.0305 56.1472 53.336 56.1472C52.5735 56.1472 51.9472 55.5209 51.9472 54.7583V53.7848C51.9472 53.1856 50.5583 52.9133 50.5583 53.8528C50.4902 54.5473 49.8638 55.0307 49.1694 55.0307C48.4068 55.0307 47.7805 54.4043 47.7805 53.6418V47.8752C47.7805 47.1807 46.3916 46.9901 46.3916 47.9432V62.1794L48.8222 64.8891ZM63.0583 57.2502H63.8889V37.1113H36.1111V57.2434H43.5457V47.8003C43.5457 46.2003 45.1457 44.3281 47.018 44.3281C48.8902 44.3281 50.4902 46.2752 50.4902 47.8003V50.8572C51.9676 50.3602 53.765 51.0887 54.1735 52.1099C55.5215 51.395 57.3802 52.1031 58.1291 53.0835C60.192 52.0282 63.0583 53.3422 63.0583 55.6502V57.2502ZM59.7971 42.803H39.9305C39.168 42.803 38.5416 42.1766 38.5416 41.4141C38.5416 40.6516 39.168 40.0252 39.9305 40.0252H59.7971C60.5596 40.0252 61.186 40.6516 61.186 41.4141C61.186 42.1766 60.5596 42.803 59.7971 42.803Z" fill="#8CCA85"/>
</svg>
