<svg width="24" height="24" viewBox="0 0 24 24" fill="none" xmlns="http://www.w3.org/2000/svg">
<path d="M4.29289 12.7071C3.90237 12.3166 3.90237 11.6834 4.29289 11.2929C4.68342 10.9024 5.31658 10.9024 5.70711 11.2929L11 16.5858V5C11 4.44772 11.4477 4 12 4C12.5523 4 13 4.44772 13 5V16.5858L18.2929 11.2929C18.6834 10.9024 19.3166 10.9024 19.7071 11.2929C20.0976 11.6834 20.0976 12.3166 19.7071 12.7071L12.7078 19.7064C12.7054 19.7088 12.703 19.7112 12.7005 19.7136C12.5208 19.8901 12.2746 19.9992 12.003 20C12.002 20 12.001 20 12 20C11.999 20 11.998 20 11.997 20C11.8625 19.9996 11.7343 19.9727 11.6172 19.9241C11.502 19.8764 11.3938 19.8063 11.2995 19.7136C11.297 19.7112 11.2947 19.7089 11.2923 19.7065" fill="#8CCA85"/>
</svg>
