<svg width="295" height="151" viewBox="0 0 295 151" fill="none" xmlns="http://www.w3.org/2000/svg">
<path opacity="0.05" fill-rule="evenodd" clip-rule="evenodd" d="M0.000347212 11V47.4168L28.5497 58.0399V21.6231L0.000347212 11ZM124.073 73.798C127.393 70.4783 129.497 66.2623 130.163 61.6911L141.975 57.296V93.7128L113.425 104.336V84.4456L124.073 73.798ZM37.8085 150.912V114.357L66.3576 105.034V141.59L37.8085 150.912ZM113.425 37.4237V21.6231L141.975 11V47.4168L129.423 52.0873C128.399 48.7833 126.585 45.7566 124.073 43.2443C121.11 40.2815 117.431 38.2921 113.425 37.4237ZM75.6169 105.034V141.59L104.166 150.912V114.357L75.6169 105.034ZM87.5958 62.6497C88.3855 66.7373 90.3599 70.6391 93.5188 73.7977L104.166 84.445V104.616L75.6169 95.2939V58.7382L87.5958 62.6497ZM37.8085 68.0605V104.616L66.3576 95.2939V58.7382L37.8085 68.0605ZM37.8085 58.32V21.7643L66.3576 12.4422V48.9979L37.8085 58.32ZM113.425 114.215V150.632L141.975 140.009V103.592L113.425 114.215ZM75.6169 48.9979V12.4422L104.166 21.7643V37.4236C100.16 38.2921 96.4817 40.2814 93.5188 43.2443C90.7173 46.0458 88.8533 49.4324 87.9152 53.0137L75.6169 48.9979ZM0 103.592V140.009L28.5494 150.632V114.215L0 103.592ZM0 93.7128V57.296L28.5494 67.9191V104.336L0 93.7128ZM117.525 49.7918C115.199 47.465 112.098 46.1839 108.796 46.1839C105.493 46.1839 102.393 47.465 100.066 49.7915C95.2528 54.605 95.2528 62.4375 100.066 67.2511L108.796 75.9806L117.525 67.2511C119.852 64.9243 121.133 61.8238 121.133 58.5215C121.133 55.2184 119.852 52.1183 117.525 49.7918ZM108.796 63.1585C106.243 63.1585 104.166 61.0815 104.166 58.5288C104.166 55.976 106.243 53.8991 108.796 53.8991C111.349 53.8991 113.426 55.976 113.426 58.5288C113.426 61.0815 111.349 63.1585 108.796 63.1585ZM152.971 11V47.4168L181.52 58.0399V21.6231L152.971 11ZM277.044 73.798C280.364 70.4783 282.468 66.2623 283.135 61.6911L294.946 57.296V93.7128L266.397 104.336V84.4456L277.044 73.798ZM190.78 150.912V114.357L219.329 105.034V141.59L190.78 150.912ZM266.397 37.4237V21.6231L294.946 11V47.4168L282.394 52.0873C281.37 48.7833 279.556 45.7566 277.044 43.2443C274.081 40.2815 270.403 38.2921 266.397 37.4237ZM228.588 105.034V141.59L257.137 150.912V114.357L228.588 105.034ZM240.567 62.6497C241.357 66.7373 243.331 70.6391 246.49 73.7977L257.137 84.445V104.616L228.588 95.2939V58.7382L240.567 62.6497ZM190.78 68.0605V104.616L219.329 95.2939V58.7382L190.78 68.0605ZM190.78 58.32V21.7643L219.329 12.4422V48.9979L190.78 58.32ZM266.397 114.215V150.632L294.946 140.009V103.592L266.397 114.215ZM228.588 48.9979V12.4422L257.137 21.7643V37.4236C253.132 38.2921 249.453 40.2814 246.49 43.2443C243.689 46.0458 241.825 49.4324 240.887 53.0137L228.588 48.9979ZM152.971 103.592V140.009L181.521 150.632V114.215L152.971 103.592ZM152.971 93.7128V57.296L181.521 67.9191V104.336L152.971 93.7128ZM270.497 49.7918C268.17 47.465 265.07 46.1839 261.767 46.1839C258.464 46.1839 255.364 47.465 253.038 49.7915C248.224 54.605 248.224 62.4375 253.038 67.2511L261.767 75.9806L270.497 67.2511C272.823 64.9243 274.105 61.8238 274.105 58.5215C274.105 55.2184 272.823 52.1183 270.497 49.7918ZM261.767 63.1585C259.214 63.1585 257.137 61.0815 257.137 58.5288C257.137 55.976 259.214 53.8991 261.767 53.8991C264.32 53.8991 266.397 55.976 266.397 58.5288C266.397 61.0815 264.32 63.1585 261.767 63.1585Z" fill="#292D34"/>
<path d="M171.187 48.8571C168.622 48.8571 166.544 46.7783 166.544 44.2143C166.544 41.6503 168.622 39.5714 171.187 39.5714C173.747 39.5714 175.83 37.4885 175.83 34.9286C175.83 32.3686 173.747 30.2857 171.187 30.2857C168.622 30.2857 166.544 28.2069 166.544 25.6429C166.544 23.0788 168.622 21 171.187 21C178.867 21 185.115 27.2484 185.115 34.9286C185.115 42.6087 178.867 48.8571 171.187 48.8571Z" fill="#463C4B"/>
<path d="M115.473 48.8571C112.909 48.8571 110.83 46.7783 110.83 44.2143C110.83 41.6503 112.909 39.5714 115.473 39.5714C118.033 39.5714 120.116 37.4885 120.116 34.9286C120.116 32.3686 118.033 30.2857 115.473 30.2857C112.909 30.2857 110.83 28.2069 110.83 25.6429C110.83 23.0788 112.909 21 115.473 21C123.153 21 129.402 27.2484 129.402 34.9286C129.402 42.6087 123.153 48.8571 115.473 48.8571Z" fill="#463C4B"/>
<path d="M203.687 141.714H92.2584C87.13 141.714 82.9727 137.557 82.9727 132.429V53.5H212.973V132.429C212.973 137.557 208.815 141.714 203.687 141.714Z" fill="#786CE6"/>
<path d="M189.758 141.714H92.2584C87.13 141.714 82.9727 137.557 82.9727 132.429V53.5H199.044V132.429C199.044 137.557 194.887 141.714 189.758 141.714Z" fill="#E1E0EC"/>
<path d="M203.687 34.9286H92.2584C87.13 34.9286 82.9727 39.086 82.9727 44.2143V53.5H212.973V44.2143C212.973 39.086 208.815 34.9286 203.687 34.9286Z" fill="#E9712F"/>
<path d="M189.758 34.9286H92.2584C87.13 34.9286 82.9727 39.086 82.9727 44.2143V53.5H199.044V44.2143C199.044 39.086 194.887 34.9286 189.758 34.9286Z" fill="#FFD205"/>
<path d="M115.473 48.8571C107.792 48.8571 101.544 42.6087 101.544 34.9286C101.544 27.2484 107.792 21 115.473 21C118.037 21 120.115 23.0788 120.115 25.6429C120.115 28.2069 118.037 30.2857 115.473 30.2857C112.913 30.2857 110.83 32.3686 110.83 34.9286C110.83 37.4885 112.913 39.5714 115.473 39.5714C118.037 39.5714 120.115 41.6503 120.115 44.2143C120.115 46.7783 118.037 48.8571 115.473 48.8571Z" fill="#555A6E"/>
<path d="M171.187 48.8571C163.507 48.8571 157.259 42.6087 157.259 34.9286C157.259 27.2484 163.507 21 171.187 21C173.752 21 175.83 23.0788 175.83 25.6429C175.83 28.2069 173.752 30.2857 171.187 30.2857C168.627 30.2857 166.545 32.3686 166.545 34.9286C166.545 37.4885 168.627 39.5714 171.187 39.5714C173.752 39.5714 175.83 41.6503 175.83 44.2143C175.83 46.7783 173.752 48.8571 171.187 48.8571Z" fill="#555A6E"/>
<path d="M143.33 74.3928H138.688C137.406 74.3928 136.366 73.3534 136.366 72.0714V67.4285C136.366 66.1465 137.406 65.1071 138.688 65.1071H143.33C144.613 65.1071 145.652 66.1465 145.652 67.4285V72.0714C145.652 73.3534 144.613 74.3928 143.33 74.3928Z" fill="#786CE6"/>
<path d="M157.259 74.3928H152.616C151.334 74.3928 150.295 73.3534 150.295 72.0714V67.4285C150.295 66.1465 151.334 65.1071 152.616 65.1071H157.259C158.541 65.1071 159.581 66.1465 159.581 67.4285V72.0714C159.581 73.3534 158.541 74.3928 157.259 74.3928Z" fill="#786CE6"/>
<path d="M171.188 74.3928H166.545C165.263 74.3928 164.224 73.3534 164.224 72.0714V67.4285C164.224 66.1465 165.263 65.1071 166.545 65.1071H171.188C172.47 65.1071 173.509 66.1465 173.509 67.4285V72.0714C173.509 73.3534 172.47 74.3928 171.188 74.3928Z" fill="#786CE6"/>
<path d="M185.117 74.3928H180.474C179.192 74.3928 178.152 73.3534 178.152 72.0714V67.4285C178.152 66.1465 179.192 65.1071 180.474 65.1071H185.117C186.399 65.1071 187.438 66.1465 187.438 67.4285V72.0714C187.438 73.3534 186.399 74.3928 185.117 74.3928Z" fill="#786CE6"/>
<path d="M101.544 88.3214H96.9015C95.6195 88.3214 94.5801 87.282 94.5801 86V81.3571C94.5801 80.0751 95.6195 79.0357 96.9015 79.0357H101.544C102.826 79.0357 103.866 80.0751 103.866 81.3571V86C103.866 87.282 102.826 88.3214 101.544 88.3214Z" fill="#786CE6"/>
<path d="M115.473 88.3214H110.83C109.548 88.3214 108.509 87.282 108.509 86V81.3571C108.509 80.0751 109.548 79.0357 110.83 79.0357H115.473C116.755 79.0357 117.795 80.0751 117.795 81.3571V86C117.795 87.282 116.755 88.3214 115.473 88.3214Z" fill="#786CE6"/>
<path d="M129.402 88.3214H124.759C123.477 88.3214 122.438 87.282 122.438 86V81.3571C122.438 80.0751 123.477 79.0357 124.759 79.0357H129.402C130.684 79.0357 131.723 80.0751 131.723 81.3571V86C131.723 87.282 130.684 88.3214 129.402 88.3214Z" fill="#786CE6"/>
<path d="M143.33 88.3214H138.688C137.406 88.3214 136.366 87.282 136.366 86V81.3571C136.366 80.0751 137.406 79.0357 138.688 79.0357H143.33C144.613 79.0357 145.652 80.0751 145.652 81.3571V86C145.652 87.282 144.613 88.3214 143.33 88.3214Z" fill="#786CE6"/>
<path d="M157.258 88.3214H152.615C151.333 88.3214 150.294 87.282 150.294 86V81.3571C150.294 80.0751 151.333 79.0357 152.615 79.0357H157.258C158.54 79.0357 159.58 80.0751 159.58 81.3571V86C159.58 87.282 158.54 88.3214 157.258 88.3214Z" fill="#786CE6"/>
<path d="M171.187 88.3214H166.544C165.262 88.3214 164.223 87.282 164.223 86V81.3571C164.223 80.0751 165.262 79.0357 166.544 79.0357H171.187C172.469 79.0357 173.508 80.0751 173.508 81.3571V86C173.508 87.282 172.469 88.3214 171.187 88.3214Z" fill="#786CE6"/>
<path d="M185.116 88.3214H180.473C179.191 88.3214 178.151 87.282 178.151 86V81.3571C178.151 80.0751 179.191 79.0357 180.473 79.0357H185.116C186.398 79.0357 187.437 80.0751 187.437 81.3571V86C187.437 87.282 186.398 88.3214 185.116 88.3214Z" fill="#786CE6"/>
<path d="M101.544 102.25H96.9015C95.6195 102.25 94.5801 101.211 94.5801 99.9285V95.2857C94.5801 94.0037 95.6195 92.9642 96.9015 92.9642H101.544C102.826 92.9642 103.866 94.0037 103.866 95.2857V99.9285C103.866 101.211 102.826 102.25 101.544 102.25Z" fill="#786CE6"/>
<path d="M115.473 102.25H110.83C109.548 102.25 108.509 101.211 108.509 99.9285V95.2857C108.509 94.0037 109.548 92.9642 110.83 92.9642H115.473C116.755 92.9642 117.795 94.0037 117.795 95.2857V99.9285C117.795 101.211 116.755 102.25 115.473 102.25Z" fill="#786CE6"/>
<path d="M129.402 102.25H124.759C123.477 102.25 122.438 101.211 122.438 99.9285V95.2857C122.438 94.0037 123.477 92.9642 124.759 92.9642H129.402C130.684 92.9642 131.723 94.0037 131.723 95.2857V99.9285C131.723 101.211 130.684 102.25 129.402 102.25Z" fill="#786CE6"/>
<path d="M143.33 102.25H138.688C137.406 102.25 136.366 101.211 136.366 99.9285V95.2857C136.366 94.0037 137.406 92.9642 138.688 92.9642H143.33C144.613 92.9642 145.652 94.0037 145.652 95.2857V99.9285C145.652 101.211 144.613 102.25 143.33 102.25Z" fill="#786CE6"/>
<path d="M157.258 102.25H152.615C151.333 102.25 150.294 101.211 150.294 99.9285V95.2857C150.294 94.0037 151.333 92.9642 152.615 92.9642H157.258C158.54 92.9642 159.58 94.0037 159.58 95.2857V99.9285C159.58 101.211 158.54 102.25 157.258 102.25Z" fill="#786CE6"/>
<path d="M171.187 102.25H166.544C165.262 102.25 164.223 101.211 164.223 99.9285V95.2857C164.223 94.0037 165.262 92.9642 166.544 92.9642H171.187C172.469 92.9642 173.508 94.0037 173.508 95.2857V99.9285C173.508 101.211 172.469 102.25 171.187 102.25Z" fill="#786CE6"/>
<path d="M185.116 102.25H180.473C179.191 102.25 178.151 101.211 178.151 99.9285V95.2857C178.151 94.0037 179.191 92.9642 180.473 92.9642H185.116C186.398 92.9642 187.437 94.0037 187.437 95.2857V99.9285C187.437 101.211 186.398 102.25 185.116 102.25Z" fill="#786CE6"/>
<path d="M101.544 116.179H96.9015C95.6195 116.179 94.5801 115.139 94.5801 113.857V109.214C94.5801 107.932 95.6195 106.893 96.9015 106.893H101.544C102.826 106.893 103.866 107.932 103.866 109.214V113.857C103.866 115.139 102.826 116.179 101.544 116.179Z" fill="#786CE6"/>
<path d="M115.473 116.179H110.83C109.548 116.179 108.509 115.139 108.509 113.857V109.214C108.509 107.932 109.548 106.893 110.83 106.893H115.473C116.755 106.893 117.795 107.932 117.795 109.214V113.857C117.795 115.139 116.755 116.179 115.473 116.179Z" fill="#786CE6"/>
<path d="M129.402 116.179H124.759C123.477 116.179 122.438 115.139 122.438 113.857V109.214C122.438 107.932 123.477 106.893 124.759 106.893H129.402C130.684 106.893 131.723 107.932 131.723 109.214V113.857C131.723 115.139 130.684 116.179 129.402 116.179Z" fill="#786CE6"/>
<path d="M143.33 116.179H138.688C137.406 116.179 136.366 115.139 136.366 113.857V109.214C136.366 107.932 137.406 106.893 138.688 106.893H143.33C144.613 106.893 145.652 107.932 145.652 109.214V113.857C145.652 115.139 144.613 116.179 143.33 116.179Z" fill="#786CE6"/>
<path d="M157.258 116.179H152.615C151.333 116.179 150.294 115.139 150.294 113.857V109.214C150.294 107.932 151.333 106.893 152.615 106.893H157.258C158.54 106.893 159.58 107.932 159.58 109.214V113.857C159.58 115.139 158.54 116.179 157.258 116.179Z" fill="#786CE6"/>
<path d="M171.187 116.179H166.544C165.262 116.179 164.223 115.139 164.223 113.857V109.214C164.223 107.932 165.262 106.893 166.544 106.893H171.187C172.469 106.893 173.508 107.932 173.508 109.214V113.857C173.508 115.139 172.469 116.179 171.187 116.179Z" fill="#786CE6"/>
<path d="M185.116 116.179H180.473C179.191 116.179 178.151 115.139 178.151 113.857V109.214C178.151 107.932 179.191 106.893 180.473 106.893H185.116C186.398 106.893 187.437 107.932 187.437 109.214V113.857C187.437 115.139 186.398 116.179 185.116 116.179Z" fill="#786CE6"/>
<path d="M101.544 130.107H96.9015C95.6195 130.107 94.5801 129.068 94.5801 127.786V123.143C94.5801 121.861 95.6195 120.821 96.9015 120.821H101.544C102.826 120.821 103.866 121.861 103.866 123.143V127.786C103.866 129.068 102.826 130.107 101.544 130.107Z" fill="#786CE6"/>
<path d="M115.473 130.107H110.83C109.548 130.107 108.509 129.068 108.509 127.786V123.143C108.509 121.861 109.548 120.821 110.83 120.821H115.473C116.755 120.821 117.795 121.861 117.795 123.143V127.786C117.795 129.068 116.755 130.107 115.473 130.107Z" fill="#786CE6"/>
<path d="M129.402 130.107H124.759C123.477 130.107 122.438 129.068 122.438 127.786V123.143C122.438 121.861 123.477 120.821 124.759 120.821H129.402C130.684 120.821 131.723 121.861 131.723 123.143V127.786C131.723 129.068 130.684 130.107 129.402 130.107Z" fill="#786CE6"/>
<path d="M143.33 130.107H138.688C137.406 130.107 136.366 129.068 136.366 127.786V123.143C136.366 121.861 137.406 120.821 138.688 120.821H143.33C144.613 120.821 145.652 121.861 145.652 123.143V127.786C145.652 129.068 144.613 130.107 143.33 130.107Z" fill="#786CE6"/>
<path d="M157.258 130.107H152.615C151.333 130.107 150.294 129.068 150.294 127.786V123.143C150.294 121.861 151.333 120.821 152.615 120.821H157.258C158.54 120.821 159.58 121.861 159.58 123.143V127.786C159.58 129.068 158.54 130.107 157.258 130.107Z" fill="#786CE6"/>
</svg>
