<svg width="101" height="101" viewBox="0 0 101 101" fill="none" xmlns="http://www.w3.org/2000/svg">
<circle opacity="0.2" cx="50.5" cy="50.5" r="50.5" fill="#8CCA85"/>
<path fill-rule="evenodd" clip-rule="evenodd" d="M53.0153 40.0611C54.4485 41.0312 55.3922 42.672 55.3922 44.5292V47.7645H44.6079V44.5292C44.6079 42.672 45.5517 41.0312 46.9848 40.0611C46.1844 39.2775 45.6864 38.1861 45.6864 36.9802C45.6864 34.6016 47.6215 32.6665 50.0001 32.6665C52.3787 32.6665 54.3138 34.6016 54.3138 36.9802C54.3138 38.1861 53.8158 39.2775 53.0153 40.0611ZM50.0001 34.8234C48.8108 34.8234 47.8432 35.7909 47.8432 36.9802C47.8432 38.1695 48.8108 39.1371 50.0001 39.1371C51.1894 39.1371 52.1569 38.1695 52.1569 36.9802C52.1569 35.7909 51.1894 34.8234 50.0001 34.8234ZM46.7648 45.6077H53.2354V44.5292C53.2354 42.7453 51.784 41.294 50.0001 41.294C48.2161 41.294 46.7648 42.7453 46.7648 44.5292V45.6077ZM36.9823 55.8107H31.6667V49.3401H68.3334V55.8107H63.0178L66.7764 59.5693L59.1509 67.1949L55.3922 63.4362V68.7518H44.6079V63.4362L40.8493 67.1949L33.2237 59.5693L36.9823 55.8107ZM50.0001 57.9675C53.7965 57.9675 56.9468 55.1504 57.4717 51.4969H42.5284C43.0533 55.1504 46.2036 57.9675 50.0001 57.9675ZM40.3544 51.4969H33.8236V53.6538H38.5589L38.8131 54.3727C39.0408 55.017 39.2575 55.4631 39.4468 55.8528L39.4468 55.8529C39.5085 55.9798 39.5673 56.1008 39.6226 56.2207L36.2739 59.5693L40.8493 64.1447L44.1981 60.7958L44.8866 61.1255C45.4892 61.4139 45.9626 61.5783 46.3771 61.7223L46.3771 61.7223C46.5118 61.7691 46.6402 61.8137 46.7648 61.8596V66.595H53.2354V61.8596L53.9543 61.6055C54.5998 61.3773 55.0442 61.1613 55.4334 60.972C55.5605 60.9103 55.6817 60.8514 55.802 60.7958L59.1509 64.1447L63.7263 59.5693L60.3776 56.2207L60.707 55.5323C60.9966 54.927 61.1636 54.446 61.3069 54.0332C61.353 53.9003 61.3967 53.7744 61.4412 53.6538H66.1766V51.4969H59.6457C59.1075 56.343 54.9874 60.1244 50.0001 60.1244C45.0128 60.1244 40.8927 56.343 40.3544 51.4969ZM65.9566 40.0611C66.757 39.2775 67.255 38.1861 67.255 36.9802C67.255 34.6016 65.3198 32.6665 62.9413 32.6665C60.5627 32.6665 58.6275 34.6016 58.6275 36.9802C58.6275 38.1861 59.1256 39.2775 59.926 40.0611C58.4929 41.0312 57.5491 42.672 57.5491 44.5292V47.7645H68.3334V44.5292C68.3334 42.672 67.3896 41.0312 65.9566 40.0611ZM60.7844 36.9802C60.7844 35.7909 61.752 34.8234 62.9413 34.8234C64.1306 34.8234 65.0981 35.7909 65.0981 36.9802C65.0981 38.1695 64.1306 39.1371 62.9413 39.1371C61.752 39.1371 60.7844 38.1695 60.7844 36.9802ZM59.706 45.6077V44.5292C59.706 42.7453 61.1572 41.294 62.9413 41.294C64.7252 41.294 66.1766 42.7453 66.1766 44.5292V45.6077H59.706ZM40.0741 40.0611C41.5073 41.0312 42.4511 42.672 42.4511 44.5292V47.7645H31.6668V44.5292C31.6668 42.672 32.6105 41.0312 34.0436 40.0611C33.2432 39.2775 32.7452 38.1861 32.7452 36.9802C32.7452 34.6016 34.6803 32.6665 37.0589 32.6665C39.4375 32.6665 41.3726 34.6016 41.3726 36.9802C41.3726 38.1861 40.8746 39.2775 40.0741 40.0611ZM37.0589 34.8234C35.8696 34.8234 34.9021 35.7909 34.9021 36.9802C34.9021 38.1695 35.8696 39.1371 37.0589 39.1371C38.2482 39.1371 39.2158 38.1695 39.2158 36.9802C39.2158 35.7909 38.2482 34.8234 37.0589 34.8234ZM33.8236 45.6077H40.2942V44.5292C40.2942 42.7453 38.8429 41.294 37.0589 41.294C35.2749 41.294 33.8236 42.7453 33.8236 44.5292V45.6077Z" fill="#8CCA85"/>
</svg>
