<svg xmlns="http://www.w3.org/2000/svg" width="738.668" height="669.446">
    <defs>
        <style>
            .cls-1{fill:#f7f0e3}.cls-2{fill:#fff}.cls-3,.cls-7{fill:#786ce6}.cls-4{fill:#fbc343}.cls-5{fill:#d19c46}.cls-6{fill:#f7c366}.cls-7{opacity:.44}.cls-9{fill:#102048}.cls-10{fill:#1d1934}.cls-11{fill:#f9b384}.cls-12{fill:#d3dfff}.cls-13{fill:#e28b6d}
        </style>
    </defs>
    <g id="OBJECTS" transform="translate(-239.153 -106.1)">
        <g id="Group_3847" data-name="Group 3847" transform="translate(239.153 106.1)">
            <g id="Group_3826" data-name="Group 3826" transform="translate(0 229.554)">
                <g id="Group_3825" data-name="Group 3825" transform="translate(0 86.556)">
                    <path id="Path_13586" data-name="Path 13586" class="cls-1" d="M965 1168.4c-12.27-27.91-35.836-51.2-64.143-62.664-29.484-11.941-63.34-7.594-94.394-11.594-26.973-3.473-46.433-15.517-62.537-36.922-15.432-20.511-29.268-43.229-54.5-52.718-19.938-7.5-42.6-5.419-62.417 2.394-36.512 14.4-64.086 45-87.313 75.5-21.2 27.843-38.5 58.328-77.721 59.322-39.246.994-76.61-21.391-116.125-15.46-52.227 7.841-95.72 51.318-104.835 103.077-8.542 48.509 12.892 95.558 49.715 123.2h632.945c46.401-49.219 70.749-117.217 41.325-184.135z" transform="translate(-239.153 -999.839)"/>
                    <g id="Group_3824" data-name="Group 3824" transform="translate(20.248 9.78)">
                        <path id="Path_13587" data-name="Path 13587" class="cls-2" d="M639.306 1583.414h1.74a133.535 133.535 0 0 0 27.585-47.317c9.744-28.975 9.334-59.382-1.157-85.622-5.3-13.26-12.959-25.618-20.362-37.573-7.509-12.121-15.276-24.656-20.546-38.086a85.068 85.068 0 0 1-4.757-17.6c-.435-.057-.874-.1-1.309-.156a86.183 86.183 0 0 0 4.881 18.223c5.313 13.539 13.108 26.124 20.649 38.291 7.374 11.905 15 24.217 20.263 37.371 10.381 25.961 10.781 56.057 1.132 84.745a132.111 132.111 0 0 1-28.119 47.724z" transform="translate(-505.867 -1240.493)"/>
                        <path id="Path_13588" data-name="Path 13588" class="cls-2" d="M1350.164 1315.21c13.041 2.78 25.608 5.27 37.764 6.837.209-.4.41-.807.615-1.206-12.255-1.556-24.939-4.067-38.114-6.876-20.058-4.273-41.768-8.9-63.3-8.9-13.331 0-26.594 1.772-39.355 6.5a80.251 80.251 0 0 0-13.929 6.77c-11.52-4.909-23.1-10.271-34.574-16.153 8.326-6.271 16.737-12.415 25.24-18.35 63.12-44.074 121.37-69.062 177.647-76.154-.113-.414-.23-.824-.347-1.238-56.428 7.148-114.806 32.2-178.029 76.345-8.683 6.066-17.274 12.34-25.77 18.746a426.764 426.764 0 0 1-37.99-22.078c-22.378-14.664-49-35.592-72.246-63.4 90.086-10.105 181.806-22.842 256.7-72.9 2.844-1.9 6-4.142 9.26-6.685-.361-.258-.725-.509-1.089-.76a156.986 156.986 0 0 1-8.874 6.388c-74.881 50.048-166.767 62.682-256.97 72.787a247.607 247.607 0 0 1-41.3-70.23c-15.888-42.086-15.05-83.391 2.3-113.317a90.44 90.44 0 0 1 2.37-3.845c-.725.332-1.443.679-2.161 1.022-.446.721-.884 1.45-1.309 2.186-17.543 30.259-18.417 71.959-2.391 114.406a248.5 248.5 0 0 0 40.986 69.947q-7.831.875-15.651 1.737c-18.785 2.073-38.206 4.216-57.069 6.646-6.883.888-13.886 1.921-20.85 3.215-14.933-31.518-31.337-62.264-52.541-88.636-.3.3-.612.594-.92.895 21.024 26.17 37.325 56.687 52.167 87.985-30.383 5.793-59.888 16.687-75.641 42.044-14.714 23.68-14.7 56.407.039 97.284q.764 2.117 1.567 4.191h1.362a222.535 222.535 0 0 1-1.733-4.623c-14.6-40.487-14.654-72.847-.156-96.18 15.566-25.052 44.909-35.8 75.121-41.527 5.274 11.152 10.363 22.4 15.425 33.569l.552 1.217c17.579 38.8 35.758 76.253 59.562 107.545h1.588c-24.019-31.352-42.305-69.024-59.99-108.068l-.552-1.217c-5.019-11.081-10.07-22.226-15.294-33.286 6.833-1.263 13.7-2.274 20.451-3.144 18.848-2.426 38.266-4.57 57.044-6.642q8.223-.907 16.482-1.828c23.468 28.246 50.426 49.464 73.059 64.3a426.506 426.506 0 0 0 37.563 21.862c-21.65 16.376-42.712 33.6-63.272 50.43q-10.68 8.738-21.583 17.593h2.02q10.271-8.335 20.369-16.609c20.709-16.938 41.916-34.294 63.722-50.766 11.41 5.868 22.927 11.223 34.386 16.125-15.676 9.971-28.451 25.41-36.176 44.155-.966 2.349-1.811 4.718-2.593 7.1h1.341c.739-2.214 1.528-4.425 2.43-6.61 7.746-18.8 20.627-34.224 36.427-44.031 32.031 13.607 63.513 23.712 90.563 31.712l1.019.3c11.4 3.371 23.057 6.826 33.371 12.372.286-.329.577-.658.863-.987-10.48-5.687-22.311-9.189-33.877-12.606l-1.019-.3c-26.775-7.923-57.9-17.9-89.584-31.309a78.484 78.484 0 0 1 12.924-6.19c33.021-12.245 69.64-4.443 101.95 2.44z" transform="translate(-688.945 -1027.49)"/>
                        <path id="Path_13589" data-name="Path 13589" class="cls-2" d="M330.928 1525.5c5.62 23.011 3.113 47.862-6.883 68.182a117.372 117.372 0 0 1-27.645 35.705c.23.361.467.718.7 1.075a118.66 118.66 0 0 0 28.083-36.218c10.126-20.582 12.666-45.75 6.975-69.045-4.446-18.2-13.387-33.619-25.738-44.774-.276.325-.548.651-.821.976 12.15 10.987 20.946 26.172 25.329 44.099z" transform="translate(-296.4 -1320.227)"/>
                    </g>
                </g>
                <path id="Path_13590" data-name="Path 13590" class="cls-1" d="M1062.167 765.234c11.088 11.329 16.058 30.418 9.942 48.018-5.921 17.041-18.894 31.153-34.485 40.229-12.546 7.3-28.908 11.329-41.245 3.682-9.221-5.712-14-16.921-14.264-27.765s3.385-21.409 7.885-31.273c6.353-13.907 14.9-27.39 27.638-35.847 17.562-11.658 33.868-7.934 44.529 2.956z" transform="translate(-719.324 -755.118)"/>
            </g>
            <path id="Path_13591" data-name="Path 13591" class="cls-3" d="M625.152 147.118H533.34V106.1h91.812v41.018zm-89.9-1.91h88v-37.2h-88z" transform="translate(-429.288 -106.1)"/>
            <path id="Path_13592" data-name="Path 13592" class="cls-4" d="M456.282 258.014H364.47V217h91.812zm-89.906-1.906h88v-37.2h-88z" transform="translate(-320.146 -177.775)"/>
            <g id="Group_3829" data-name="Group 3829" transform="translate(318.982 9.896)">
                <g id="Group_3827" data-name="Group 3827">
                    <path id="Path_13593" data-name="Path 13593" class="cls-5" d="M1584.474 252.084q-8.919-29.652-31.369-54.511-22.5-24.888-61.369-41.124t-98.777-16.249a386.5 386.5 0 0 0-97.4 12.889q-49.664 12.935-86.185 36.827l31.705 87.048-16.991 13.766 24.646 7.244q36.491-19.1 66.491-27.737a229.834 229.834 0 0 1 63.686-8.591q33.7 0 51.035 16.249 17.333 16.3 17.317 39.225a75.268 75.268 0 0 1-17.773 49.248q-17.837 21.529-39.359 43.522-14.956 15.269-29.024 31.535a226.478 226.478 0 0 0-24.815 34.927 190.082 190.082 0 0 0-17.317 40.159q-6.584 21.529-6.554 48.283c0 5.758.12 12.609.456 20.578.057 1.471.135 2.9.223 4.319h-23.3l25.424 17.193h123.62a82.171 82.171 0 0 1-.945-13.387v-11.49a83.077 83.077 0 0 1 6.554-32.034 165.825 165.825 0 0 1 16.4-30.135 222.565 222.565 0 0 1 22.01-27.238q12.165-12.935 23.415-24.409 14.956-15.269 30.881-32.5a255.409 255.409 0 0 0 28.108-36.331 204.1 204.1 0 0 0 20.122-41.623q7.958-22.463 7.987-49.248.002-26.751-8.902-56.405z" transform="translate(-1185.191 -138.035)"/>
                    <path id="Path_13594" data-name="Path 13594" class="cls-6" d="M1308.551 251.613a231.725 231.725 0 0 0-62.936 8.315q-29.647 8.361-65.709 26.845L1141.01 182.2q36.109-23.137 85.173-35.642a389.524 389.524 0 0 1 96.261-12.475q59.2 0 97.616 15.725t60.648 39.8q22.187 24.087 31 52.754 8.77 28.7 8.8 54.593a139.177 139.177 0 0 1-7.895 47.664 195.8 195.8 0 0 1-19.885 40.282 248.091 248.091 0 0 1-27.779 35.161q-15.725 16.675-30.521 31.454-11.115 11.115-23.139 23.62a216.293 216.293 0 0 0-21.752 26.361 159.382 159.382 0 0 0-16.21 29.166 78.931 78.931 0 0 0-6.476 31v11.117a77.841 77.841 0 0 0 .934 12.956h-122.17a129.307 129.307 0 0 1-2.32-20.819 464.031 464.031 0 0 1-.453-19.917q0-25.9 6.476-46.73a181.775 181.775 0 0 1 17.112-38.87 219.177 219.177 0 0 1 24.525-33.8q13.874-15.725 28.681-30.52 21.285-21.285 38.9-42.118 17.535-20.834 17.564-47.664 0-22.235-17.112-37.962t-50.437-15.723z" transform="translate(-1141.01 -134.08)"/>
                </g>
                <g id="Group_3828" data-name="Group 3828" transform="translate(96.739 519.015)">
                    <path id="Path_13595" data-name="Path 13595" class="cls-5" d="M1624.078 1672.777q0 33.43-21.646 51.618-21.646 18.235-48.948 18.212-27.355 0-48.973-18.212t-21.621-51.618q0-33.392 21.621-51.618c22.212-18.746 55.074-22.923 81.081-9.766 23.075 11.676 38.486 35.384 38.486 61.384z" transform="translate(-1458.708 -1602.948)"/>
                    <path id="Path_13596" data-name="Path 13596" class="cls-6" d="M1555.708 1671.32q0 33.429-21.646 51.618-21.646 18.235-48.948 18.212-27.355 0-48.972-18.212t-21.621-51.618q0-33.392 21.621-51.618 21.646-18.2 48.972-18.212t48.948 18.212q21.646 18.234 21.646 51.618z" transform="translate(-1414.52 -1601.49)"/>
                </g>
            </g>
            <g id="Group_3832" data-name="Group 3832" transform="translate(70.865 139.164)">
                <circle id="Ellipse_456" data-name="Ellipse 456" class="cls-7" cx="13.313" cy="13.313" r="13.313" transform="rotate(-79.386 137.156 20.802)"/>
                <ellipse id="Ellipse_457" data-name="Ellipse 457" class="cls-7" cx="7.488" cy="7.541" rx="7.488" ry="7.541" transform="rotate(-79.386 159.454 20.196)"/>
                <g id="Group_3831" data-name="Group 3831" style="opacity:.44">
                    <circle id="Ellipse_458" data-name="Ellipse 458" class="cls-3" cx="52.418" cy="52.418" r="52.418" transform="rotate(-45 89.482 37.065)"/>
                    <g id="Group_3830" data-name="Group 3830" transform="translate(47.402 67.525)">
                        <circle id="Ellipse_459" data-name="Ellipse 459" class="cls-2" cx="6.603" cy="6.603" r="6.603"/>
                        <circle id="Ellipse_460" data-name="Ellipse 460" class="cls-2" cx="6.603" cy="6.603" r="6.603" transform="translate(20.125)"/>
                        <circle id="Ellipse_461" data-name="Ellipse 461" class="cls-2" cx="6.603" cy="6.603" r="6.603" transform="translate(40.254)"/>
                    </g>
                </g>
            </g>
            <g id="Group_3835" data-name="Group 3835" transform="translate(69.3 536.371)">
                <g id="Group_3833" data-name="Group 3833" transform="translate(37.824 85.855)">
                    <path id="Path_13597" data-name="Path 13597" class="cls-9" d="m542.348 1885.422 4.9 18.88a10.82 10.82 0 0 0 11.3 7.895c16.058-1.093 49.425-5.026 68.574-19.142l-5.443-27.213c-26.329-1.489-50.953-.021-72.277 7.155a10.432 10.432 0 0 0-7.054 12.425z" transform="translate(-542.024 -1865.316)"/>
                    <path id="Path_13598" data-name="Path 13598" class="cls-2" d="M616.523 1919.3a.634.634 0 0 1-.612-.467l-6.575-23.546a.637.637 0 1 1 1.227-.343l6.575 23.545a.636.636 0 0 1-.442.785.583.583 0 0 1-.173.026z" transform="translate(-585.513 -1884.162)"/>
                    <path id="Path_13599" data-name="Path 13599" class="cls-2" d="M656.713 1910.3a.634.634 0 0 1-.612-.467l-6.575-23.545a.637.637 0 0 1 1.227-.343l6.575 23.545a.636.636 0 0 1-.442.785.757.757 0 0 1-.173.025z" transform="translate(-611.488 -1878.35)"/>
                </g>
                <path id="Path_13600" data-name="Path 13600" class="cls-10" d="m604.73 1626.474-61.2 18.162 45.45 62.271 65.246 5.189 89.994-38.054-34.2-51.463z" transform="translate(-505.174 -1622.58)"/>
                <path id="Path_13601" data-name="Path 13601" class="cls-10" d="M796.107 1643.26c134.393-39.784 155.994 78.99-53.7 100.615-7.406-8.333-16.061-22.8-19.5-34.885l110.735-51.173z" transform="translate(-621.108 -1630.718)"/>
                <path id="Path_13602" data-name="Path 13602" class="cls-11" d="M884.039 1887.778a58.155 58.155 0 0 1-12.309-5.988l-21.6 6.773 4.948 23.5 22.438 4.559c6.841-12.507 7.237-22.771 6.523-28.844z" transform="translate(-703.331 -1790.108)"/>
                <path id="Path_13603" data-name="Path 13603" class="cls-10" d="m722.518 1742.342-.958-1.652c23.1-13.426 82.273-45.68 132.689-55.191l.354 1.875c-50.123 9.462-109.066 41.595-132.085 54.968z" transform="translate(-620.235 -1663.245)"/>
                <path id="Path_13604" data-name="Path 13604" class="cls-10" d="M534.642 1627.927c-125.095-23.782-157.493 96.435 52.2 118.056a76.187 76.187 0 0 0 16.648-30.269c-32.211-21.554-68.224-42.036-107.693-61.55z" transform="translate(-435.086 -1624.033)"/>
                <path id="Path_13605" data-name="Path 13605" class="cls-10" d="M689.111 1750.811c-5.949-3.788-12.149-7.792-18.714-12.029-32.954-21.275-70.3-45.393-102.037-59.141l.76-1.751c31.879 13.815 69.3 37.973 102.313 59.29a3389.18 3389.18 0 0 0 18.707 12.022z" transform="translate(-521.222 -1658.327)"/>
                <path id="Path_13606" data-name="Path 13606" class="cls-12" d="m454.009 1769.294-1.669-.923c4.7-8.5 12.217-14.236 22.353-17.041l.509 1.839c-9.758 2.702-16.69 7.976-21.193 16.125z" transform="translate(-446.237 -1705.792)"/>
                <path id="Path_13607" data-name="Path 13607" class="cls-12" d="M1156.513 1748.824c-4.5-8.146-11.431-13.423-21.193-16.125l.509-1.839c10.137 2.808 17.66 8.542 22.354 17.041z" transform="translate(-887.651 -1692.562)"/>
                <path id="Path_13608" data-name="Path 13608" class="cls-12" d="m828.457 1898.8-1.4-1.3c10.006-10.717 16.153-22.032 18.788-34.588l1.867.393c-2.702 12.904-9.001 24.516-19.255 35.495z" transform="translate(-688.421 -1777.906)"/>
                <g id="Group_3834" data-name="Group 3834" transform="translate(174.189 87.596)">
                    <path id="Path_13609" data-name="Path 13609" class="cls-9" d="M996.477 1873.314c-16.026-9.9-47.1 7.208-54.9 8.071a18.74 18.74 0 0 1-7.491-1.075c.714 6.073.315 16.337-6.519 28.84l3.813.775s26.347 9.659 54.3 4.036c25.797-5.186 23.399-32.861 10.797-40.647z" transform="translate(-927.57 -1870.24)"/>
                    <path id="Path_13610" data-name="Path 13610" class="cls-2" d="M1054.237 1919.919a.713.713 0 0 1-.191-.028.635.635 0 0 1-.414-.8c1.9-6.031 2.734-17.89-2.78-25.855a.637.637 0 0 1 1.047-.725c5.776 8.344 4.927 20.695 2.946 26.966a.643.643 0 0 1-.608.442z" transform="translate(-1007.174 -1884.458)"/>
                    <path id="Path_13611" data-name="Path 13611" class="cls-2" d="M1018.7 1926.669a.722.722 0 0 1-.191-.028.636.636 0 0 1-.414-.8c1.9-6.031 2.734-17.89-2.78-25.855a.637.637 0 0 1 1.047-.725c5.776 8.344 4.927 20.695 2.946 26.966a.64.64 0 0 1-.608.442z" transform="translate(-984.205 -1888.82)"/>
                </g>
            </g>
            <g id="Group_3843" data-name="Group 3843" transform="translate(38.603 327.855)">
                <g id="Group_3837" data-name="Group 3837" transform="translate(70.914 1.12)">
                    <path id="Path_13612" data-name="Path 13612" class="cls-11" d="M586 1092.493s31.5-26.789 30.336-31.882c-.835-3.639-9.758 1.7-9.758 1.7s12.517-14.848 11.881-16.652c-1.139-3.222-9.794 2.784-9.794 2.784s5.85-8.422 3.052-9.794-8.9 3.816-8.9 3.816 3.562-4.676 1.889-5.9-8.9 3.817-8.9 3.817 2.593-5.9-2.914-3.661-44.106 37.658-44.106 37.658z" transform="translate(-548.79 -1036.21)"/>
                    <g id="Group_3836" data-name="Group 3836" transform="translate(35.462 3.533)">
                        <path id="Path_13613" data-name="Path 13613" class="cls-13" d="M663.686 1088.345a.639.639 0 0 1-.428-.166c-5.408-4.941-7.792-6.14-13.759-7.976a.637.637 0 1 1 .375-1.217c6.183 1.9 8.651 3.144 14.243 8.252a.634.634 0 0 1 .039.9.624.624 0 0 1-.47.207z" transform="translate(-649.051 -1067.371)"/>
                        <path id="Path_13614" data-name="Path 13614" class="cls-13" d="M662.428 1128.454a.719.719 0 0 1-.088-.007.637.637 0 0 1-.541-.718c.619-4.428 2.012-7.2 4.262-8.464 1.924-1.082 4.425-.969 7.438.329a.636.636 0 1 1-.506 1.167c-2.628-1.135-4.75-1.266-6.31-.389-1.853 1.044-3.074 3.576-3.625 7.53a.636.636 0 0 1-.63.552z" transform="translate(-657.285 -1092.947)"/>
                        <path id="Path_13615" data-name="Path 13615" class="cls-13" d="M658.227 1054.925a.637.637 0 0 1-.435-1.1l7.905-7.453a.634.634 0 1 1 .87.923l-7.905 7.452a.613.613 0 0 1-.435.178z" transform="translate(-654.57 -1046.199)"/>
                        <path id="Path_13616" data-name="Path 13616" class="cls-13" d="M678.914 1061.289a.644.644 0 0 1-.442-.177.633.633 0 0 1-.018-.9l7.594-7.912a.635.635 0 1 1 .916.881l-7.594 7.912a.626.626 0 0 1-.456.196z" transform="translate(-667.939 -1050.017)"/>
                        <path id="Path_13617" data-name="Path 13617" class="cls-13" d="M700.053 1076.66a.643.643 0 0 1-.435-.17.634.634 0 0 1-.032-.9l5.956-6.391a.636.636 0 0 1 .93.867l-5.956 6.391a.616.616 0 0 1-.463.203z" transform="translate(-681.602 -1060.935)"/>
                    </g>
                </g>
                <g id="Group_3838" data-name="Group 3838" transform="translate(0 32.238)">
                    <path id="Path_13618" data-name="Path 13618" class="cls-3" d="m756.717 1424.42-115.188 4.453-12.729-105s38.563-36.576 53.4-50.044l25.045-1.284c77.708 35.318 64.982 79.431 49.472 151.875z" transform="translate(-529.587 -1220.069)"/>
                    <path id="Path_13619" data-name="Path 13619" class="cls-3" d="M850.59 1272.54s88.9 7.6 116.928 68.51c27.426 59.6-85.276 80.823-85.276 80.823z" transform="translate(-672.931 -1220.069)"/>
                    <path id="Path_13620" data-name="Path 13620" class="cls-3" d="m424.334 1189.716 36.738-44.707-34.354-20.818c-14.332 9.964-42.044 32.533-65.525 58.091a48.518 48.518 0 0 0-11.272 19.485 41.957 41.957 0 0 0-1.079 18.293 35.317 35.317 0 0 0 31.214 29.569c14 1.638 67.457-2.547 110.731-15.273l12.729-49.125c-6.544-3.711-55.152-4.355-79.182 4.485z" transform="translate(-348.295 -1124.19)"/>
                </g>
                <g id="Group_3839" data-name="Group 3839" transform="translate(18.772 47.019)" style="opacity:.8">
                    <path id="Path_13621" data-name="Path 13621" class="cls-2" d="M980.82 1308.83c.191-.042.382-.088.576-.131-.4-.237-.806-.47-1.206-.7a192.689 192.689 0 0 1-19.863 3.831c-3.983.481-17.289 1.358-21.176-7.505-1.935-4.411-.47-9.316 1.719-12.758a85.436 85.436 0 0 0-.955-.272c-2.242 3.647-3.679 8.765-1.638 13.412 4.152 9.469 18.017 8.57 22.163 8.071a195.3 195.3 0 0 0 20.38-3.948z" transform="translate(-747.742 -1246.968)"/>
                    <path id="Path_13622" data-name="Path 13622" class="cls-2" d="M1125.2 1529.677c-4.248-1.641-8.634-3.339-13.246-2.9-8.093.764-15.014 8.765-15.435 17.837-.286 6.182 2.076 12.666 6.579 18.367.272-.17.541-.339.81-.513-4.4-5.539-6.713-11.828-6.437-17.809.4-8.612 6.936-16.206 14.572-16.931 4.386-.407 8.478 1.167 12.815 2.844 1.546.6 3.12 1.2 4.718 1.712.082-.308.163-.615.237-.927-1.562-.505-3.101-1.096-4.613-1.68z" transform="translate(-850.632 -1399.118)"/>
                    <path id="Path_13623" data-name="Path 13623" class="cls-2" d="M462.2 1440.857c-5.549-4.591-14.176-5.818-23.659-3.367a40.847 40.847 0 0 0-20.684 12.245c.329.106.647.226.98.322a40.049 40.049 0 0 1 19.941-11.644c9.182-2.377 17.5-1.217 22.81 3.176a20.727 20.727 0 0 1 5.61 7.725c.329-.039.658-.074.987-.113a21.809 21.809 0 0 0-5.985-8.344z" transform="translate(-412.028 -1340.659)"/>
                    <path id="Path_13624" data-name="Path 13624" class="cls-2" d="M401.37 1203.043a115.27 115.27 0 0 0 29.908-11.6c3.537-2.037 7.53-4.633 10.339-8.45 2.989-4.057 3.979-8.889 2.656-12.924a10.122 10.122 0 0 0-2.589-4.085c-.244.2-.488.4-.736.6a9.175 9.175 0 0 1 2.416 3.781c1.227 3.739.287 8.248-2.518 12.057-2.706 3.672-6.6 6.2-10.048 8.188a112.83 112.83 0 0 1-28.19 11.145q-.616.645-1.238 1.288z" transform="translate(-401.37 -1165.98)"/>
                </g>
                <g id="Group_3841" data-name="Group 3841" transform="translate(114.26)">
                    <path id="Path_13625" data-name="Path 13625" class="cls-11" d="m814.847 1203.593-.018 1.63-.258 25.317-.032 2.745a15.767 15.767 0 0 1-31.532-.018l-.308-31.288z" transform="translate(-743.314 -1142.228)"/>
                    <path id="Path_13626" data-name="Path 13626" class="cls-9" d="m836.772 1211.15-.258 25.317c-14.07-5.73-19.864-20.96-19.864-20.96z" transform="translate(-765.256 -1148.155)"/>
                    <path id="Path_13627" data-name="Path 13627" class="cls-11" d="M814.464 1082.171c5.044 6.052 19.768 40.342 4.842 52.039-16.8 13.164-42.358-8.471-42.358-8.471l-3.428-39.939 22.187-5.85z" transform="translate(-737.381 -1063.359)"/>
                    <path id="Path_13628" data-name="Path 13628" class="cls-9" d="M696.178 1080.01s-49.213 25.667-9.086 99.657c5.153 9.5 16.571 13.653 26.336 9.016a19.962 19.962 0 0 0 8.754-27.878c-6.565-11.661-12.9-26.675-10.193-37.849z" transform="translate(-671.343 -1063.398)"/>
                    <circle id="Ellipse_462" data-name="Ellipse 462" class="cls-4" cx="13.313" cy="13.313" r="13.313" transform="rotate(-45 40.046 1.525)"/>
                    <path id="Path_13629" data-name="Path 13629" class="cls-9" d="M756.055 1077.8c-1.44-8.3-2.313-14 6.08-18.282 0 0 29.583 5.38 35.231-5.783s-2.957-28.776-20.978-16.539c-46.125-9.009-52.308 34.156-38.323 48.545l13.8-2.119a5.024 5.024 0 0 0 4.19-5.822z" transform="translate(-710.196 -1033.043)"/>
                    <g id="Group_3840" data-name="Group 3840" transform="translate(59.516 29.61)">
                        <circle id="Ellipse_463" data-name="Ellipse 463" class="cls-9" cx="1.967" cy="1.967" r="1.967" transform="translate(7.282 13.207)"/>
                        <circle id="Ellipse_464" data-name="Ellipse 464" class="cls-9" cx="1.967" cy="1.967" r="1.967" transform="translate(20.595 6.65)"/>
                        <path id="Path_13630" data-name="Path 13630" class="cls-9" d="M891.715 1160.175a.546.546 0 0 1-.382-.152.558.558 0 0 1-.021-.789c.789-.831 1.652-2 1.291-2.844-.378-.877-1.97-1.259-2.7-1.259-1.57 0-2.324-2.791-2.458-3.35a.557.557 0 1 1 1.082-.262c.286 1.178.934 2.5 1.376 2.5.75 0 3.049.354 3.724 1.931.484 1.128-.021 2.49-1.507 4.05a.537.537 0 0 1-.405.175z" transform="translate(-870.515 -1138.949)"/>
                        <path id="Path_13631" data-name="Path 13631" class="cls-9" d="M884.068 1193.4a.564.564 0 0 1-.311-.1 7.45 7.45 0 0 0-7.481-.382.557.557 0 0 1-.555-.966 8.468 8.468 0 0 1 8.658.425.557.557 0 0 1 .149.774.543.543 0 0 1-.46.249z" transform="translate(-862.769 -1164.71)"/>
                        <path id="Path_13632" data-name="Path 13632" class="cls-9" d="M848 1133.892c1.118 2.1-.831 2.529-3.116 3.742s-4.623 1.659-5.157.654.884-2.8 3.169-4.018 4.238-2.005 5.104-.378z" transform="translate(-839.612 -1127.239)"/>
                        <path id="Path_13633" data-name="Path 13633" class="cls-9" d="M886.777 1119.613c.492 1.878 1.892 1.057 3.933.524s3.685-1.56 3.452-2.455-2.076-1.192-4.117-.658-3.65 1.132-3.268 2.589z" transform="translate(-870.058 -1116.759)"/>
                    </g>
                    <circle id="Ellipse_465" data-name="Ellipse 465" cx="5.801" cy="5.801" r="5.801" transform="rotate(-42.686 94.375 -39.096)" style="fill:#eb5d60;opacity:.4"/>
                    <ellipse id="Ellipse_466" data-name="Ellipse 466" class="cls-11" cx="7.856" cy="8.924" rx="7.856" ry="8.924" transform="rotate(-52.35 68.547 1.12)"/>
                    <path id="Path_13634" data-name="Path 13634" class="cls-9" d="M774.569 1182.062a.554.554 0 0 1-.555-.555 4.88 4.88 0 0 0-2.143-4.064 3.942 3.942 0 0 0-3.661-.488.556.556 0 1 1-.421-1.029 5.04 5.04 0 0 1 4.7.594 5.985 5.985 0 0 1 2.635 4.991.553.553 0 0 1-.555.551z" transform="translate(-733.453 -1125.172)"/>
                </g>
                <g id="Group_3842" data-name="Group 3842" transform="translate(55.47 97.316)">
                    <path id="Rectangle_3747" data-name="Rectangle 3747" class="cls-9" transform="rotate(-47.249 24.847 10.868)" d="M0 0h29.601v1.273H0z"/>
                    <path id="Path_13635" data-name="Path 13635" class="cls-9" d="m961.511 1522.817-.371-1.217c14.629-4.457 28.826-9.794 41.69-25.88l.994.8c-13.09 16.368-27.486 21.78-42.313 26.297z" transform="translate(-799.85 -1429.39)"/>
                </g>
            </g>
            <g id="Group_3846" data-name="Group 3846" transform="translate(132.09 469.31)">
                <g id="Group_3844" data-name="Group 3844">
                    <path id="Path_13636" data-name="Path 13636" class="cls-12" d="M745.15 1432.98H620.713c-4.474 0-8.1 3.926-8.1 8.765v88.844c0 4.842 3.629 8.765 8.1 8.765H745.15c4.474 0 8.1-3.926 8.1-8.765v-88.844c.003-4.839-3.626-8.765-8.1-8.765z" transform="translate(-612.61 -1432.98)"/>
                </g>
                <g id="Group_3845" data-name="Group 3845" transform="translate(60.347 45.029)">
                    <path id="Path_13637" data-name="Path 13637" class="cls-3" d="M799.772 1562.833a.892.892 0 0 1 .856.927v9.38a.892.892 0 0 1-.856.927h-13.14a.892.892 0 0 1-.856-.927v-9.38a.892.892 0 0 1 .856-.927h13.14m0-2.543h-13.14a3.441 3.441 0 0 0-3.4 3.47v9.38a3.439 3.439 0 0 0 3.4 3.47h13.14a3.441 3.441 0 0 0 3.4-3.47v-9.38a3.441 3.441 0 0 0-3.4-3.47z" transform="translate(-783.23 -1560.29)"/>
                </g>
            </g>
        </g>
    </g>
</svg>
