<svg width="101" height="101" viewBox="0 0 101 101" fill="none" xmlns="http://www.w3.org/2000/svg">
<circle opacity="0.2" cx="50.5" cy="50.5" r="50.5" fill="#4694EB"/>
<path fill-rule="evenodd" clip-rule="evenodd" d="M53.4593 51.0132C59.2278 47.4759 65.9078 43.0679 62.2957 35.1634C61.9488 34.4696 61.1121 34.1227 60.4182 34.4696C59.7244 34.8165 59.3774 35.6464 59.7244 36.3403C62.428 42.1001 57.0282 45.4484 53.1839 47.8321L53.1838 47.8321C52.2791 48.3932 51.4605 48.9008 50.8539 49.3738C50.6133 49.2285 50.3116 49.0566 49.9648 48.8589C46.5274 46.8993 38.6598 42.4143 41.9223 36.4083C42.2012 35.6464 41.9223 34.8845 41.2285 34.5376C40.5346 34.2587 39.7047 34.5376 39.3578 35.2315C35.7661 43.0815 42.3305 47.4827 48.133 51.0064C42.3781 54.5369 35.7525 58.9449 39.3578 66.8221C39.5687 67.3731 40.4734 67.8357 41.1604 67.584C41.8543 67.2371 42.2012 66.4072 41.8543 65.7133C38.9938 59.7711 45.2955 56.007 48.8822 53.8645L48.8823 53.8645C49.7054 53.3728 50.3855 52.9666 50.7791 52.639C50.8622 52.7729 51.3475 53.052 52.061 53.4623L52.0611 53.4624L52.0611 53.4624C55.2614 55.3027 63.0518 59.7827 59.7312 65.6453C59.4523 66.4072 59.7244 67.1827 60.425 67.516C61.3229 67.9445 62.0168 67.3799 62.2277 66.8221C65.8942 58.9449 59.2142 54.5437 53.4593 51.0132ZM45.7317 37.864H55.847C56.6088 37.864 57.3027 37.2382 57.3027 36.4763C57.3027 35.7145 56.6769 35.0886 55.915 35.0886H45.7317C44.9698 35.0886 44.344 35.7145 44.344 36.4763C44.3508 37.2382 44.9698 37.864 45.7317 37.864ZM46.9085 42.7142C46.9085 41.9523 47.5343 41.3265 48.2962 41.3265H53.2824C54.0443 41.3265 54.6701 41.9523 54.6701 42.7142C54.6701 43.4761 54.0443 44.1019 53.2824 44.1019H48.2962C47.5343 44.1019 46.9085 43.4761 46.9085 42.7142ZM55.9218 64.3936H45.7317C44.9698 64.3936 44.344 65.0195 44.344 65.7813C44.344 66.5432 44.9698 67.169 45.7317 67.169H55.847C56.6088 67.169 57.3027 66.5432 57.3027 65.7813C57.3027 65.0195 56.6837 64.3936 55.9218 64.3936ZM54.6769 59.5435C54.6769 60.3054 54.0511 60.9312 53.2892 60.9312H48.303C47.5411 60.9312 46.9153 60.3054 46.9153 59.5435C46.9153 58.7816 47.5411 58.1558 48.303 58.1558H53.2892C54.0511 58.1558 54.6769 58.7816 54.6769 59.5435Z" fill="#4694EB"/>
</svg>
