<svg width="101" height="101" viewBox="0 0 101 101" fill="none" xmlns="http://www.w3.org/2000/svg">
<circle opacity="0.2" cx="50.5" cy="50.5" r="50.5" fill="#E9712F"/>
<path fill-rule="evenodd" clip-rule="evenodd" d="M56.5079 44.1654C56.5079 47.3162 53.8945 49.9223 50.7511 49.9223C47.6003 49.9223 44.9942 47.3162 44.9942 44.1654C44.9942 41.0146 47.6003 38.4086 50.7511 38.4086C53.9019 38.4086 56.5079 41.0146 56.5079 44.1654ZM53.5117 44.1654C53.5117 42.6342 52.2897 41.4048 50.7511 41.4048C49.2125 41.4048 47.9904 42.6342 47.9904 44.1654C47.9904 45.6967 49.2198 46.9261 50.7511 46.9261C52.2823 46.9261 53.5117 45.6967 53.5117 44.1654Z" fill="#F3855F"/>
<path fill-rule="evenodd" clip-rule="evenodd" d="M52.1056 34.3523H66.5566C67.359 34.3523 68.0215 35.0149 68.0289 35.8247V57.6741C68.0289 58.4765 67.3737 59.1391 66.4903 59.1391H53.2908L57.6858 67.178C58.0538 67.9142 57.833 68.7902 57.0968 69.1583C56.3607 69.5264 55.4846 69.3055 55.1165 68.5694L50.7143 60.5231L46.312 68.5694C45.9439 69.3055 44.9942 69.5264 44.3317 69.1583C43.5955 68.7902 43.3747 67.8406 43.7427 67.178L48.1377 59.1391H34.7983C33.9959 59.1391 33.3333 58.4839 33.3333 57.6741V35.8173C33.3333 35.0149 33.9885 34.3523 34.7983 34.3523H49.1757V34.1315C49.1757 33.3291 49.8382 32.6665 50.6406 32.6665C51.4431 32.6665 52.1056 33.3217 52.1056 34.1315V34.3523ZM59.5509 56.2165H65.0842V37.2896H36.2633V56.2165H41.8458C43.5561 53.0881 46.8807 50.9529 50.6774 50.9529C54.4596 50.9529 57.8134 53.0774 59.5509 56.2165ZM55.9543 56.2165C54.6666 54.8159 52.8163 53.9417 50.7511 53.9417C48.6858 53.9417 46.8355 54.8159 45.5478 56.2165H55.9543Z" fill="#F3855F"/>
</svg>
