<svg xmlns="http://www.w3.org/2000/svg" width="70" height="70" viewBox="0 0 70 70">
  <g id="Group_325" data-name="Group 325" transform="translate(-805 -2255)">
    <g id="Group_134" data-name="Group 134" transform="translate(804.503 2255)">
      <circle id="Ellipse_63" data-name="Ellipse 63" cx="35" cy="35" r="35" transform="translate(0.497)" fill="rgba(220,104,142,0.2)"/>
    </g>
    <g id="share_location_black_24dp_1_" data-name="share_location_black_24dp (1)" transform="translate(819 2269)">
      <g id="Group_321" data-name="Group 321">
        <path id="Path_2029" data-name="Path 2029" d="M0,0H42V42H0Z" fill="none"/>
      </g>
      <g id="Group_324" data-name="Group 324" transform="translate(3.565 3.6)">
        <g id="Group_323" data-name="Group 323">
          <path id="Path_2030" data-name="Path 2030" d="M13.02,21.155V24.7a17.471,17.471,0,0,0,9.342-3.881L19.869,18.31A13.945,13.945,0,0,1,13.02,21.155Z" transform="translate(6.17 10.098)" fill="#dc688e"/>
          <path id="Path_2031" data-name="Path 2031" d="M5.542,19.45a14.037,14.037,0,0,1,12.2-13.868V2.05a17.49,17.49,0,0,0,0,34.8V33.318A14.037,14.037,0,0,1,5.542,19.45Z" transform="translate(-2.03 -2.05)" fill="#dc688e"/>
          <path id="Path_2032" data-name="Path 2032" d="M21.175,15.022h3.547A17.471,17.471,0,0,0,20.841,5.68L18.33,8.191A13.817,13.817,0,0,1,21.175,15.022Z" transform="translate(10.148 0.658)" fill="#dc688e"/>
          <path id="Path_2033" data-name="Path 2033" d="M22.362,5.931A17.528,17.528,0,0,0,13.02,2.05V5.6a13.945,13.945,0,0,1,6.849,2.845Z" transform="translate(6.17 -2.05)" fill="#dc688e"/>
          <path id="Path_2034" data-name="Path 2034" d="M18.33,19.849l2.511,2.494A17.471,17.471,0,0,0,24.722,13H21.175A13.945,13.945,0,0,1,18.33,19.849Z" transform="translate(10.148 6.12)" fill="#dc688e"/>
          <path id="Path_2036" data-name="Path 2036" d="M11.143,10.036c1.187,0,3.571.6,3.571,1.786v.143a4.7,4.7,0,0,1-7.143,0v-.143C7.571,10.634,9.955,10.036,11.143,10.036Zm0-.893a1.786,1.786,0,1,1,1.786-1.786A1.791,1.791,0,0,1,11.143,9.143Zm5.357.179a5.36,5.36,0,1,0-10.714,0c0,2.089,1.741,4.857,5.357,8.161C14.759,14.178,16.5,11.411,16.5,9.321ZM11.143,2a7.1,7.1,0,0,1,7.143,7.321q0,4.446-7.143,10.536Q4,13.763,4,9.321A7.1,7.1,0,0,1,11.143,2Z" transform="translate(6.344 6.472)" fill="#dc688e"/>
        </g>
      </g>
    </g>
  </g>
</svg>
