<svg width="101" height="101" viewBox="0 0 101 101" fill="none" xmlns="http://www.w3.org/2000/svg">
<circle opacity="0.2" cx="50.5" cy="50.5" r="50.5" fill="#8CCA85"/>
<path d="M66.045 59.4367L61.8305 50.7149C61.885 50.6468 67.1684 44.1855 61.6535 37.2408C60.1216 35.3139 57.7522 34.3335 55.4101 34.3335C53.0679 34.3335 50.8007 35.3275 49.1666 37.2408L48.7445 37.7378L48.3224 37.2408C46.6883 35.3956 44.4211 34.3335 42.0789 34.3335C39.7368 34.3335 37.4695 35.3956 35.8355 37.2408C32.4993 40.9991 32.4993 47.1676 35.8355 50.926L47.6075 64.4001C48.3496 65.4418 49.4866 64.8358 49.8066 64.4682L53.7079 60.1447L55.7641 64.4001C57.9769 68.6214 62.0416 67.7295 63.4237 67.0963C64.7786 66.4767 68.0195 63.9916 66.045 59.4367ZM53.1428 52.56C52.7888 51.8519 52.2781 49.7889 54.4909 48.5906C54.9062 48.3659 57.1871 47.6442 58.4603 50.0068L60.4212 54.0647L55.0969 56.6043L53.1428 52.56ZM48.8126 61.4248L38.0346 49.0876C35.6244 46.3234 35.6244 41.857 38.0346 39.0859C39.0968 37.8127 40.5878 37.0978 42.147 37.0978C43.6381 37.0978 45.1223 37.8059 46.2594 39.0859L47.6075 40.645C48.3632 41.6118 49.4526 41.2101 49.8066 40.788L51.2977 39.0859C52.3598 37.8127 53.8509 37.0978 55.4101 37.0978C56.9011 37.0978 58.3854 37.8059 59.5224 39.0859C61.5446 41.428 61.8782 45.1251 60.3599 47.8553C59.3046 46.3778 56.622 44.4851 53.2109 46.0306C51.856 46.6434 48.7377 49.3259 50.5896 53.6902L52.3871 57.4077L48.8126 61.4248ZM62.2867 64.686C61.8373 64.8426 59.7607 65.6665 58.3173 63.2699L56.302 59.0962L61.6263 56.5566L63.6416 60.7167C64.6357 62.8273 63.0493 64.4273 62.2867 64.686Z" fill="#8CCA85"/>
</svg>
