<svg width="101" height="101" viewBox="0 0 101 101" fill="none" xmlns="http://www.w3.org/2000/svg">
<circle opacity="0.2" cx="50.5" cy="50.5" r="50.5" fill="#AE6AE3"/>
<path fill-rule="evenodd" clip-rule="evenodd" d="M37.9388 46.8301C38.7075 46.8301 39.3265 46.211 39.3265 45.4423V41.9389C39.3265 39.2791 41.4966 37.109 44.1633 37.109H55.8299C58.4966 37.109 60.6667 39.2723 60.6667 41.9389V45.4423C60.6667 46.211 61.2857 46.8301 62.0544 46.8301C62.8231 46.8301 63.4422 46.211 63.4422 45.4423V41.9389C63.4422 37.7485 60.0272 34.3335 55.8299 34.3335H44.1633C39.966 34.3335 36.551 37.7485 36.551 41.9389V45.4423C36.551 46.211 37.1701 46.8301 37.9388 46.8301ZM65.2789 51.6328H34.7211C33.9524 51.6328 33.3333 52.2519 33.3333 53.0206V62.2995C33.3333 63.0682 33.9524 63.6872 34.7211 63.6872H37.6803V66.2791C37.6803 67.0478 38.2993 67.6668 39.068 67.6668C39.8367 67.6668 40.4558 67.0478 40.4558 66.2791V63.6872H59.5306V66.2791C59.5306 67.0478 60.1497 67.6668 60.9184 67.6668C61.6871 67.6668 62.3061 67.0478 62.3061 66.2791V63.6872H65.2653C66.034 63.6872 66.6531 63.0682 66.6531 62.2995V53.0274C66.6667 52.2587 66.0408 51.6328 65.2789 51.6328ZM63.8844 60.9117H36.1089V54.4151H63.8844V60.9117ZM44.381 42.6124C44.381 41.8437 45 41.2247 45.7687 41.2247H54.2245C54.9932 41.2247 55.6123 41.8437 55.6123 42.6124C55.6123 43.3811 54.9932 44.0002 54.2245 44.0002H45.7687C45 44.0002 44.381 43.3811 44.381 42.6124Z" fill="#AE6AE3"/>
</svg>
