<svg width="101" height="101" viewBox="0 0 101 101" fill="none" xmlns="http://www.w3.org/2000/svg">
<circle opacity="0.2" cx="50.5" cy="50.5" r="50.5" fill="#4694EB"/>
<path fill-rule="evenodd" clip-rule="evenodd" d="M67.2584 67.1847H66.1125V48.9234C66.1125 48.461 65.8167 48.0506 65.378 47.9044L53.2222 43.8524V40.1867C53.2222 39.7389 52.9445 39.3381 52.5252 39.1809L35.3382 32.7357C34.6367 32.4727 33.8868 32.9921 33.8868 33.7415V67.1847H32.741C32.1477 67.1847 31.6667 67.6657 31.6667 68.259C31.6667 68.8522 32.1477 69.3332 32.741 69.3332H67.2584C67.8516 69.3332 68.3326 68.8522 68.3326 68.259C68.3326 67.6657 67.8516 67.1847 67.2584 67.1847ZM42.4803 67.1847H40.3319V62.8879H42.4803V67.1847ZM46.7771 67.1847H44.6287V62.8879H46.7771V67.1847ZM51.0739 44.6266V67.1847H48.9255V61.8137C48.9255 61.2205 48.4446 60.7395 47.8513 60.7395H39.2577C38.6645 60.7395 38.1835 61.2205 38.1835 61.8137V67.1847H36.0352V35.2916L51.0739 40.931V44.6266ZM59.6674 67.1847H57.519V62.8879H59.6674V67.1847ZM63.9642 67.1847H61.8158V61.8137C61.8158 61.2205 61.3349 60.7395 60.7416 60.7395H56.4448C55.8516 60.7395 55.3706 61.2205 55.3706 61.8137V67.1847H53.2222V46.117L63.9642 49.6977V67.1847ZM41.4062 56.4427H39.2578C38.6645 56.4427 38.1836 56.9237 38.1836 57.5169C38.1836 58.1102 38.6645 58.5912 39.2578 58.5912H41.4062C41.9994 58.5912 42.4804 58.1102 42.4804 57.5169C42.4804 56.9237 41.9994 56.4427 41.4062 56.4427ZM45.703 56.4427H47.8513C48.4446 56.4427 48.9255 56.9237 48.9255 57.5169C48.9255 58.1102 48.4446 58.5912 47.8513 58.5912H45.703C45.1096 58.5912 44.6287 58.1102 44.6287 57.5169C44.6287 56.9237 45.1097 56.4427 45.703 56.4427ZM41.4062 52.146H39.2578C38.6645 52.146 38.1836 52.627 38.1836 53.2202C38.1836 53.8135 38.6645 54.2944 39.2578 54.2944H41.4062C41.9994 54.2944 42.4804 53.8135 42.4804 53.2202C42.4804 52.627 41.9994 52.146 41.4062 52.146ZM45.703 52.146H47.8513C48.4446 52.146 48.9255 52.627 48.9255 53.2202C48.9255 53.8135 48.4446 54.2944 47.8513 54.2944H45.703C45.1096 54.2944 44.6287 53.8135 44.6287 53.2202C44.6287 52.627 45.1097 52.146 45.703 52.146ZM60.7416 56.4427H56.4448C55.8516 56.4427 55.3706 56.9237 55.3706 57.5169C55.3706 58.1102 55.8515 58.5912 56.4448 58.5912H60.7416C61.3349 58.5912 61.8158 58.1102 61.8158 57.5169C61.8158 56.9237 61.3349 56.4427 60.7416 56.4427ZM56.4448 52.146H60.7416C61.3349 52.146 61.8158 52.627 61.8158 53.2202C61.8158 53.8135 61.3349 54.2944 60.7416 54.2944H56.4448C55.8515 54.2944 55.3706 53.8135 55.3706 53.2202C55.3706 52.627 55.8516 52.146 56.4448 52.146ZM41.4062 47.8492H39.2578C38.6645 47.8492 38.1836 48.3302 38.1836 48.9234C38.1836 49.5167 38.6645 49.9976 39.2578 49.9976H41.4062C41.9994 49.9976 42.4804 49.5167 42.4804 48.9234C42.4803 48.3302 41.9994 47.8492 41.4062 47.8492ZM45.703 47.8492H47.8513C48.4446 47.8492 48.9255 48.3302 48.9255 48.9234C48.9255 49.5167 48.4446 49.9976 47.8513 49.9976H45.703C45.1096 49.9976 44.6287 49.5167 44.6287 48.9234C44.6287 48.3302 45.1097 47.8492 45.703 47.8492ZM41.4062 43.5524H39.2578C38.6645 43.5524 38.1836 44.0334 38.1836 44.6266C38.1836 45.2199 38.6645 45.7009 39.2578 45.7009H41.4062C41.9994 45.7009 42.4804 45.2199 42.4804 44.6266C42.4803 44.0334 41.9994 43.5524 41.4062 43.5524ZM45.703 43.5524H47.8513C48.4446 43.5524 48.9255 44.0334 48.9255 44.6266C48.9255 45.2199 48.4446 45.7009 47.8513 45.7009H45.703C45.1096 45.7009 44.6287 45.2199 44.6287 44.6266C44.6287 44.0334 45.1097 43.5524 45.703 43.5524Z" fill="#4694EB"/>
</svg>
