<svg width="875" height="552" viewBox="0 0 875 552" fill="none" xmlns="http://www.w3.org/2000/svg">
<path d="M870.646 551.354C870.842 551.549 871.158 551.549 871.353 551.354L874.535 548.172C874.731 547.976 874.731 547.66 874.535 547.464C874.34 547.269 874.024 547.269 873.828 547.464L871 550.293L868.171 547.464C867.976 547.269 867.66 547.269 867.464 547.464C867.269 547.66 867.269 547.976 867.464 548.172L870.646 551.354ZM0.499969 1.45322e-07C0.49997 0.488857 0.49997 0.97915 0.500015 1.47083L1.50002 1.47074C1.49997 0.979112 1.49997 0.488865 1.49997 -1.45322e-07L0.499969 1.45322e-07ZM0.501189 4.43756C0.502001 5.43194 0.503355 6.43174 0.505612 7.43675L1.50561 7.4345C1.50335 6.43008 1.502 5.43077 1.50119 4.43674L0.501189 4.43756ZM0.515388 10.4529C0.519656 11.435 0.525104 12.4218 0.532061 13.4131L1.53204 13.4061C1.52509 12.4158 1.51964 11.4299 1.51538 10.4486L0.515388 10.4529ZM0.557782 16.4005C0.568083 17.4007 0.580218 18.4053 0.594517 19.414L1.59442 19.3999C1.58014 18.3925 1.56802 17.3892 1.55773 16.3902L0.557782 16.4005ZM0.64316 22.3952C0.661491 23.3837 0.68217 24.3759 0.705497 25.3718L1.70522 25.3484C1.68194 24.3542 1.66129 23.3636 1.64299 22.3767L0.64316 22.3952ZM0.783721 28.3701C0.812572 29.3706 0.844356 30.3745 0.879373 31.3817L1.87877 31.347C1.84382 30.3418 1.8121 29.3399 1.78331 28.3413L0.783721 28.3701ZM0.991747 34.3482C1.03249 35.3401 1.0766 36.335 1.12438 37.3328L2.12323 37.285C2.07557 36.2895 2.03156 35.2969 1.9909 34.3072L0.991747 34.3482ZM1.27894 40.3346C1.33379 41.3287 1.39251 42.3256 1.45537 43.3249L2.45339 43.2621C2.39071 42.2654 2.33214 41.2712 2.27742 40.2795L1.27894 40.3346ZM1.65418 46.2961C1.72467 47.2889 1.79946 48.2841 1.87883 49.2814L2.87568 49.2021C2.79654 48.2077 2.72196 47.2154 2.65167 46.2253L1.65418 46.2961ZM2.13089 52.2799C2.21852 53.2686 2.31086 54.2594 2.40816 55.252L3.40339 55.1545C3.3064 54.165 3.21435 53.1773 3.12699 52.1916L2.13089 52.2799ZM2.71356 58.2201C2.82044 59.2113 2.93249 60.2042 3.04994 61.1986L4.04304 61.0813C3.92599 60.0903 3.81432 59.1008 3.7078 58.1129L2.71356 58.2201ZM3.41879 64.1866C3.54542 65.1695 3.67755 66.1537 3.81541 67.1392L4.80577 67.0007C4.66842 66.0188 4.53677 65.0381 4.41059 64.0589L3.41879 64.1866ZM4.24584 70.0955C4.39519 71.0822 4.55051 72.07 4.71201 73.0589L5.69894 72.8977C5.53807 71.9127 5.38336 70.9287 5.23458 69.9459L4.24584 70.0955ZM5.21492 76.0259C5.3864 77.0017 5.56412 77.9783 5.7483 78.9557L6.73101 78.7706C6.54759 77.7972 6.3706 76.8246 6.19982 75.8528L5.21492 76.0259ZM6.32048 81.8902C6.51783 82.869 6.72187 83.8485 6.93283 84.8285L7.91043 84.6181C7.70041 83.6424 7.49726 82.6672 7.30076 81.6925L6.32048 81.8902ZM7.58532 87.764C7.80689 88.73 8.03538 89.6963 8.27102 90.663L9.24257 90.4261C9.00802 89.464 8.78057 88.502 8.56001 87.5404L7.58532 87.764ZM8.99962 93.5637C9.24978 94.5308 9.5073 95.498 9.7724 96.4653L10.7368 96.201C10.473 95.2384 10.2167 94.2757 9.96775 93.3132L8.99962 93.5637ZM10.5886 99.3601C10.8645 100.312 11.1479 101.263 11.439 102.214L12.3952 101.922C12.1055 100.975 11.8235 100.028 11.549 99.0817L10.5886 99.3601ZM12.3359 105.067C12.6428 106.018 12.9576 106.969 13.2806 107.919L14.2274 107.597C13.9061 106.652 13.5929 105.706 13.2876 104.76L12.3359 105.067ZM14.2723 110.762C14.6055 111.694 14.9467 112.625 15.2963 113.556L16.2324 113.204C15.8848 112.279 15.5453 111.352 15.2139 110.426L14.2723 110.762ZM16.3698 116.346C16.736 117.275 17.1106 118.204 17.494 119.131L18.4182 118.75C18.037 117.827 17.6644 116.903 17.3001 115.979L16.3698 116.346ZM18.6701 121.912C19.0624 122.819 19.4631 123.725 19.8726 124.629L20.7836 124.217C20.3765 123.317 19.9779 122.417 19.5878 121.515L18.6701 121.912ZM21.1263 127.339C21.553 128.241 21.9885 129.142 22.433 130.042L23.3296 129.599C22.8876 128.704 22.4546 127.808 22.0303 126.911L21.1263 127.339ZM23.7938 132.739C24.2474 133.619 24.7099 134.497 25.1813 135.375L26.0623 134.902C25.5935 134.029 25.1337 133.155 24.6826 132.281L23.7938 132.739ZM26.6136 137.987C27.1001 138.856 27.5955 139.724 28.1003 140.591L28.9644 140.087C28.4626 139.226 27.9699 138.363 27.4863 137.499L26.6136 137.987ZM29.6423 143.186C30.1587 144.038 30.6842 144.888 31.2191 145.737L32.0652 145.204C31.5334 144.36 31.0109 143.515 30.4975 142.667L29.6423 143.186ZM32.8224 148.235C33.3659 149.065 33.9186 149.895 34.4805 150.722L35.3078 150.16C34.7491 149.338 34.1996 148.513 33.6592 147.687L32.8224 148.235ZM36.1944 153.199C36.775 154.024 37.3651 154.846 37.9648 155.666L38.7721 155.076C38.1759 154.26 37.5891 153.443 37.0118 152.623L36.1944 153.199ZM39.7283 158.037C40.3244 158.824 40.9295 159.609 41.5438 160.393L42.3308 159.776C41.72 158.997 41.1183 158.216 40.5256 157.433L39.7283 158.037ZM43.4145 162.738C44.0473 163.518 44.6894 164.296 45.341 165.072L46.1068 164.428C45.4588 163.657 44.8202 162.883 44.191 162.108L43.4145 162.738ZM47.2966 167.361C47.9392 168.101 48.5905 168.839 49.2508 169.574L49.9951 168.906C49.3384 168.175 48.6906 167.441 48.0516 166.705L47.2966 167.361ZM51.2586 171.776C51.9368 172.507 52.6241 173.237 53.3206 173.965L54.043 173.273C53.3502 172.549 52.6666 171.824 51.992 171.096L51.2586 171.776ZM55.4377 176.141C56.136 176.847 56.8431 177.552 57.5591 178.254L58.2593 177.54C57.5469 176.841 56.8435 176.141 56.1489 175.438L55.4377 176.141ZM59.6812 180.303C60.3972 180.984 61.1218 181.663 61.8552 182.34L62.5334 181.605C61.8037 180.932 61.0828 180.256 60.3705 179.579L59.6812 180.303ZM64.0817 184.364C64.8327 185.037 65.5925 185.707 66.3614 186.375L67.0172 185.62C66.2522 184.955 65.4961 184.288 64.7488 183.619L64.0817 184.364ZM68.6426 188.328C69.3881 188.957 70.1418 189.584 70.9037 190.209L71.5378 189.436C70.7795 188.814 70.0294 188.19 69.2874 187.564L68.6426 188.328ZM73.2143 192.077C73.9928 192.698 74.7796 193.316 75.5748 193.932L76.1873 193.142C75.3957 192.528 74.6125 191.913 73.8376 191.295L73.2143 192.077ZM77.9858 195.774C78.7944 196.383 79.6115 196.99 80.4372 197.594L81.0279 196.787C80.2059 196.186 79.3925 195.581 78.5874 194.975L77.9858 195.774ZM82.8073 199.307C83.605 199.875 84.4105 200.442 85.2237 201.007L85.7939 200.185C84.9841 199.623 84.1821 199.059 83.3878 198.492L82.8073 199.307ZM87.6869 202.693C88.5158 203.254 89.3526 203.812 90.1973 204.367L90.7469 203.532C89.9057 202.978 89.0723 202.423 88.2468 201.865L87.6869 202.693ZM92.7554 206.028C93.5951 206.566 94.4424 207.102 95.2975 207.635L95.8268 206.787C94.9751 206.255 94.1311 205.722 93.2947 205.186L92.7554 206.028ZM97.7902 209.171C98.6283 209.681 99.4735 210.189 100.326 210.694L100.836 209.834C99.9869 209.331 99.1448 208.825 98.3099 208.317L97.7902 209.171ZM102.906 212.205C103.773 212.707 104.647 213.206 105.529 213.704L106.02 212.833C105.142 212.337 104.27 211.839 103.406 211.34L102.906 212.205ZM108.197 215.189C109.073 215.67 109.955 216.149 110.845 216.627L111.318 215.745C110.431 215.27 109.551 214.792 108.679 214.313L108.197 215.189ZM113.427 217.994C114.294 218.448 115.168 218.9 116.049 219.35L116.504 218.459C115.626 218.011 114.755 217.56 113.891 217.108L113.427 217.994ZM118.71 220.693C119.604 221.139 120.505 221.583 121.413 222.025L121.85 221.126C120.946 220.686 120.048 220.243 119.157 219.799L118.71 220.693ZM124.156 223.344C125.077 223.782 126.005 224.217 126.94 224.651L127.36 223.744C126.428 223.311 125.503 222.877 124.585 222.441L124.156 223.344ZM129.592 225.866C130.478 226.268 131.37 226.667 132.269 227.065L132.674 226.151C131.778 225.754 130.888 225.356 130.005 224.955L129.592 225.866ZM134.982 228.253C135.893 228.647 136.81 229.039 137.733 229.429L138.122 228.508C137.202 228.119 136.288 227.728 135.379 227.335L134.982 228.253ZM140.521 230.593C141.456 230.979 142.398 231.364 143.346 231.746L143.72 230.818C142.774 230.437 141.835 230.054 140.902 229.669L140.521 230.593ZM146.199 232.883C147.096 233.236 147.998 233.588 148.906 233.937L149.265 233.004C148.36 232.655 147.46 232.305 146.566 231.953L146.199 232.883ZM151.645 234.981C152.564 235.327 153.488 235.671 154.418 236.014L154.764 235.075C153.836 234.734 152.914 234.39 151.998 234.045L151.645 234.981ZM157.225 237.036C158.166 237.375 159.113 237.712 160.066 238.047L160.398 237.104C159.448 236.77 158.503 236.433 157.564 236.095L157.225 237.036ZM162.941 239.048C163.904 239.379 164.874 239.709 165.85 240.037L166.168 239.089C165.195 238.762 164.228 238.433 163.266 238.102L162.941 239.048ZM168.659 240.971C169.579 241.274 170.504 241.574 171.434 241.874L171.74 240.922C170.812 240.623 169.89 240.323 168.972 240.021L168.659 240.971ZM174.239 242.766C175.18 243.062 176.125 243.356 177.075 243.649L177.369 242.693C176.421 242.401 175.478 242.107 174.54 241.812L174.239 242.766ZM179.941 244.521C180.902 244.81 181.868 245.098 182.839 245.383L183.121 244.424C182.152 244.139 181.188 243.852 180.23 243.564L179.941 244.521ZM185.767 246.236C186.748 246.518 187.735 246.798 188.726 247.077L188.997 246.115C188.007 245.836 187.023 245.556 186.043 245.275L185.767 246.236ZM191.562 247.866C192.496 248.123 193.435 248.378 194.377 248.632L194.637 247.667C193.696 247.413 192.76 247.158 191.828 246.902L191.562 247.866ZM197.22 249.389C198.172 249.64 199.129 249.889 200.09 250.137L200.34 249.168C199.38 248.921 198.425 248.672 197.475 248.422L197.22 249.389ZM202.988 250.875C203.959 251.12 204.934 251.363 205.914 251.604L206.153 250.633C205.175 250.392 204.201 250.149 203.232 249.905L202.988 250.875ZM208.868 252.323C209.857 252.562 210.851 252.798 211.85 253.033L212.079 252.06C211.082 251.825 210.09 251.589 209.102 251.351L208.868 252.323ZM214.804 253.721C215.744 253.937 216.688 254.152 217.636 254.365L217.856 253.389C216.909 253.176 215.967 252.962 215.028 252.746L214.804 253.721ZM220.493 255.001C221.45 255.211 222.41 255.42 223.375 255.628L223.586 254.651C222.622 254.443 221.663 254.234 220.708 254.024L220.493 255.001ZM226.282 256.247C227.255 256.452 228.232 256.655 229.214 256.857L229.415 255.878C228.435 255.676 227.46 255.473 226.488 255.268L226.282 256.247ZM232.171 257.458C233.161 257.657 234.155 257.855 235.154 258.051L235.347 257.07C234.35 256.874 233.357 256.677 232.368 256.478L232.171 257.458ZM238.162 258.635C239.157 258.826 240.157 259.015 241.16 259.203L241.344 258.22C240.342 258.033 239.344 257.843 238.35 257.653L238.162 258.635ZM244.013 259.732C244.968 259.906 245.927 260.08 246.889 260.252L247.065 259.268C246.104 259.096 245.147 258.923 244.194 258.748L244.013 259.732ZM249.787 260.765C250.757 260.935 251.731 261.103 252.708 261.27L252.876 260.284C251.9 260.117 250.928 259.949 249.959 259.78L249.787 260.765ZM255.651 261.767C256.636 261.931 257.625 262.094 258.618 262.255L258.778 261.268C257.787 261.107 256.8 260.944 255.816 260.78L255.651 261.767ZM261.607 262.736C262.607 262.895 263.611 263.053 264.619 263.209L264.772 262.221C263.765 262.065 262.763 261.907 261.764 261.749L261.607 262.736ZM267.654 263.674C268.641 263.823 269.633 263.971 270.627 264.117L270.773 263.128C269.78 262.982 268.79 262.834 267.804 262.685L267.654 263.674ZM273.503 264.536C274.465 264.675 275.43 264.812 276.399 264.948L276.538 263.958C275.571 263.822 274.606 263.685 273.645 263.546L273.503 264.536ZM279.316 265.352C280.291 265.486 281.27 265.618 282.253 265.749L282.385 264.758C281.404 264.627 280.426 264.495 279.451 264.362L279.316 265.352ZM285.211 266.139C286.2 266.268 287.193 266.395 288.189 266.522L288.314 265.53C287.319 265.403 286.328 265.276 285.34 265.148L285.211 266.139ZM291.188 266.897C292.191 267.02 293.197 267.143 294.207 267.264L294.327 266.271C293.318 266.15 292.312 266.028 291.31 265.904L291.188 266.897ZM297.248 267.624C298.265 267.743 299.285 267.861 300.309 267.977L300.422 266.983C299.399 266.867 298.38 266.75 297.364 266.631L297.248 267.624ZM303.195 268.3C304.159 268.407 305.125 268.512 306.094 268.616L306.201 267.622C305.233 267.518 304.267 267.413 303.305 267.306L303.195 268.3ZM309.011 268.926C309.987 269.028 310.965 269.129 311.947 269.228L312.048 268.234C311.067 268.134 310.09 268.033 309.115 267.931L309.011 268.926ZM314.901 269.524C315.889 269.622 316.879 269.718 317.874 269.814L317.969 268.818C316.976 268.723 315.986 268.627 314.999 268.529L314.901 269.524ZM320.865 270.096C321.865 270.189 322.869 270.281 323.875 270.372L323.965 269.376C322.959 269.285 321.957 269.193 320.958 269.1L320.865 270.096ZM326.904 270.641C327.917 270.729 328.933 270.816 329.952 270.902L330.036 269.906C329.018 269.82 328.003 269.733 326.991 269.644L326.904 270.641ZM333.019 271.157C333.992 271.237 334.968 271.316 335.947 271.393L336.026 270.396C335.048 270.319 334.072 270.24 333.1 270.161L333.019 271.157ZM338.85 271.619C339.821 271.694 340.794 271.767 341.771 271.839L341.844 270.842C340.869 270.77 339.896 270.696 338.927 270.622L338.85 271.619ZM344.708 272.053C345.689 272.123 346.674 272.193 347.661 272.261L347.73 271.263C346.744 271.195 345.76 271.126 344.779 271.056L344.708 272.053ZM350.632 272.462C351.625 272.528 352.621 272.594 353.62 272.658L353.684 271.66C352.686 271.596 351.691 271.531 350.698 271.464L350.632 272.462ZM356.624 272.847C357.629 272.909 358.636 272.969 359.646 273.029L359.705 272.031C358.696 271.971 357.689 271.91 356.686 271.848L356.624 272.847ZM362.684 273.206C363.7 273.264 364.719 273.32 365.74 273.376L365.794 272.377C364.774 272.322 363.756 272.265 362.741 272.207L362.684 273.206ZM368.813 273.54C369.785 273.59 370.76 273.64 371.738 273.689L371.787 272.69C370.811 272.641 369.837 272.592 368.865 272.541L368.813 273.54ZM374.647 273.831C375.62 273.877 376.595 273.923 377.572 273.967L377.618 272.968C376.641 272.924 375.667 272.878 374.695 272.832L374.647 273.831ZM380.512 274.098C381.495 274.141 382.48 274.182 383.468 274.223L383.509 273.224C382.522 273.183 381.538 273.141 380.556 273.099L380.512 274.098ZM386.438 274.342C387.431 274.381 388.426 274.419 389.424 274.456L389.461 273.456C388.464 273.42 387.47 273.382 386.477 273.343L386.438 274.342ZM392.426 274.564C393.429 274.599 394.434 274.633 395.442 274.666L395.475 273.666C394.468 273.633 393.463 273.599 392.461 273.564L392.426 274.564ZM398.475 274.762C399.488 274.793 400.504 274.823 401.522 274.853L401.551 273.853C400.533 273.824 399.518 273.794 398.505 273.763L398.475 274.762ZM404.585 274.937C405.603 274.964 406.623 274.99 407.646 275.016L407.671 274.016C406.649 273.991 405.629 273.965 404.612 273.938L404.585 274.937ZM410.549 275.084C411.518 275.106 412.49 275.127 413.465 275.148L413.486 274.148C412.512 274.128 411.54 274.107 410.571 274.085L410.549 275.084ZM416.395 275.206C417.374 275.225 418.355 275.242 419.338 275.259L419.355 274.259C418.373 274.242 417.392 274.225 416.414 274.206L416.395 275.206ZM422.296 275.307C423.284 275.322 424.275 275.336 425.267 275.35L425.281 274.35C424.289 274.336 423.299 274.322 422.311 274.307L422.296 275.307ZM428.253 275.387C429.25 275.398 430.25 275.409 431.252 275.419L431.262 274.419C430.26 274.409 429.261 274.398 428.264 274.387L428.253 275.387ZM434.266 275.446C435.272 275.454 436.281 275.461 437.293 275.467L437.299 274.467C436.288 274.461 435.28 274.454 434.274 274.446L434.266 275.446ZM440.334 275.483C441.351 275.488 442.369 275.491 443.39 275.494L443.393 274.494C442.372 274.491 441.354 274.488 440.339 274.483L440.334 275.483ZM446.459 275.499C446.972 275.5 447.486 275.5 448 275.5V274.5C447.486 274.5 446.973 274.5 446.46 274.499L446.459 275.499ZM448 275.5C448.516 275.5 449.031 275.5 449.545 275.501L449.546 274.501C449.031 274.5 448.516 274.5 448 274.5V275.5ZM452.623 275.507C453.647 275.51 454.668 275.514 455.687 275.519L455.692 274.519C454.673 274.514 453.651 274.51 452.626 274.507L452.623 275.507ZM458.735 275.538C459.749 275.545 460.76 275.554 461.769 275.563L461.778 274.563C460.769 274.554 459.757 274.545 458.742 274.538L458.735 275.538ZM464.787 275.594C465.791 275.605 466.792 275.617 467.791 275.631L467.804 274.631C466.805 274.618 465.803 274.605 464.799 274.594L464.787 275.594ZM470.78 275.674C471.774 275.689 472.765 275.706 473.754 275.723L473.771 274.723C472.782 274.706 471.79 274.69 470.795 274.674L470.78 275.674ZM476.713 275.779C477.697 275.798 478.678 275.818 479.657 275.84L479.679 274.84C478.699 274.819 477.717 274.798 476.733 274.779L476.713 275.779ZM482.587 275.907C483.561 275.931 484.533 275.955 485.502 275.981L485.528 274.981C484.558 274.955 483.586 274.931 482.611 274.908L482.587 275.907ZM488.533 276.064C489.561 276.093 490.585 276.123 491.608 276.155L491.638 275.155C490.616 275.124 489.59 275.093 488.561 275.064L488.533 276.064ZM494.665 276.253C495.682 276.287 496.696 276.322 497.707 276.358L497.743 275.359C496.731 275.322 495.716 275.287 494.699 275.254L494.665 276.253ZM500.732 276.469C501.738 276.508 502.741 276.547 503.741 276.587L503.781 275.588C502.78 275.548 501.777 275.508 500.77 275.47L500.732 276.469ZM506.733 276.712C507.728 276.755 508.72 276.799 509.709 276.844L509.754 275.845C508.764 275.8 507.771 275.756 506.776 275.713L506.733 276.712ZM512.669 276.982C513.652 277.029 514.634 277.077 515.612 277.126L515.662 276.127C514.683 276.078 513.701 276.03 512.716 275.983L512.669 276.982ZM518.539 277.277C519.512 277.328 520.483 277.381 521.45 277.435L521.506 276.436C520.537 276.382 519.566 276.33 518.592 276.278L518.539 277.277ZM524.474 277.606C525.5 277.665 526.524 277.726 527.545 277.788L527.605 276.79C526.584 276.728 525.559 276.667 524.532 276.608L524.474 277.606ZM530.597 277.978C531.612 278.042 532.623 278.108 533.632 278.175L533.698 277.177C532.688 277.11 531.676 277.044 530.661 276.98L530.597 277.978ZM536.648 278.379C537.65 278.448 538.65 278.519 539.646 278.59L539.718 277.593C538.721 277.521 537.72 277.451 536.717 277.381L536.648 278.379ZM542.626 278.809C543.617 278.883 544.604 278.958 545.589 279.035L545.666 278.038C544.681 277.961 543.692 277.886 542.701 277.812L542.626 278.809ZM548.533 279.268C549.512 279.346 550.487 279.426 551.46 279.507L551.543 278.511C550.569 278.43 549.593 278.35 548.613 278.271L548.533 279.268ZM554.368 279.754C555.361 279.84 556.351 279.927 557.337 280.015L557.426 279.019C556.439 278.931 555.448 278.844 554.454 278.758L554.368 279.754ZM560.406 280.294C561.425 280.389 562.441 280.484 563.454 280.582L563.549 279.586C562.535 279.489 561.518 279.393 560.498 279.299L560.406 280.294ZM566.482 280.877C567.488 280.976 568.491 281.077 569.49 281.179L569.592 280.185C568.591 280.082 567.588 279.981 566.581 279.881L566.482 280.877ZM572.478 281.49C573.471 281.595 574.461 281.701 575.447 281.809L575.555 280.814C574.568 280.707 573.577 280.601 572.584 280.496L572.478 281.49ZM578.396 282.135C579.375 282.245 580.352 282.356 581.325 282.469L581.439 281.475C580.465 281.362 579.488 281.251 578.507 281.141L578.396 282.135ZM584.234 282.81C585.2 282.925 586.164 283.042 587.124 283.159L587.245 282.167C586.284 282.049 585.32 281.932 584.352 281.817L584.234 282.81ZM590.162 283.537C591.181 283.666 592.196 283.796 593.208 283.927L593.337 282.936C592.324 282.804 591.307 282.674 590.287 282.545L590.162 283.537ZM596.232 284.326C597.237 284.461 598.237 284.596 599.234 284.733L599.371 283.743C598.372 283.605 597.37 283.47 596.365 283.335L596.232 284.326ZM602.214 285.149C603.204 285.289 604.19 285.431 605.173 285.574L605.316 284.584C604.333 284.441 603.345 284.299 602.354 284.159L602.214 285.149ZM608.109 286.006C609.084 286.152 610.056 286.299 611.023 286.447L611.175 285.459C610.206 285.31 609.233 285.163 608.257 285.017L608.109 286.006ZM613.916 286.896C614.877 287.047 615.834 287.2 616.788 287.354L616.947 286.366C615.992 286.212 615.034 286.06 614.072 285.908L613.916 286.896ZM619.833 287.852C620.845 288.019 621.853 288.189 622.857 288.36L623.025 287.374C622.02 287.203 621.01 287.033 619.997 286.865L619.833 287.852ZM625.857 288.877C626.853 289.051 627.845 289.226 628.833 289.403L629.009 288.419C628.02 288.242 627.027 288.066 626.029 287.892L625.857 288.877ZM631.784 289.939C632.764 290.119 633.739 290.3 634.711 290.483L634.896 289.5C633.923 289.317 632.946 289.135 631.965 288.955L631.784 289.939ZM637.614 291.037C638.578 291.223 639.537 291.41 640.493 291.599L640.687 290.618C639.73 290.429 638.769 290.241 637.803 290.055L637.614 291.037ZM643.348 292.171C644.347 292.373 645.342 292.577 646.332 292.783L646.536 291.803C645.544 291.598 644.547 291.393 643.547 291.191L643.348 292.171ZM649.336 293.414C650.333 293.626 651.325 293.84 652.313 294.056L652.526 293.079C651.537 292.863 650.543 292.649 649.544 292.436L649.336 293.414ZM655.263 294.707C656.242 294.926 657.216 295.146 658.186 295.368L658.41 294.394C657.438 294.171 656.462 293.95 655.481 293.731L655.263 294.707ZM661.083 296.039C662.044 296.265 663.001 296.492 663.953 296.72L664.187 295.748C663.233 295.519 662.274 295.292 661.311 295.066L661.083 296.039ZM666.797 297.411C667.751 297.645 668.701 297.881 669.646 298.118L669.89 297.149C668.943 296.911 667.991 296.674 667.036 296.44L666.797 297.411ZM672.634 298.879C673.624 299.134 674.611 299.391 675.592 299.65L675.847 298.683C674.864 298.423 673.876 298.166 672.883 297.91L672.634 298.879ZM678.52 300.431C679.491 300.694 680.457 300.958 681.419 301.224L681.685 300.26C680.722 299.993 679.754 299.729 678.781 299.466L678.52 300.431ZM684.288 302.026C685.24 302.296 686.186 302.567 687.128 302.84L687.407 301.879C686.463 301.606 685.514 301.334 684.56 301.064L684.288 302.026ZM689.94 303.663C690.879 303.942 691.814 304.222 692.744 304.504L693.035 303.547C692.102 303.265 691.165 302.984 690.224 302.705L689.94 303.663ZM695.691 305.408C696.667 305.711 697.638 306.017 698.604 306.324L698.907 305.371C697.939 305.063 696.966 304.757 695.987 304.453L695.691 305.408ZM701.485 307.251C702.44 307.562 703.39 307.875 704.334 308.189L704.65 307.241C703.704 306.925 702.752 306.612 701.795 306.3L701.485 307.251ZM707.15 309.139C708.084 309.457 709.012 309.778 709.934 310.1L710.264 309.156C709.339 308.833 708.409 308.512 707.473 308.192L707.15 309.139ZM712.687 311.072C713.637 311.411 714.582 311.752 715.521 312.096L715.865 311.157C714.923 310.812 713.976 310.47 713.023 310.13L712.687 311.072ZM718.396 313.159C719.348 313.516 720.294 313.875 721.234 314.235L721.592 313.302C720.649 312.94 719.701 312.58 718.746 312.223L718.396 313.159ZM724.037 315.323C724.965 315.688 725.887 316.054 726.804 316.423L727.177 315.495C726.258 315.126 725.333 314.758 724.402 314.392L724.037 315.323ZM729.536 317.535C730.441 317.907 731.34 318.282 732.233 318.658L732.622 317.737C731.726 317.359 730.824 316.984 729.917 316.61L729.536 317.535ZM735.001 319.838C735.943 320.245 736.878 320.653 737.806 321.064L738.211 320.149C737.279 319.737 736.342 319.328 735.397 318.92L735.001 319.838ZM740.572 322.302C741.487 322.717 742.396 323.134 743.299 323.553L743.72 322.646C742.815 322.226 741.903 321.808 740.985 321.391L740.572 322.302ZM745.987 324.817C746.877 325.24 747.761 325.665 748.638 326.093L749.076 325.194C748.196 324.765 747.31 324.338 746.417 323.914L745.987 324.817ZM751.252 327.382C752.173 327.842 753.088 328.304 753.995 328.768L754.451 327.878C753.54 327.412 752.623 326.948 751.698 326.487L751.252 327.382ZM756.696 330.168C757.59 330.637 758.476 331.109 759.355 331.582L759.829 330.701C758.947 330.226 758.057 329.754 757.161 329.283L756.696 330.168ZM761.972 333.008C762.838 333.486 763.696 333.966 764.548 334.448L765.04 333.578C764.186 333.094 763.324 332.612 762.455 332.133L761.972 333.008ZM767.082 335.9C767.965 336.412 768.84 336.926 769.708 337.443L770.219 336.584C769.348 336.065 768.47 335.549 767.584 335.035L767.082 335.9ZM772.312 339.014C773.173 339.541 774.026 340.069 774.871 340.6L775.403 339.753C774.554 339.22 773.697 338.689 772.834 338.161L772.312 339.014ZM777.385 342.198C778.216 342.733 779.039 343.271 779.855 343.81L780.406 342.976C779.587 342.434 778.761 341.895 777.927 341.358L777.385 342.198ZM782.287 345.439C783.135 346.015 783.976 346.594 784.808 347.174L785.381 346.354C784.545 345.771 783.7 345.19 782.848 344.612L782.287 345.439ZM787.282 348.924C788.098 349.509 788.906 350.097 789.707 350.687L790.3 349.882C789.496 349.289 788.684 348.699 787.864 348.111L787.282 348.924ZM792.084 352.463C792.869 353.058 793.645 353.655 794.414 354.253L795.029 353.464C794.256 352.863 793.476 352.263 792.688 351.666L792.084 352.463ZM796.769 356.113C797.563 356.749 798.349 357.388 799.126 358.029L799.762 357.257C798.981 356.613 798.192 355.972 797.394 355.332L796.769 356.113ZM801.433 359.959C802.193 360.604 802.945 361.252 803.689 361.902L804.347 361.149C803.6 360.496 802.844 359.845 802.08 359.196L801.433 359.959ZM805.896 363.858C806.637 364.525 807.369 365.194 808.094 365.865L808.773 365.131C808.046 364.457 807.309 363.785 806.565 363.115L805.896 363.858ZM810.306 367.946C811.034 368.642 811.754 369.34 812.465 370.041L813.166 369.328C812.452 368.624 811.728 367.923 810.996 367.223L810.306 367.946ZM814.571 372.148C815.265 372.853 815.95 373.56 816.626 374.268L817.35 373.578C816.67 372.865 815.981 372.155 815.284 371.447L814.571 372.148ZM818.669 376.442C819.357 377.187 820.037 377.934 820.707 378.683L821.452 378.016C820.778 377.263 820.095 376.512 819.403 375.764L818.669 376.442ZM822.691 380.936C823.344 381.689 823.987 382.444 824.622 383.201L825.388 382.558C824.75 381.797 824.103 381.038 823.447 380.281L822.691 380.936ZM826.5 385.477C827.135 386.259 827.76 387.043 828.376 387.828L829.163 387.211C828.543 386.421 827.915 385.633 827.277 384.847L826.5 385.477ZM830.217 390.217C830.822 391.016 831.418 391.816 832.005 392.617L832.812 392.027C832.222 391.221 831.623 390.416 831.015 389.613L830.217 390.217ZM833.738 395.028C834.31 395.838 834.873 396.649 835.427 397.462L836.253 396.899C835.696 396.081 835.13 395.265 834.555 394.451L833.738 395.028ZM837.109 399.975C837.661 400.814 838.203 401.655 838.737 402.498L839.582 401.963C839.045 401.116 838.5 400.27 837.945 399.426L837.109 399.975ZM840.31 405.03C840.826 405.876 841.333 406.723 841.831 407.571L842.694 407.065C842.192 406.211 841.683 405.36 841.164 404.509L840.31 405.03ZM843.331 410.175C843.826 411.051 844.311 411.928 844.788 412.807L845.667 412.33C845.187 411.446 844.699 410.564 844.202 409.684L843.331 410.175ZM846.192 415.445C846.651 416.326 847.101 417.208 847.543 418.091L848.438 417.644C847.993 416.756 847.54 415.869 847.078 414.983L846.192 415.445ZM848.858 420.774C849.294 421.681 849.72 422.589 850.138 423.498L851.047 423.08C850.627 422.166 850.198 421.253 849.76 420.341L848.858 420.774ZM851.367 426.227C851.768 427.138 852.161 428.049 852.545 428.961L853.467 428.573C853.08 427.656 852.685 426.74 852.282 425.824L851.367 426.227ZM853.681 431.717C854.056 432.65 854.424 433.583 854.783 434.517L855.716 434.159C855.355 433.219 854.986 432.281 854.608 431.343L853.681 431.717ZM855.836 437.321C856.179 438.257 856.514 439.192 856.841 440.128L857.785 439.798C857.457 438.857 857.12 437.917 856.775 436.977L855.836 437.321ZM857.803 442.947C858.12 443.901 858.43 444.855 858.732 445.81L859.685 445.508C859.382 444.549 859.071 443.59 858.752 442.631L857.803 442.947ZM859.614 448.673C859.901 449.627 860.179 450.582 860.451 451.536L861.413 451.262C861.14 450.304 860.86 449.344 860.572 448.385L859.614 448.673ZM861.247 454.408C861.508 455.378 861.762 456.349 862.009 457.319L862.978 457.072C862.73 456.097 862.475 455.122 862.212 454.147L861.247 454.408ZM862.729 460.227C862.962 461.196 863.188 462.165 863.407 463.133L864.382 462.912C864.162 461.94 863.935 460.967 863.701 459.994L862.729 460.227ZM864.047 466.046C864.256 467.03 864.458 468.012 864.654 468.993L865.635 468.798C865.438 467.812 865.235 466.826 865.025 465.838L864.047 466.046ZM865.222 471.935C865.405 472.915 865.582 473.893 865.753 474.871L866.738 474.699C866.566 473.718 866.389 472.735 866.205 471.752L865.222 471.935ZM866.249 477.817C866.41 478.81 866.565 479.801 866.715 480.79L867.703 480.641C867.554 479.648 867.398 478.653 867.236 477.657L866.249 477.817ZM867.145 483.754C867.283 484.74 867.415 485.725 867.541 486.708L868.533 486.58C868.406 485.594 868.273 484.605 868.135 483.616L867.145 483.754ZM867.909 489.682C868.027 490.68 868.14 491.677 868.247 492.671L869.241 492.563C869.134 491.566 869.02 490.566 868.902 489.564L867.909 489.682ZM868.555 495.647C868.653 496.637 868.745 497.625 868.833 498.61L869.829 498.521C869.741 497.533 869.648 496.542 869.55 495.549L868.555 495.647ZM869.088 501.609C869.168 502.611 869.244 503.61 869.316 504.606L870.313 504.534C870.242 503.535 870.165 502.533 870.085 501.529L869.088 501.609ZM869.518 507.586C869.582 508.579 869.641 509.57 869.696 510.557L870.695 510.501C870.639 509.511 870.58 508.518 870.516 507.522L869.518 507.586ZM869.855 513.575C869.904 514.577 869.949 515.576 869.991 516.571L870.99 516.529C870.948 515.532 870.903 514.531 870.854 513.526L869.855 513.575ZM870.106 519.546C870.142 520.55 870.175 521.551 870.204 522.547L871.204 522.517C871.174 521.519 871.142 520.517 871.106 519.511L870.106 519.546ZM870.285 525.56C870.31 526.561 870.331 527.557 870.35 528.548L871.35 528.529C871.331 527.536 871.309 526.538 871.285 525.536L870.285 525.56ZM870.4 531.517C870.415 532.533 870.428 533.544 870.439 534.55L871.439 534.539C871.428 533.532 871.415 532.52 871.4 531.503L870.4 531.517ZM870.466 537.551C870.473 538.546 870.479 539.535 870.484 540.519L871.484 540.514C871.479 539.53 871.473 538.539 871.466 537.543L870.466 537.551ZM870.494 543.539C870.496 544.55 870.498 545.554 870.499 546.553L871.499 546.552C871.498 545.553 871.496 544.548 871.494 543.536L870.494 543.539ZM870.5 549.527C870.5 550.02 870.5 550.511 870.5 551H871.5C871.5 550.511 871.5 550.02 871.5 549.527L870.5 549.527Z" fill="#292D34" fill-opacity="0.5"/>
</svg>
