<svg width="16" height="16" viewBox="0 0 16 16" fill="none" xmlns="http://www.w3.org/2000/svg">
<path fill-rule="evenodd" clip-rule="evenodd" d="M8.47161 2.86186C8.21126 2.60151 7.78915 2.60151 7.5288 2.86186C7.26845 3.12221 7.26845 3.54432 7.5288 3.80467L11.0574 7.33326H3.33354C2.96535 7.33326 2.66687 7.63174 2.66687 7.99993C2.66687 8.36812 2.96535 8.66659 3.33354 8.66659H11.0574L7.5288 12.1952C7.26845 12.4555 7.26845 12.8777 7.5288 13.138C7.78915 13.3983 8.21126 13.3983 8.47161 13.138L13.1383 8.47133C13.2684 8.34116 13.3335 8.17054 13.3335 7.99993C13.3335 7.90954 13.3155 7.82334 13.283 7.74474C13.2512 7.6679 13.2044 7.59579 13.1426 7.5329M8.47161 2.86186L13.1378 7.52804L8.47161 2.86186Z" fill="#292D34"/>
</svg>
