<svg xmlns="http://www.w3.org/2000/svg" width="195.634" height="40" viewBox="0 0 195.634 40">
  <path id="Path_24" data-name="Path 24" d="M325.365,72.791l-1.005,1.028L323.2,75c-7.446-6.288-10.483-20.264-2.437-30.713A23.5,23.5,0,0,1,355.1,40.959c10.449,9.473,9.8,24.9,1.365,33.394l-1.378-1.612-.712-.833a19.733,19.733,0,0,0,4.971-16.6,19.459,19.459,0,0,0-7.676-12.893,20.128,20.128,0,0,0-26.307,30.371Zm-2.076-14.9a16.4,16.4,0,1,1,16.4,16.352A16.377,16.377,0,0,1,323.289,57.894Zm16.4-13.445a13.445,13.445,0,1,0,13.494,13.445A13.471,13.471,0,0,0,339.691,44.448Zm92.088,6.486a5.087,5.087,0,0,0-1.983.391,4.911,4.911,0,0,0-1.616,1.088,5.408,5.408,0,0,0-1.092,1.626,4.981,4.981,0,0,0,0,3.949,5.111,5.111,0,0,0,2.708,2.7,4.89,4.89,0,0,0,1.983.408,4.948,4.948,0,0,0,2.009-.408,5.211,5.211,0,0,0,1.618-1.087,5.12,5.12,0,0,0,1.077-5.561,5.172,5.172,0,0,0-1.077-1.626,4.9,4.9,0,0,0-1.618-1.088A5.147,5.147,0,0,0,431.779,50.934Zm0-2.5a7.5,7.5,0,0,1,2.971.595,7.591,7.591,0,0,1,4.066,4.036,7.358,7.358,0,0,1,.6,2.946v7.256h-2.534V61.646a7.757,7.757,0,0,1-2.316,1.408,7.556,7.556,0,0,1-2.782.507,7.32,7.32,0,0,1-2.943-.593,7.881,7.881,0,0,1-2.4-1.612,7.5,7.5,0,0,1-1.632-2.4,7.579,7.579,0,0,1,0-5.892,7.662,7.662,0,0,1,4.036-4.036A7.3,7.3,0,0,1,431.779,48.438Zm-48.684.029a7.4,7.4,0,0,1,2.958.6,7.767,7.767,0,0,1,2.417,1.611,7.524,7.524,0,0,1,2.228,5.368V63.3h-2.505V56.042a5.024,5.024,0,0,0-.392-1.972,5.174,5.174,0,0,0-1.078-1.626,4.926,4.926,0,0,0-1.618-1.09,5.118,5.118,0,0,0-2.01-.391,5.05,5.05,0,0,0-1.981.391,4.922,4.922,0,0,0-1.617,1.09A5.371,5.371,0,0,0,378.4,54.07,4.832,4.832,0,0,0,378,56.042V63.3h-2.476V56.042a7.524,7.524,0,0,1,2.228-5.368,7.837,7.837,0,0,1,2.4-1.611A7.288,7.288,0,0,1,383.1,48.467Zm17.8,2.5a5.069,5.069,0,0,0-4.7,3.107,5.144,5.144,0,0,0,0,3.949,4.882,4.882,0,0,0,1.093,1.609,5.4,5.4,0,0,0,1.631,1.09,5.033,5.033,0,0,0,3.963,0,5.413,5.413,0,0,0,1.631-1.09,4.9,4.9,0,0,0,1.093-1.609,5.08,5.08,0,0,0-4.706-7.056Zm0-2.5a7.4,7.4,0,0,1,2.958.6,7.807,7.807,0,0,1,2.418,1.611,7.517,7.517,0,0,1,2.227,5.368,7.328,7.328,0,0,1-.6,2.948,7.511,7.511,0,0,1-1.631,2.4A7.8,7.8,0,0,1,403.854,63a7.4,7.4,0,0,1-2.958.6,7.288,7.288,0,0,1-2.942-.6,7.84,7.84,0,0,1-2.4-1.611,7.475,7.475,0,0,1-1.63-2.4,7.312,7.312,0,0,1-.6-2.948,7.535,7.535,0,0,1,2.228-5.368,7.841,7.841,0,0,1,2.4-1.611A7.288,7.288,0,0,1,400.9,48.467ZM417.706,63.3l6.263-14.515h-2.708q-1.135,2.642-2.316,5.415T416.6,59.671l-4.662-10.885h-2.709L415.493,63.3ZM447.83,51.413a5.062,5.062,0,0,1,1.982-.391,5.137,5.137,0,0,1,2.011.391A4.908,4.908,0,0,1,453.44,52.5a5.144,5.144,0,0,1,1.077,1.627,5.093,5.093,0,0,1-1.077,5.558,5.23,5.23,0,0,1-1.617,1.09,4.989,4.989,0,0,1-2.011.4,4.917,4.917,0,0,1-1.982-.4,5.143,5.143,0,0,1-2.708-2.7,4.977,4.977,0,0,1,0-3.947,5.345,5.345,0,0,1,1.093-1.627A4.889,4.889,0,0,1,447.83,51.413Zm4.939-2.293a7.421,7.421,0,0,0-2.957-.6,7.314,7.314,0,0,0-2.942.6,7.852,7.852,0,0,0-2.4,1.611,7.527,7.527,0,0,0-2.228,5.37,7.258,7.258,0,0,0,.6,2.934,7.736,7.736,0,0,0,4.036,4.019,7.313,7.313,0,0,0,2.942.595,3.22,3.22,0,0,1,1.3.262A3.478,3.478,0,0,1,452.9,65.7a3.126,3.126,0,0,1,.262,1.292,2.793,2.793,0,0,1-.3,1.292,3.668,3.668,0,0,1-.832,1.06,3.827,3.827,0,0,1-1.239.726,4.315,4.315,0,0,1-1.5.262v2.467a6.519,6.519,0,0,0,2.463-.464,6.894,6.894,0,0,0,2.024-1.248,5.684,5.684,0,0,0,1.369-1.844,5.289,5.289,0,0,0,.495-2.251,5.524,5.524,0,0,0-.552-2.425,6.832,6.832,0,0,0-1.4-1.958,7.4,7.4,0,0,0,3.73-6.5,7.541,7.541,0,0,0-2.232-5.37A7.77,7.77,0,0,0,452.769,49.12Zm19.564,5.733a5.828,5.828,0,0,0-.684-1.523,4.889,4.889,0,0,0-1.094-1.219,5.106,5.106,0,0,0-1.441-.8,5.141,5.141,0,0,0-3.408,0,5.077,5.077,0,0,0-1.443.8,5.146,5.146,0,0,0-1.108,1.219,5.023,5.023,0,0,0-.669,1.523Zm-4.923,8.8a7.416,7.416,0,0,1-2.957-.595,7.7,7.7,0,0,1-4.052-4.019,7.258,7.258,0,0,1-.6-2.934,7.516,7.516,0,0,1,2.228-5.37,7.79,7.79,0,0,1,2.419-1.611,7.63,7.63,0,0,1,5.913,0,7.494,7.494,0,0,1,4.022,4.021,7.45,7.45,0,0,1,.6,2.96v.435c0,.157-.021.419-.059.786h-12.44a4.79,4.79,0,0,0,.669,1.537,5.521,5.521,0,0,0,1.108,1.219,4.876,4.876,0,0,0,1.443.814,4.974,4.974,0,0,0,1.7.289,3.008,3.008,0,0,0,1.4-.363,5.9,5.9,0,0,0,1.338-.972l1.75,1.742a8.331,8.331,0,0,1-2.114,1.5A5.33,5.33,0,0,1,467.41,63.648Zm18.806-14.574a5.755,5.755,0,0,0-4.838-.145,5.907,5.907,0,0,0-3.1,3.092,5.5,5.5,0,0,0-.466,2.251V63.3h2.475V54.273a3.2,3.2,0,0,1,.261-1.293,3.416,3.416,0,0,1,.716-1.043,3.356,3.356,0,0,1,2.372-.974,3.216,3.216,0,0,1,1.3.262,3.585,3.585,0,0,1,1.064.712,3.284,3.284,0,0,1,.728,1.043,3.172,3.172,0,0,1,.263,1.293V63.3h2.476V54.273a3.17,3.17,0,0,1,.261-1.293,3.414,3.414,0,0,1,.715-1.043,3.351,3.351,0,0,1,2.375-.974,3.217,3.217,0,0,1,1.3.262,3.412,3.412,0,0,1,1.763,1.755,3.188,3.188,0,0,1,.263,1.293V63.3h2.505V54.273a5.552,5.552,0,0,0-.467-2.251,5.911,5.911,0,0,0-3.1-3.092,5.593,5.593,0,0,0-2.257-.464,5.518,5.518,0,0,0-2.593.608,6.357,6.357,0,0,0-2.012,1.656A5.991,5.991,0,0,0,486.216,49.075Zm19.36,8.042a4.02,4.02,0,0,1-1.53-.289,4.157,4.157,0,0,1-1.268-.8,3.934,3.934,0,0,1-.89-1.2,3.79,3.79,0,0,1-.364-1.51,3.508,3.508,0,0,1,0-.9,3.723,3.723,0,0,1,.364-1.48,4.131,4.131,0,0,1,.89-1.219,4.056,4.056,0,0,1,1.268-.813,3.992,3.992,0,0,1,1.53-.291h5.591v2.5h-5.591a1.5,1.5,0,0,0-1.064.42,1.593,1.593,0,0,0-.512,1.06,1.644,1.644,0,0,0,0,.61,1.558,1.558,0,0,0,.512,1.03,1.493,1.493,0,0,0,1.064.422h2.009a3.964,3.964,0,0,1,1.544.306,4.041,4.041,0,0,1,1.268.826A4.262,4.262,0,0,1,511.27,57a3.732,3.732,0,0,1,.364,1.511v.812a3.618,3.618,0,0,1-.334,1.554,4.633,4.633,0,0,1-.875,1.263,3.77,3.77,0,0,1-1.282.855,4.136,4.136,0,0,1-1.588.306h-5.739V60.833h5.739a1.46,1.46,0,0,0,1.006-.378,1.857,1.857,0,0,0,.568-.9v-.116a.341.341,0,0,1,.014-.1.321.321,0,0,0,.016-.1v-.549a1.632,1.632,0,0,0-.482-1.118,1.535,1.535,0,0,0-1.122-.45Z" transform="translate(-316 -35)" fill="#786ce6" fill-rule="evenodd"/>
</svg>
