<svg width="40" height="40" viewBox="0 0 40 40" fill="none" xmlns="http://www.w3.org/2000/svg">
<path fill-rule="evenodd" clip-rule="evenodd" d="M29.5375 33.8913H9.44226V6.10901H29.5443V33.8913H29.5375ZM30.9252 3.3335H8.0545C7.2858 3.3335 6.66675 3.95254 6.66675 4.72125V35.2791C6.66675 36.0478 7.2858 36.6668 8.0545 36.6668H30.9252C31.694 36.6668 32.313 36.0478 32.313 35.2791V4.72125C32.313 3.95254 31.694 3.3335 30.9252 3.3335ZM16.9797 11.5512H22.0001C22.7688 11.5512 23.3878 10.9321 23.3878 10.1634C23.3878 9.39472 22.7688 8.77567 22.0001 8.77567H16.9797C16.211 8.77567 15.5919 9.39472 15.5919 10.1634C15.5919 10.9321 16.2178 11.5512 16.9797 11.5512ZM18.1021 30.5784C18.1021 29.8097 18.7212 29.1906 19.4899 29.1906C20.2586 29.1906 20.8776 29.8165 20.8776 30.5784C20.8776 31.3471 20.2586 31.9661 19.4899 31.9661C18.7212 31.9661 18.1021 31.3471 18.1021 30.5784Z" fill="#DC688E"/>
</svg>
