<svg width="40" height="40" viewBox="0 0 40 40" fill="none" xmlns="http://www.w3.org/2000/svg">
<path fill-rule="evenodd" clip-rule="evenodd" d="M29.5374 33.8911H9.44214V6.10876H29.5442V33.8911H29.5374ZM30.9251 3.33325H8.05438C7.28567 3.33325 6.66663 3.9523 6.66663 4.72101V35.2788C6.66663 36.0475 7.28567 36.6666 8.05438 36.6666H30.9251C31.6938 36.6666 32.3129 36.0475 32.3129 35.2788V4.72101C32.3129 3.9523 31.6938 3.33325 30.9251 3.33325ZM16.9796 11.5509H22C22.7687 11.5509 23.3877 10.9319 23.3877 10.1632C23.3877 9.39448 22.7687 8.77543 22 8.77543H16.9796C16.2108 8.77543 15.5918 9.39448 15.5918 10.1632C15.5918 10.9319 16.2176 11.5509 16.9796 11.5509ZM18.102 30.5781C18.102 29.8094 18.7211 29.1904 19.4898 29.1904C20.2585 29.1904 20.8775 29.8162 20.8775 30.5781C20.8775 31.3469 20.2585 31.9659 19.4898 31.9659C18.7211 31.9659 18.102 31.3469 18.102 30.5781Z" fill="#4694EB"/>
</svg>
