<svg width="60" height="60" viewBox="0 0 60 60" fill="none" xmlns="http://www.w3.org/2000/svg">
<circle cx="30" cy="30" r="30" fill="#292D34" fill-opacity="0.1"/>
<path fill-rule="evenodd" clip-rule="evenodd" d="M30.7071 22.2929C30.3166 21.9024 29.6834 21.9024 29.2929 22.2929C28.9024 22.6834 28.9024 23.3166 29.2929 23.7071L34.5858 29H23C22.4477 29 22 29.4477 22 30C22 30.5523 22.4477 31 23 31H34.5858L29.2929 36.2929C28.9024 36.6834 28.9024 37.3166 29.2929 37.7071C29.6834 38.0976 30.3166 38.0976 30.7071 37.7071L37.7064 30.7078C37.7088 30.7054 37.7112 30.703 37.7136 30.7005C37.8901 30.5208 37.9992 30.2746 38 30.003C38 30.002 38 30.001 38 30C38 29.999 38 29.998 38 29.997C37.9996 29.8625 37.9727 29.7343 37.9241 29.6172C37.8764 29.502 37.8063 29.3938 37.7136 29.2995C37.7112 29.297 37.7089 29.2947 37.7065 29.2923M30.7071 22.2929L37.7065 29.2923L30.7071 22.2929Z" fill="#292D34"/>
</svg>
