<svg xmlns="http://www.w3.org/2000/svg" xmlns:xlink="http://www.w3.org/1999/xlink" width="868" height="494" viewBox="0 0 868 494">
  <defs>
    <clipPath id="clip-path">
      <rect id="Rectangle_4527" data-name="Rectangle 4527" width="868" height="494" transform="translate(-7009 198)" fill="#fff"/>
    </clipPath>
  </defs>
  <g id="Mask_Group_101" data-name="Mask Group 101" transform="translate(7009 -198)" clip-path="url(#clip-path)">
    <g id="Group_5445" data-name="Group 5445" transform="translate(0 -4.387)">
      <g id="Group_5444" data-name="Group 5444" transform="translate(-177.86 -2047.383)">
        <path id="Path_15571" data-name="Path 15571" d="M1146.5,258a.5.5,0,0,0,.44.554l4.47.519a.5.5,0,1,0,.12-.994l-3.98-.46.47-3.974a.5.5,0,0,0-1-.115Zm.81.45c.25-.2.5-.4.76-.6l-.62-.787c-.25.2-.51.4-.76.6Zm2.3-1.795c.52-.4,1.04-.8,1.57-1.2l-.6-.8c-.53.4-1.06.8-1.58,1.207Zm3.18-2.407c.54-.4,1.09-.8,1.64-1.209l-.59-.808-1.65,1.214Zm3.29-2.4,1.59-1.131-.58-.817-1.59,1.135Zm3.21-2.263c.54-.377,1.09-.755,1.64-1.133l-.56-.826q-.84.57-1.65,1.138Zm3.31-2.267c.57-.378,1.13-.756,1.7-1.134l-.55-.834c-.57.379-1.14.759-1.7,1.138Zm3.37-2.232,1.65-1.067-.54-.841c-.55.357-1.11.714-1.65,1.071Zm3.32-2.133c.56-.355,1.13-.71,1.7-1.065l-.53-.848c-.57.356-1.14.712-1.7,1.068Zm3.41-2.129,1.74-1.062-.52-.855-1.74,1.065Zm3.46-2.094c.56-.335,1.12-.669,1.69-1l-.51-.862c-.57.335-1.13.671-1.7,1.007Zm3.4-2c.57-.333,1.15-.666,1.73-1l-.5-.867c-.58.333-1.16.667-1.73,1Zm3.48-1.994q.885-.5,1.77-.993l-.49-.874q-.885.5-1.77,1Zm3.54-1.974c.58-.315,1.15-.629,1.73-.942l-.48-.879c-.58.314-1.15.629-1.73.944Zm3.47-1.88c.59-.312,1.17-.624,1.76-.934l-.46-.885q-.885.467-1.77.937Zm3.54-1.864c.6-.31,1.19-.618,1.79-.926l-.45-.89c-.61.309-1.2.618-1.8.928Zm3.6-1.846c.6-.3,1.19-.6,1.79-.9l-.45-.9c-.6.3-1.19.6-1.79.9Zm3.56-1.774c.59-.291,1.19-.581,1.78-.871l-.43-.9c-.6.291-1.2.582-1.79.874Zm3.58-1.737c.61-.287,1.21-.574,1.82-.86l-.43-.9c-.61.287-1.21.575-1.82.863Zm3.64-1.715c.62-.283,1.23-.566,1.84-.848l-.41-.91c-.62.283-1.23.567-1.85.851Zm3.66-1.673c.6-.271,1.2-.541,1.81-.809l-.41-.914c-.61.269-1.21.54-1.81.811Zm3.63-1.612c.6-.267,1.22-.533,1.83-.8l-.4-.918q-.915.4-1.83.8Zm3.67-1.587,1.86-.783-.39-.923q-.93.391-1.86.786Zm3.72-1.559q.93-.381,1.86-.759l-.38-.926q-.93.378-1.86.76Zm3.69-1.5,1.85-.734-.36-.931q-.93.366-1.86.736Zm3.71-1.46c.62-.241,1.25-.481,1.87-.719l-.35-.934c-.63.239-1.25.479-1.88.72Zm3.75-1.43q.945-.354,1.89-.7l-.34-.938c-.64.233-1.27.468-1.9.705Zm3.79-1.4q.93-.337,1.86-.671l-.33-.942c-.63.223-1.25.447-1.87.673Zm3.74-1.333c.62-.22,1.25-.438,1.88-.655l-.32-.945q-.96.325-1.89.656Zm3.77-1.3c.64-.214,1.27-.426,1.91-.637l-.32-.949c-.64.212-1.27.425-1.91.639Zm3.82-1.266q.96-.312,1.92-.619l-.31-.953q-.96.309-1.92.622Zm3.82-1.222c.63-.2,1.26-.394,1.9-.589l-.3-.956c-.63.195-1.27.393-1.9.591Zm3.8-1.17q.96-.288,1.92-.571l-.29-.959q-.96.283-1.92.573Zm3.84-1.133c.64-.186,1.28-.37,1.93-.552l-.27-.962c-.65.183-1.29.367-1.94.553Zm3.87-1.1c.64-.179,1.29-.357,1.94-.532l-.26-.966q-.975.266-1.95.534Zm3.86-1.046c.64-.17,1.28-.338,1.93-.505l-.26-.968-1.93.506Zm3.86-1c.64-.163,1.29-.324,1.94-.484l-.24-.971q-.975.24-1.95.486Zm3.88-.957c.65-.156,1.3-.311,1.96-.463l-.23-.974c-.65.153-1.31.308-1.96.464Zm3.92-.916q.975-.222,1.95-.44l-.21-.976c-.66.145-1.31.292-1.97.441Zm3.9-.865q.975-.21,1.95-.414l-.21-.979q-.975.206-1.95.415Zm3.9-.817c.66-.133,1.31-.263,1.96-.392l-.19-.981c-.66.129-1.31.26-1.97.393Zm3.93-.773c.66-.125,1.31-.248,1.97-.369l-.18-.984q-.99.183-1.98.371Zm3.95-.727c.66-.117,1.32-.232,1.97-.345l-.16-.985c-.67.113-1.33.228-1.99.345Zm3.94-.675c.65-.108,1.31-.215,1.97-.319l-.16-.988c-.66.105-1.32.212-1.97.32Zm3.94-.626q.99-.15,1.98-.295l-.15-.989q-.99.144-1.98.295Zm3.96-.578c.66-.092,1.32-.182,1.99-.27l-.13-.992c-.67.089-1.33.179-2,.272Zm3.98-.528c.66-.084,1.32-.166,1.99-.245l-.12-.993c-.67.08-1.33.162-2,.245Zm3.97-.476q.99-.113,1.98-.218l-.11-.994c-.66.071-1.32.144-1.99.219Zm3.97-.423c.66-.067,1.32-.131,1.99-.193l-.1-.995c-.66.062-1.33.126-1.99.193Zm3.98-.372c.67-.058,1.33-.113,2-.167l-.08-1q-1.005.079-2.01.167Zm4-.32c.66-.048,1.33-.1,2-.139l-.07-1c-.67.044-1.34.091-2,.14Zm3.99-.264c.66-.04,1.32-.077,1.99-.112l-.05-1c-.67.036-1.34.073-2,.112Zm3.98-.21c.67-.031,1.33-.059,2-.085l-.04-1c-.67.026-1.34.054-2,.085Zm4-.155c.67-.021,1.33-.04,2-.057l-.02-1q-1.005.025-2.01.057Zm4.01-.1c.67-.012,1.33-.022,2-.029l-.01-1q-1.005.011-2.01.029Zm4-.043c.66,0,1.33,0,1.99,0v-1c-.66,0-1.33,0-2,0Zm3.99.015c.66.007,1.33.017,2,.029l.01-1c-.67-.012-1.33-.021-2-.029Zm4,.073c.66.017,1.33.037,2,.059l.03-1q-1-.033-2.01-.059Zm4,.132q1,.04,2.01.088l.04-1q-1-.05-2.01-.089Zm4,.191c.66.037,1.32.076,1.99.118l.06-1c-.67-.042-1.33-.082-2-.118Zm3.98.25c.66.047,1.33.1,1.99.148l.08-1c-.67-.052-1.33-.1-2-.148Zm3.98.312c.67.057,1.33.116,2,.178l.09-1c-.67-.063-1.33-.123-2-.18Zm3.99.373c.67.067,1.33.137,2,.21l.11-.994q-1-.109-2.01-.211Zm3.98.435q.99.116,1.98.239l.13-.992c-.67-.083-1.33-.163-1.99-.24Zm3.96.494q.99.132,1.98.272l.14-.991c-.66-.093-1.33-.184-1.99-.272Zm3.96.559c.66.1,1.31.2,1.97.3l.16-.988c-.66-.1-1.32-.2-1.99-.3Zm3.95.623q.99.163,1.98.336l.17-.985q-.99-.173-1.98-.338Zm3.96.688q.975.179,1.95.365l.19-.983c-.66-.124-1.31-.247-1.97-.366Zm3.91.746q.975.2,1.95.4l.2-.98c-.65-.135-1.31-.269-1.96-.4Zm3.9.812c.66.141,1.31.284,1.96.431l.22-.976c-.66-.147-1.31-.291-1.96-.432Zm3.91.879q.975.228,1.95.465l.24-.972c-.65-.158-1.31-.314-1.96-.467Zm3.91.947c.64.162,1.28.326,1.93.494l.25-.968c-.65-.168-1.29-.334-1.94-.5Zm3.85,1q.96.26,1.92.526l.27-.963c-.65-.179-1.29-.355-1.93-.528Zm3.84,1.069q.96.276,1.92.56l.28-.959c-.64-.19-1.28-.377-1.93-.562Zm3.83,1.137q.96.294,1.92.6l.3-.954q-.96-.3-1.92-.6Zm3.84,1.207c.63.207,1.27.416,1.9.629l.32-.949q-.96-.319-1.92-.631Zm3.78,1.265c.63.215,1.25.432,1.88.653l.33-.943c-.63-.222-1.25-.44-1.88-.656Zm3.75,1.324c.63.226,1.25.455,1.88.688l.35-.937q-.945-.351-1.89-.691Zm3.75,1.393c.62.239,1.25.48,1.87.724l.36-.931c-.62-.245-1.25-.488-1.87-.727Zm3.74,1.465q.93.375,1.86.759l.38-.925c-.62-.257-1.25-.511-1.87-.762Zm3.71,1.53c.61.256,1.21.515,1.82.777l.4-.918q-.915-.395-1.83-.781Zm3.64,1.573c.61.268,1.21.539,1.82.812l.41-.911c-.61-.275-1.22-.547-1.82-.816Zm3.63,1.643c.61.28,1.21.562,1.82.848l.42-.9c-.6-.287-1.21-.571-1.82-.852Zm3.63,1.714q.9.438,1.8.884l.45-.9c-.61-.3-1.21-.6-1.82-.888Zm3.61,1.786c.59.3,1.19.6,1.78.91l.46-.888c-.6-.308-1.19-.613-1.79-.915Zm3.53,1.824c.59.308,1.17.618,1.75.932l.48-.881c-.59-.315-1.17-.627-1.76-.936Zm3.5,1.881c.58.319,1.17.641,1.75.966l.48-.872c-.58-.327-1.16-.65-1.75-.971Zm3.49,1.951q.87.5,1.74,1l.5-.864c-.58-.339-1.16-.674-1.75-1.007Zm3.47,2.022q.87.515,1.74,1.038l.51-.856q-.87-.525-1.74-1.042Zm3.45,2.087q.84.516,1.68,1.041l.53-.847q-.84-.526-1.68-1.046Zm3.35,2.1c.56.356,1.11.715,1.67,1.076l.54-.838c-.55-.363-1.11-.723-1.67-1.08Zm3.33,2.17c.56.367,1.11.737,1.67,1.111l.56-.829c-.56-.375-1.12-.747-1.67-1.116Zm3.32,2.239c.56.379,1.11.761,1.66,1.146l.57-.819c-.55-.387-1.1-.771-1.66-1.151Zm3.31,2.31q.825.587,1.65,1.182l.59-.81c-.56-.4-1.11-.794-1.66-1.187Zm3.25,2.349c.53.389,1.06.781,1.58,1.175l.6-.8q-.795-.594-1.59-1.179Zm3.17,2.367c.52.4,1.05.8,1.57,1.208l.61-.791c-.52-.408-1.05-.812-1.58-1.214Zm3.15,2.433c.52.412,1.04.826,1.57,1.243l.62-.782c-.53-.419-1.05-.834-1.58-1.247Zm3.13,2.5q.78.635,1.56,1.277l.64-.772c-.52-.43-1.05-.857-1.57-1.282Zm3.12,2.571q.78.651,1.56,1.311l.64-.761q-.78-.663-1.56-1.317Zm3.05,2.591c.5.428.99.859,1.49,1.292l.66-.752q-.75-.652-1.5-1.3Zm2.97,2.6c.49.439.99.88,1.48,1.325l.67-.742c-.5-.446-.99-.89-1.49-1.331Zm2.95,2.667q.735.675,1.47,1.358l.68-.732q-.735-.686-1.47-1.363Zm2.94,2.733c.49.461.98.925,1.46,1.391l.7-.722q-.735-.7-1.47-1.4Zm2.92,2.8c.49.472.97.947,1.46,1.425l.7-.712c-.49-.479-.97-.956-1.46-1.43Zm2.86,2.82c.46.462.93.927,1.39,1.395l.71-.7c-.46-.469-.93-.936-1.39-1.4Zm2.77,2.8c.46.472.92.948,1.37,1.425l.73-.692c-.46-.479-.92-.956-1.39-1.43Zm2.75,2.867c.45.483.91.968,1.36,1.456l.74-.682q-.69-.735-1.38-1.462Zm2.73,2.929c.45.494.91.99,1.36,1.489l.74-.673c-.45-.5-.91-1-1.37-1.493Zm2.72,2.993q.675.756,1.35,1.52l.75-.662c-.45-.511-.91-1.019-1.36-1.525Zm2.69,3.051c.43.491.85.983,1.28,1.479l.76-.652q-.645-.745-1.29-1.484Zm2.56,2.972c.42.5.85,1,1.27,1.509l.77-.643c-.43-.507-.85-1.011-1.28-1.513Zm2.54,3.032q.63.765,1.26,1.537l.78-.632c-.43-.517-.85-1.031-1.27-1.543Zm2.52,3.09q.63.78,1.26,1.567l.78-.623q-.63-.789-1.26-1.572Zm2.51,3.15c.42.53.83,1.062,1.25,1.6l.79-.613c-.42-.537-.84-1.071-1.25-1.6Zm2.49,3.209c.42.54.83,1.083,1.24,1.628l.8-.6c-.41-.546-.83-1.09-1.24-1.632Zm2.42,3.2q.585.783,1.17,1.573l.81-.594c-.39-.528-.79-1.054-1.18-1.578Zm2.34,3.16c.38.532.77,1.065,1.16,1.6l.81-.584q-.585-.807-1.17-1.606Zm2.31,3.216c.39.541.77,1.084,1.16,1.629l.81-.575c-.38-.547-.77-1.092-1.15-1.634Zm2.31,3.272q.57.825,1.14,1.656l.82-.566q-.57-.834-1.14-1.661Zm2.28,3.327q.57.838,1.14,1.685l.83-.557q-.57-.849-1.14-1.689Zm2.27,3.384c.37.566.75,1.134,1.12,1.7l.84-.548c-.38-.572-.75-1.142-1.13-1.71Zm2.19,3.34c.35.547.7,1.1,1.06,1.648l.84-.539c-.36-.553-.71-1.1-1.06-1.652Zm2.11,3.309q.525.833,1.05,1.673l.85-.53q-.525-.842-1.05-1.678Zm2.1,3.36q.525.846,1.05,1.7l.85-.521q-.525-.855-1.05-1.7Zm2.09,3.412c.34.573.69,1.148,1.03,1.725l.86-.512c-.34-.579-.69-1.156-1.04-1.73Zm2.07,3.464q.51.871,1.02,1.751l.87-.5c-.34-.587-.69-1.172-1.03-1.756Zm2.05,3.516q.51.885,1.02,1.778l.87-.5q-.51-.894-1.02-1.782Zm2,3.505c.32.566.64,1.134.95,1.7l.88-.487q-.48-.856-.96-1.708Zm1.91,3.42c.31.574.63,1.15.95,1.728l.87-.479c-.31-.58-.63-1.157-.95-1.732Zm1.89,3.467c.31.582.63,1.166.94,1.752l.88-.471c-.31-.588-.63-1.173-.94-1.756Zm1.88,3.515q.465.885.93,1.776l.89-.463c-.31-.6-.63-1.189-.94-1.78Zm1.86,3.563c.31.6.62,1.2.92,1.8l.89-.456c-.3-.6-.61-1.2-.92-1.8Zm1.84,3.611c.31.606.62,1.214.92,1.824l.9-.447c-.31-.611-.62-1.221-.92-1.828Zm1.83,3.66c.3.6.6,1.2.89,1.8l.9-.44c-.3-.6-.59-1.2-.89-1.8Zm1.74,3.553c.29.586.57,1.175.85,1.765l.91-.432c-.29-.592-.57-1.181-.86-1.769Zm1.7,3.541q.42.891.84,1.787l.91-.425c-.28-.6-.56-1.2-.85-1.791Zm1.68,3.585q.42.9.84,1.808l.91-.417q-.42-.909-.84-1.812Zm1.67,3.628c.27.609.55,1.219.83,1.831l.91-.41c-.28-.613-.55-1.225-.83-1.834Zm1.65,3.673c.27.616.55,1.234.82,1.853l.92-.4c-.28-.621-.55-1.24-.83-1.857Zm1.64,3.718q.405.934.81,1.875l.92-.4c-.27-.628-.55-1.254-.82-1.879Zm1.62,3.762c.13.315.27.63.4.946l.92-.39c-.13-.317-.27-.633-.4-.948Z" transform="translate(-7883 2103.77)" fill="#1d1934" opacity="0.4"/>
        <path id="Path_15572" data-name="Path 15572" d="M1552.99,245.5a.5.5,0,0,0-.49.506l.06,4.5a.5.5,0,0,0,.5.494.506.506,0,0,0,.5-.507l-.05-4,4-.051a.5.5,0,0,0-.02-1Zm-.34.858q.36.353.72.7l.7-.715-.72-.7Zm2.14,2.1q.7.691,1.41,1.378l.7-.712c-.47-.458-.93-.918-1.41-1.38Zm2.83,2.784c.47.467.94.933,1.4,1.4l.71-.708q-.7-.7-1.41-1.4Zm2.8,2.8c.47.473.94.944,1.4,1.413l.71-.7c-.46-.47-.93-.942-1.4-1.416Zm2.78,2.814c.47.478.94.955,1.4,1.429l.71-.7c-.46-.475-.92-.953-1.39-1.432Zm2.77,2.849c.46.48.92.957,1.37,1.434l.73-.69L1566.69,259Zm2.74,2.873q.675.723,1.35,1.442l.73-.682q-.675-.721-1.35-1.446Zm2.7,2.9c.45.486.89.971,1.33,1.455l.74-.672c-.44-.486-.88-.972-1.33-1.46Zm2.66,2.935c.44.493.88.984,1.31,1.476l.75-.661c-.43-.493-.87-.987-1.31-1.481Zm2.62,2.973c.43.5.86,1,1.28,1.5l.77-.648c-.43-.5-.86-1-1.3-1.506Zm2.56,3.017q.645.762,1.26,1.525l.78-.634c-.42-.511-.84-1.021-1.27-1.532Zm2.51,3.064,1.23,1.55.78-.617c-.4-.52-.82-1.04-1.23-1.559Zm2.44,3.114q.6.787,1.2,1.577l.8-.6c-.4-.53-.8-1.059-1.21-1.587Zm2.37,3.167c.39.533.78,1.068,1.16,1.605l.82-.581q-.585-.81-1.17-1.614Zm2.3,3.222c.38.542.75,1.086,1.12,1.632l.83-.56c-.38-.55-.75-1.1-1.13-1.642Zm2.22,3.278c.36.55.72,1.1,1.07,1.659l.84-.539q-.525-.838-1.08-1.67Zm2.13,3.333c.34.558.69,1.12,1.03,1.685l.86-.517c-.35-.568-.69-1.134-1.04-1.7Zm2.04,3.387q.495.851.99,1.71l.87-.494c-.33-.578-.66-1.151-1-1.722Zm1.96,3.44c.32.573.63,1.151.94,1.733l.88-.472c-.31-.586-.63-1.167-.95-1.745Zm1.87,3.489q.45.871.9,1.754l.89-.45q-.45-.889-.9-1.765Zm1.78,3.534c.29.587.57,1.178.85,1.774l.91-.429c-.29-.6-.57-1.194-.86-1.784Zm1.7,3.573q.405.891.81,1.8l.91-.408c-.27-.607-.54-1.209-.82-1.806Zm1.61,3.61q.39.9.78,1.82l.92-.388q-.39-.922-.78-1.83Zm1.54,3.644c.25.61.49,1.226.74,1.846l.93-.37q-.375-.934-.75-1.855Zm1.46,3.677c.24.615.48,1.236.71,1.862l.94-.353q-.36-.942-.72-1.87Zm1.4,3.707c.22.616.45,1.238.67,1.865l.94-.337c-.22-.629-.45-1.253-.67-1.872Zm1.33,3.738c.22.616.43,1.237.64,1.863l.95-.322c-.21-.628-.43-1.252-.64-1.87Zm1.28,3.756c.2.618.41,1.242.61,1.87l.95-.308c-.2-.63-.41-1.256-.61-1.876Zm1.21,3.757q.3.945.6,1.906l.95-.295c-.19-.643-.39-1.28-.59-1.912Zm1.17,3.783q.285.946.57,1.908l.96-.284q-.285-.965-.57-1.913Zm1.13,3.812q.27.939.54,1.893l.96-.273q-.27-.956-.54-1.9Zm1.08,3.816c.18.631.35,1.266.53,1.906l.96-.263c-.17-.642-.35-1.279-.52-1.911Zm1.04,3.81q.255.96.51,1.933l.97-.254q-.255-.977-.51-1.937Zm1.01,3.844c.16.632.33,1.269.49,1.911l.97-.246c-.16-.643-.33-1.281-.49-1.915Zm.98,3.85q.24.954.48,1.921l.97-.239q-.24-.969-.48-1.925Zm.94,3.834c.16.642.31,1.289.47,1.94l.97-.232c-.16-.652-.31-1.3-.47-1.943Zm.93,3.878c.15.633.29,1.27.44,1.912l.98-.226q-.225-.963-.45-1.914Zm.89,3.849c.15.65.3,1.3.44,1.964l.98-.221q-.225-.988-.45-1.966Zm.87,3.87c.14.639.29,1.283.43,1.931l.98-.215c-.15-.649-.29-1.293-.43-1.934Zm.86,3.886q.1.492.21.988l.98-.212c-.07-.33-.14-.66-.22-.988Z" transform="translate(-7883 2103.77)" fill="#1d1934" opacity="0.4"/>
        <path id="Path_15573" data-name="Path 15573" d="M1432.73,529.893v-.2h-40.1V379.025c0-11.948,13.77-18.428,23.08-11.138,2.43,2.025,4.06,3.24,4.06,3.24v105.1h12.96V325.158h10.73a21.342,21.342,0,0,1,21.46,21.466V455.37l8.91,8.911V374.165h22.89V498.1l5.47,6.22V377.4c0-11.341,12.96-17.416,21.46-10.328a.26.26,0,0,1,.2.1.28.28,0,0,0,.21.1,12.849,12.849,0,0,1,5.06,10.327v98.622h15.39V348.244h29.16V476.229h20.45V402.111h43.34v70.878h11.75V380.443l31.59-31.592-1.01,181.042s-45.97,1.621-45.97,0H1432.73Zm254.14-183.269V529.893h44.96v.608H1842.2v-.608h9.11c0,1.285,28.91.532,40.88.165,7.2.393,45.13.088,63.26-.165h22.83V412.844c0-13.163-13.77-13.771-13.77-13.771-11.14,0-12.35,12.353-12.35,12.353v57.918h-12.35V423.172h-10.13V381.253H1891v23.288l-24.3,24.3v44.147h-8.1V412.844c0-13.163-13.77-13.771-13.77-13.771-11.14,0-12.35,12.353-12.35,12.353v64.8h-13.37V447.473a12.85,12.85,0,0,0-5.06-10.328.258.258,0,0,1-.2-.1.282.282,0,0,0-.21-.1,13.247,13.247,0,0,0-21.67,10.328v53.057h-39.15l-1.95-2.227V395.631h-22.89v68.65l-8.91-57.31V368.09a21.348,21.348,0,0,0-21.46-21.466ZM1094.33,529.893c0,1.281,28.72.537,40.76.169,7.4.387,45.23.083,63.27-.169h110.63l-.17-.2h30.35v.2h18.63v-.2h29.56V378.012H1374c-10.94,0-19.85,78.776-19.85,89.711v43.945h-10.93V476.229h-16.81V440.992s-1.62-1.215-4.05-3.24c-9.32-7.29-23.09-.81-23.09,11.138v69.945L1281.05,498.1V444.03h-22.89v20.251l-8.91-8.911V416.489a21.342,21.342,0,0,0-21.46-21.466h-10.74v7.768a17.426,17.426,0,0,0-9.51-3.718c-11.14,0-12.36,12.353-12.36,12.353v57.918h-12.55V423.172H1172.5V381.253h-38.68v23.49l-24.09,24.1v44.147h-8.1V412.844c0-13.163-13.78-13.771-13.78-13.771-11.13,0-12.35,12.353-12.35,12.353v64.8h-13.36V447.473a13.547,13.547,0,0,0-5.07-10.531l-.4-.2A13.366,13.366,0,0,0,1035,447.27v73.916a8.645,8.645,0,0,0,8.71,8.707h50.62Zm1124.53-82.015v25.111h13.77V428.842l24.51-24.5v-9.316h10.73a21.342,21.342,0,0,1,21.46,21.466V455.37l8.91,8.911V444.03h22.89V498.1l27.94,31.793h-85.86c-.32.012-45.97,1.615-45.97,0v-.2h-.2v.81H2106.67v-.608h-2.43v-.2h-30.35l.18.2h-91.94V395.023h10.73a21.351,21.351,0,0,1,21.47,21.466V455.37l8.91,8.911V444.03h22.88V498.1l18.23,20.735V448.89c0-11.948,13.77-18.428,23.08-11.138,2.43,2.025,4.05,3.24,4.05,3.24v35.237h16.81v4.05h77.36V467.723a19.878,19.878,0,0,1,19.85-19.845Z" transform="translate(-7883 2103.77)" fill="#ececec" fill-rule="evenodd"/>
        <path id="Path_15574" data-name="Path 15574" d="M1524.1,257.454s-1.69-14.74-.96-15.465,5.07-8.7,5.55-8.458c.73.242.97,2.175.97,3.625s-1.93,12.807-1.93,12.807Z" transform="translate(-7883 2103.77)" fill="#f8c3b0"/>
        <path id="Path_15575" data-name="Path 15575" d="M1463.93,613.4s31.9-221.348-2.9-280.552c-6.28-10.632-63.55-112.124-69.35-96.176-5.56,15.949,8.94,376.728,8.94,376.728h15.71s14.01-202.258,19.33-210.716c5.32-8.7,12.81,210.716,12.81,210.716Z" transform="translate(-7883 2103.77)" fill="#1d1934"/>
        <path id="Path_15576" data-name="Path 15576" d="M1482.78,377.069s-60.89,5.317-92.07,0c0,0-3.86-119.373,1.21-140.4,3.14-13.532,79.75-19.573,83.37,5.317C1478.43,262.77,1482.78,377.069,1482.78,377.069Z" transform="translate(-7883 2103.77)" fill="#4fbd88"/>
        <path id="Path_15577" data-name="Path 15577" d="M1472.87,189.31c-4.35,9.666-12.8,33.83-32.86,29.722s-2.66-50.021,9.91-52.679C1459.82,164.42,1478.43,176.986,1472.87,189.31Z" transform="translate(-7883 2103.77)" fill="#f8c3b0"/>
        <path id="Path_15578" data-name="Path 15578" d="M1450.88,613.4s-.24,6.525,0,7.008,26.34,5.316,29.48,4.591.49-4.833-1.2-5.8-14.99-5.8-14.99-5.8Z" transform="translate(-7883 2103.77)" fill="#1d1934"/>
        <path id="Path_15579" data-name="Path 15579" d="M1415.12,613.4s.24,6.525,0,7.008-26.34,5.316-29.48,4.591-.48-4.833,1.21-5.8,14.98-5.8,14.98-5.8Z" transform="translate(-7883 2103.77)" fill="#1d1934"/>
        <path id="Path_15580" data-name="Path 15580" d="M1522.65,262.045s.73-8.457,2.18-10.874c1.21-2.416,4.11-5.558,7.01-4.349s.48,7.491.48,7.491l-4.59,8.216Z" transform="translate(-7883 2103.77)" fill="#f8c3b0"/>
        <path id="Path_15581" data-name="Path 15581" d="M1522.65,262.045s13.78-11.357,14.5-12.565c.97-.967,7.73-13.291,7.73-13.291s2.9,1.45,2.42,3.625c-.72,2.175-14.26,30.447-14.26,30.447Z" transform="translate(-7883 2103.77)" fill="#f8c3b0"/>
        <path id="Path_15582" data-name="Path 15582" d="M1533.53,258.662l-13.78-4.349,13.54-23.44,13.53,2.9Z" transform="translate(-7883 2103.77)" fill="#1d1934"/>
        <path id="Path_15583" data-name="Path 15583" d="M1484.23,187.135s-6.28,7.733-17.16,1.691c-10.63-6.041-20.54-9.424-22.71-8.941s-5.32,13.291-6.28,13.533l-6.77,4.108s-5.32-12.566.97-23.923c6.04-11.358,16.43-13.774,18.6-10.875,0,0,13.29.242,21.03,9.908A173.7,173.7,0,0,0,1484.23,187.135Z" transform="translate(-7883 2103.77)" fill="#1d1934"/>
        <path id="Path_15584" data-name="Path 15584" d="M1472.39,235.706s25.37,44.463,26.34,44.221,23.68-19.815,23.68-19.815l13.29,10.149s-27.3,43.255-34.55,44.222-44.23-37.214-44.23-37.214Z" transform="translate(-7883 2103.77)" fill="#4fbd88"/>
        <path id="Path_15585" data-name="Path 15585" d="M1536.43,253.346s1.93-17.64,3.86-19.09c1.69-1.45,6.77-2.416,7.25-2.658.49,0,.73,6.041,0,8.216C1546.33,241.989,1536.43,253.346,1536.43,253.346Z" transform="translate(-7883 2103.77)" fill="#f8c3b0"/>
        <path id="Path_15586" data-name="Path 15586" d="M1435.9,195.834s.48-11.116-2.66-8.216c-3.14,2.658-1.93,12.324-1.93,12.324Z" transform="translate(-7883 2103.77)" fill="#f8c3b0"/>
        <path id="Path_15587" data-name="Path 15587" d="M1446.29,215.891l-2.9,9.424,6.53.725s-4.84,12.566-17.64,10.149-10.88-11.357-10.88-11.357l6.29.483,5.79-16.19Z" transform="translate(-7883 2103.77)" fill="#f8c3b0"/>
        <path id="Path_15588" data-name="Path 15588" d="M1391.92,236.672s-15.71,18.124-30.93,72.011S1393.61,413.8,1393.61,413.8s1.45-11.116-.72-28.273c-2.66-20.3-8.94-47.363-8.46-52.679.73-9.666,23.2-34.556,23.2-34.556Z" transform="translate(-7883 2103.77)" fill="#4fbd88"/>
        <path id="Path_15589" data-name="Path 15589" d="M1382.98,400.026l9.91-14.5s6.52,10.149,5.8,14.5-4.59,24.406-4.59,24.406Z" transform="translate(-7883 2103.77)" fill="#f8c3b0"/>
        <path id="Path_15590" data-name="Path 15590" d="M1678.84,556.731a2.661,2.661,0,0,0,2.58-3.292l-10.21-41.711a2.647,2.647,0,0,0-3.22-1.941,2.653,2.653,0,0,0-1.94,3.222l10.21,41.711a2.683,2.683,0,0,0,.95,1.449A2.637,2.637,0,0,0,1678.84,556.731Z" transform="translate(-7883 2103.77)" fill="#0b0755"/>
        <path id="Path_15591" data-name="Path 15591" d="M1736.27,556.73a2.735,2.735,0,0,0,.64-.076,2.654,2.654,0,0,0,1.64-1.205,2.617,2.617,0,0,0,.35-.974,2.785,2.785,0,0,0-.04-1.037l-14.81-60.521a2.664,2.664,0,0,0-3.23-1.941,2.674,2.674,0,0,0-1.94,3.221l14.81,60.522a2.684,2.684,0,0,0,.95,1.448A2.637,2.637,0,0,0,1736.27,556.73Z" transform="translate(-7883 2103.77)" fill="#0b0755"/>
        <path id="Path_15592" data-name="Path 15592" d="M1713.34,338.341c-102.01,0-82.41,104.91-114.55,103.108s-47.06,73.972,69.86,73.972S1807.23,338.341,1713.34,338.341Z" transform="translate(-7883 2103.77)" fill="#f7c366"/>
        <path id="Path_15593" data-name="Path 15593" d="M1569.03,534.077s.26,18.029.12,18.289,1.31,2.516,1.31,2.516l5.69,1.016,5.19-2.388s-.46-16.76.09-19.4S1569.03,534.077,1569.03,534.077Z" transform="translate(-7883 2103.77)" fill="#fb9391"/>
        <path id="Path_15594" data-name="Path 15594" d="M1581.34,553.512s-6.55,2.293-12.16-1.5c0,0-21.82,8.182-21.16,14.4,0,0-.92,1.854,8.54,1.457s24.16-.825,24.55-1.043S1583.35,567.608,1581.34,553.512Z" transform="translate(-7883 2103.77)" fill="#0b0755"/>
        <path id="Path_15595" data-name="Path 15595" d="M1624.1,534.077s.26,18.029.12,18.289,1.31,2.516,1.31,2.516l5.69,1.016,5.19-2.388s-.46-16.76.08-19.4S1624.1,534.077,1624.1,534.077Z" transform="translate(-7883 2103.77)" fill="#fb9391"/>
        <path id="Path_15596" data-name="Path 15596" d="M1636.41,553.512s-6.56,2.293-12.16-1.5c0,0-21.82,8.182-21.16,14.4,0,0-.93,1.854,8.54,1.457s24.15-.825,24.55-1.043S1638.41,567.608,1636.41,553.512Z" transform="translate(-7883 2103.77)" fill="#0b0755"/>
        <path id="Path_15597" data-name="Path 15597" d="M1676.76,323.694s-1.7-2.054-2.77-1.025c-2.7,2.626.58,5.257,2.63,5.7Z" transform="translate(-7883 2103.77)" fill="#ea6868"/>
        <path id="Path_15598" data-name="Path 15598" d="M1675.21,315.6c-.04-.231-.07-.462-.1-.7a18.174,18.174,0,1,1,35.37,3.536c-1.2,4.411-2.28,8.19-3.5,11.367a25.926,25.926,0,0,0-.68,16.462l1.22,4.27c-10.45,7.135-16.12,2.2-16.12,2.2l-1.09-7.947a2.009,2.009,0,0,0-2.1-1.733C1674.34,343.665,1675.91,321.8,1675.21,315.6Z" transform="translate(-7883 2103.77)" fill="#fb9391"/>
        <path id="Path_15599" data-name="Path 15599" d="M1694.86,323.018a1.72,1.72,0,0,1,.87-1.694,1.707,1.707,0,0,1,2.46.985,1.771,1.771,0,0,1,.01.995,1.738,1.738,0,0,1-.55.83,1.708,1.708,0,0,1-2.16.015A1.735,1.735,0,0,1,1694.86,323.018Z" transform="translate(-7883 2103.77)" fill="#050521"/>
        <path id="Path_15600" data-name="Path 15600" d="M1679.59,321.681a1.744,1.744,0,0,1,.17-.98,1.779,1.779,0,0,1,.69-.717,1.736,1.736,0,0,1,.98-.21,1.7,1.7,0,0,1,.92.369,1.662,1.662,0,0,1,.56.822,1.7,1.7,0,0,1-.54,1.827,1.706,1.706,0,0,1-2.78-1.111Z" transform="translate(-7883 2103.77)" fill="#050521"/>
        <path id="Path_15601" data-name="Path 15601" d="M1700.59,319.731a1,1,0,0,0,.5-.2.937.937,0,0,0,.25-.289.963.963,0,0,0,.13-.365,1,1,0,0,0-.02-.386,1.1,1.1,0,0,0-.17-.348,5.333,5.333,0,0,0-7.39-.893.979.979,0,0,0-.43.625.944.944,0,0,0,.14.747.97.97,0,0,0,.62.431,1,1,0,0,0,.75-.137c2.92-1.888,4.65.334,4.73.427a.985.985,0,0,0,.39.312A1,1,0,0,0,1700.59,319.731Z" transform="translate(-7883 2103.77)" fill="#050521"/>
        <path id="Path_15602" data-name="Path 15602" d="M1684.54,318.847a1.009,1.009,0,0,0,.49-.2,1,1,0,0,0,.19-1.388,5.317,5.317,0,0,0-7.38-.9.94.94,0,0,0-.28.271.925.925,0,0,0-.15.354,1.008,1.008,0,0,0-.01.387.939.939,0,0,0,.14.36,1.113,1.113,0,0,0,.27.278,1.026,1.026,0,0,0,.36.153.954.954,0,0,0,.38.005.907.907,0,0,0,.36-.142c2.92-1.888,4.66.334,4.73.427a.961.961,0,0,0,.4.314A1,1,0,0,0,1684.54,318.847Z" transform="translate(-7883 2103.77)" fill="#050521"/>
        <path id="Path_15603" data-name="Path 15603" d="M1713.01,311.977l-3.55,12.759-3.36-.291-3.71-15.547Z" transform="translate(-7883 2103.77)" fill="#050521"/>
        <path id="Path_15604" data-name="Path 15604" d="M1705.55,324.112a2.7,2.7,0,0,1,1.28-1.43c1.19-.641,3.33-1.435,5.01-.09,2.47,1.976-1.35,8.348-6.08,5.914C1705.74,328.506,1704.34,327.383,1705.55,324.112Z" transform="translate(-7883 2103.77)" fill="#fb9391"/>
        <path id="Path_15605" data-name="Path 15605" d="M1686.9,330.065a3.38,3.38,0,0,0,3.05-.427.321.321,0,0,0,.08-.088.244.244,0,0,0,.04-.115.24.24,0,0,0-.01-.119.382.382,0,0,0-.15-.186.237.237,0,0,0-.11-.038.272.272,0,0,0-.12.009.293.293,0,0,0-.11.059,2.759,2.759,0,0,1-3.32-.107,1.126,1.126,0,0,1-.47-.529c-.04-.146.18-.482.47-.879a8.585,8.585,0,0,0,1.86-5.59.279.279,0,0,0-.09-.209.282.282,0,0,0-.2-.087.288.288,0,0,0-.21.087.279.279,0,0,0-.09.209,7.933,7.933,0,0,1-1.74,5.252c-.36.491-.65.879-.58,1.319a1.513,1.513,0,0,0,.26.531,1.48,1.48,0,0,0,.44.387A3.935,3.935,0,0,0,1686.9,330.065Z" transform="translate(-7883 2103.77)" fill="#ea6868"/>
        <path id="Path_15606" data-name="Path 15606" d="M1694.02,332.382s-6.77,1.6-11.34.056c0,0,1.66,5.154,5.7,5.124S1694.02,332.382,1694.02,332.382Z" transform="translate(-7883 2103.77)" fill="#fff"/>
        <path id="Path_15607" data-name="Path 15607" d="M1677.33,308.262s-2.39,2.11-1.82,13.143c0,0-2.23-12.123-1.02-13.621S1677.33,308.262,1677.33,308.262Z" transform="translate(-7883 2103.77)" fill="#0b0755"/>
        <path id="Path_15608" data-name="Path 15608" d="M1713.78,307.865a18.967,18.967,0,0,0-2.87-7.465c1.29.158,2.69.269,3.71-.508s.99-2.784-.26-3.045c-.73-.149-1.43.35-2.17.427-1.68.231-2.9-1.559-3.44-3.168s-1.02-3.506-2.57-4.232a2.787,2.787,0,0,0-1.56-.239,9.094,9.094,0,0,0,.81,5.825,23.815,23.815,0,0,0-7.36-5.979c-2.2-1.148-4.79-1.955-7.14-1.166-.49,1.913,2.68,2.819,3.09,4.749a42.7,42.7,0,0,0-12.94-1.17,8.468,8.468,0,0,0-3.26.688,3.3,3.3,0,0,0-1.95,2.561,2.411,2.411,0,0,0,.18,1.062,2.532,2.532,0,0,0,.59.9,2.648,2.648,0,0,0,.91.582,2.6,2.6,0,0,0,1.06.168,27.55,27.55,0,0,0-6.12,3.545,9.23,9.23,0,0,0-3.48,5.978,9.191,9.191,0,0,0,4.54-1.153c-.95.888-1.77,2.229-1.28,3.416a2.655,2.655,0,0,0,.96,1.053,2.6,2.6,0,0,0,1.36.4,7.68,7.68,0,0,0,2.82-.538l13.88-4.5a15.975,15.975,0,0,0-3.76,6.965,21.748,21.748,0,0,0,11.47-5.017,21.806,21.806,0,0,0,2,5.7,1.584,1.584,0,0,0,.59.726c.93.5,1.7-.888,2.53-1.542,1.03-.8,2.56-.453,3.69.17,1.97,1.077,3.34,2.648,4.86.3A8.586,8.586,0,0,0,1713.78,307.865Z" transform="translate(-7883 2103.77)" fill="#050521"/>
        <path id="Path_15609" data-name="Path 15609" d="M1591.96,444.48s-21.11,1.709-27.88,28.611c-3.94,15.633-2.4,66.538-2.4,66.538l27.38,4.295s-2.45-56.887,18.76-74.42c0,0-4.3,11.555,11.24,77.29h20.32l6.77-67.336s47.83,1.592,62.16-10.36,15.8-26.262,15.8-26.262l-67.58-10.248Z" transform="translate(-7883 2103.77)" fill="#786ce6"/>
        <path id="Path_15610" data-name="Path 15610" d="M1713.36,353.029s-1.33-10.226-3.46-9.692-20.98,3.962-22.84,3.573,0,8.644,0,8.644-21.23,1.933-26.54,10.965-17.67,43.325-22.19,46.251-13.43,11.051-13.43,11.051l36.73,20.659,34.79-1.631s25.17,15.086,44.84,3.34,16.2-73.367-2.39-84.26S1713.36,353.029,1713.36,353.029Z" transform="translate(-7883 2103.77)" fill="#fff5f1"/>
        <path id="Path_15611" data-name="Path 15611" d="M1651.52,435.082a.4.4,0,0,0,.11,0c10.59-4.63,16.27-50.39,16.51-52.314a.36.36,0,0,0-.01-.1.181.181,0,0,0-.05-.093.167.167,0,0,0-.08-.067.251.251,0,0,0-.09-.032.292.292,0,0,0-.11.006.276.276,0,0,0-.09.046.281.281,0,0,0-.07.079.183.183,0,0,0-.03.1c-.06.474-5.88,47.4-16.2,51.887a.3.3,0,0,0-.12.123.215.215,0,0,0-.02.175.239.239,0,0,0,.09.152.243.243,0,0,0,.16.062Z" transform="translate(-7883 2103.77)" fill="#0b0755"/>
        <path id="Path_15612" data-name="Path 15612" d="M1696.41,443.118a.3.3,0,0,0,.15-.044.273.273,0,0,0,.09-.118.238.238,0,0,0,0-.2.254.254,0,0,0-.13-.148l-7.67-3.348,1.07-13.357c2.3-.427,23.85-4.645,34.16-5.85a.25.25,0,0,0,.17-.086.278.278,0,0,0,.07-.175c0-1.028.38-25.284-1.22-28.883a.29.29,0,0,0-.15-.135.26.26,0,0,0-.2.007.3.3,0,0,0-.14.145.276.276,0,0,0,.01.2c1.46,3.31,1.2,25.878,1.17,28.428-10.94,1.28-33.91,5.824-34.16,5.866a.284.284,0,0,0-.15.086.291.291,0,0,0-.07.154l-1.1,13.746a.284.284,0,0,0,.03.158.311.311,0,0,0,.13.111l7.84,3.416A.2.2,0,0,0,1696.41,443.118Z" transform="translate(-7883 2103.77)" fill="#0b0755"/>
        <path id="Path_15613" data-name="Path 15613" d="M1607.82,469.778a.234.234,0,0,0,.16-.063.32.32,0,0,0,.1-.155c.04-.235,4.88-23.61,43.13-26.377a.328.328,0,0,0,.1-.027.237.237,0,0,0,.08-.063.29.29,0,0,0,.05-.09.177.177,0,0,0,.01-.1.352.352,0,0,0-.02-.1.266.266,0,0,0-.06-.086.278.278,0,0,0-.1-.051.227.227,0,0,0-.1-.008c-20.2,1.46-30.98,8.656-36.47,14.433-5.98,6.283-7.15,12.316-7.16,12.384v.1a.306.306,0,0,0,.04.094.266.266,0,0,0,.08.073.229.229,0,0,0,.09.038Z" transform="translate(-7883 2103.77)" fill="#0b0755"/>
        <path id="Path_15614" data-name="Path 15614" d="M1682.48,427.562l-1.42.042c-4.36.137-17.4.586-18.91,1.119-1.82.641,3.66,12.026,3.66,12.026s15.67.854,20.71-2.507S1682.48,427.562,1682.48,427.562Z" transform="translate(-7883 2103.77)" fill="#f78181"/>
        <path id="Path_15615" data-name="Path 15615" d="M1667.88,440.816s-8.75,3.958-9.52,3.1,6.83-5.278,6.83-5.278Z" transform="translate(-7883 2103.77)" fill="#f78181"/>
        <path id="Path_15616" data-name="Path 15616" d="M1665.49,438.015s-12.94,5.326-13.92,3.536,13.34-6.406,13.34-6.406Z" transform="translate(-7883 2103.77)" fill="#f78181"/>
        <path id="Path_15617" data-name="Path 15617" d="M1663.77,434.877s-13.36,4.176-14.18,2.306,13.86-5.218,13.86-5.218Z" transform="translate(-7883 2103.77)" fill="#f78181"/>
        <path id="Path_15618" data-name="Path 15618" d="M1663.1,431.513s-12.48,4.073-13.26,2.2,12.94-5.125,12.94-5.125Z" transform="translate(-7883 2103.77)" fill="#f78181"/>
        <path id="Path_15619" data-name="Path 15619" d="M1679.49,427.937l9.85-1.234-.9,11.132-5.07,1.137Z" transform="translate(-7883 2103.77)" fill="#f78181"/>
        <path id="Path_15620" data-name="Path 15620" d="M1567.97,393.486l72.08-.1,22.67,52.7-72.07.1Z" transform="translate(-7883 2103.77)" fill="#050521"/>
        <path id="Path_15621" data-name="Path 15621" d="M1648.58,446.1l48.25-.067v-3.191l-48.26.068Z" transform="translate(-7883 2103.77)" fill="#050521"/>
        <path id="Path_15622" data-name="Path 15622" d="M1611.38,419.013a3.08,3.08,0,0,0-.52-1.765,3.177,3.177,0,0,0-5.76,1.112,3.172,3.172,0,0,0,1.33,3.265,3.225,3.225,0,0,0,1.76.544,3.174,3.174,0,0,0,3.19-3.156Z" transform="translate(-7883 2103.77)" fill="#fff"/>
        <path id="Path_15623" data-name="Path 15623" d="M1781,563.555h-.06a.252.252,0,0,1-.1-.043.256.256,0,0,1-.07-.076.342.342,0,0,1-.04-.1.37.37,0,0,1,.01-.1c8.54-37.8,16.83-64.64,23.36-75.586.1-.164.2-.334.29-.508a.262.262,0,0,1,.15-.142.257.257,0,0,1,.2,0,.238.238,0,0,1,.14.15.245.245,0,0,1,0,.205,6.171,6.171,0,0,1-.32.566c-6.5,10.9-14.77,37.687-23.3,75.43a.286.286,0,0,1-.09.15A.271.271,0,0,1,1781,563.555Z" transform="translate(-7883 2103.77)" fill="#bdb2f0"/>
        <path id="Path_15624" data-name="Path 15624" d="M1809.03,485.39c-.78,1.232-4.96,3.685-5.31,3.463s.07-5.049.85-6.279a2.657,2.657,0,0,1,1.65-1.325,2.639,2.639,0,0,1,2.1.317,2.705,2.705,0,0,1,.78.754,2.784,2.784,0,0,1,.41,1,2.476,2.476,0,0,1-.03,1.083A2.722,2.722,0,0,1,1809.03,485.39Z" transform="translate(-7883 2103.77)" fill="#bdb2f0"/>
        <path id="Path_15625" data-name="Path 15625" d="M1800.92,489.528c.53,1.394-.04,6.317-.44,6.468s-4.08-3.175-4.61-4.558a2.7,2.7,0,1,1,5.05-1.91Z" transform="translate(-7883 2103.77)" fill="#bdb2f0"/>
        <path id="Path_15626" data-name="Path 15626" d="M1806.67,497.663c-1.47.2-6.14-1.461-6.2-1.881s4-3.265,5.48-3.466a2.645,2.645,0,0,1,1.06.045,2.717,2.717,0,0,1,.97.455,2.616,2.616,0,0,1,.71.794,2.449,2.449,0,0,1,.35,1.009,2.732,2.732,0,0,1-.06,1.065,2.841,2.841,0,0,1-.48.956,2.73,2.73,0,0,1-.81.7A2.668,2.668,0,0,1,1806.67,497.663Z" transform="translate(-7883 2103.77)" fill="#bdb2f0"/>
        <path id="Path_15627" data-name="Path 15627" d="M1789.92,514.954c1.14,2.23,1.08,10.546.44,10.871s-7.38-4.543-8.51-6.773a4.525,4.525,0,1,1,8.07-4.1Z" transform="translate(-7883 2103.77)" fill="#bdb2f0"/>
        <path id="Path_15628" data-name="Path 15628" d="M1801,527.49c-2.43.6-10.52-1.324-10.69-2.019s6.09-6.173,8.51-6.774a4.53,4.53,0,0,1,2.18,8.793Z" transform="translate(-7883 2103.77)" fill="#bdb2f0"/>
        <path id="Path_15629" data-name="Path 15629" d="M1784.09,524.663c1.95,2.358,4.12,12.3,3.44,12.86s-10.04-3.44-11.99-5.789a5.544,5.544,0,0,1,8.54-7.071Z" transform="translate(-7883 2103.77)" fill="#bdb2f0"/>
        <path id="Path_15630" data-name="Path 15630" d="M1799.81,540.986c-3.03.426-12.64-2.94-12.76-3.8s8.19-6.744,11.22-7.17a5.541,5.541,0,0,1,1.54,10.975Z" transform="translate(-7883 2103.77)" fill="#bdb2f0"/>
        <path id="Path_15631" data-name="Path 15631" d="M1780.92,537.017c1.95,2.357,4.12,12.3,3.44,12.859s-10.04-3.44-11.99-5.789a5.544,5.544,0,0,1,8.54-7.07Z" transform="translate(-7883 2103.77)" fill="#bdb2f0"/>
        <path id="Path_15632" data-name="Path 15632" d="M1796.64,553.339c-3.03.426-12.64-2.94-12.76-3.8s8.19-6.747,11.22-7.173a5.53,5.53,0,0,1,4.15,1.03,5.472,5.472,0,0,1,1.46,1.62,5.416,5.416,0,0,1,.72,2.058,5.6,5.6,0,0,1-1.08,4.137,5.679,5.679,0,0,1-1.64,1.438A5.563,5.563,0,0,1,1796.64,553.339Z" transform="translate(-7883 2103.77)" fill="#bdb2f0"/>
        <path id="Path_15633" data-name="Path 15633" d="M1773.18,552.8c2.7,1.437,8.5,9.789,8.09,10.583s-10.59.648-13.29-.794a5.522,5.522,0,0,1-1.69-1.363,5.577,5.577,0,0,1-1.04-1.909,5.642,5.642,0,0,1-.23-2.161,5.455,5.455,0,0,1,.63-2.081,5.542,5.542,0,0,1,7.53-2.275Z" transform="translate(-7883 2103.77)" fill="#bdb2f0"/>
        <path id="Path_15634" data-name="Path 15634" d="M1793.93,565.529c-2.96.793-12.91-1.34-13.14-2.183s7.28-7.715,10.24-8.517a5.567,5.567,0,0,1,5.84,1.958,5.567,5.567,0,0,1,1.11,4.1,5.543,5.543,0,0,1-.69,2.051,5.563,5.563,0,0,1-3.35,2.6Z" transform="translate(-7883 2103.77)" fill="#bdb2f0"/>
        <path id="Path_15635" data-name="Path 15635" d="M1797.53,497.441c.53,1.418-.04,6.419-.44,6.572s-4.15-3.214-4.68-4.63a2.733,2.733,0,0,1,1.59-3.535,2.755,2.755,0,0,1,2.1.064A2.715,2.715,0,0,1,1797.53,497.441Z" transform="translate(-7883 2103.77)" fill="#bdb2f0"/>
        <path id="Path_15636" data-name="Path 15636" d="M1803.19,505.815c-1.5.2-6.24-1.487-6.3-1.913s4.07-3.318,5.56-3.522a2.712,2.712,0,0,1,2.02.536,2.743,2.743,0,0,1-1.29,4.9Z" transform="translate(-7883 2103.77)" fill="#bdb2f0"/>
        <path id="Path_15637" data-name="Path 15637" d="M1793.55,504.85c.93,1.941.69,9.091.14,9.355s-6.25-4.069-7.17-6.012a3.774,3.774,0,0,1-.37-1.473,3.671,3.671,0,0,1,.22-1.5,3.908,3.908,0,0,1,.77-1.3,3.907,3.907,0,0,1,2.7-1.28,3.882,3.882,0,0,1,1.5.221,3.927,3.927,0,0,1,1.31.778A3.881,3.881,0,0,1,1793.55,504.85Z" transform="translate(-7883 2103.77)" fill="#bdb2f0"/>
        <path id="Path_15638" data-name="Path 15638" d="M1802.57,516.684c-2.14.288-8.88-2.116-8.96-2.717s5.78-4.712,7.91-5a3.895,3.895,0,0,1,1.05,7.717Z" transform="translate(-7883 2103.77)" fill="#bdb2f0"/>
        <path id="Path_15639" data-name="Path 15639" d="M1804.99,575.86l-.05-.016a.282.282,0,0,1-.1-.06.833.833,0,0,1-.06-.093.4.4,0,0,1-.02-.109.208.208,0,0,1,.02-.11c15.27-38.662,28.49-65.749,37.21-76.277.19-.233.33-.4.39-.489a.265.265,0,0,1,.17-.109.3.3,0,0,1,.21.041.293.293,0,0,1,.12.169.3.3,0,0,1-.02.208c-.07.117-.21.265-.43.548-8.68,10.483-21.86,37.515-37.12,76.12a.294.294,0,0,1-.12.146A.311.311,0,0,1,1804.99,575.86Z" transform="translate(-7883 2103.77)" fill="#786ce6"/>
        <path id="Path_15640" data-name="Path 15640" d="M1847.58,497.613c-1.03,1.177-5.86,3.09-6.19,2.8s.9-5.339,1.93-6.516a2.794,2.794,0,0,1,.87-.674,2.837,2.837,0,0,1,2.16-.147,2.876,2.876,0,0,1,.96.55,2.736,2.736,0,0,1,.67.874,2.658,2.658,0,0,1,.29,1.065,2.715,2.715,0,0,1-.14,1.1A2.929,2.929,0,0,1,1847.58,497.613Z" transform="translate(-7883 2103.77)" fill="#786ce6"/>
        <path id="Path_15641" data-name="Path 15641" d="M1838.31,500.674c.33,1.564-1.09,6.688-1.53,6.781s-3.81-4.024-4.14-5.59a2.925,2.925,0,0,1,.43-2.155,2.9,2.9,0,0,1,5.24.964Z" transform="translate(-7883 2103.77)" fill="#786ce6"/>
        <path id="Path_15642" data-name="Path 15642" d="M1843.07,510.244c-1.59-.032-6.28-2.561-6.27-3.017s4.78-2.788,6.37-2.77a2.94,2.94,0,0,1,1.13.224,3.076,3.076,0,0,1,.95.641,2.842,2.842,0,0,1,.62.96,2.855,2.855,0,0,1-.04,2.245,2.825,2.825,0,0,1-.67.934,2.88,2.88,0,0,1-.97.6,2.912,2.912,0,0,1-1.13.179Z" transform="translate(-7883 2103.77)" fill="#786ce6"/>
        <path id="Path_15643" data-name="Path 15643" d="M1822.47,525.815c.83,2.55-.6,11.355-1.32,11.594s-7.08-6.028-7.92-8.578a5,5,0,0,1-.22-1.883,4.845,4.845,0,0,1,.51-1.824,4.849,4.849,0,0,1,2.82-2.419,4.861,4.861,0,0,1,3.71.285,4.87,4.87,0,0,1,2.42,2.825Z" transform="translate(-7883 2103.77)" fill="#786ce6"/>
        <path id="Path_15644" data-name="Path 15644" d="M1832.14,540.925c-2.67.238-10.93-3.138-11-3.9s7.47-5.54,10.14-5.776a4.85,4.85,0,0,1,4.82,2.562,4.87,4.87,0,0,1-.6,5.422,4.865,4.865,0,0,1-3.36,1.692Z" transform="translate(-7883 2103.77)" fill="#786ce6"/>
        <path id="Path_15645" data-name="Path 15645" d="M1814.68,535.146c1.68,2.821,2.35,13.719,1.54,14.2s-10.07-5.292-11.75-8.109a5.813,5.813,0,0,1-.82-2.2,5.945,5.945,0,0,1,2.83-6.043,5.937,5.937,0,0,1,4.55-.642,5.923,5.923,0,0,1,3.65,2.8Z" transform="translate(-7883 2103.77)" fill="#786ce6"/>
        <path id="Path_15646" data-name="Path 15646" d="M1828.66,555.038c-3.28-.048-12.91-5.2-12.9-6.136s9.79-5.8,13.08-5.754a5.946,5.946,0,0,1-.18,11.89Z" transform="translate(-7883 2103.77)" fill="#786ce6"/>
        <path id="Path_15647" data-name="Path 15647" d="M1809.29,547.719c1.68,2.821,2.34,13.719,1.54,14.2s-10.08-5.292-11.76-8.109a5.97,5.97,0,0,1-.81-2.2,5.788,5.788,0,0,1,.09-2.344,5.991,5.991,0,0,1,1-2.125,5.782,5.782,0,0,1,1.73-1.575,5.961,5.961,0,0,1,8.21,2.156Z" transform="translate(-7883 2103.77)" fill="#786ce6"/>
        <path id="Path_15648" data-name="Path 15648" d="M1823.27,567.608c-3.29-.048-12.91-5.2-12.9-6.133s9.79-5.8,13.07-5.754a5.975,5.975,0,0,1,2.3.459,6.1,6.1,0,0,1,1.94,1.312,5.923,5.923,0,0,1,1.28,1.959,6.043,6.043,0,0,1,.43,2.3,5.979,5.979,0,0,1-1.84,4.209,5.959,5.959,0,0,1-4.28,1.646Z" transform="translate(-7883 2103.77)" fill="#786ce6"/>
        <path id="Path_15649" data-name="Path 15649" d="M1798.48,563.176c2.63,1.969,7.41,11.792,6.84,12.542s-11.33-1.058-13.96-3.022a5.946,5.946,0,1,1,7.12-9.525Z" transform="translate(-7883 2103.77)" fill="#786ce6"/>
        <path id="Path_15650" data-name="Path 15650" d="M1818.38,580.083c-3.26.363-13.46-3.543-13.56-4.474s9-6.983,12.25-7.345a5.946,5.946,0,0,1,1.32,11.819Z" transform="translate(-7883 2103.77)" fill="#786ce6"/>
        <path id="Path_15651" data-name="Path 15651" d="M1833.41,508.5c.34,1.588-1.09,6.8-1.55,6.892s-3.86-4.09-4.2-5.678a2.933,2.933,0,0,1,2.27-3.484,2.936,2.936,0,0,1,3.48,2.27Z" transform="translate(-7883 2103.77)" fill="#786ce6"/>
        <path id="Path_15652" data-name="Path 15652" d="M1838.03,518.311c-1.62-.031-6.37-2.6-6.36-3.066s4.85-2.847,6.48-2.815a2.917,2.917,0,0,1,1.14.226,3.031,3.031,0,0,1,.97.652,2.921,2.921,0,0,1,.63.975,2.811,2.811,0,0,1,.21,1.145,2.962,2.962,0,0,1-.25,1.137,2.909,2.909,0,0,1-.68.95,2.944,2.944,0,0,1-2.14.8Z" transform="translate(-7883 2103.77)" fill="#786ce6"/>
        <path id="Path_15653" data-name="Path 15653" d="M1827.98,515.7c.66,2.209-.77,9.75-1.4,9.938s-5.95-5.339-6.61-7.551a4.178,4.178,0,0,1,8.01-2.382Z" transform="translate(-7883 2103.77)" fill="#786ce6"/>
        <path id="Path_15654" data-name="Path 15654" d="M1835.58,529.731c-2.31-.045-9.05-3.705-9.04-4.356s6.9-4.045,9.2-4a4.179,4.179,0,1,1-.16,8.356Z" transform="translate(-7883 2103.77)" fill="#786ce6"/>
        <path id="Path_15655" data-name="Path 15655" d="M1146.89,291.7l-1.29,1.183a1.609,1.609,0,0,1-2.26-.054l-22.96-25.372a1.536,1.536,0,0,1,.16-2.2l1.29-1.183a1.609,1.609,0,0,1,2.26.054l22.96,25.318A1.6,1.6,0,0,1,1146.89,291.7Z" transform="translate(-7883 2103.77)" fill="#183658"/>
        <path id="Path_15656" data-name="Path 15656" d="M1224.72,271.111c-3.07-2.526-26.79,7.956-26.52,11.557.33,3.656-16.56,38.865-16.56,38.865l-29.15-23.33c-.27-.86-3.02-9.89-3.18-11.5-.16-1.72-5.05-4.677-7.37-4.247s1.94,3.333,2.26,3.871c.76,1.451-2.15,1.989-2.15,1.989s-8.44-4.623-8.6-7.365-1.94-8.439-3.71-7.257c-.92.592-.92,4.677-.65,6.612-.54-2.2-1.29-4.623-2.04-4.892-1.35-.43-2.05,1.291-1.78,2.151s2.42,10.106,3.12,11.181c.65,1.021,14.25,11.987,16.19,14.406,0,0,37.7,43.219,40.39,44.348,2.37.967,10.76-13.923,18.67-23.814C1211.6,313.792,1234.35,278.906,1224.72,271.111Z" transform="translate(-7883 2103.77)" fill="#d29e8b"/>
        <path id="Path_15657" data-name="Path 15657" d="M1300.83,588.909s5.16,5.053,5.32,6.935c.11,1.881.49,21.77-1.67,23.652-2.09,1.881-8.33,3.171-6.34,5.268,1.5,1.559,13.12,1.236,20.81.806,2.26-.108,5.06-18.115,5.97-20.749,1.29-3.817,4.41-12.471,3.28-15.159-.59-1.29-3.33-3.978-7.15-6.505-4.03-2.634-7.96-8.493-7.96-8.493Z" transform="translate(-7883 2103.77)" fill="#d29e8b"/>
        <path id="Path_15658" data-name="Path 15658" d="M1247.15,600.682s4.62,13.116,4.62,13.169c.33,2.1,1.73,7.2,1.73,9.139,0,7.1-31.95-6.021-24.8-9.192a7.585,7.585,0,0,0,2.9-5c.33-3.709-2.68-8.385-2.68-8.385Z" transform="translate(-7883 2103.77)" fill="#d29e8b"/>
        <path id="Path_15659" data-name="Path 15659" d="M1197.02,356.151s-2.31,23.545-2.31,23.921c0,38.058-7.53,112.455-6.08,119.658,3.5,17.47,41.09,106.542,41.09,106.542l20.33-2.419L1223.59,497.2l9.74-42.95,13.76-84.879Z" transform="translate(-7883 2103.77)" fill="#282358"/>
        <path id="Path_15660" data-name="Path 15660" d="M1265.22,376.954l3.87,22.308,10.38,91.867,39.75,89.771s-5.59,13.062-13.82,14.89l-63.25-92.19-39.27-117.938,1.4-26.178Z" transform="translate(-7883 2103.77)" fill="#322c6b"/>
        <path id="Path_15661" data-name="Path 15661" d="M1188.9,300.085l28.18,2.9s1.29-23.169,1.29-34.188c0-13.385-1.13-30.694-2.74-30.318-4.52,1.021-10.65,3.548-14.25,8.547C1188.79,264.338,1188.9,300.085,1188.9,300.085Z" transform="translate(-7883 2103.77)" fill="#786ce6"/>
        <path id="Path_15662" data-name="Path 15662" d="M1202.72,266.381c-.59,4.085-11.4,115.2-11.4,115.2,51.31,24.835,79.6,4.408,79.6,4.408s-1.67-78,.32-88.642c1.35-7.041,3.02-53.7-1.56-55.044a113.875,113.875,0,0,0-19.79-4.193c-6.24-.645-30.33-1.022-34.69.43A56.6,56.6,0,0,0,1202.72,266.381Z" transform="translate(-7883 2103.77)" fill="#786ce6"/>
        <path id="Path_15663" data-name="Path 15663" d="M1320.73,583.05s-11.94,33.7-16.62,35.317c-1.24.43-7.21,1.505-8.34,4.193a12.007,12.007,0,0,0,0,3.44h24.9s3.18-14.836,4.41-21.394c0,0,6.57-15.966,5.87-17.417C1330.19,585.791,1320.73,583.05,1320.73,583.05Z" transform="translate(-7883 2103.77)" fill="#1d1934"/>
        <path id="Path_15664" data-name="Path 15664" d="M1255.32,625.3l-3.65-11.611s-7.69,3.279-11.51,2.742a114.176,114.176,0,0,1-11.35-2.742c-15.33,5.053-27.92,7.526-25.6,11.611Z" transform="translate(-7883 2103.77)" fill="#1d1934"/>
        <path id="Path_15665" data-name="Path 15665" d="M1184.97,347.5a5.134,5.134,0,0,1-.75-.592c.91-10.858.75-21.448-2.64-25,.11-.161.81-1.774,1.62-3.386,3.92,3.064,5.81,11.181,5.11,24.4a24.587,24.587,0,0,1-.54,2.742C1186.53,346.9,1185.51,347.712,1184.97,347.5Z" transform="translate(-7883 2103.77)" fill="#d29e8b"/>
        <path id="Path_15666" data-name="Path 15666" d="M1321.75,382.76a1.646,1.646,0,0,0,0-.7c-.75-7.687-7.1-72.3-8.18-75.042-.96-2.472-29.52-43.434-29.52-43.434l-14.04,19.191,27.48,36.768c.59,2.312,10.54,45.96,10.54,45.96s2.05,7.956,2.96,12.687c-.43,1.128-.81,2.2-1.18,3.117a32.375,32.375,0,0,1-2.96,4.785,30.8,30.8,0,0,0-3.5,6.235c-.26,1.129-.8,3.44-1.13,4.838a37.963,37.963,0,0,0-.75,3.817,7.336,7.336,0,0,1-.91,2.042,1.226,1.226,0,0,0,1.45,1.774c1.02-.322,1.77-1.612,2.26-2.419,1.34-2.258,2.1-6.45,2.42-6.235s1.5,7.257,1.72,8.063c.16.806,1.61,8.977,2.42,10.482s1.88,1.236,2.15.323c.27-.807-.86-12.257-.86-12.257s-.16-1.451.49-1.021c.64.484,1.66,10.859,2.15,12.417.43,1.506,1.45,2.312,2.31,1.129,1.02-1.505-.75-12.525-.75-12.525s-.22-1.4.37-1.236,1.35,9.031,1.78,9.783a1.156,1.156,0,0,0,2.15-.215c.64-1.505-1.02-11.342-1.02-11.342s.11-.806.43-.537c.37.268,1.56,7.794,2.31,8.493a.8.8,0,0,0,1.18,0c1.4-.968-.75-8.117-.7-11.665,0-3.548-1.61-7.579-1.12-11.772A4.756,4.756,0,0,1,1321.75,382.76Z" transform="translate(-7883 2103.77)" fill="#d29e8b"/>
        <path id="Path_15667" data-name="Path 15667" d="M1306.31,289.495l-24.42,16.449s-13.77-20.534-21.13-27.845c-9.25-9.138,3.38-37.2,9.3-35.585C1283.45,246.008,1306.31,289.495,1306.31,289.495Z" transform="translate(-7883 2103.77)" fill="#786ce6"/>
        <path id="Path_15668" data-name="Path 15668" d="M1248.12,214.131l3.65,24.136s-13.33,28.7-21.29,26.232c-6.67-2.1-2.59-27.522-2.59-27.522s3.66-13.654,2.53-20.481C1229.4,209.669,1248.12,214.131,1248.12,214.131Z" transform="translate(-7883 2103.77)" fill="#d29e8b"/>
        <path id="Path_15669" data-name="Path 15669" d="M1251.18,180c.54-.215,4.25,27.468-2.79,35.1s-20.82,10.106-25.71,4.085c-5.44-6.612-5.17-36.392,5.81-44.186C1239.4,167.149,1251.18,180,1251.18,180Z" transform="translate(-7883 2103.77)" fill="#d29e8b"/>
        <path id="Path_15670" data-name="Path 15670" d="M1232.63,160.161a30.184,30.184,0,0,1,15.97,9.139c3.87.43,9.09,2.58,14.47,11.557,6.67,11.02,1.72,23.276-6.02,29.242-7.75,6.021-7.64,12.9-7.64,12.9l-1.24-3.6a19.625,19.625,0,0,1-.97-8.439,15.776,15.776,0,0,1,1.24-5.053c1.88-4.032-3.98-6.666-5.65-10-1.29-2.58-1.34-8.439-3.33-12.686L1237.09,180s-5.49-4.3-10.86-3.064C1220.96,178.169,1221.76,157.957,1232.63,160.161Z" transform="translate(-7883 2103.777)" fill="#184655"/>
        <path id="Path_15671" data-name="Path 15671" d="M1243.28,200.907c-.06,3.387,1.45,6.128,3.44,6.182,1.93.054,3.55-2.688,3.6-6.074s-1.45-6.128-3.44-6.182C1244.94,194.779,1243.33,197.521,1243.28,200.907Z" transform="translate(-7883 2103.77)" fill="#d29e8b"/>
        <path id="Path_15672" data-name="Path 15672" d="M1231.82,208.7l-10.65-.538s.05,4.086,4.73,4.462C1231.55,213.056,1231.82,208.7,1231.82,208.7Z" transform="translate(-7883 2103.77)" fill="#fff"/>
        <circle id="Ellipse_506" data-name="Ellipse 506" cx="24" cy="24" r="24" transform="translate(-6777 2294.77)" fill="#fff"/>
        <circle id="Ellipse_507" data-name="Ellipse 507" cx="23.5" cy="23.5" r="23.5" transform="translate(-6776.5 2295.27)" fill="none" stroke="rgba(41,45,52,0.1)" stroke-width="1"/>
        <path id="Path_15673" data-name="Path 15673" d="M1135,205a1,1,0,0,0-2,0v1h-6v-1a1,1,0,0,0-2,0v1h-2a3,3,0,0,0-3,3v14a3,3,0,0,0,3,3h14a3,3,0,0,0,3-3V209a3,3,0,0,0-3-3h-2Zm3,7v-3a1,1,0,0,0-1-1h-2v1a1,1,0,0,1-2,0v-1h-6v1a1,1,0,0,1-2,0v-1h-2a1,1,0,0,0-1,1v3Zm-16,2h16v9a1,1,0,0,1-1,1h-14a1,1,0,0,1-1-1Z" transform="translate(-7883 2103.77)" fill="#786ce6" fill-rule="evenodd"/>
        <circle id="Ellipse_508" data-name="Ellipse 508" cx="24" cy="24" r="24" transform="translate(-6348 2275.77)" fill="#fff"/>
        <circle id="Ellipse_509" data-name="Ellipse 509" cx="23.5" cy="23.5" r="23.5" transform="translate(-6347.5 2276.27)" fill="none" stroke="rgba(41,45,52,0.1)" stroke-width="1"/>
        <path id="Path_15674" data-name="Path 15674" d="M1568,195.5a8.36,8.36,0,0,1-.9,3.8,8.494,8.494,0,0,1-7.6,4.7,8.392,8.392,0,0,1-3.8-.9L1550,205l1.9-5.7a8.36,8.36,0,0,1-.9-3.8,8.5,8.5,0,0,1,4.7-7.6,8.392,8.392,0,0,1,3.8-.9h.5a8.478,8.478,0,0,1,8,8Z" transform="translate(-7883 2103.77)" fill="none" stroke="#786ce6" stroke-linecap="round" stroke-linejoin="round" stroke-width="2"/>
        <circle id="Ellipse_510" data-name="Ellipse 510" cx="24" cy="24" r="24" transform="translate(-6564 2266.77)" fill="#fff"/>
        <circle id="Ellipse_511" data-name="Ellipse 511" cx="23.5" cy="23.5" r="23.5" transform="translate(-6563.5 2267.27)" fill="none" stroke="rgba(41,45,52,0.1)" stroke-width="1"/>
        <path id="Path_15675" data-name="Path 15675" d="M1337.34,179.343A8,8,0,0,1,1351,185c0,3.1-2.02,6.1-4.23,8.437a28.822,28.822,0,0,1-2.99,2.734c-.3.242-.57.444-.78.6-.21-.158-.48-.36-.78-.6a28.822,28.822,0,0,1-2.99-2.734C1337.02,191.1,1335,188.1,1335,185A8,8,0,0,1,1337.34,179.343Zm5.1,19.489A9.1,9.1,0,0,0,1343,198l-.55.832a.984.984,0,0,0,1.1,0L1343,198a9.1,9.1,0,0,0,.56.832h0v-.005l.03-.015c.02-.013.04-.032.08-.057l.3-.214c.26-.186.62-.457,1.06-.8a31.8,31.8,0,0,0,3.2-2.922c2.29-2.417,4.77-5.911,4.77-9.813a10,10,0,0,0-20,0c0,3.9,2.48,7.4,4.77,9.813a31.8,31.8,0,0,0,3.2,2.922c.44.347.8.618,1.06.8l.3.214c.04.025.06.044.08.057l.03.015v.005h0ZM1341,185a2,2,0,1,1,2,2A2,2,0,0,1,1341,185Zm2-4a4,4,0,1,0,4,4A4,4,0,0,0,1343,181Z" transform="translate(-7883 2103.77)" fill="#786ce6" fill-rule="evenodd"/>
      </g>
    </g>
  </g>
</svg>
