<svg width="60" height="60" viewBox="0 0 60 60" fill="none" xmlns="http://www.w3.org/2000/svg">
<circle cx="30" cy="30" r="30" fill="#292D34" fill-opacity="0.1"/>
<path fill-rule="evenodd" clip-rule="evenodd" d="M29.2929 22.2929C29.6834 21.9024 30.3166 21.9024 30.7071 22.2929C31.0976 22.6834 31.0976 23.3166 30.7071 23.7071L25.4142 29H37C37.5523 29 38 29.4477 38 30C38 30.5523 37.5523 31 37 31H25.4142L30.7071 36.2929C31.0976 36.6834 31.0976 37.3166 30.7071 37.7071C30.3166 38.0976 29.6834 38.0976 29.2929 37.7071L22.2936 30.7078C22.2912 30.7054 22.2888 30.703 22.2864 30.7005C22.1099 30.5208 22.0008 30.2746 22 30.003C22 30.002 22 30.001 22 30C22 29.999 22 29.998 22 29.997C22.0004 29.8625 22.0273 29.7343 22.0759 29.6172C22.1236 29.502 22.1937 29.3938 22.2864 29.2995C22.2888 29.297 22.2911 29.2947 22.2935 29.2923M29.2929 22.2929L22.2935 29.2923L29.2929 22.2929Z" fill="#292D34"/>
</svg>
