<svg width="101" height="101" viewBox="0 0 101 101" fill="none" xmlns="http://www.w3.org/2000/svg">
<circle opacity="0.2" cx="50.5" cy="50.5" r="50.5" fill="#DC688E"/>
<path fill-rule="evenodd" clip-rule="evenodd" d="M58.0136 37.1158C57.4217 37.1702 56.7143 37.8777 56.6666 39.7076C56.653 40.2927 56.5238 40.7961 56.3469 41.2178C56.5034 41.2247 59.5714 41.2247 59.6734 41.2178C59.5034 40.7961 59.3741 40.2927 59.3605 39.7076C59.3129 37.8709 58.619 37.1634 58.0136 37.1158ZM62.6797 40.8679C62.9574 41.2353 63.5301 41.9934 63.0748 42.8437C62.3129 44.2791 53.9455 44.4559 52.9455 42.8437C52.4611 42.0492 53.0254 41.2916 53.3107 40.9084C53.3259 40.888 53.3403 40.8687 53.3537 40.8505L53.367 40.8324C53.6274 40.4788 53.8709 40.1479 53.8843 39.6328C53.9864 35.9321 56.0612 34.4696 57.8163 34.3403C57.8322 34.3403 57.9089 34.338 57.9723 34.336C58.0172 34.3347 58.0556 34.3335 58.0612 34.3335C60.0272 34.4015 62.0476 36.0614 62.136 39.6328C62.1494 40.1479 62.393 40.4788 62.6534 40.8325L62.6666 40.8505L62.6797 40.8679ZM44.2925 39.66C46.102 39.66 47.5782 41.0478 47.5782 42.7621C47.5782 44.4764 46.102 45.8641 44.2925 45.8641C42.483 45.8641 41.0068 44.4764 41.0068 42.7621C41.0068 41.0478 42.483 39.66 44.2925 39.66ZM44.2925 48.6396C47.6326 48.6396 50.3537 46.0002 50.3537 42.7621C50.3537 39.524 47.6326 36.8845 44.2925 36.8845C40.9524 36.8845 38.2313 39.5172 38.2313 42.7621C38.2313 46.007 40.9524 48.6396 44.2925 48.6396ZM63.8911 56.7825H56.2449C56.1088 54.2927 54.7415 52.1294 52.7483 50.8777C53.2993 48.9934 54.5714 47.9321 56.3265 47.9321H59.7075C62.0136 47.9321 63.8911 50.2451 63.8911 53.0818V56.7825ZM53.4694 64.8913H36.1088V57.1906C36.1088 54.6192 38.2041 52.524 40.7755 52.524H48.8027C51.3741 52.524 53.4694 54.6192 53.4694 57.1906V64.8913ZM59.7075 45.1498H56.3265C53.3741 45.1498 51.0952 46.9253 50.1496 49.8641C49.7143 49.7825 49.2653 49.7417 48.8095 49.7417H40.7823C36.6734 49.7485 33.3333 53.0886 33.3333 57.1906V66.2723C33.3333 67.041 33.9524 67.66 34.7211 67.66H54.8639C55.6326 67.66 56.2517 67.041 56.2517 66.2723V59.5512H65.2789C66.0476 59.5512 66.6666 58.9321 66.6666 58.1634V53.075C66.6666 48.7076 63.5442 45.1498 59.7075 45.1498Z" fill="#DC688E"/>
</svg>
