<svg width="16" height="16" viewBox="0 0 16 16" fill="none" xmlns="http://www.w3.org/2000/svg">
<path fill-rule="evenodd" clip-rule="evenodd" d="M8.56554 2.76776C8.25312 2.45534 7.74659 2.45534 7.43417 2.76776C7.12175 3.08018 7.12175 3.58671 7.43417 3.89913L10.7351 7.20011H3.33345C2.89162 7.20011 2.53345 7.55828 2.53345 8.00011C2.53345 8.44194 2.89162 8.80011 3.33345 8.80011H10.7352L7.43417 12.1011C7.12175 12.4135 7.12175 12.92 7.43417 13.2325C7.74659 13.5449 8.25312 13.5449 8.56554 13.2325L13.2202 8.57776C13.3722 8.43215 13.4668 8.22718 13.4668 8.00011C13.4668 7.77296 13.3721 7.56792 13.2201 7.42229L8.56554 2.76776Z" fill="#786CE6"/>
</svg>
