<svg width="56" height="56" viewBox="0 0 56 56" fill="none" xmlns="http://www.w3.org/2000/svg">
<circle opacity="0.1" cx="28" cy="28" r="28" fill="#4694EB"/>
<path d="M20.1667 33.2083H22.25V31.125H20.1667V33.2083ZM20.1667 37.375H22.25V35.2916H20.1667V37.375ZM24.3333 33.2083H34.75V31.125H24.3333V33.2083ZM32.6667 23.8333C32.6667 20.9614 30.3302 18.625 27.4583 18.625C24.5865 18.625 22.25 20.9614 22.25 23.8333C22.25 26.7052 24.5865 29.0416 27.4583 29.0416C30.3302 29.0416 32.6667 26.7052 32.6667 23.8333ZM28.5 20.8875C29.7124 21.3175 30.5833 22.4753 30.5833 23.8333C30.5833 24.3151 30.4735 24.7718 30.2779 25.1798L28.5 23.4018V20.8875ZM24.3333 23.8333C24.3333 22.4753 25.2043 21.3175 26.4167 20.8875V24.2648L28.8048 26.6529C28.3968 26.8485 27.9402 26.9583 27.4583 26.9583C25.7352 26.9583 24.3333 25.5564 24.3333 23.8333ZM34.1242 14.6666H16V41.3333H38.9167V19.2194L34.1242 14.6666ZM36.8333 39.25H18.0833V16.75H33.2924L36.8333 20.1138V39.25ZM24.3333 37.375H34.75V35.2916H24.3333V37.375Z" fill="#4694EB"/>
</svg>
