<svg width="101" height="101" viewBox="0 0 101 101" fill="none" xmlns="http://www.w3.org/2000/svg">
<circle opacity="0.2" cx="50.5" cy="50.5" r="50.5" fill="#4694EB"/>
<path fill-rule="evenodd" clip-rule="evenodd" d="M41.3025 46.1338V53.3243C41.3025 54.1005 41.9426 54.7406 42.7188 54.7406C43.4951 54.7406 44.1351 54.1005 44.1351 53.3243V46.1338C46.2187 45.3984 47.7508 43.0969 47.7508 40.3528C47.7508 37.0231 45.4833 34.3335 42.7188 34.3335C39.9543 34.3335 37.6868 37.0231 37.6868 40.3528C37.6868 43.0901 39.2189 45.3984 41.3025 46.1338ZM42.7188 37.098C43.924 37.098 44.9863 38.5824 44.9863 40.3596C44.9863 42.13 43.9921 43.6212 42.7188 43.6212C41.4455 43.6212 40.4514 42.1368 40.4514 40.3596C40.4514 38.5824 41.5136 37.098 42.7188 37.098ZM56.0375 44.1183V53.3243C56.0375 54.1005 56.6776 54.7406 57.4538 54.7406C58.2301 54.7406 58.8702 54.1005 58.8702 53.3243V44.1183C60.8789 43.5259 62.3565 41.7146 62.4109 39.5766V35.7498C62.4109 34.9736 61.7709 34.3335 60.9946 34.3335C60.2184 34.3335 59.5783 34.9736 59.5783 35.7498V39.5766C59.5783 40.7069 58.6591 41.6329 57.5219 41.6329C56.3916 41.6329 55.4656 40.7137 55.4656 39.5766V35.7498C55.4656 34.9736 54.8255 34.3335 54.0493 34.3335C53.273 34.3335 52.633 34.9736 52.633 35.7498V39.5017C52.6398 41.701 54.0561 43.5191 56.0375 44.1183ZM65.2844 57.2191C65.9245 57.2191 66.4896 57.6413 66.6326 58.2814C66.7688 58.9146 66.4896 59.5547 65.9177 59.8407C59.6805 63.0342 58.0531 66.786 58.0531 66.786C57.842 67.2831 57.3449 67.6372 56.7797 67.6372H43.2159C42.6507 67.6372 42.1536 67.2831 41.9426 66.786C41.9426 66.786 40.3152 63.0274 34.078 59.8407C33.5128 59.5547 33.2268 58.9214 33.3698 58.2814C33.5128 57.6413 34.078 57.2191 34.718 57.2191H65.2844ZM44.067 64.8658H55.9354C56.5687 63.8785 57.9169 62.0332 60.4635 60.0517H39.5321C42.0855 62.0332 43.427 63.8717 44.067 64.8658Z" fill="#4694EB"/>
</svg>
