<svg xmlns="http://www.w3.org/2000/svg" width="70" height="70">
    <g data-name="Group 132" transform="translate(-.486)">
        <circle data-name="Ellipse 60" cx="35" cy="35" r="35" transform="translate(.486)" style="fill:rgba(70,148,235,.2)"/>
        <path data-name="Path 1407" d="M0 0h42.216v42.216H0z" style="fill:none" transform="translate(13.892 13.892)"/>
        <path data-name="Path 1408" d="M9.386 16.954h3.193v3.323H9.386zm22.352-8.308v23.262a3.27 3.27 0 0 1-3.193 3.323H6.193A3.259 3.259 0 0 1 3 31.908l.016-23.262a3.246 3.246 0 0 1 3.177-3.323h1.6V2h3.193v3.323h12.769V2h3.193v3.323h1.6a3.27 3.27 0 0 1 3.19 3.323zM6.193 11.969h22.352V8.646H6.193zm22.352 19.939V15.292H6.193v16.616zm-6.386-11.631h3.193v-3.323h-3.193zm-6.386 0h3.193v-3.323h-3.193z" transform="translate(17.631 16.385)" style="fill:#4694eb"/>
    </g>
</svg>
