<svg width="56" height="56" viewBox="0 0 56 56" fill="none" xmlns="http://www.w3.org/2000/svg">
<circle opacity="0.1" cx="28" cy="28" r="28" fill="#F5C143"/>
<path d="M29.0417 30.9166H26.9583V35.0833H31.125V33H29.0417V30.9166ZM28 26.75C23.9794 26.75 20.7083 30.021 20.7083 34.0416C20.7083 38.0623 23.9794 41.3333 28 41.3333C32.0206 41.3333 35.2917 38.0623 35.2917 34.0416C35.2917 30.021 32.0206 26.75 28 26.75ZM28 39.25C25.1281 39.25 22.7917 36.9135 22.7917 34.0416C22.7917 31.1698 25.1281 28.8333 28 28.8333C30.8719 28.8333 33.2083 31.1698 33.2083 34.0416C33.2083 36.9135 30.8719 39.25 28 39.25ZM38.2083 16.75H35.2917V14.6666H33.2083V16.75H29.0417V14.6666H26.9583V16.75H22.7917V14.6666H20.7083V16.75H17.7917C16.0685 16.75 14.6667 18.1518 14.6667 19.875V34.0416C14.6667 35.7648 16.0684 37.1666 17.7914 37.1666H18.8333L18.8331 35.0833H17.7914C17.2172 35.0833 16.75 34.616 16.75 34.0416V24.6666H39.25V34.0416C39.25 34.616 38.7828 35.0833 38.2083 35.0833H37.1667L37.1669 37.1666H38.2085C39.9316 37.1666 41.3333 35.7648 41.3333 34.0416V19.875C41.3333 18.1518 39.9314 16.75 38.2083 16.75ZM39.25 22.5833H16.75V19.875C16.75 19.3006 17.2173 18.8333 17.7917 18.8333H20.7083V20.9166H22.7917V18.8333H26.9583V20.9166H29.0417V18.8333H33.2083V20.9166H35.2917V18.8333H38.2083C38.7827 18.8333 39.25 19.3006 39.25 19.875V22.5833Z" fill="#F5C143"/>
</svg>
