<svg width="300" height="150" viewBox="0 0 300 150" fill="none" xmlns="http://www.w3.org/2000/svg">
<path opacity="0.05" fill-rule="evenodd" clip-rule="evenodd" d="M91.9354 0H87.0967V14.9516L91.9354 13.9839V0ZM77.4193 4.83872H82.258V15.9194L77.4193 16.8871V4.83872ZM137.903 72.5807H99.1935V65.3227H123.387V50.8065H125.806V38.7098H130.645V50.8065H133.064V65.3227H137.903V72.5807ZM96.7742 4.83872H101.613V12.0484L96.7742 13.0161V4.83872ZM86.492 129.29C88.2049 128.591 90.0484 128.226 91.9355 128.226V72.5806H94.3549V60.4838H111.29V15.0483L67.742 23.758V123.999C69.2952 123.602 70.9161 123.387 72.5807 123.387C77.8911 123.387 82.892 125.569 86.492 129.29ZM94.3549 31.4515H104.032V45.9677H94.3549V31.4515ZM75 31.4515H84.6774V45.9677H75V31.4515ZM75 55.6451H84.6774V70.1612H75V55.6451ZM75 79.8386H84.6774V94.3548H75V79.8386ZM75 104.032H84.6774V118.548H75V104.032ZM116.129 124.014C114.573 123.612 112.955 123.387 111.29 123.387C109.633 123.387 108.014 123.622 106.452 124.028V87.0967H116.129V124.014ZM128.054 133.064H128.226C129.046 133.064 129.847 133.154 130.645 133.256V87.0967H120.968V125.973C123.883 127.657 126.341 130.086 128.054 133.064ZM140.323 77.4193V137.385C138.856 136.207 137.233 135.254 135.484 134.54V82.258H101.613V126.005C100.065 126.9 98.6323 127.996 97.379 129.293C97.2703 129.248 97.1571 129.219 97.044 129.19L97.0439 129.19C96.9531 129.166 96.8625 129.142 96.7742 129.111V77.4193H140.323ZM140.768 145.161C138.256 140.831 133.592 137.903 128.226 137.903C127.149 137.903 126.102 138.029 125.09 138.252C123.198 132.436 117.74 128.226 111.29 128.226C105.815 128.226 101.052 131.26 98.579 135.736C96.8444 134.09 94.5145 133.065 91.9355 133.065C89.3565 133.065 87.0266 134.09 85.2919 135.736C82.8194 131.26 78.0556 128.226 72.5807 128.226C66.0581 128.226 60.5444 132.527 58.7129 138.445C57.7427 138.121 56.7242 137.903 55.6452 137.903L54.3992 137.99C52.7395 135.048 49.5847 133.065 45.9677 133.065C40.6234 133.065 36.2903 137.398 36.2903 142.742C36.2903 143.579 36.404 144.387 36.6024 145.161H31.679C31.5435 144.363 31.4516 143.557 31.4516 142.742C31.4516 134.736 37.9621 128.226 45.9677 128.226C49.8387 128.226 53.4992 129.779 56.1847 132.431C57.871 129.731 60.1911 127.529 62.9032 125.969V38.7098H29.0323V64.3065C30.7379 64.9767 32.3661 65.8646 33.871 66.9872V62.9033H38.7097V67.742H34.7952C35.6879 68.4872 36.5468 69.288 37.3355 70.1904C40.3403 70.3477 43.1782 71.1993 45.7452 72.5807H48.3871V74.2767C54.2105 78.6219 58.0645 85.9912 58.0645 94.3549C58.0645 104.865 51.9919 113.804 43.5484 117.138V121.236L29.0323 138.169V145.161H24.1936V136.377L38.7097 119.444V113.49C46.9016 112.14 53.2258 104.086 53.2258 94.3549C53.2258 83.6832 45.6266 75.0001 36.2903 75.0001C35.8742 75.0001 35.4484 75.0267 35.0177 75.0678C31.9113 70.6114 27.1331 67.742 21.7742 67.742C12.4379 67.742 4.83871 76.4251 4.83871 87.0969C4.83871 96.8275 11.1629 104.882 19.3548 106.232V109.384C17.3298 107.553 14.821 106.452 12.0968 106.452C5.42661 106.452 0 112.962 0 120.968C0 127.979 4.16371 133.841 9.67742 135.191V145.161H0V150H150H300V145.161H290.323V135.191C295.836 133.841 300 127.979 300 120.968C300 112.962 294.573 106.452 287.903 106.452C285.179 106.452 282.67 107.553 280.645 109.384V106.232C288.837 104.882 295.161 96.8275 295.161 87.0969C295.161 76.4251 287.562 67.742 278.226 67.742C272.867 67.742 268.089 70.6114 264.982 75.0678C264.552 75.0267 264.126 75.0001 263.71 75.0001C254.373 75.0001 246.774 83.6832 246.774 94.3549C246.774 104.086 253.098 112.14 261.29 113.49V119.444L275.806 136.377V145.161H270.968V138.169L256.452 121.236V117.138C248.008 113.804 241.935 104.865 241.935 94.3549C241.935 85.9912 245.79 78.6219 251.613 74.2767V72.5807H254.255C256.822 71.1993 259.66 70.3477 262.665 70.1904C263.453 69.288 264.312 68.4872 265.205 67.742H261.29V62.9033H266.129V66.9872C267.634 65.8646 269.262 64.9767 270.968 64.3065V38.7098H237.097V125.969C239.809 127.529 242.129 129.731 243.815 132.431C246.501 129.779 250.161 128.226 254.032 128.226C262.038 128.226 268.548 134.736 268.548 142.742C268.548 143.557 268.456 144.363 268.321 145.161H263.398C263.596 144.387 263.71 143.579 263.71 142.742C263.71 137.398 259.377 133.065 254.032 133.065C250.415 133.065 247.26 135.048 245.601 137.99L244.355 137.903C243.276 137.903 242.257 138.121 241.287 138.445C239.456 132.527 233.942 128.226 227.419 128.226C221.944 128.226 217.181 131.26 214.708 135.736C212.973 134.09 210.644 133.065 208.065 133.065C205.485 133.065 203.156 134.09 201.421 135.736C198.948 131.26 194.185 128.226 188.71 128.226C182.26 128.226 176.802 132.436 174.91 138.252C173.898 138.029 172.851 137.903 171.774 137.903C166.408 137.903 161.744 140.831 159.232 145.161H150H140.768ZM275.806 107.85C276.206 107.381 276.593 106.894 276.953 106.377L277.026 106.383C277.423 106.417 277.82 106.452 278.226 106.452C279.048 106.452 279.852 106.362 280.645 106.232V84.6775H275.806V107.85ZM275.806 107.85C273.213 110.898 269.821 112.873 266.129 113.487V117.653L275.806 128.944V107.85ZM24.1936 107.85C23.7944 107.381 23.4073 106.894 23.0468 106.377L22.9742 106.383C22.5774 106.417 22.1801 106.452 21.7742 106.452C20.9516 106.452 20.1484 106.362 19.3548 106.232V84.6775H24.1936V107.85ZM24.1936 107.85C26.7871 110.898 30.179 112.873 33.871 113.487V117.653L24.1936 128.944V107.85ZM38.7097 58.0646H33.871V53.2259H38.7097V58.0646ZM38.7097 48.3872H33.871V43.5485H38.7097V48.3872ZM48.3871 67.742H43.5484V62.9033H48.3871V67.742ZM48.3871 58.0646H43.5484V53.2259H48.3871V58.0646ZM48.3871 48.3872H43.5484V43.5485H48.3871V48.3872ZM53.2258 43.5485H58.0645V48.3872H53.2258V43.5485ZM53.2258 53.2259H58.0645V58.0646H53.2258V53.2259ZM53.2258 62.9033H58.0645V67.742H53.2258V62.9033ZM53.2258 77.4194V72.5807H58.0645V77.4194H53.2258ZM14.5161 135.191C16.3065 134.753 17.9468 133.827 19.3548 132.554V145.161H14.5161V135.191ZM208.065 0H212.903V14.9516L208.065 13.9839V0ZM222.581 4.83872H217.742V15.9194L222.581 16.8871V4.83872ZM162.097 72.5807H200.806V65.3227H176.613V50.8065H174.194V38.7098H169.355V50.8065H166.936V65.3227H162.097V72.5807ZM203.226 4.83872H198.387V12.0484L203.226 13.0161V4.83872ZM213.508 129.29C211.795 128.591 209.952 128.226 208.064 128.226V72.5806H205.645V60.4838H188.71V15.0483L232.258 23.758V123.999C230.705 123.602 229.084 123.387 227.419 123.387C222.109 123.387 217.108 125.569 213.508 129.29ZM205.645 31.4515H195.968V45.9677H205.645V31.4515ZM225 31.4515H215.323V45.9677H225V31.4515ZM225 55.6451H215.323V70.1612H225V55.6451ZM225 79.8386H215.323V94.3548H225V79.8386ZM225 104.032H215.323V118.548H225V104.032ZM183.871 124.014C185.427 123.612 187.045 123.387 188.71 123.387C190.367 123.387 191.985 123.622 193.548 124.028V87.0967H183.871V124.014ZM171.946 133.064H171.774C170.954 133.064 170.153 133.154 169.355 133.256V87.0967H179.032V125.973C176.117 127.657 173.659 130.086 171.946 133.064ZM159.677 77.4193V137.385C161.144 136.207 162.767 135.254 164.516 134.54V82.258H198.387V126.005C199.935 126.9 201.368 127.996 202.621 129.293C202.73 129.248 202.843 129.219 202.956 129.19C203.047 129.166 203.137 129.143 203.226 129.111V77.4193H159.677ZM261.29 58.0646H266.129V53.2259H261.29V58.0646ZM261.29 48.3872H266.129V43.5485H261.29V48.3872ZM251.613 67.742H256.452V62.9033H251.613V67.742ZM251.613 58.0646H256.452V53.2259H251.613V58.0646ZM251.613 48.3872H256.452V43.5485H251.613V48.3872ZM246.774 43.5485H241.935V48.3872H246.774V43.5485ZM246.774 53.2259H241.935V58.0646H246.774V53.2259ZM246.774 62.9033H241.935V67.742H246.774V62.9033ZM246.774 77.4194V72.5807H241.935V77.4194H246.774ZM285.484 135.191C283.694 134.753 282.053 133.827 280.645 132.554V145.161H285.484V135.191Z" fill="#292D34"/>
<path d="M169.439 90.5488H130.415L105.79 96.8027C97.679 98.8625 92 106.164 92 114.533V150H207.854V114.533C207.854 106.164 202.175 98.8628 194.064 96.8027L169.439 90.5488Z" fill="#786CE6"/>
<path d="M164.705 121.016L172.448 91.3128L169.439 90.5488H130.415L127.408 91.3125L135.521 121.037L144.806 112.194L147.183 117.74L143.83 150H149.927H156.025L152.671 117.74L155.097 112.079L164.705 121.016Z" fill="#6257C0"/>
<path d="M163.341 78.4109V86.0329L149.926 103.106L136.512 86.0329V78.4109H163.341Z" fill="#FFD3B3"/>
<path d="M136.512 83.8988C140.627 85.6826 145.163 86.8902 149.926 86.8902C154.69 86.8902 159.225 85.6826 163.341 83.8988V78.4109H136.512V83.8988Z" fill="#FCB98B"/>
<path d="M177.488 31.7073V54.3256C177.488 69.6482 165.066 82.0695 149.744 82.0695C134.421 82.0695 122 69.6482 122 54.3256V31.7073H177.488Z" fill="#FFD3B3"/>
<path d="M122.183 51.5244L128.585 31.7073H122.183V51.5244Z" fill="#6257C0"/>
<path d="M171.268 31.7073L177.67 51.5244V31.7073H171.268Z" fill="#6257C0"/>
<path d="M117.915 50.3049H122.183V35.3658H117.915C116.231 35.3658 114.866 36.7308 114.866 38.4146V47.2561C114.866 48.9399 116.231 50.3049 117.915 50.3049Z" fill="#FFD3B3"/>
<path d="M181.939 50.3049H177.671V35.3658H181.939C183.623 35.3658 184.988 36.7308 184.988 38.4146V47.2561C184.988 48.9399 183.623 50.3049 181.939 50.3049Z" fill="#FFD3B3"/>
<path d="M136.513 86.0329L130.415 90.5488L137.122 115.301L149.927 103.106L136.513 86.0329Z" fill="#786CE6"/>
<path d="M163.341 86.0329L169.439 90.5488L162.732 115.301L149.927 103.106L163.341 86.0329Z" fill="#786CE6"/>
<path d="M149.927 38.4726H177.373L191.086 21.9512L176.756 7.0122L149.927 0L123.098 7.0122L108.769 21.9512L122.481 38.4726H149.927Z" fill="#6257C0"/>
<path d="M149.927 0L123.098 7.0122L135.702 38.4726H149.927H164.152L176.756 7.0122L149.927 0Z" fill="#786CE6"/>
<path d="M122.184 43.2927C122.184 43.2927 124.825 46.6463 149.927 46.6463C175.03 46.6463 177.671 43.2927 177.671 43.2927V38.4146H122.184V43.2927Z" fill="#786CE6"/>
<path d="M149.927 38.7195C132.69 38.7195 122.184 43.5976 122.184 43.5976V34.4512C122.184 34.4512 132.69 29.5732 149.927 29.5732C167.165 29.5732 177.671 34.4512 177.671 34.4512V43.5976C177.671 43.5976 167.165 38.7195 149.927 38.7195Z" fill="#6257C0"/>
<path d="M177.671 35.3658H179.5V41.7683H177.671V35.3658Z" fill="#FFE352"/>
<path d="M120.354 35.3658H122.183V41.7683H120.354V35.3658Z" fill="#FFE352"/>
<path d="M149.927 29.5732C149.927 29.5732 159.378 28.0488 159.378 20.4268C159.378 18.9024 157.853 17.0732 157.853 14.6341C157.853 13.5049 158.452 10.9192 160.597 9.45122L158.768 6.09756C153.89 7.92682 149.927 5.18292 149.927 5.18292C149.927 5.18292 145.963 7.92682 141.085 6.09756L139.256 9.45122C141.401 10.9192 142 13.5049 142 14.6341C142 17.0732 140.475 18.9024 140.475 20.4268C140.475 28.0488 149.927 29.5732 149.927 29.5732Z" fill="#FFE352"/>
<path d="M109.073 137.805H112.122V150H109.073V137.805Z" fill="#6257C0"/>
<path d="M187.731 137.805H190.78V150H187.731V137.805Z" fill="#6257C0"/>
<path d="M163.342 137.805H181.634V140.854H163.342V137.805Z" fill="#6257C0"/>
<path d="M118.22 137.805H136.512V140.854H118.22V137.805Z" fill="#6257C0"/>
<path d="M160.884 54.4803V57.4794C160.884 58.8495 161.994 59.9597 163.364 59.9597C164.734 59.9597 165.844 58.8495 165.844 57.4794V54.4803C165.844 53.1102 164.734 52 163.364 52C161.994 52 160.884 53.1102 160.884 54.4803Z" fill="#7B5D47"/>
<path d="M134 54.4803V57.4794C134 58.8495 135.11 59.9597 136.48 59.9597C137.85 59.9597 138.961 58.8495 138.961 57.4794V54.4803C138.961 53.1102 137.85 52 136.48 52C135.11 52 134 53.1102 134 54.4803Z" fill="#7B5D47"/>
<path d="M154.005 67.4114C151.182 69.5543 148.663 69.5543 145.839 67.4114C144.748 66.5836 143.192 66.7969 142.364 67.8876C141.536 68.9789 141.749 70.5345 142.84 71.363C145.157 73.121 147.54 74 149.922 74C152.305 74 154.688 73.1213 157.004 71.363C158.096 70.5345 158.309 68.9789 157.48 67.8876C156.652 66.7963 155.097 66.583 154.005 67.4114Z" fill="#D1554D"/>
</svg>
