<svg width="40" height="40" viewBox="0 0 40 40" fill="none" xmlns="http://www.w3.org/2000/svg">
<path fill-rule="evenodd" clip-rule="evenodd" d="M32.6818 15.104H35.2318C36.0138 15.104 36.653 15.7364 36.6666 16.5183V23.4747C36.6666 24.2567 36.0274 24.8959 35.2454 24.8959H32.6954C32.6875 24.9183 32.6796 24.9408 32.6717 24.9633C32.6053 25.1529 32.5374 25.3467 32.4098 25.5351L34.1846 27.3099C34.749 27.8743 34.749 28.731 34.1846 29.2954L29.2954 34.1846C28.731 34.749 27.8743 34.749 27.3099 34.1846L25.5351 32.4098C25.4349 32.4454 25.3333 32.4962 25.2315 32.5471C25.1191 32.6034 25.0066 32.6597 24.8959 32.6954V35.2454C24.8959 36.0274 24.2567 36.6666 23.4747 36.6666H16.5251C15.7432 36.6666 15.104 36.0274 15.104 35.2454V32.6954C15.0815 32.6875 15.0591 32.6796 15.0365 32.6717C14.847 32.6053 14.6532 32.5374 14.4648 32.4098L12.69 34.1846C12.1256 34.749 11.2688 34.749 10.7044 34.1846L5.81523 29.2954C5.52963 29.0098 5.38684 28.6563 5.38684 28.3027C5.38684 27.9491 5.52963 27.5955 5.81523 27.3099L7.59002 25.5351C7.55449 25.4349 7.50362 25.3333 7.45271 25.2315C7.39644 25.1191 7.34012 25.0065 7.30442 24.8959H4.75444C3.97245 24.8959 3.33325 24.2567 3.33325 23.4747V16.5251C3.33325 15.7432 3.97245 15.104 4.75444 15.104H7.29762C7.30557 15.0815 7.31345 15.0591 7.32134 15.0365C7.38772 14.847 7.4556 14.6532 7.58322 14.4648L5.80843 12.69C5.52283 12.4044 5.38004 12.0508 5.38004 11.6972C5.38004 11.3436 5.52283 10.99 5.80843 10.7044L10.6976 5.81523C11.262 5.25084 12.1188 5.25084 12.6832 5.81523L14.458 7.59002C14.5581 7.55449 14.6598 7.50362 14.7615 7.45271C14.8739 7.39644 14.9865 7.34012 15.0972 7.30442V4.75444C15.0972 3.97245 15.7364 3.33325 16.5183 3.33325H23.4611C24.2431 3.33325 24.8823 3.97245 24.8823 4.75444V7.30442C24.9047 7.31237 24.9272 7.32025 24.9497 7.32814C25.1393 7.39452 25.3331 7.4624 25.5215 7.59002L27.2963 5.81523C27.8607 5.25084 28.7175 5.25084 29.2818 5.81523L34.171 10.7044C34.7354 11.2688 34.7354 12.1256 34.171 12.69L32.3962 14.4648C32.4318 14.5649 32.4826 14.6666 32.5335 14.7683C32.5898 14.8807 32.6461 14.9933 32.6818 15.104ZM31.689 22.0467H33.8174V17.9327H31.689C31.0498 17.9327 30.4854 17.5043 30.3426 16.9399C30.1318 16.2327 29.8462 15.5256 29.4926 14.8864C29.207 14.322 29.275 13.6828 29.7034 13.1864L31.1926 11.6972L28.2891 8.79361L26.7931 10.2828C26.3715 10.7044 25.6575 10.8472 25.0931 10.4936C24.4607 10.14 23.7467 9.8544 23.0395 9.6436C22.4751 9.4328 22.0467 8.93641 22.0467 8.29721V6.16883H17.9327V8.29721C17.9327 8.93641 17.5043 9.5008 16.9399 9.6436C16.2327 9.8544 15.5256 10.14 14.8864 10.4936C14.322 10.7792 13.6828 10.7112 13.1864 10.2828L11.6972 8.79361L8.79361 11.6972L10.2828 13.1932C10.7044 13.6148 10.8472 14.3288 10.4936 14.8932C10.14 15.5256 9.8544 16.2395 9.6436 16.9467C9.4328 17.5111 8.93641 17.9395 8.29721 17.9395H6.16883V22.0535H8.29721C8.93641 22.0535 9.5008 22.4819 9.6436 23.0463C9.8544 23.7535 10.14 24.4607 10.4936 25.0999C10.7792 25.6643 10.7112 26.3035 10.2828 26.7999L8.79361 28.2891L11.6972 31.1926L13.1932 29.7034C13.6148 29.2818 14.3288 29.139 14.8932 29.4926C15.5256 29.8462 16.2395 30.1318 16.9467 30.3426C17.5111 30.5534 17.9395 31.0498 17.9395 31.689V33.8174H22.0535V31.689C22.0535 31.0498 22.4819 30.4854 23.0463 30.3426C23.7535 30.1318 24.4607 29.8462 25.0999 29.4926C25.6643 29.207 26.3035 29.275 26.7999 29.7034L28.2891 31.1926L31.1926 28.2823L29.7034 26.7931C29.2818 26.3715 29.139 25.6575 29.4926 25.0931C29.8462 24.4607 30.1318 23.7467 30.3426 23.0395C30.5534 22.4751 31.0498 22.0467 31.689 22.0467ZM12.2684 19.9931C12.2684 15.7432 15.7364 12.2684 19.9931 12.2684C24.2499 12.2684 27.7179 15.7364 27.7179 19.9931C27.7179 24.2499 24.2499 27.7179 19.9931 27.7179C15.7364 27.7179 12.2684 24.2431 12.2684 19.9931ZM15.104 19.9931C15.104 22.6859 17.3003 24.8823 19.9931 24.8823C22.6859 24.8823 24.8823 22.6859 24.8823 19.9931C24.8823 17.3003 22.6859 15.104 19.9931 15.104C17.3003 15.104 15.104 17.3003 15.104 19.9931Z" fill="#F5C143"/>
</svg>
