<svg width="101" height="101" viewBox="0 0 101 101" fill="none" xmlns="http://www.w3.org/2000/svg">
<circle opacity="0.2" cx="50.5" cy="50.5" r="50.5" fill="#F5C143"/>
<path fill-rule="evenodd" clip-rule="evenodd" d="M54.3502 36.9051C53.2253 36.7227 52.4652 35.6484 52.6476 34.5235L52.9415 32.7296C53.1239 31.6047 54.1982 30.8446 55.3231 31.027C56.4481 31.2095 57.2082 32.2837 57.0257 33.4087L56.7318 35.2025C56.5596 36.216 55.5461 37.0977 54.3502 36.9051ZM39.5029 39.2057L38.4489 37.726C37.78 36.7936 38.0029 35.5065 38.9252 34.8376C39.8576 34.1687 41.1447 34.3917 41.8136 35.314L42.8676 36.7936C43.5364 37.726 43.354 39.0739 42.3912 39.682C41.1751 40.4421 39.9082 39.7732 39.5029 39.2057ZM64.7686 43.4014C64.0997 42.469 64.3227 41.1819 65.2449 40.513L66.7246 39.459C67.657 38.7901 68.9441 39.003 69.613 39.9354C70.2818 40.8677 70.0589 42.1548 69.1366 42.8237L67.657 43.8777C66.3901 44.648 65.1639 43.9588 64.7686 43.4014ZM41.8744 59.7689C39.959 57.1643 39.2495 53.9313 39.7765 50.7389C40.3035 47.5465 42.0467 44.7595 44.6817 42.8744C50.1139 38.9929 57.6946 40.2496 61.5761 45.6817C62.245 46.6141 62.0221 47.9012 61.0998 48.5701C60.1674 49.2288 58.8803 49.016 58.2114 48.0938C55.6575 44.5162 50.6611 43.6953 47.0937 46.2493C45.3607 47.4857 44.2155 49.3302 43.8709 51.4281C43.5264 53.5259 44.0128 55.6339 45.2492 57.367C45.9181 58.2993 45.7154 59.6067 44.7729 60.2553C43.8101 60.8938 42.5129 60.6404 41.8744 59.7689ZM34.3038 62.6269C33.3816 63.2958 33.1586 64.5829 33.8275 65.5153C34.2329 66.0828 35.5098 66.7618 36.7159 65.9916L38.1955 64.9376C39.1178 64.2687 39.3407 62.9816 38.6719 62.0492C38.003 61.127 36.7159 60.9141 35.7835 61.5729L34.3038 62.6269ZM31.7296 51.5092L33.5235 51.8031C34.8612 51.9348 35.7328 51.1139 35.9051 50.1004C36.0875 48.9755 35.3274 47.9012 34.2025 47.7188L32.4087 47.4249C31.2837 47.2425 30.2095 48.0026 30.027 49.1275C29.8446 50.2525 30.6047 51.3267 31.7296 51.5092ZM58.5513 68.4507L62.3241 70.5331C62.9517 70.8122 63.5584 70.6046 63.8513 70.4615C64.2837 70.161 64.4998 69.567 64.4301 69.0446L63.7048 64.5793L66.8221 61.3806C67.1847 61.0085 67.3311 60.4146 67.1847 59.8922C66.9685 59.3698 66.5361 58.9977 66.0271 58.9261L61.7453 58.2535L59.8554 54.1603C59.5695 53.645 59.1302 53.3445 58.5513 53.3445C57.9725 53.3445 57.4635 53.6379 57.2473 54.1603L55.3574 58.2535L51.0756 58.9261C50.4968 58.9977 50.0644 59.3698 49.918 59.8922C49.7715 60.4146 49.918 61.0085 50.2806 61.3806L53.3978 64.5793L52.6726 69.0446C52.5959 69.567 52.819 70.161 53.2514 70.4615C53.6907 70.7549 54.2695 70.8336 54.7786 70.5331L58.5513 68.4507ZM61.0897 66.5186L59.1302 65.4738C59.1125 65.4674 59.0927 65.4598 59.0711 65.4514C58.8276 65.3574 58.3441 65.1708 57.8958 65.5454L55.9362 66.5901L56.0827 64.2072C56.2291 63.7564 56.0129 63.2412 55.72 62.9406L54.1231 61.3019L56.3756 60.9298C56.8846 60.8582 57.2473 60.5577 57.4635 60.114L58.4049 58.1032L59.3463 60.114C59.5625 60.5577 60.0019 60.8582 60.4342 60.9298L62.6867 61.3019L61.0897 62.9406C60.7968 63.2412 60.6574 63.7635 60.7271 64.2072L61.0897 66.5186Z" fill="#F5C143"/>
</svg>
