<svg width="101" height="101" viewBox="0 0 101 101" fill="none" xmlns="http://www.w3.org/2000/svg">
<circle opacity="0.2" cx="50.5" cy="50.5" r="50.5" fill="#5A5DC3"/>
<path fill-rule="evenodd" clip-rule="evenodd" d="M66.2157 61.324L61.1931 56.3014C60.2824 55.513 59.494 56.016 59.2153 56.3014C57.8696 57.6471 56.9521 57.6471 56.3132 57.5044C55.3957 57.3617 54.4034 56.7296 53.2004 55.5266L45.5001 47.8194C44.3718 46.6165 43.733 45.6242 43.5223 44.7067C43.3796 44.0678 43.3796 43.1503 44.7253 41.8046C45.2894 41.2405 45.2894 40.3909 44.7253 39.8268L39.6347 34.7362C39.0638 34.1721 38.0172 34.1314 37.4055 35.0625C32.4712 40.2278 31.9207 47.8942 36.3044 52.21L48.6808 64.6543C54.8588 70.5128 63.198 66.5845 66.2157 63.3086C66.7594 62.7173 66.7798 61.8881 66.2157 61.324ZM50.6586 62.6697L38.2822 50.2934C35.1558 47.167 35.4481 41.7706 38.7172 37.7879L41.8096 40.8802C40.8173 42.2327 40.4775 43.694 40.7561 45.2028C41.0416 46.6844 41.9591 48.1729 43.5155 49.7292L51.2227 57.4364C52.7791 58.9928 54.2607 59.9103 55.7491 60.1958C57.2308 60.4812 58.7192 60.1278 60.0649 59.1355L63.1777 62.2483C59.1406 65.497 53.7714 65.7825 50.6586 62.6697ZM55.1374 48.3632H48.9255C48.4429 48.3632 48.0147 48.0777 47.8312 47.6359C47.6477 47.1942 47.7429 46.6844 48.0827 46.3446L52.7247 41.6279C52.8878 41.39 52.9762 41.1113 52.9762 40.8123C52.9762 40.0239 52.3373 39.385 51.5489 39.385C50.7605 39.385 50.1217 40.0239 50.1217 40.8123C50.1217 41.4715 49.5915 42.0017 48.9323 42.0017C48.273 42.0017 47.7429 41.4715 47.7429 40.8123C47.7429 38.7122 49.4488 37.0063 51.5489 37.0063C53.649 37.0063 55.3549 38.7122 55.3549 40.8123C55.3549 41.655 55.0831 42.4502 54.5801 43.1163C54.5616 43.1441 54.5399 43.1687 54.5173 43.1944L54.5173 43.1945C54.5066 43.2065 54.4958 43.2188 54.485 43.2318L51.7732 45.9912H55.1442C55.8035 45.9912 56.3336 46.5213 56.3336 47.1806C56.3336 47.8398 55.7899 48.3632 55.1374 48.3632ZM61.1251 47.1738C61.1251 47.833 61.6552 48.3632 62.3145 48.3632C62.9738 48.3632 63.5039 47.833 63.5107 47.1738V45.8145H64.0544C64.7137 45.8145 65.2438 45.2844 65.2438 44.6251C65.2438 43.9658 64.7137 43.4357 64.0544 43.4357H63.5107V38.1889C63.5107 37.6859 63.1912 37.2373 62.7223 37.0674C62.2533 36.8975 61.7232 37.0402 61.4038 37.4276L56.0482 43.8639C55.7491 44.2173 55.6879 44.7135 55.885 45.128C56.0753 45.5494 56.4967 45.8145 56.9589 45.8145H61.1251V47.1738ZM61.1183 43.4357H59.494L61.1183 41.4783V43.4357Z" fill="#5A5DC3"/>
</svg>
