<svg xmlns="http://www.w3.org/2000/svg" width="70" height="70">
    <g data-name="Group 135" transform="translate(.497)">
        <circle data-name="Ellipse 62" cx="35" cy="35" r="35" transform="translate(-.497)" style="fill:rgba(140,202,133,.2)"/>
        <path data-name="Rectangle 62" transform="translate(13.503 14)" style="fill:none" d="M0 0h42v42H0z"/>
        <path data-name="Path 1410" d="M36.842 7.54 16.964 27.434l-7.386-7.386 2.456-2.456 4.93 4.93L34.385 5.1zM19.421 33.357a13.937 13.937 0 1 1 7.456-25.7L29.4 5.136a17.423 17.423 0 1 0-9.982 31.706 17.245 17.245 0 0 0 8.327-2.125l-2.61-2.617a13.637 13.637 0 0 1-5.714 1.257zm12.195-8.71h-5.227v3.484h5.226v5.226H35.1v-5.226h5.226v-3.484H35.1v-5.226h-3.485z" transform="translate(15.483 15.319)" style="fill:#8cca85"/>
    </g>
</svg>
