<svg width="101" height="101" viewBox="0 0 101 101" fill="none" xmlns="http://www.w3.org/2000/svg">
<circle opacity="0.2" cx="50.5" cy="50.5" r="50.5" fill="#48D1C9"/>
<path d="M66.2542 64.7714H63.2881V37.794C63.2881 37.5711 63.2356 37.3599 63.1426 37.1719C63.0859 36.2245 62.2842 34.3335 50.9293 34.3335C38.7118 34.3335 38.7118 36.5228 38.7118 37.3702C38.7118 37.4422 38.7174 37.5129 38.7278 37.5821C38.7173 37.6512 38.7118 37.722 38.7118 37.7939V64.7713H35.7457C34.9689 64.7714 34.3333 65.407 34.3333 66.1838C34.3333 66.9606 34.9689 67.5963 35.7457 67.5963H66.2542C67.031 67.5963 67.596 67.0313 67.6666 66.1838C67.6666 65.407 67.031 64.7714 66.2542 64.7714ZM41.5367 37.9916C42.2083 37.7521 43.5896 37.4845 45.6327 37.303V42.4913C43.8455 42.6303 42.52 42.8414 41.5367 43.0903V37.9916ZM41.5367 45.9718C42.2083 45.7323 43.5896 45.4647 45.6327 45.2832V51.1071C43.8455 51.2461 42.52 51.4572 41.5367 51.706V45.9718ZM60.4633 43.1267C59.492 42.8688 58.169 42.6484 56.3672 42.5024V37.3204C58.4213 37.5132 59.8131 37.7888 60.4633 37.9996V43.1267ZM60.4633 45.9798V51.7425C59.492 51.4846 58.169 51.2642 56.3672 51.1183V45.3006C58.4213 45.4935 59.8131 45.769 60.4633 45.9798ZM53.5424 50.967C52.7402 50.9426 51.8712 50.9296 50.9293 50.9296C50.0425 50.9296 49.2204 50.9412 48.4576 50.9629V45.1122C49.2457 45.084 50.0926 45.068 51 45.068C51.9051 45.068 52.753 45.0857 53.5424 45.1167V50.967ZM41.5367 54.5876C42.2083 54.3481 43.5896 54.0805 45.6327 53.8991V59.6523C43.8455 59.7913 42.52 60.0024 41.5367 60.2513V54.5876ZM48.4576 53.728C49.2457 53.6998 50.0926 53.6838 51 53.6838C51.9051 53.6838 52.753 53.7015 53.5424 53.7325V59.5123C52.7402 59.4879 51.8712 59.4748 50.9293 59.4748C50.0425 59.4748 49.2204 59.4864 48.4576 59.5082V53.728ZM56.3672 53.9165C58.4213 54.1093 59.8131 54.3849 60.4633 54.5957V60.2878C59.492 60.0299 58.169 59.8095 56.3672 59.6635V53.9165ZM51 37.0877C51.9051 37.0877 52.753 37.1054 53.5424 37.1364V42.3512C52.7402 42.3268 51.8712 42.3138 50.9293 42.3138C50.0425 42.3138 49.2204 42.3254 48.4576 42.3471V37.1319C49.2457 37.1038 50.0926 37.0877 51 37.0877ZM41.5367 63.1328C42.6875 62.7224 45.9183 62.229 51 62.229C56.0629 62.229 59.35 62.7799 60.4633 63.1409V64.7714H41.5367V63.1328Z" fill="#48D1C9"/>
</svg>
