<svg xmlns="http://www.w3.org/2000/svg" width="70" height="70">
    <g data-name="Group 136" transform="translate(.492)">
        <circle data-name="Ellipse 64" cx="35" cy="35" r="35" transform="translate(-.492)" style="fill:rgba(120,108,230,.2)"/>
        <g data-name="pending_actions_black_24dp (1)">
            <path data-name="Rectangle 206" transform="translate(13.508 14)" style="fill:none" d="M0 0h42v42H0z"/>
            <path data-name="Path 2005" d="M26.809 20.3a8.773 8.773 0 1 0 8.773 8.773 8.776 8.776 0 0 0-8.773-8.773zM29.7 33.2l-3.772-3.772v-5.619h1.755v4.9l3.246 3.246zM28.563 4.509h-5.579a5.243 5.243 0 0 0-9.9 0H7.509A3.519 3.519 0 0 0 4 8.018v26.318a3.519 3.519 0 0 0 3.509 3.509h10.72a11.831 11.831 0 0 1-2.491-3.509H7.509V8.018h3.509v5.264h14.036V8.018h3.509v8.913a12.335 12.335 0 0 1 3.509 1.053V8.018a3.519 3.519 0 0 0-3.509-3.509zM18.036 8.018a1.755 1.755 0 1 1 1.755-1.755 1.76 1.76 0 0 1-1.755 1.755z" transform="translate(16.472 14.701)" style="fill:#786ce6"/>
        </g>
    </g>
</svg>
