<svg width="40" height="40" viewBox="0 0 40 40" fill="none" xmlns="http://www.w3.org/2000/svg">
<path d="M35.2319 3.3335H13.9685C13.1865 3.3335 12.5473 3.97269 12.5473 4.75468V12.5542H4.75456C3.97257 12.5542 3.33337 13.1934 3.33337 13.9754V35.2456C3.33337 36.0276 3.97257 36.6668 4.75456 36.6668H26.0248C26.8068 36.6668 27.446 36.0276 27.446 35.2456V27.4393H35.2455C36.0275 27.4393 36.6667 26.8001 36.6667 26.0181V4.75468C36.6531 3.97269 36.0139 3.3335 35.2319 3.3335ZM24.6036 33.8857H6.10095V15.383H12.5541V26.0181C12.5541 26.8001 13.1933 27.4393 13.9753 27.4393H24.6104V33.8857H24.6036ZM24.6036 24.6037H15.3829V15.383H24.5968V24.6037H24.6036ZM33.8855 24.6037H27.4324V13.9686C27.4324 13.1866 26.7932 12.5474 26.0112 12.5474H15.3829V6.10107H33.8855V24.6037Z" fill="#8CCA85"/>
</svg>
