<svg xmlns="http://www.w3.org/2000/svg" xmlns:xlink="http://www.w3.org/1999/xlink" width="338" height="133" viewBox="0 0 338 133">
  <defs>
    <filter id="Rectangle_198" x="0" y="0" width="338" height="133" filterUnits="userSpaceOnUse">
      <feOffset dy="3" input="SourceAlpha"/>
      <feGaussianBlur stdDeviation="8" result="blur"/>
      <feFlood flood-opacity="0.161"/>
      <feComposite operator="in" in2="blur"/>
      <feComposite in="SourceGraphic"/>
    </filter>
    <filter id="Rectangle_198-2" x="0" y="0" width="133" height="133" filterUnits="userSpaceOnUse">
      <feOffset dy="3" input="SourceAlpha"/>
      <feGaussianBlur stdDeviation="8" result="blur-2"/>
      <feFlood flood-color="#786ce6" flood-opacity="0.161"/>
      <feComposite operator="in" in2="blur-2"/>
      <feComposite in="SourceGraphic"/>
    </filter>
  </defs>
  <g id="Group_281" data-name="Group 281" transform="translate(-290 -568)">
    <g transform="matrix(1, 0, 0, 1, 290, 568)" filter="url(#Rectangle_198)">
      <g id="Rectangle_198-3" data-name="Rectangle 198" transform="translate(24 21)" fill="rgba(255,255,255,0)" stroke="#786ce6" stroke-width="1" stroke-dasharray="4">
        <rect width="290" height="85" rx="42.5" stroke="none"/>
        <rect x="0.5" y="0.5" width="289" height="84" rx="42" fill="none"/>
      </g>
    </g>
    <g id="Group_279" data-name="Group 279" transform="translate(-3659 1068)">
      <text id="View_Demo_Video" data-name="View Demo Video" transform="translate(4147.611 -429.5)" fill="#786ce6" font-size="18" font-family="SegoeUI-Semibold, Segoe UI" font-weight="600" letter-spacing="-0.01em"><tspan x="-71.689" y="0">View Demo Video</tspan></text>
      <g id="Group_278" data-name="Group 278">
        <g transform="matrix(1, 0, 0, 1, 3949, -500)" filter="url(#Rectangle_198-2)">
          <rect id="Rectangle_198-4" data-name="Rectangle 198" width="85" height="85" rx="42.5" transform="translate(24 21)" fill="#fff"/>
        </g>
        <g id="play_circle_black_24dp" transform="translate(3980.993 -470.007)">
          <g id="Group_271" data-name="Group 271" transform="translate(0.007 0.007)">
            <rect id="Rectangle_197" data-name="Rectangle 197" width="68.399" height="68.399" transform="translate(0 0)" fill="none"/>
          </g>
          <g id="Group_272" data-name="Group 272" transform="translate(5.708 5.708)">
            <path id="Path_1994" data-name="Path 1994" d="M30.5,2A28.5,28.5,0,1,0,59,30.5,28.508,28.508,0,0,0,30.5,2Zm0,51.3A22.8,22.8,0,1,1,53.3,30.5,22.829,22.829,0,0,1,30.5,53.3Zm-7.124-9.974L43.322,30.5,23.373,17.674Z" transform="translate(-2 -2)" fill="#786ce6"/>
          </g>
        </g>
      </g>
    </g>
  </g>
</svg>
